<?xml version="1.0" encoding="UTF-8" standalone="no"?>
<svg width="194px" height="82px" viewBox="0 0 194 82" version="1.1" xmlns="http://www.w3.org/2000/svg" xmlns:xlink="http://www.w3.org/1999/xlink" xmlns:sketch="http://www.bohemiancoding.com/sketch/ns">
    <!-- Generator: Sketch 3.2.2 (9983) - http://www.bohemiancoding.com/sketch -->
    <title>dgfs text</title>
    <desc>Created with Sketch.</desc>
    <defs></defs>
    <g id="Page-1" stroke="none" stroke-width="1" fill="none" fill-rule="evenodd" sketch:type="MSPage">
        <g id="dgfs-text" sketch:type="MSLayerGroup" fill="#000000">
            <g id="Group" sketch:type="MSShapeGroup">
                <path d="M6.886,52.348 C1.845,52.348 0.19,50.116 0.19,45.22 L0.19,23.041 C0.19,18.217 2.494,15.913 6.886,15.913 L28.128,15.913 L28.128,20.089 L8.398,20.089 C5.734,20.089 4.87,21.025 4.87,23.977 L4.87,44.427 C4.87,47.163 5.59,48.243 8.398,48.243 L31.728,48.243 L31.728,0.647 L36.336,0.647 L36.336,52.348 L6.886,52.348 L6.886,52.348 Z" id="Shape"></path>
                <path d="M46.197,67.613 L46.197,63.509 L72.695,63.509 C75.575,63.509 76.367,62.357 76.367,59.476 L76.367,20.089 L53.037,20.089 C50.229,20.089 49.509,21.169 49.509,24.049 L49.509,44.426 C49.509,47.162 50.229,48.242 53.037,48.242 L72.767,48.242 L72.767,52.346 L51.453,52.346 C46.485,52.346 44.828,50.114 44.828,45.218 L44.828,23.041 C44.828,18.145 46.484,15.913 51.453,15.913 L80.975,15.913 L80.975,60.485 C80.975,65.381 79.391,67.613 74.422,67.613 L46.197,67.613 L46.197,67.613 Z" id="Shape"></path>
                <path d="M89.541,52.348 L89.541,9 C89.541,2.879 91.629,0.647 96.166,0.647 L106.823,0.647 L106.823,4.824 L97.534,4.824 C95.158,4.824 94.221,5.904 94.221,9 L94.221,15.913 L106.534,15.913 L106.534,19.873 L94.221,19.873 L94.221,52.348 L89.541,52.348 L89.541,52.348 Z" id="Shape"></path>
                <path d="M113.875,52.348 L113.875,48.244 L141.31,48.244 C143.974,48.244 144.694,47.308 144.694,44.86 L144.694,38.739 C144.694,36.867 143.974,36.003 141.741,36.003 L119.347,36.003 C115.531,36.003 113.874,33.986 113.874,30.818 L113.874,22.249 C113.874,17.929 115.53,15.913 120.427,15.913 L149.013,15.913 L149.013,20.089 L122.011,20.089 C119.275,20.089 118.555,21.025 118.555,23.617 L118.555,29.017 C118.555,31.033 119.275,32.041 121.579,32.041 L143.973,32.041 C147.717,32.041 149.446,34.057 149.446,37.153 L149.446,46.01 C149.446,50.33 147.717,52.346 142.893,52.346 L113.875,52.346 L113.875,52.348 Z" id="Shape"></path>
            </g>
            <g id="Group" transform="translate(89.000000, 60.000000)" sketch:type="MSShapeGroup">
                <path d="M0.989,7.443 L0.989,0.243 L3.449,0.243 C3.649,0.243 3.845,0.248 4.039,0.259 C4.232,0.269 4.422,0.292 4.609,0.328 C4.796,0.365 4.977,0.42 5.154,0.493 C5.33,0.566 5.502,0.663 5.669,0.783 C5.909,0.957 6.106,1.168 6.259,1.418 C6.412,1.668 6.534,1.932 6.624,2.208 C6.714,2.485 6.777,2.765 6.814,3.049 C6.851,3.332 6.869,3.594 6.869,3.833 C6.869,4.073 6.854,4.316 6.824,4.563 C6.794,4.81 6.745,5.051 6.679,5.288 C6.612,5.525 6.524,5.752 6.414,5.969 C6.304,6.186 6.165,6.384 5.999,6.564 C5.832,6.751 5.651,6.901 5.454,7.014 C5.257,7.127 5.051,7.215 4.834,7.279 C4.618,7.342 4.393,7.385 4.159,7.409 C3.925,7.433 3.689,7.444 3.449,7.444 L0.989,7.444 L0.989,7.443 Z M1.669,6.863 L3.299,6.863 C3.606,6.863 3.894,6.844 4.164,6.808 C4.434,6.771 4.709,6.679 4.989,6.533 C5.229,6.413 5.426,6.25 5.579,6.043 C5.732,5.837 5.854,5.611 5.944,5.368 C6.034,5.125 6.097,4.87 6.134,4.603 C6.171,4.336 6.189,4.08 6.189,3.832 C6.189,3.572 6.172,3.308 6.139,3.037 C6.106,2.767 6.042,2.511 5.949,2.267 C5.856,2.023 5.729,1.8 5.569,1.597 C5.409,1.394 5.202,1.225 4.949,1.092 C4.736,0.979 4.482,0.905 4.189,0.871 C3.896,0.838 3.599,0.821 3.299,0.821 L1.669,0.821 L1.669,6.863 L1.669,6.863 Z" id="Shape"></path>
                <path d="M8.489,4.993 C8.489,5.273 8.526,5.538 8.599,5.788 C8.672,6.038 8.78,6.255 8.924,6.438 C9.068,6.621 9.249,6.768 9.469,6.877 C9.689,6.987 9.943,7.042 10.229,7.042 C10.622,7.042 10.959,6.939 11.239,6.732 C11.519,6.525 11.706,6.232 11.799,5.852 L12.469,5.852 C12.396,6.098 12.299,6.327 12.179,6.537 C12.059,6.747 11.909,6.931 11.729,7.087 C11.549,7.244 11.335,7.366 11.089,7.452 C10.842,7.539 10.556,7.582 10.229,7.582 C9.815,7.582 9.459,7.513 9.159,7.372 C8.859,7.232 8.613,7.041 8.419,6.798 C8.226,6.554 8.082,6.268 7.989,5.938 C7.896,5.608 7.849,5.252 7.849,4.873 C7.849,4.494 7.904,4.137 8.014,3.804 C8.124,3.47 8.28,3.179 8.484,2.929 C8.687,2.679 8.936,2.482 9.229,2.338 C9.522,2.195 9.855,2.123 10.229,2.123 C10.942,2.123 11.502,2.368 11.909,2.858 C12.316,3.348 12.516,4.06 12.509,4.993 L8.489,4.993 L8.489,4.993 Z M11.869,4.493 C11.869,4.24 11.834,4.002 11.764,3.778 C11.694,3.554 11.59,3.361 11.454,3.198 C11.317,3.035 11.145,2.905 10.939,2.808 C10.733,2.711 10.496,2.662 10.229,2.662 C9.962,2.662 9.727,2.712 9.524,2.812 C9.32,2.912 9.147,3.045 9.004,3.211 C8.86,3.378 8.746,3.571 8.659,3.791 C8.573,4.012 8.516,4.245 8.489,4.491 L11.869,4.491 L11.869,4.493 Z" id="Shape"></path>
                <path d="M17.189,2.263 L17.789,2.263 L17.789,7.443 L17.189,7.443 L17.189,6.723 C17.109,6.816 17.019,6.912 16.919,7.013 C16.819,7.113 16.704,7.204 16.574,7.287 C16.444,7.371 16.292,7.44 16.119,7.497 C15.945,7.554 15.745,7.582 15.519,7.582 C15.172,7.582 14.882,7.534 14.649,7.437 C14.416,7.34 14.227,7.206 14.084,7.032 C13.94,6.859 13.837,6.657 13.774,6.428 C13.711,6.198 13.679,5.947 13.679,5.673 L13.679,2.263 L14.279,2.263 L14.279,5.662 C14.279,6.109 14.383,6.451 14.589,6.687 C14.795,6.923 15.136,7.041 15.609,7.041 C15.856,7.041 16.077,6.993 16.274,6.896 C16.471,6.799 16.636,6.665 16.769,6.491 C16.902,6.318 17.005,6.111 17.079,5.871 C17.152,5.632 17.189,5.368 17.189,5.081 L17.189,2.263 L17.189,2.263 Z" id="Shape"></path>
                <path d="M21.059,7.462 C20.986,7.476 20.889,7.499 20.769,7.532 C20.649,7.565 20.516,7.582 20.369,7.582 C20.069,7.582 19.841,7.508 19.684,7.357 C19.527,7.206 19.449,6.939 19.449,6.552 L19.449,2.762 L18.719,2.762 L18.719,2.262 L19.449,2.262 L19.449,0.822 L20.049,0.822 L20.049,2.262 L21.019,2.262 L21.019,2.762 L20.049,2.762 L20.049,6.312 C20.049,6.439 20.052,6.548 20.059,6.642 C20.065,6.735 20.085,6.812 20.119,6.871 C20.152,6.932 20.204,6.975 20.274,7.001 C20.344,7.028 20.442,7.041 20.569,7.041 C20.649,7.041 20.731,7.035 20.814,7.021 C20.897,7.007 20.979,6.991 21.059,6.971 L21.059,7.462 L21.059,7.462 Z" id="Shape"></path>
                <path d="M22.369,5.823 C22.462,6.27 22.631,6.585 22.874,6.768 C23.117,6.952 23.465,7.042 23.919,7.042 C24.139,7.042 24.329,7.016 24.489,6.962 C24.649,6.909 24.781,6.837 24.884,6.747 C24.987,6.657 25.066,6.556 25.119,6.442 C25.172,6.328 25.199,6.209 25.199,6.082 C25.199,5.829 25.117,5.641 24.954,5.518 C24.791,5.395 24.586,5.298 24.339,5.228 C24.092,5.158 23.825,5.098 23.539,5.048 C23.252,4.997 22.985,4.923 22.739,4.822 C22.492,4.722 22.287,4.579 22.124,4.392 C21.96,4.205 21.879,3.942 21.879,3.602 C21.879,3.168 22.037,2.814 22.354,2.537 C22.67,2.261 23.119,2.122 23.699,2.122 C24.259,2.122 24.714,2.247 25.064,2.497 C25.414,2.747 25.626,3.166 25.699,3.752 L25.089,3.752 C25.035,3.353 24.884,3.071 24.634,2.907 C24.384,2.744 24.069,2.662 23.689,2.662 C23.309,2.662 23.019,2.744 22.819,2.907 C22.619,3.071 22.519,3.286 22.519,3.553 C22.519,3.786 22.601,3.964 22.764,4.087 C22.928,4.211 23.133,4.311 23.379,4.388 C23.626,4.464 23.892,4.533 24.179,4.593 C24.466,4.653 24.732,4.738 24.979,4.848 C25.226,4.957 25.43,5.106 25.594,5.292 C25.758,5.48 25.839,5.739 25.839,6.072 C25.839,6.319 25.785,6.537 25.679,6.727 C25.573,6.916 25.426,7.076 25.239,7.202 C25.052,7.329 24.831,7.424 24.574,7.487 C24.317,7.55 24.035,7.582 23.729,7.582 C23.422,7.582 23.15,7.537 22.914,7.447 C22.677,7.357 22.476,7.232 22.309,7.072 C22.142,6.912 22.013,6.725 21.919,6.512 C21.825,6.298 21.772,6.069 21.759,5.822 L22.369,5.822 L22.369,5.823 Z" id="Shape"></path>
                <path d="M30.689,3.893 C30.582,3.506 30.399,3.205 30.139,2.988 C29.879,2.771 29.549,2.663 29.149,2.663 C28.842,2.663 28.579,2.726 28.359,2.853 C28.139,2.98 27.959,3.148 27.819,3.358 C27.679,3.568 27.575,3.804 27.509,4.068 C27.442,4.332 27.409,4.596 27.409,4.863 C27.409,5.136 27.441,5.403 27.504,5.663 C27.567,5.924 27.669,6.157 27.809,6.363 C27.949,6.57 28.129,6.735 28.349,6.858 C28.569,6.981 28.836,7.043 29.149,7.043 C29.595,7.043 29.954,6.92 30.224,6.674 C30.494,6.427 30.666,6.087 30.739,5.653 L31.379,5.653 C31.325,5.94 31.24,6.202 31.124,6.438 C31.007,6.674 30.857,6.877 30.674,7.048 C30.49,7.218 30.272,7.349 30.019,7.443 C29.766,7.537 29.476,7.583 29.149,7.583 C28.735,7.583 28.379,7.514 28.079,7.373 C27.779,7.233 27.533,7.042 27.339,6.799 C27.146,6.555 27.002,6.267 26.909,5.934 C26.816,5.6 26.769,5.244 26.769,4.864 C26.769,4.504 26.82,4.159 26.924,3.829 C27.028,3.499 27.179,3.208 27.379,2.954 C27.579,2.701 27.827,2.499 28.124,2.35 C28.42,2.2 28.762,2.124 29.149,2.124 C29.749,2.124 30.234,2.268 30.604,2.555 C30.974,2.841 31.206,3.288 31.299,3.895 L30.689,3.895 L30.689,3.893 Z" id="Shape"></path>
                <path d="M32.579,7.443 L32.579,0.243 L33.179,0.243 L33.179,2.983 C33.419,2.73 33.667,2.523 33.924,2.363 C34.181,2.203 34.489,2.123 34.849,2.123 C35.169,2.123 35.465,2.179 35.739,2.288 C36.012,2.398 36.242,2.59 36.429,2.863 C36.556,3.05 36.631,3.242 36.654,3.438 C36.677,3.634 36.689,3.839 36.689,4.053 L36.689,7.443 L36.089,7.443 L36.089,4.063 C36.089,3.596 35.985,3.247 35.779,3.013 C35.573,2.779 35.229,2.662 34.749,2.662 C34.562,2.662 34.392,2.69 34.239,2.747 C34.086,2.804 33.947,2.879 33.824,2.973 C33.701,3.066 33.595,3.173 33.509,3.292 C33.423,3.412 33.356,3.539 33.309,3.673 C33.249,3.839 33.212,3.999 33.199,4.152 C33.186,4.305 33.179,4.472 33.179,4.652 L33.179,7.442 L32.579,7.442 L32.579,7.443 Z" id="Shape"></path>
                <path d="M38.509,4.993 C38.509,5.273 38.546,5.538 38.619,5.788 C38.692,6.038 38.8,6.255 38.944,6.438 C39.088,6.621 39.269,6.768 39.489,6.877 C39.709,6.987 39.963,7.042 40.249,7.042 C40.642,7.042 40.979,6.939 41.259,6.732 C41.539,6.525 41.726,6.232 41.819,5.852 L42.489,5.852 C42.416,6.098 42.319,6.327 42.199,6.537 C42.079,6.747 41.929,6.931 41.749,7.087 C41.569,7.244 41.355,7.366 41.109,7.452 C40.862,7.539 40.576,7.582 40.249,7.582 C39.835,7.582 39.479,7.513 39.179,7.372 C38.879,7.232 38.633,7.041 38.439,6.798 C38.246,6.554 38.102,6.268 38.009,5.938 C37.916,5.608 37.869,5.252 37.869,4.873 C37.869,4.494 37.924,4.137 38.034,3.804 C38.144,3.47 38.3,3.179 38.504,2.929 C38.707,2.679 38.956,2.482 39.249,2.338 C39.542,2.195 39.875,2.123 40.249,2.123 C40.962,2.123 41.522,2.368 41.929,2.858 C42.336,3.348 42.536,4.06 42.529,4.993 L38.509,4.993 L38.509,4.993 Z M41.889,4.493 C41.889,4.24 41.854,4.002 41.784,3.778 C41.714,3.554 41.61,3.361 41.474,3.198 C41.337,3.035 41.165,2.905 40.959,2.808 C40.753,2.711 40.516,2.662 40.249,2.662 C39.982,2.662 39.747,2.712 39.544,2.812 C39.34,2.912 39.167,3.045 39.024,3.211 C38.88,3.378 38.766,3.571 38.679,3.791 C38.593,4.012 38.536,4.245 38.509,4.491 L41.889,4.491 L41.889,4.493 Z" id="Shape"></path>
                <path d="M49.629,4.303 L49.629,3.723 L52.709,3.723 L52.709,7.443 L52.129,7.443 L52.129,6.213 C52.002,6.427 51.857,6.622 51.694,6.799 C51.53,6.975 51.342,7.125 51.129,7.248 C50.916,7.372 50.669,7.467 50.389,7.533 C50.109,7.599 49.792,7.634 49.439,7.634 C48.985,7.634 48.565,7.554 48.179,7.394 C47.793,7.234 47.459,6.996 47.179,6.679 C46.899,6.362 46.68,5.963 46.524,5.484 C46.367,5.004 46.289,4.444 46.289,3.804 C46.289,3.277 46.356,2.785 46.489,2.328 C46.622,1.872 46.827,1.474 47.104,1.139 C47.38,0.802 47.727,0.537 48.144,0.344 C48.561,0.151 49.053,0.054 49.619,0.054 C49.999,0.054 50.354,0.1 50.684,0.194 C51.014,0.288 51.311,0.429 51.574,0.619 C51.837,0.809 52.059,1.046 52.239,1.329 C52.419,1.612 52.549,1.948 52.629,2.334 L51.929,2.334 C51.869,2.067 51.767,1.828 51.624,1.614 C51.48,1.401 51.309,1.222 51.109,1.079 C50.909,0.936 50.686,0.826 50.439,0.749 C50.192,0.673 49.936,0.635 49.669,0.635 C49.195,0.635 48.789,0.718 48.449,0.885 C48.109,1.051 47.829,1.286 47.609,1.589 C47.389,1.893 47.227,2.256 47.124,2.68 C47.02,3.103 46.969,3.568 46.969,4.075 C46.969,4.475 47.027,4.855 47.144,5.215 C47.261,5.575 47.431,5.892 47.654,6.165 C47.877,6.438 48.151,6.655 48.474,6.815 C48.797,6.975 49.166,7.055 49.579,7.055 C49.772,7.055 49.973,7.034 50.179,6.99 C50.386,6.947 50.586,6.875 50.779,6.775 C50.972,6.675 51.152,6.545 51.319,6.385 C51.486,6.225 51.629,6.028 51.749,5.794 C51.862,5.567 51.94,5.331 51.984,5.084 C52.027,4.838 52.052,4.578 52.059,4.305 L49.629,4.305 L49.629,4.303 Z" id="Shape"></path>
                <path d="M54.629,4.993 C54.629,5.273 54.666,5.538 54.739,5.788 C54.812,6.038 54.92,6.255 55.064,6.438 C55.208,6.621 55.389,6.768 55.609,6.877 C55.829,6.987 56.083,7.042 56.369,7.042 C56.762,7.042 57.099,6.939 57.379,6.732 C57.659,6.525 57.846,6.232 57.939,5.852 L58.609,5.852 C58.536,6.098 58.439,6.327 58.319,6.537 C58.199,6.747 58.049,6.931 57.869,7.087 C57.689,7.244 57.475,7.366 57.229,7.452 C56.982,7.539 56.696,7.582 56.369,7.582 C55.955,7.582 55.599,7.513 55.299,7.372 C54.999,7.232 54.753,7.041 54.559,6.798 C54.366,6.554 54.222,6.268 54.129,5.938 C54.036,5.608 53.989,5.252 53.989,4.873 C53.989,4.494 54.044,4.137 54.154,3.804 C54.264,3.47 54.42,3.179 54.624,2.929 C54.827,2.679 55.076,2.482 55.369,2.338 C55.662,2.195 55.995,2.123 56.369,2.123 C57.082,2.123 57.642,2.368 58.049,2.858 C58.456,3.348 58.656,4.06 58.649,4.993 L54.629,4.993 L54.629,4.993 Z M58.009,4.493 C58.009,4.24 57.974,4.002 57.904,3.778 C57.834,3.554 57.73,3.361 57.594,3.198 C57.457,3.035 57.285,2.905 57.079,2.808 C56.873,2.711 56.636,2.662 56.369,2.662 C56.102,2.662 55.867,2.712 55.664,2.812 C55.46,2.912 55.287,3.045 55.144,3.211 C55,3.378 54.886,3.571 54.799,3.791 C54.713,4.012 54.656,4.245 54.629,4.491 L58.009,4.491 L58.009,4.493 Z" id="Shape"></path>
                <path d="M60.169,5.823 C60.262,6.27 60.431,6.585 60.674,6.768 C60.917,6.952 61.265,7.042 61.719,7.042 C61.939,7.042 62.129,7.016 62.289,6.962 C62.449,6.909 62.581,6.837 62.684,6.747 C62.787,6.657 62.866,6.556 62.919,6.442 C62.972,6.328 62.999,6.209 62.999,6.082 C62.999,5.829 62.917,5.641 62.754,5.518 C62.591,5.395 62.386,5.298 62.139,5.228 C61.892,5.158 61.625,5.098 61.339,5.048 C61.052,4.997 60.785,4.923 60.539,4.822 C60.292,4.722 60.087,4.579 59.924,4.392 C59.76,4.205 59.679,3.942 59.679,3.602 C59.679,3.168 59.837,2.814 60.154,2.537 C60.47,2.261 60.919,2.122 61.499,2.122 C62.059,2.122 62.514,2.247 62.864,2.497 C63.214,2.747 63.426,3.166 63.499,3.752 L62.889,3.752 C62.835,3.353 62.684,3.071 62.434,2.907 C62.184,2.744 61.869,2.662 61.489,2.662 C61.109,2.662 60.819,2.744 60.619,2.907 C60.419,3.071 60.319,3.286 60.319,3.553 C60.319,3.786 60.401,3.964 60.564,4.087 C60.728,4.211 60.933,4.311 61.179,4.388 C61.426,4.464 61.692,4.533 61.979,4.593 C62.266,4.653 62.532,4.738 62.779,4.848 C63.026,4.957 63.23,5.106 63.394,5.292 C63.558,5.48 63.639,5.739 63.639,6.072 C63.639,6.319 63.585,6.537 63.479,6.727 C63.373,6.916 63.226,7.076 63.039,7.202 C62.852,7.329 62.631,7.424 62.374,7.487 C62.117,7.55 61.835,7.582 61.529,7.582 C61.222,7.582 60.95,7.537 60.714,7.447 C60.477,7.357 60.276,7.232 60.109,7.072 C59.942,6.912 59.813,6.725 59.719,6.512 C59.625,6.298 59.572,6.069 59.559,5.822 L60.169,5.822 L60.169,5.823 Z" id="Shape"></path>
                <path d="M65.189,4.993 C65.189,5.273 65.226,5.538 65.299,5.788 C65.372,6.038 65.48,6.255 65.624,6.438 C65.768,6.621 65.949,6.768 66.169,6.877 C66.389,6.987 66.643,7.042 66.929,7.042 C67.322,7.042 67.659,6.939 67.939,6.732 C68.219,6.525 68.406,6.232 68.499,5.852 L69.169,5.852 C69.096,6.098 68.999,6.327 68.879,6.537 C68.759,6.747 68.609,6.931 68.429,7.087 C68.249,7.244 68.035,7.366 67.789,7.452 C67.542,7.539 67.256,7.582 66.929,7.582 C66.515,7.582 66.159,7.513 65.859,7.372 C65.559,7.232 65.313,7.041 65.119,6.798 C64.926,6.554 64.782,6.268 64.689,5.938 C64.596,5.608 64.549,5.252 64.549,4.873 C64.549,4.494 64.604,4.137 64.714,3.804 C64.824,3.47 64.98,3.179 65.184,2.929 C65.387,2.679 65.636,2.482 65.929,2.338 C66.222,2.195 66.555,2.123 66.929,2.123 C67.642,2.123 68.202,2.368 68.609,2.858 C69.016,3.348 69.216,4.06 69.209,4.993 L65.189,4.993 L65.189,4.993 Z M68.569,4.493 C68.569,4.24 68.534,4.002 68.464,3.778 C68.394,3.554 68.29,3.361 68.154,3.198 C68.017,3.035 67.845,2.905 67.639,2.808 C67.433,2.711 67.196,2.662 66.929,2.662 C66.662,2.662 66.427,2.712 66.224,2.812 C66.02,2.912 65.847,3.045 65.704,3.211 C65.56,3.378 65.446,3.571 65.359,3.791 C65.273,4.012 65.216,4.245 65.189,4.491 L68.569,4.491 L68.569,4.493 Z" id="Shape"></path>
                <path d="M70.469,7.443 L70.469,0.243 L71.069,0.243 L71.069,7.443 L70.469,7.443 L70.469,7.443 Z" id="Shape"></path>
                <path d="M72.689,7.443 L72.689,0.243 L73.289,0.243 L73.289,7.443 L72.689,7.443 L72.689,7.443 Z" id="Shape"></path>
                <path d="M75.168,5.823 C75.261,6.27 75.43,6.585 75.673,6.768 C75.916,6.952 76.264,7.042 76.718,7.042 C76.938,7.042 77.128,7.016 77.288,6.962 C77.448,6.909 77.58,6.837 77.683,6.747 C77.786,6.657 77.865,6.556 77.918,6.442 C77.971,6.328 77.998,6.209 77.998,6.082 C77.998,5.829 77.916,5.641 77.753,5.518 C77.59,5.395 77.385,5.298 77.138,5.228 C76.891,5.158 76.624,5.098 76.338,5.048 C76.051,4.997 75.784,4.923 75.538,4.822 C75.291,4.722 75.086,4.579 74.923,4.392 C74.759,4.205 74.678,3.942 74.678,3.602 C74.678,3.168 74.836,2.814 75.153,2.537 C75.469,2.261 75.918,2.122 76.498,2.122 C77.058,2.122 77.513,2.247 77.863,2.497 C78.213,2.747 78.425,3.166 78.498,3.752 L77.888,3.752 C77.834,3.353 77.683,3.071 77.433,2.907 C77.183,2.744 76.868,2.662 76.488,2.662 C76.108,2.662 75.818,2.744 75.618,2.907 C75.418,3.071 75.318,3.286 75.318,3.553 C75.318,3.786 75.4,3.964 75.563,4.087 C75.727,4.211 75.932,4.311 76.178,4.388 C76.425,4.464 76.691,4.533 76.978,4.593 C77.265,4.653 77.531,4.738 77.778,4.848 C78.025,4.957 78.229,5.106 78.393,5.292 C78.557,5.48 78.638,5.739 78.638,6.072 C78.638,6.319 78.584,6.537 78.478,6.727 C78.372,6.916 78.225,7.076 78.038,7.202 C77.851,7.329 77.63,7.424 77.373,7.487 C77.116,7.55 76.834,7.582 76.528,7.582 C76.221,7.582 75.949,7.537 75.713,7.447 C75.476,7.357 75.275,7.232 75.108,7.072 C74.941,6.912 74.812,6.725 74.718,6.512 C74.624,6.298 74.571,6.069 74.558,5.822 L75.168,5.822 L75.168,5.823 Z" id="Shape"></path>
                <path d="M83.489,3.893 C83.382,3.506 83.199,3.205 82.939,2.988 C82.679,2.771 82.349,2.663 81.949,2.663 C81.642,2.663 81.379,2.726 81.159,2.853 C80.939,2.98 80.759,3.148 80.619,3.358 C80.479,3.568 80.375,3.804 80.309,4.068 C80.242,4.332 80.209,4.596 80.209,4.863 C80.209,5.136 80.241,5.403 80.304,5.663 C80.367,5.924 80.469,6.157 80.609,6.363 C80.749,6.57 80.929,6.735 81.149,6.858 C81.369,6.981 81.636,7.043 81.949,7.043 C82.395,7.043 82.754,6.92 83.024,6.674 C83.294,6.427 83.466,6.087 83.539,5.653 L84.179,5.653 C84.125,5.94 84.04,6.202 83.924,6.438 C83.807,6.674 83.657,6.877 83.474,7.048 C83.29,7.218 83.072,7.349 82.819,7.443 C82.566,7.537 82.276,7.583 81.949,7.583 C81.535,7.583 81.179,7.514 80.879,7.373 C80.579,7.233 80.333,7.042 80.139,6.799 C79.946,6.555 79.802,6.267 79.709,5.934 C79.616,5.6 79.569,5.244 79.569,4.864 C79.569,4.504 79.62,4.159 79.724,3.829 C79.828,3.499 79.979,3.208 80.179,2.954 C80.379,2.701 80.627,2.499 80.924,2.35 C81.22,2.2 81.562,2.124 81.949,2.124 C82.549,2.124 83.034,2.268 83.404,2.555 C83.774,2.841 84.006,3.288 84.099,3.895 L83.489,3.895 L83.489,3.893 Z" id="Shape"></path>
                <path d="M85.379,7.443 L85.379,0.243 L85.979,0.243 L85.979,2.983 C86.219,2.73 86.467,2.523 86.724,2.363 C86.981,2.203 87.289,2.123 87.649,2.123 C87.969,2.123 88.265,2.179 88.539,2.288 C88.812,2.398 89.042,2.59 89.229,2.863 C89.356,3.05 89.431,3.242 89.454,3.438 C89.477,3.634 89.489,3.839 89.489,4.053 L89.489,7.443 L88.889,7.443 L88.889,4.063 C88.889,3.596 88.785,3.247 88.579,3.013 C88.373,2.779 88.029,2.662 87.549,2.662 C87.362,2.662 87.192,2.69 87.039,2.747 C86.886,2.804 86.747,2.879 86.624,2.973 C86.501,3.066 86.395,3.173 86.309,3.292 C86.223,3.412 86.156,3.539 86.109,3.673 C86.049,3.839 86.012,3.999 85.999,4.152 C85.986,4.305 85.979,4.472 85.979,4.652 L85.979,7.442 L85.379,7.442 L85.379,7.443 Z" id="Shape"></path>
                <path d="M93.319,4.423 C93.432,4.409 93.567,4.389 93.724,4.362 C93.881,4.335 94.009,4.299 94.109,4.252 C94.209,4.206 94.271,4.127 94.294,4.018 C94.317,3.908 94.329,3.806 94.329,3.712 C94.329,3.406 94.231,3.154 94.034,2.957 C93.837,2.761 93.506,2.662 93.039,2.662 C92.832,2.662 92.643,2.681 92.469,2.718 C92.296,2.754 92.144,2.818 92.014,2.907 C91.884,2.996 91.777,3.117 91.694,3.267 C91.611,3.416 91.555,3.605 91.529,3.831 L90.919,3.831 C90.939,3.524 91.009,3.263 91.129,3.047 C91.249,2.83 91.404,2.653 91.594,2.517 C91.784,2.381 92.004,2.281 92.254,2.217 C92.504,2.153 92.769,2.121 93.049,2.121 C93.309,2.121 93.554,2.149 93.784,2.206 C94.014,2.263 94.214,2.353 94.384,2.477 C94.554,2.601 94.687,2.765 94.784,2.972 C94.881,3.178 94.929,3.432 94.929,3.732 L94.929,6.552 C94.929,6.785 94.971,6.934 95.054,6.996 C95.137,7.059 95.305,7.045 95.559,6.951 L95.559,7.422 C95.513,7.435 95.444,7.455 95.354,7.482 C95.264,7.508 95.176,7.522 95.089,7.522 C94.995,7.522 94.905,7.512 94.819,7.492 C94.719,7.478 94.639,7.447 94.579,7.397 C94.519,7.347 94.471,7.287 94.434,7.217 C94.397,7.147 94.372,7.071 94.359,6.987 C94.345,6.904 94.339,6.815 94.339,6.722 C94.086,7.001 93.796,7.215 93.469,7.362 C93.142,7.509 92.789,7.582 92.409,7.582 C92.182,7.582 91.964,7.553 91.754,7.492 C91.544,7.432 91.359,7.339 91.199,7.212 C91.039,7.086 90.912,6.931 90.819,6.747 C90.725,6.564 90.679,6.346 90.679,6.093 C90.679,5.212 91.283,4.693 92.489,4.532 L93.319,4.423 L93.319,4.423 Z M94.329,4.723 C94.076,4.829 93.819,4.9 93.559,4.933 C93.299,4.966 93.039,4.993 92.779,5.013 C92.319,5.046 91.961,5.15 91.704,5.323 C91.448,5.497 91.319,5.76 91.319,6.113 C91.319,6.273 91.35,6.412 91.414,6.528 C91.477,6.645 91.561,6.742 91.664,6.818 C91.768,6.895 91.888,6.952 92.024,6.988 C92.16,7.025 92.299,7.043 92.439,7.043 C92.679,7.043 92.912,7.014 93.139,6.953 C93.366,6.893 93.567,6.802 93.744,6.679 C93.921,6.555 94.062,6.399 94.169,6.208 C94.275,6.019 94.329,5.793 94.329,5.533 L94.329,4.723 L94.329,4.723 Z" id="Shape"></path>
                <path d="M95.979,2.763 L95.979,2.263 L96.749,2.263 L96.749,1.443 C96.749,1.03 96.832,0.703 96.999,0.463 C97.166,0.224 97.449,0.104 97.849,0.104 C97.942,0.104 98.03,0.107 98.11,0.114 C98.19,0.121 98.27,0.131 98.349,0.144 L98.349,0.694 C98.215,0.661 98.096,0.644 97.989,0.644 C97.837,0.644 97.716,0.672 97.63,0.729 C97.543,0.786 97.48,0.861 97.441,0.954 C97.4,1.048 97.376,1.152 97.365,1.269 C97.355,1.385 97.35,1.503 97.35,1.623 L97.35,2.264 L98.35,2.264 L98.35,2.764 L97.35,2.764 L97.35,7.444 L96.75,7.444 L96.75,2.764 L95.979,2.764 L95.979,2.763 Z" id="Shape"></path>
                <path d="M101.099,7.462 C101.026,7.476 100.929,7.499 100.809,7.532 C100.689,7.565 100.555,7.582 100.409,7.582 C100.109,7.582 99.882,7.508 99.724,7.357 C99.566,7.206 99.489,6.939 99.489,6.552 L99.489,2.762 L98.76,2.762 L98.76,2.262 L99.489,2.262 L99.489,0.822 L100.089,0.822 L100.089,2.262 L101.06,2.262 L101.06,2.762 L100.089,2.762 L100.089,6.312 C100.089,6.439 100.093,6.548 100.1,6.642 C100.107,6.735 100.126,6.812 100.16,6.871 C100.193,6.932 100.246,6.975 100.315,7.001 C100.385,7.028 100.484,7.041 100.61,7.041 C100.69,7.041 100.771,7.035 100.855,7.021 C100.939,7.007 101.02,6.991 101.1,6.971 L101.1,7.462 L101.099,7.462 Z" id="Shape"></path>
                <path d="M0.379,14.763 L0.379,14.263 L1.149,14.263 L1.149,13.443 C1.149,13.03 1.232,12.703 1.399,12.463 C1.566,12.224 1.849,12.104 2.249,12.104 C2.342,12.104 2.429,12.107 2.509,12.114 C2.589,12.121 2.669,12.131 2.749,12.144 L2.749,12.694 C2.616,12.661 2.496,12.644 2.389,12.644 C2.236,12.644 2.116,12.672 2.029,12.729 C1.942,12.786 1.879,12.861 1.839,12.954 C1.799,13.048 1.774,13.152 1.764,13.269 C1.754,13.385 1.749,13.503 1.749,13.623 L1.749,14.264 L2.749,14.264 L2.749,14.764 L1.749,14.764 L1.749,19.444 L1.149,19.444 L1.149,14.764 L0.379,14.764 L0.379,14.763 Z" id="Shape"></path>
                <path d="M7.189,14.263 L7.789,14.263 L7.789,19.443 L7.189,19.443 L7.189,18.723 C7.109,18.816 7.019,18.912 6.919,19.013 C6.819,19.113 6.704,19.204 6.574,19.287 C6.444,19.371 6.292,19.44 6.119,19.497 C5.945,19.554 5.745,19.582 5.519,19.582 C5.172,19.582 4.882,19.534 4.649,19.437 C4.416,19.34 4.227,19.206 4.084,19.032 C3.94,18.859 3.837,18.657 3.774,18.428 C3.711,18.198 3.679,17.947 3.679,17.673 L3.679,14.263 L4.279,14.263 L4.279,17.662 C4.279,18.109 4.383,18.451 4.589,18.687 C4.795,18.923 5.136,19.041 5.609,19.041 C5.856,19.041 6.077,18.993 6.274,18.896 C6.471,18.799 6.636,18.665 6.769,18.491 C6.902,18.318 7.005,18.111 7.079,17.871 C7.152,17.632 7.189,17.368 7.189,17.081 L7.189,14.263 L7.189,14.263 Z M4.679,12.583 L5.329,12.583 L5.329,13.604 L4.679,13.604 L4.679,12.583 L4.679,12.583 Z M6.269,12.583 L6.919,12.583 L6.919,13.604 L6.269,13.604 L6.269,12.583 L6.269,12.583 Z" id="Shape"></path>
                <path d="M9.869,19.443 L9.269,19.443 L9.269,14.263 L9.869,14.263 L9.869,15.233 L9.889,15.233 C10.056,14.82 10.27,14.532 10.534,14.368 C10.797,14.205 11.145,14.123 11.579,14.123 L11.579,14.773 C11.239,14.766 10.959,14.82 10.739,14.933 C10.519,15.046 10.344,15.2 10.214,15.393 C10.084,15.586 9.994,15.815 9.944,16.078 C9.894,16.342 9.869,16.617 9.869,16.903 L9.869,19.443 L9.869,19.443 Z" id="Shape"></path>
                <path d="M15.719,17.292 C15.746,17.612 15.818,17.884 15.934,18.107 C16.05,18.331 16.201,18.512 16.384,18.652 C16.568,18.792 16.779,18.894 17.019,18.957 C17.259,19.02 17.516,19.053 17.789,19.053 C18.109,19.053 18.385,19.013 18.619,18.933 C18.852,18.853 19.042,18.745 19.189,18.608 C19.335,18.471 19.444,18.313 19.514,18.133 C19.584,17.952 19.619,17.763 19.619,17.563 C19.619,17.283 19.556,17.056 19.429,16.883 C19.303,16.709 19.137,16.568 18.934,16.457 C18.73,16.348 18.497,16.259 18.234,16.192 C17.971,16.125 17.701,16.06 17.424,15.997 C17.147,15.934 16.877,15.859 16.614,15.772 C16.351,15.685 16.117,15.569 15.914,15.422 C15.71,15.275 15.545,15.086 15.419,14.857 C15.292,14.627 15.229,14.336 15.229,13.982 C15.229,13.735 15.28,13.496 15.384,13.262 C15.488,13.028 15.641,12.822 15.844,12.642 C16.048,12.461 16.302,12.319 16.609,12.211 C16.916,12.105 17.269,12.052 17.669,12.052 C18.076,12.052 18.431,12.109 18.734,12.222 C19.037,12.335 19.289,12.491 19.489,12.687 C19.689,12.883 19.839,13.112 19.939,13.372 C20.039,13.633 20.089,13.909 20.089,14.202 L19.439,14.202 C19.439,13.929 19.391,13.692 19.294,13.492 C19.197,13.292 19.065,13.129 18.899,13.002 C18.732,12.876 18.542,12.782 18.329,12.723 C18.115,12.662 17.895,12.633 17.669,12.633 C17.322,12.633 17.03,12.681 16.794,12.778 C16.557,12.875 16.369,13 16.229,13.153 C16.089,13.306 15.992,13.476 15.939,13.663 C15.885,13.85 15.876,14.037 15.909,14.224 C15.949,14.457 16.042,14.644 16.189,14.784 C16.335,14.925 16.516,15.039 16.729,15.129 C16.942,15.22 17.177,15.293 17.434,15.35 C17.69,15.407 17.952,15.466 18.219,15.53 C18.486,15.594 18.744,15.669 18.994,15.755 C19.244,15.842 19.465,15.959 19.659,16.106 C19.853,16.253 20.008,16.441 20.124,16.67 C20.24,16.9 20.299,17.189 20.299,17.535 C20.299,18.202 20.069,18.719 19.609,19.085 C19.149,19.452 18.502,19.636 17.669,19.636 C17.295,19.636 16.949,19.587 16.629,19.49 C16.309,19.393 16.032,19.247 15.799,19.051 C15.566,18.854 15.384,18.611 15.254,18.321 C15.124,18.031 15.059,17.689 15.059,17.296 L15.719,17.296 L15.719,17.292 Z" id="Shape"></path>
                <path d="M22.129,21.483 L21.529,21.483 L21.529,14.263 L22.129,14.263 L22.129,15.173 L22.149,15.173 C22.235,15.006 22.347,14.856 22.484,14.723 C22.62,14.589 22.771,14.48 22.934,14.393 C23.098,14.306 23.266,14.24 23.439,14.193 C23.612,14.146 23.782,14.123 23.949,14.123 C24.369,14.123 24.725,14.193 25.019,14.333 C25.312,14.474 25.554,14.665 25.744,14.908 C25.934,15.151 26.073,15.44 26.159,15.773 C26.245,16.106 26.289,16.462 26.289,16.843 C26.289,17.202 26.243,17.549 26.149,17.883 C26.055,18.216 25.914,18.508 25.724,18.758 C25.534,19.008 25.294,19.207 25.004,19.358 C24.714,19.509 24.372,19.583 23.979,19.583 C23.612,19.583 23.26,19.502 22.924,19.338 C22.587,19.175 22.322,18.934 22.129,18.613 L22.129,21.483 L22.129,21.483 Z M22.129,16.873 C22.129,17.167 22.169,17.445 22.249,17.708 C22.329,17.972 22.444,18.202 22.594,18.398 C22.744,18.594 22.927,18.752 23.144,18.868 C23.361,18.985 23.606,19.043 23.879,19.043 C24.186,19.043 24.454,18.981 24.684,18.858 C24.914,18.735 25.102,18.566 25.249,18.353 C25.396,18.139 25.502,17.891 25.569,17.608 C25.635,17.325 25.662,17.02 25.649,16.693 C25.649,16.367 25.604,16.078 25.514,15.828 C25.424,15.578 25.299,15.367 25.139,15.193 C24.979,15.02 24.792,14.888 24.579,14.798 C24.366,14.707 24.132,14.662 23.879,14.662 C23.599,14.662 23.349,14.719 23.129,14.832 C22.909,14.946 22.725,15.101 22.579,15.298 C22.433,15.494 22.321,15.728 22.244,15.997 C22.167,16.268 22.129,16.56 22.129,16.873 L22.129,16.873 Z" id="Shape"></path>
                <path d="M28.199,19.443 L27.599,19.443 L27.599,14.263 L28.199,14.263 L28.199,15.233 L28.219,15.233 C28.386,14.82 28.6,14.532 28.864,14.368 C29.127,14.205 29.475,14.123 29.909,14.123 L29.909,14.773 C29.569,14.766 29.289,14.82 29.069,14.933 C28.849,15.046 28.674,15.2 28.544,15.393 C28.414,15.586 28.324,15.815 28.274,16.078 C28.224,16.342 28.199,16.617 28.199,16.903 L28.199,19.443 L28.199,19.443 Z" id="Shape"></path>
                <path d="M33.279,16.423 C33.392,16.409 33.527,16.389 33.684,16.362 C33.841,16.335 33.969,16.299 34.069,16.252 C34.169,16.206 34.231,16.127 34.254,16.018 C34.277,15.908 34.289,15.806 34.289,15.712 C34.289,15.406 34.191,15.154 33.994,14.957 C33.797,14.761 33.466,14.662 32.999,14.662 C32.792,14.662 32.603,14.681 32.429,14.718 C32.256,14.754 32.104,14.818 31.974,14.907 C31.844,14.996 31.737,15.117 31.654,15.267 C31.571,15.416 31.515,15.605 31.489,15.831 L30.879,15.831 C30.899,15.524 30.969,15.263 31.089,15.047 C31.209,14.83 31.364,14.653 31.554,14.517 C31.744,14.381 31.964,14.281 32.214,14.217 C32.464,14.153 32.729,14.121 33.009,14.121 C33.269,14.121 33.514,14.149 33.744,14.206 C33.974,14.263 34.174,14.353 34.344,14.477 C34.514,14.601 34.647,14.765 34.744,14.972 C34.841,15.178 34.889,15.432 34.889,15.732 L34.889,18.552 C34.889,18.785 34.931,18.934 35.014,18.996 C35.097,19.059 35.265,19.045 35.519,18.951 L35.519,19.422 C35.473,19.435 35.404,19.455 35.314,19.482 C35.224,19.508 35.136,19.522 35.049,19.522 C34.955,19.522 34.865,19.512 34.779,19.492 C34.679,19.478 34.599,19.447 34.539,19.397 C34.479,19.347 34.431,19.287 34.394,19.217 C34.357,19.147 34.332,19.071 34.319,18.987 C34.305,18.904 34.299,18.815 34.299,18.722 C34.046,19.001 33.756,19.215 33.429,19.362 C33.102,19.509 32.749,19.582 32.369,19.582 C32.142,19.582 31.924,19.553 31.714,19.492 C31.504,19.432 31.319,19.339 31.159,19.212 C30.999,19.086 30.872,18.931 30.779,18.747 C30.685,18.564 30.639,18.346 30.639,18.093 C30.639,17.212 31.243,16.693 32.449,16.532 L33.279,16.423 L33.279,16.423 Z M34.289,16.723 C34.036,16.829 33.779,16.9 33.519,16.933 C33.259,16.966 32.999,16.993 32.739,17.013 C32.279,17.046 31.921,17.15 31.664,17.323 C31.408,17.497 31.279,17.76 31.279,18.113 C31.279,18.273 31.31,18.412 31.374,18.528 C31.437,18.645 31.521,18.742 31.624,18.818 C31.728,18.895 31.848,18.952 31.984,18.988 C32.12,19.025 32.259,19.043 32.399,19.043 C32.639,19.043 32.872,19.014 33.099,18.953 C33.326,18.893 33.527,18.802 33.704,18.679 C33.881,18.555 34.022,18.399 34.129,18.208 C34.235,18.019 34.289,17.793 34.289,17.533 L34.289,16.723 L34.289,16.723 Z" id="Shape"></path>
                <path d="M40.129,15.893 C40.022,15.506 39.839,15.205 39.579,14.988 C39.319,14.771 38.989,14.663 38.589,14.663 C38.282,14.663 38.019,14.726 37.799,14.853 C37.579,14.98 37.399,15.148 37.259,15.358 C37.119,15.568 37.015,15.804 36.949,16.068 C36.882,16.332 36.849,16.596 36.849,16.863 C36.849,17.136 36.881,17.403 36.944,17.663 C37.007,17.924 37.109,18.157 37.249,18.363 C37.389,18.57 37.569,18.735 37.789,18.858 C38.009,18.981 38.276,19.043 38.589,19.043 C39.035,19.043 39.394,18.92 39.664,18.674 C39.934,18.427 40.106,18.087 40.179,17.653 L40.819,17.653 C40.765,17.94 40.68,18.202 40.564,18.438 C40.447,18.674 40.297,18.877 40.114,19.048 C39.93,19.218 39.712,19.349 39.459,19.443 C39.206,19.537 38.916,19.583 38.589,19.583 C38.175,19.583 37.819,19.514 37.519,19.373 C37.219,19.233 36.973,19.042 36.779,18.799 C36.586,18.555 36.442,18.267 36.349,17.934 C36.256,17.6 36.209,17.244 36.209,16.864 C36.209,16.504 36.26,16.159 36.364,15.829 C36.468,15.499 36.619,15.208 36.819,14.954 C37.019,14.701 37.267,14.499 37.564,14.35 C37.86,14.2 38.202,14.124 38.589,14.124 C39.189,14.124 39.674,14.268 40.044,14.555 C40.414,14.841 40.646,15.288 40.739,15.895 L40.129,15.895 L40.129,15.893 Z" id="Shape"></path>
                <path d="M42.019,19.443 L42.019,12.243 L42.619,12.243 L42.619,14.983 C42.859,14.73 43.107,14.523 43.364,14.363 C43.621,14.203 43.929,14.123 44.289,14.123 C44.609,14.123 44.905,14.179 45.179,14.288 C45.452,14.398 45.682,14.59 45.869,14.863 C45.996,15.05 46.071,15.242 46.094,15.438 C46.117,15.634 46.129,15.839 46.129,16.053 L46.129,19.443 L45.529,19.443 L45.529,16.063 C45.529,15.596 45.425,15.247 45.219,15.013 C45.013,14.779 44.669,14.662 44.189,14.662 C44.002,14.662 43.832,14.69 43.679,14.747 C43.526,14.804 43.387,14.879 43.264,14.973 C43.141,15.066 43.035,15.173 42.949,15.292 C42.863,15.412 42.796,15.539 42.749,15.673 C42.689,15.839 42.652,15.999 42.639,16.152 C42.626,16.305 42.619,16.472 42.619,16.652 L42.619,19.442 L42.019,19.442 L42.019,19.443 Z" id="Shape"></path>
                <path d="M51.959,18.643 L53.319,14.263 L53.929,14.263 L52.249,19.443 L51.609,19.443 L50.479,15.093 L50.459,15.093 L49.309,19.443 L48.589,19.443 L47.009,14.263 L47.609,14.263 L48.949,18.683 L50.149,14.263 L50.819,14.263 L51.959,18.643 L51.959,18.643 Z" id="Shape"></path>
                <path d="M54.858,13.133 L54.858,12.242 L55.518,12.242 L55.518,13.133 L54.858,13.133 L54.858,13.133 Z M54.889,19.443 L54.889,14.263 L55.489,14.263 L55.489,19.443 L54.889,19.443 L54.889,19.443 Z" id="Shape"></path>
                <path d="M57.368,17.823 C57.461,18.27 57.63,18.585 57.873,18.768 C58.116,18.952 58.464,19.042 58.918,19.042 C59.138,19.042 59.328,19.016 59.488,18.962 C59.648,18.909 59.78,18.837 59.883,18.747 C59.986,18.657 60.065,18.556 60.118,18.442 C60.171,18.328 60.198,18.209 60.198,18.082 C60.198,17.829 60.116,17.641 59.953,17.518 C59.79,17.395 59.585,17.298 59.338,17.228 C59.091,17.158 58.824,17.098 58.538,17.048 C58.251,16.997 57.984,16.923 57.738,16.822 C57.491,16.722 57.286,16.579 57.123,16.392 C56.959,16.205 56.878,15.942 56.878,15.602 C56.878,15.168 57.036,14.814 57.353,14.537 C57.669,14.261 58.118,14.122 58.698,14.122 C59.258,14.122 59.713,14.247 60.063,14.497 C60.413,14.747 60.625,15.166 60.698,15.752 L60.088,15.752 C60.034,15.353 59.883,15.071 59.633,14.907 C59.383,14.744 59.068,14.662 58.688,14.662 C58.308,14.662 58.018,14.744 57.818,14.907 C57.618,15.071 57.518,15.286 57.518,15.553 C57.518,15.786 57.6,15.964 57.763,16.087 C57.927,16.211 58.132,16.311 58.378,16.388 C58.625,16.464 58.891,16.533 59.178,16.593 C59.465,16.653 59.731,16.738 59.978,16.848 C60.225,16.957 60.429,17.106 60.593,17.292 C60.757,17.48 60.838,17.739 60.838,18.072 C60.838,18.319 60.784,18.537 60.678,18.727 C60.572,18.916 60.425,19.076 60.238,19.202 C60.051,19.329 59.83,19.424 59.573,19.487 C59.316,19.55 59.034,19.582 58.728,19.582 C58.421,19.582 58.149,19.537 57.913,19.447 C57.676,19.357 57.475,19.232 57.308,19.072 C57.141,18.912 57.012,18.725 56.918,18.512 C56.824,18.298 56.771,18.069 56.758,17.822 L57.368,17.822 L57.368,17.823 Z" id="Shape"></path>
                <path d="M62.368,17.823 C62.461,18.27 62.63,18.585 62.873,18.768 C63.116,18.952 63.464,19.042 63.918,19.042 C64.138,19.042 64.328,19.016 64.488,18.962 C64.648,18.909 64.78,18.837 64.883,18.747 C64.986,18.657 65.065,18.556 65.118,18.442 C65.171,18.328 65.198,18.209 65.198,18.082 C65.198,17.829 65.116,17.641 64.953,17.518 C64.79,17.395 64.585,17.298 64.338,17.228 C64.091,17.158 63.824,17.098 63.538,17.048 C63.251,16.997 62.984,16.923 62.738,16.822 C62.491,16.722 62.286,16.579 62.123,16.392 C61.959,16.205 61.878,15.942 61.878,15.602 C61.878,15.168 62.036,14.814 62.353,14.537 C62.669,14.261 63.118,14.122 63.698,14.122 C64.258,14.122 64.713,14.247 65.063,14.497 C65.413,14.747 65.625,15.166 65.698,15.752 L65.088,15.752 C65.034,15.353 64.883,15.071 64.633,14.907 C64.383,14.744 64.068,14.662 63.688,14.662 C63.308,14.662 63.018,14.744 62.818,14.907 C62.618,15.071 62.518,15.286 62.518,15.553 C62.518,15.786 62.6,15.964 62.763,16.087 C62.927,16.211 63.132,16.311 63.378,16.388 C63.625,16.464 63.891,16.533 64.178,16.593 C64.465,16.653 64.731,16.738 64.978,16.848 C65.225,16.957 65.429,17.106 65.593,17.292 C65.757,17.48 65.838,17.739 65.838,18.072 C65.838,18.319 65.784,18.537 65.678,18.727 C65.572,18.916 65.425,19.076 65.238,19.202 C65.051,19.329 64.83,19.424 64.573,19.487 C64.316,19.55 64.034,19.582 63.728,19.582 C63.421,19.582 63.149,19.537 62.913,19.447 C62.676,19.357 62.475,19.232 62.308,19.072 C62.141,18.912 62.012,18.725 61.918,18.512 C61.824,18.298 61.771,18.069 61.758,17.822 L62.368,17.822 L62.368,17.823 Z" id="Shape"></path>
                <path d="M67.388,16.993 C67.388,17.273 67.425,17.538 67.498,17.788 C67.571,18.038 67.679,18.255 67.823,18.438 C67.967,18.621 68.148,18.768 68.368,18.877 C68.588,18.987 68.842,19.042 69.128,19.042 C69.521,19.042 69.858,18.939 70.138,18.732 C70.418,18.525 70.605,18.232 70.698,17.852 L71.368,17.852 C71.295,18.098 71.198,18.327 71.078,18.537 C70.958,18.747 70.808,18.931 70.628,19.087 C70.448,19.244 70.234,19.366 69.988,19.452 C69.741,19.539 69.455,19.582 69.128,19.582 C68.714,19.582 68.358,19.513 68.058,19.372 C67.758,19.232 67.512,19.041 67.318,18.798 C67.125,18.554 66.981,18.268 66.888,17.938 C66.795,17.608 66.748,17.252 66.748,16.873 C66.748,16.494 66.803,16.137 66.913,15.804 C67.023,15.47 67.179,15.179 67.383,14.929 C67.586,14.679 67.835,14.482 68.128,14.338 C68.421,14.195 68.754,14.123 69.128,14.123 C69.841,14.123 70.401,14.368 70.808,14.858 C71.215,15.348 71.415,16.06 71.408,16.993 L67.388,16.993 L67.388,16.993 Z M70.769,16.493 C70.769,16.24 70.734,16.002 70.664,15.778 C70.594,15.554 70.49,15.361 70.354,15.198 C70.217,15.035 70.045,14.905 69.839,14.808 C69.633,14.711 69.396,14.662 69.129,14.662 C68.862,14.662 68.627,14.712 68.424,14.812 C68.22,14.912 68.047,15.045 67.904,15.211 C67.76,15.378 67.646,15.571 67.559,15.791 C67.473,16.012 67.416,16.245 67.389,16.491 L70.769,16.491 L70.769,16.493 Z" id="Shape"></path>
                <path d="M73.178,19.443 L72.578,19.443 L72.578,14.263 L73.178,14.263 L73.178,14.983 C73.418,14.73 73.666,14.523 73.923,14.363 C74.18,14.203 74.488,14.123 74.848,14.123 C75.168,14.123 75.464,14.179 75.738,14.288 C76.011,14.398 76.241,14.59 76.428,14.863 C76.555,15.05 76.63,15.242 76.653,15.438 C76.676,15.634 76.688,15.839 76.688,16.053 L76.688,19.443 L76.088,19.443 L76.088,16.063 C76.088,15.596 75.984,15.247 75.778,15.013 C75.572,14.779 75.228,14.662 74.748,14.662 C74.561,14.662 74.391,14.69 74.238,14.747 C74.085,14.804 73.946,14.879 73.823,14.973 C73.7,15.066 73.594,15.173 73.508,15.292 C73.422,15.412 73.355,15.539 73.308,15.673 C73.248,15.839 73.211,15.999 73.198,16.152 C73.185,16.305 73.178,16.472 73.178,16.652 L73.178,19.443 L73.178,19.443 Z" id="Shape"></path>
                <path d="M78.488,17.823 C78.581,18.27 78.75,18.585 78.993,18.768 C79.236,18.952 79.584,19.042 80.038,19.042 C80.258,19.042 80.448,19.016 80.608,18.962 C80.768,18.909 80.9,18.837 81.003,18.747 C81.106,18.657 81.185,18.556 81.238,18.442 C81.291,18.328 81.318,18.209 81.318,18.082 C81.318,17.829 81.236,17.641 81.073,17.518 C80.91,17.395 80.705,17.298 80.458,17.228 C80.211,17.158 79.944,17.098 79.658,17.048 C79.371,16.997 79.104,16.923 78.858,16.822 C78.611,16.722 78.406,16.579 78.243,16.392 C78.079,16.205 77.998,15.942 77.998,15.602 C77.998,15.168 78.156,14.814 78.473,14.537 C78.789,14.261 79.238,14.122 79.818,14.122 C80.378,14.122 80.833,14.247 81.183,14.497 C81.533,14.747 81.745,15.166 81.818,15.752 L81.208,15.752 C81.154,15.353 81.003,15.071 80.753,14.907 C80.503,14.744 80.188,14.662 79.808,14.662 C79.428,14.662 79.138,14.744 78.938,14.907 C78.738,15.071 78.638,15.286 78.638,15.553 C78.638,15.786 78.72,15.964 78.883,16.087 C79.047,16.211 79.252,16.311 79.498,16.388 C79.745,16.464 80.011,16.533 80.298,16.593 C80.585,16.653 80.851,16.738 81.098,16.848 C81.345,16.957 81.549,17.106 81.713,17.292 C81.877,17.48 81.958,17.739 81.958,18.072 C81.958,18.319 81.904,18.537 81.798,18.727 C81.692,18.916 81.545,19.076 81.358,19.202 C81.171,19.329 80.95,19.424 80.693,19.487 C80.436,19.55 80.154,19.582 79.848,19.582 C79.541,19.582 79.269,19.537 79.033,19.447 C78.796,19.357 78.595,19.232 78.428,19.072 C78.261,18.912 78.132,18.725 78.038,18.512 C77.944,18.298 77.891,18.069 77.878,17.822 L78.488,17.822 L78.488,17.823 Z" id="Shape"></path>
                <path d="M86.809,15.893 C86.702,15.506 86.519,15.205 86.259,14.988 C85.999,14.771 85.669,14.663 85.269,14.663 C84.962,14.663 84.699,14.726 84.479,14.853 C84.259,14.98 84.079,15.148 83.939,15.358 C83.799,15.568 83.695,15.804 83.629,16.068 C83.562,16.332 83.529,16.596 83.529,16.863 C83.529,17.136 83.561,17.403 83.624,17.663 C83.687,17.924 83.789,18.157 83.929,18.363 C84.069,18.57 84.249,18.735 84.469,18.858 C84.689,18.981 84.956,19.043 85.269,19.043 C85.715,19.043 86.074,18.92 86.344,18.674 C86.614,18.427 86.786,18.087 86.859,17.653 L87.499,17.653 C87.445,17.94 87.36,18.202 87.244,18.438 C87.127,18.674 86.977,18.877 86.794,19.048 C86.61,19.218 86.392,19.349 86.139,19.443 C85.886,19.537 85.596,19.583 85.269,19.583 C84.855,19.583 84.499,19.514 84.199,19.373 C83.899,19.233 83.653,19.042 83.459,18.799 C83.266,18.555 83.122,18.267 83.029,17.934 C82.936,17.6 82.889,17.244 82.889,16.864 C82.889,16.504 82.94,16.159 83.044,15.829 C83.148,15.499 83.299,15.208 83.499,14.954 C83.699,14.701 83.947,14.499 84.244,14.35 C84.54,14.2 84.882,14.124 85.269,14.124 C85.869,14.124 86.354,14.268 86.724,14.555 C87.094,14.841 87.326,15.288 87.419,15.895 L86.809,15.895 L86.809,15.893 Z" id="Shape"></path>
                <path d="M88.699,19.443 L88.699,12.243 L89.299,12.243 L89.299,14.983 C89.539,14.73 89.787,14.523 90.044,14.363 C90.301,14.203 90.609,14.123 90.969,14.123 C91.289,14.123 91.585,14.179 91.859,14.288 C92.132,14.398 92.362,14.59 92.549,14.863 C92.676,15.05 92.751,15.242 92.774,15.438 C92.797,15.634 92.809,15.839 92.809,16.053 L92.809,19.443 L92.209,19.443 L92.209,16.063 C92.209,15.596 92.105,15.247 91.899,15.013 C91.693,14.779 91.349,14.662 90.869,14.662 C90.682,14.662 90.512,14.69 90.359,14.747 C90.206,14.804 90.067,14.879 89.944,14.973 C89.821,15.066 89.715,15.173 89.629,15.292 C89.543,15.412 89.476,15.539 89.429,15.673 C89.369,15.839 89.332,15.999 89.319,16.152 C89.306,16.305 89.299,16.472 89.299,16.652 L89.299,19.442 L88.699,19.442 L88.699,19.443 Z" id="Shape"></path>
                <path d="M96.639,16.423 C96.752,16.409 96.887,16.389 97.043,16.362 C97.2,16.336 97.328,16.299 97.429,16.252 C97.53,16.206 97.59,16.127 97.614,16.018 C97.637,15.908 97.649,15.806 97.649,15.712 C97.649,15.406 97.551,15.154 97.354,14.957 C97.157,14.761 96.826,14.662 96.359,14.662 C96.153,14.662 95.963,14.681 95.789,14.718 C95.616,14.754 95.464,14.818 95.334,14.907 C95.204,14.996 95.097,15.117 95.014,15.267 C94.931,15.416 94.875,15.605 94.849,15.831 L94.239,15.831 C94.259,15.524 94.329,15.263 94.449,15.047 C94.569,14.83 94.724,14.653 94.914,14.517 C95.104,14.381 95.324,14.281 95.574,14.217 C95.824,14.153 96.088,14.121 96.369,14.121 C96.629,14.121 96.873,14.149 97.103,14.206 C97.333,14.263 97.533,14.353 97.703,14.477 C97.873,14.601 98.007,14.765 98.103,14.972 C98.2,15.178 98.248,15.432 98.248,15.732 L98.248,18.552 C98.248,18.785 98.29,18.934 98.373,18.996 C98.457,19.059 98.625,19.045 98.879,18.951 L98.879,19.422 C98.832,19.435 98.764,19.455 98.674,19.482 C98.584,19.509 98.495,19.522 98.408,19.522 C98.314,19.522 98.224,19.512 98.138,19.492 C98.038,19.478 97.958,19.447 97.898,19.397 C97.838,19.347 97.79,19.287 97.753,19.217 C97.716,19.147 97.69,19.071 97.678,18.987 C97.664,18.904 97.657,18.815 97.657,18.722 C97.404,19.001 97.114,19.215 96.788,19.362 C96.461,19.508 96.107,19.582 95.727,19.582 C95.5,19.582 95.282,19.553 95.072,19.492 C94.862,19.432 94.677,19.339 94.517,19.212 C94.357,19.086 94.23,18.931 94.137,18.747 C94.043,18.564 93.997,18.346 93.997,18.093 C93.997,17.212 94.601,16.693 95.807,16.532 L96.639,16.423 L96.639,16.423 Z M97.648,16.723 C97.394,16.829 97.138,16.9 96.878,16.933 C96.618,16.966 96.357,16.993 96.098,17.013 C95.638,17.046 95.28,17.15 95.023,17.323 C94.767,17.497 94.638,17.76 94.638,18.113 C94.638,18.273 94.669,18.412 94.733,18.528 C94.796,18.645 94.88,18.742 94.983,18.818 C95.087,18.895 95.207,18.952 95.343,18.988 C95.479,19.025 95.618,19.043 95.758,19.043 C95.998,19.043 96.232,19.014 96.458,18.953 C96.685,18.893 96.886,18.802 97.062,18.679 C97.239,18.555 97.38,18.399 97.487,18.208 C97.594,18.019 97.647,17.793 97.647,17.533 L97.647,16.723 L97.648,16.723 Z" id="Shape"></path>
                <path d="M99.299,14.763 L99.299,14.263 L100.069,14.263 L100.069,13.443 C100.069,13.03 100.153,12.703 100.319,12.463 C100.486,12.224 100.769,12.104 101.169,12.104 C101.263,12.104 101.35,12.107 101.43,12.114 C101.51,12.121 101.59,12.131 101.669,12.144 L101.669,12.694 C101.536,12.661 101.416,12.644 101.31,12.644 C101.157,12.644 101.037,12.672 100.951,12.729 C100.863,12.786 100.801,12.861 100.761,12.954 C100.721,13.048 100.696,13.152 100.686,13.269 C100.676,13.385 100.67,13.503 100.67,13.623 L100.67,14.264 L101.67,14.264 L101.67,14.764 L100.67,14.764 L100.67,19.444 L100.07,19.444 L100.07,14.764 L99.299,14.764 L99.299,14.763 Z" id="Shape"></path>
                <path d="M104.418,19.462 C104.346,19.476 104.248,19.499 104.129,19.532 C104.008,19.565 103.875,19.582 103.729,19.582 C103.428,19.582 103.201,19.508 103.043,19.357 C102.887,19.207 102.809,18.939 102.809,18.552 L102.809,14.762 L102.079,14.762 L102.079,14.262 L102.809,14.262 L102.809,12.822 L103.409,12.822 L103.409,14.262 L104.38,14.262 L104.38,14.762 L103.409,14.762 L103.409,18.312 C103.409,18.439 103.413,18.548 103.419,18.642 C103.426,18.735 103.446,18.812 103.48,18.871 C103.513,18.932 103.565,18.975 103.634,19.001 C103.704,19.028 103.803,19.041 103.929,19.041 C104.009,19.041 104.091,19.035 104.175,19.021 C104.258,19.007 104.339,18.991 104.419,18.971 L104.419,19.462 L104.418,19.462 Z" id="Shape"></path>
            </g>
        </g>
    </g>
</svg>