<?xml version="1.0" encoding="UTF-8" standalone="no"?>
<svg width="155px" height="49px" viewBox="0 0 155 49" version="1.1" xmlns="http://www.w3.org/2000/svg" xmlns:xlink="http://www.w3.org/1999/xlink" xmlns:sketch="http://www.bohemiancoding.com/sketch/ns">
    <!-- Generator: Sketch 3.2.2 (9983) - http://www.bohemiancoding.com/sketch -->
    <title>PLOS</title>
    <desc>Created with Sketch.</desc>
    <defs></defs>
    <g id="Page-1" stroke="none" stroke-width="1" fill="none" fill-rule="evenodd" sketch:type="MSPage">
        <g id="PLOS" sketch:type="MSLayerGroup" fill="#000000">
            <g id="g5" sketch:type="MSShapeGroup">
                <g id="g7">
                    <g id="g9">
                        <g id="g11" transform="translate(53.000000, 8.000000)">
                            <path d="M12.759,0.861 L2.692,0.861 C1.687,0.861 0.868,1.684 0.868,2.69 L0.868,31.048 C0.868,32.053 1.687,32.876 2.692,32.876 L6.634,32.876 C7.621,32.876 8.455,32.039 8.455,31.048 L8.455,21.988 L12.804,21.988 C18.624,21.988 23.368,17.211 23.368,11.341 C23.369,5.563 18.609,0.861 12.759,0.861 L12.759,0.861 Z M8.456,8.151 L12.418,8.151 C14.294,8.151 15.822,9.564 15.822,11.298 C15.822,13.23 14.326,14.748 12.418,14.748 L8.456,14.748 L8.456,8.151 L8.456,8.151 Z M45.561,27.538 L45.561,31.049 C45.561,32.055 44.741,32.877 43.736,32.877 L28.055,32.877 C27.05,32.877 26.234,32.055 26.234,31.049 L26.234,2.69 C26.234,1.684 27.05,0.861 28.055,0.861 L31.996,0.861 C32.984,0.861 33.818,1.698 33.818,2.69 L33.818,25.717 L43.735,25.717 C44.74,25.718 45.561,26.534 45.561,27.538 L45.561,27.538 L45.561,27.538 Z M61.816,0.439 C52.778,0.439 45.422,7.829 45.422,16.915 C45.422,26.1 52.622,33.3 61.816,33.3 C71.027,33.3 78.246,26.1 78.246,16.915 C78.246,7.829 70.876,0.439 61.816,0.439 L61.816,0.439 Z M61.816,25.718 C56.959,25.718 53.009,21.768 53.009,16.915 C53.009,12.009 56.958,8.022 61.816,8.022 C66.612,8.022 70.66,12.093 70.66,16.915 C70.66,21.768 66.693,25.718 61.816,25.718 L61.816,25.718 Z M101.6,23.811 C101.6,28.415 97.79,33.3 90.734,33.3 C84.871,33.3 81.505,30.533 80.615,29.684 C80.197,29.266 79.452,28.526 80.216,27.174 L81.766,24.506 C82.342,23.495 83.826,23.223 84.711,23.916 C87.075,25.507 89.12,26.361 90.565,26.361 C92.212,26.361 93.456,25.376 93.456,24.066 C93.456,22.947 92.88,21.575 88.644,19.859 C86.498,18.987 79.957,16.354 79.957,9.672 C79.957,5.22 83.292,0.437 90.606,0.437 C95.447,0.437 99.096,2.995 99.777,3.507 C100.124,3.708 100.437,4.162 100.554,4.707 C100.677,5.276 100.568,5.858 100.263,6.303 L98.644,8.726 C97.964,9.747 96.65,10.116 95.747,9.52 C93.53,8.119 91.583,7.338 90.346,7.338 C88.463,7.338 87.588,8.523 87.588,9.327 C87.588,10.394 88.121,11.607 92.018,13.19 C96.747,15.097 101.6,17.852 101.6,23.811 L101.6,23.811 L101.6,23.811 Z" id="path13"></path>
                        </g>
                        <g id="g15">
                            <g id="g17">
                                <path d="M40.931,11.056 C42.745,11.617 44.673,10.602 45.236,8.793 C45.8,6.971 44.783,5.047 42.966,4.483 C41.155,3.922 39.222,4.931 38.657,6.753 C38.099,8.563 39.116,10.494 40.931,11.056 L40.931,11.056 Z" id="path19"></path>
                                <path d="M48.974,28.184 C49.257,27.276 48.749,26.311 47.841,26.028 C46.937,25.751 45.975,26.26 45.695,27.168 C45.414,28.068 45.918,29.037 46.821,29.316 C47.729,29.596 48.695,29.085 48.974,28.184 L48.974,28.184 Z" id="path21"></path>
                                <path d="M30.464,4.104 C31.376,4.385 32.34,3.875 32.62,2.971 C32.897,2.07 32.394,1.099 31.485,0.818 C30.574,0.536 29.606,1.049 29.329,1.951 C29.048,2.854 29.553,3.82 30.464,4.104 L30.464,4.104 Z" id="path23"></path>
                                <path d="M6.717,33.938 C5.81,33.659 4.838,34.167 4.558,35.081 C4.277,35.985 4.792,36.942 5.697,37.226 C6.601,37.502 7.566,37.006 7.844,36.103 C8.129,35.184 7.616,34.216 6.717,33.938 L6.717,33.938 Z" id="path25"></path>
                                <path d="M36.712,41.927 C35.535,41.561 34.28,42.229 33.917,43.401 C33.552,44.581 34.21,45.836 35.39,46.202 C36.564,46.563 37.82,45.901 38.186,44.723 C38.547,43.551 37.888,42.291 36.712,41.927 L36.712,41.927 Z" id="path27"></path>
                                <path d="M14.183,8.176 C14.633,6.723 13.816,5.184 12.363,4.73 C10.916,4.283 9.371,5.091 8.922,6.544 C8.471,7.993 9.285,9.54 10.733,9.989 C12.188,10.44 13.735,9.625 14.183,8.176 L14.183,8.176 Z" id="path29"></path>
                                <path d="M20.021,43.505 C18.566,43.053 17.032,43.864 16.581,45.32 C16.134,46.763 16.939,48.308 18.392,48.758 C19.84,49.204 21.375,48.39 21.824,46.943 C22.276,45.489 21.471,43.953 20.021,43.505 L20.021,43.505 Z" id="path31"></path>
                                <path d="M3.568,16.911 C2.478,16.573 1.321,17.182 0.981,18.275 C0.647,19.357 1.257,20.516 2.346,20.853 C3.434,21.189 4.59,20.58 4.926,19.499 C5.265,18.404 4.655,17.247 3.568,16.911 L3.568,16.911 Z" id="path33"></path>
                            </g>
                            <g id="g35" transform="translate(8.000000, 8.000000)">
                                <g id="g37">
                                    <path d="M30.95,8.017 C28.659,4.375 25.12,1.845 21.065,0.82 C21.042,0.811 21.02,0.798 21.001,0.79 L20.995,0.803 C19.692,0.482 18.338,0.302 16.952,0.302 C13.848,0.302 10.819,1.18 8.186,2.838 C0.482,7.692 -1.841,17.905 3.007,25.613 C6.046,30.439 11.278,33.322 17.006,33.322 L17.006,33.322 C20.108,33.322 23.143,32.445 25.775,30.788 C33.479,25.938 35.8,15.718 30.95,8.017 L30.95,8.017 L30.95,8.017 Z M24.601,28.923 C22.624,30.165 20.377,30.869 18.064,31.042 C20.033,29.381 21.676,27.002 23.075,23.801 L23.075,23.801 C23.531,23.61 23.986,23.407 24.426,23.196 C24.874,22.973 25.309,22.75 25.732,22.508 C26.155,22.274 26.575,22.026 26.969,21.759 C27.334,21.528 27.672,21.281 27.996,21.04 C28.08,21.325 28.154,21.617 28.213,21.893 C28.281,22.246 28.33,22.584 28.367,22.917 C28.4,23.24 28.41,23.553 28.4,23.861 C28.396,24.156 28.371,24.435 28.33,24.691 C28.288,24.96 28.242,25.187 28.164,25.414 C27.85,26.409 26.153,27.943 24.601,28.923 L24.601,28.923 Z M4.952,24.546 C5.134,24.643 5.303,24.745 5.498,24.834 C5.852,24.999 6.212,25.137 6.608,25.268 C6.983,25.385 7.378,25.505 7.77,25.596 C8.032,25.661 8.304,25.701 8.574,25.753 C8.821,26.977 9.167,28.107 9.663,29.089 C7.796,27.979 6.173,26.445 4.952,24.546 L4.952,24.546 Z M10.464,5.443 C10.757,5.458 11.066,5.479 11.392,5.534 C11.714,5.576 12.053,5.648 12.394,5.725 C12.679,5.792 12.97,5.887 13.263,5.981 C12.376,7.205 11.546,8.631 10.778,10.297 C9.461,13.205 8.627,16.378 8.305,19.727 C8.154,21.333 8.187,22.831 8.341,24.241 C8.263,24.22 8.183,24.212 8.107,24.19 C7.744,24.102 7.386,23.999 7.056,23.895 C6.718,23.785 6.406,23.661 6.091,23.516 C5.798,23.381 5.522,23.243 5.254,23.069 C5.001,22.923 4.778,22.764 4.578,22.602 C4.367,22.43 4.184,22.253 4.029,22.09 C3.553,21.604 3.175,20.582 3.13,20.361 L3.126,20.361 C1.874,15.455 3.233,10.211 6.983,6.592 C7.829,5.786 9.086,5.371 10.464,5.443 L10.464,5.443 Z M29.087,9.188 C29.534,9.897 29.911,10.648 30.235,11.425 C30.393,11.808 30.52,12.196 30.635,12.593 C30.75,12.979 30.879,13.36 30.965,13.752 C31.075,14.261 31.055,14.785 30.879,15.279 C30.799,15.516 30.713,15.76 30.6,15.997 C30.486,16.244 30.344,16.492 30.194,16.741 C30.03,16.993 29.851,17.247 29.641,17.512 C29.436,17.773 29.211,18.027 28.989,18.275 C28.88,18.382 28.76,18.489 28.647,18.598 C28.565,18.408 28.493,18.214 28.405,18.027 C28.218,17.622 28.012,17.218 27.789,16.818 C27.565,16.415 27.329,16.018 27.083,15.623 C26.833,15.221 26.569,14.822 26.292,14.435 C26.08,14.134 25.853,13.844 25.63,13.548 C25.879,10.051 25.547,7.135 24.687,4.783 C26.427,5.896 27.944,7.372 29.087,9.188 L29.087,9.188 Z M16.354,29.607 C15.342,30.383 14.276,30.769 13.466,30.644 C12.551,30.488 11.639,29.706 11.028,28.55 C10.602,27.737 10.308,26.859 10.097,25.963 C10.174,25.974 10.243,25.984 10.317,25.989 C10.755,26.024 11.203,26.048 11.664,26.057 C11.826,26.059 11.986,26.061 12.143,26.061 C12.45,26.061 12.75,26.057 13.055,26.04 C13.53,26.025 14.002,25.997 14.467,25.948 C14.946,25.915 15.432,25.849 15.923,25.783 C16.402,25.716 16.885,25.625 17.37,25.531 C17.853,25.439 18.339,25.329 18.82,25.212 C19.258,25.104 19.689,24.981 20.125,24.848 C19.015,26.928 17.771,28.496 16.354,29.607 L16.354,29.607 Z M9.772,19.861 C10.081,16.683 10.872,13.67 12.12,10.912 C12.917,9.183 13.776,7.728 14.699,6.519 C15.042,6.672 15.393,6.829 15.761,7.017 C16.16,7.216 16.555,7.436 16.949,7.673 C17.342,7.897 17.734,8.152 18.109,8.402 C18.497,8.665 18.885,8.94 19.251,9.215 C19.627,9.506 19.998,9.796 20.357,10.111 C20.72,10.412 21.076,10.726 21.419,11.049 C21.769,11.379 22.108,11.717 22.436,12.05 C22.761,12.389 23.083,12.735 23.388,13.088 C23.409,13.106 23.421,13.126 23.441,13.143 C23.432,13.228 23.437,13.306 23.432,13.388 C23.14,16.591 22.42,19.614 21.298,22.365 C21.199,22.597 21.098,22.82 20.995,23.053 C20.613,23.192 20.233,23.321 19.847,23.434 C19.392,23.571 18.939,23.705 18.478,23.817 C18.015,23.927 17.555,24.035 17.1,24.125 C16.636,24.214 16.173,24.296 15.716,24.364 C15.261,24.426 14.809,24.483 14.342,24.518 C13.894,24.563 13.454,24.591 12.997,24.606 C12.559,24.625 12.133,24.627 11.702,24.62 C11.272,24.61 10.85,24.591 10.436,24.556 C10.227,24.537 10.028,24.507 9.829,24.486 C9.614,22.82 9.649,21.188 9.772,19.861 L9.772,19.861 Z M25.364,15.65 C25.53,15.892 25.702,16.137 25.857,16.382 C26.088,16.759 26.313,17.134 26.524,17.516 C26.727,17.887 26.919,18.252 27.093,18.636 C27.243,18.958 27.375,19.275 27.504,19.59 C27.412,19.658 27.332,19.733 27.238,19.802 C26.907,20.049 26.554,20.302 26.177,20.55 C25.802,20.791 25.411,21.024 25.017,21.248 C24.622,21.467 24.224,21.677 23.813,21.88 C24.516,19.91 25.04,17.833 25.364,15.65 L25.364,15.65 Z M20.511,2.956 C21.243,3.167 21.92,3.858 22.407,4.908 C23.127,6.533 23.487,8.609 23.505,11.08 C23.489,11.064 23.484,11.054 23.472,11.04 C23.127,10.691 22.774,10.342 22.413,9.999 C22.05,9.658 21.676,9.326 21.298,9.008 C20.914,8.683 20.525,8.371 20.126,8.063 C19.731,7.769 19.329,7.482 18.915,7.204 C18.511,6.932 18.097,6.669 17.677,6.421 C17.258,6.173 16.833,5.939 16.412,5.731 C16.16,5.6 15.915,5.493 15.665,5.377 C16.217,4.792 16.786,4.272 17.384,3.832 L17.384,3.836 C18.482,3.083 19.61,2.767 20.431,2.934 C20.46,2.946 20.487,2.946 20.511,2.956 L20.511,2.956 Z M16.562,2.613 L16.56,2.611 C15.728,3.206 14.948,3.929 14.21,4.779 C14.113,4.743 14.014,4.696 13.915,4.667 C13.514,4.533 13.118,4.415 12.729,4.318 C12.342,4.228 11.964,4.153 11.61,4.103 C11.278,4.047 10.962,4.026 10.647,4.01 C12.536,3.074 14.597,2.559 16.712,2.526 C16.663,2.558 16.61,2.575 16.562,2.613 L16.562,2.613 Z M29.805,22.77 C29.767,22.395 29.71,22.007 29.628,21.596 C29.546,21.218 29.448,20.823 29.331,20.421 C29.294,20.3 29.245,20.18 29.206,20.061 C29.489,19.803 29.767,19.54 30.03,19.271 C30.301,18.978 30.557,18.692 30.774,18.407 C30.946,18.195 31.087,17.979 31.234,17.766 C31.108,19.607 30.629,21.414 29.817,23.085 C29.811,22.977 29.815,22.877 29.805,22.77 L29.805,22.77 Z" id="path39"></path>
                                    <path d="M13.88,18.512 C14.829,18.512 15.599,17.746 15.599,16.796 C15.599,15.847 14.829,15.075 13.88,15.072 C12.93,15.075 12.157,15.851 12.157,16.8 C12.157,17.746 12.932,18.512 13.88,18.512 L13.88,18.512 Z" id="path41"></path>
                                </g>
                            </g>
                        </g>
                    </g>
                </g>
            </g>
        </g>
    </g>
</svg>