<?xml version="1.0" encoding="UTF-8" standalone="no"?>
<svg width="342px" height="123px" viewBox="0 0 342 123" version="1.1" xmlns="http://www.w3.org/2000/svg" xmlns:xlink="http://www.w3.org/1999/xlink" xmlns:sketch="http://www.bohemiancoding.com/sketch/ns">
    <!-- Generator: Sketch 3.2.2 (9983) - http://www.bohemiancoding.com/sketch -->
    <title>Helmholtz-Gemeinschaft</title>
    <desc>Created with Sketch.</desc>
    <defs></defs>
    <g id="Page-1" stroke="none" stroke-width="1" fill="none" fill-rule="evenodd" sketch:type="MSPage">
        <g id="Helmholtz-Gemeinschaft" sketch:type="MSLayerGroup" fill="#0060A0">
            <g id="Group" sketch:type="MSShapeGroup">
                <path d="M88.027,60.805 L88.027,37.312 L83.441,37.312 L83.441,46.914 L75.489,46.914 L75.489,37.312 L70.902,37.312 L70.902,60.805 L75.489,60.805 L75.489,50.973 L83.441,50.973 L83.441,60.805 L88.027,60.805 Z" id="Shape"></path>
                <path d="M112.932,60.805 L112.932,56.714 L102.043,56.714 L102.043,51.006 L111.315,51.006 L111.315,46.914 L102.043,46.914 L102.043,41.404 L112.932,41.404 L112.932,37.312 L97.457,37.312 L97.457,60.805 L112.932,60.805 Z" id="Shape"></path>
                <path d="M136.623,60.805 L136.623,56.714 L125.966,56.714 L125.966,37.312 L121.38,37.312 L121.38,60.805 L136.623,60.805 Z" id="Shape"></path>
                <path d="M165.591,60.805 L165.591,37.312 L161.07,37.312 L154.967,50.016 L148.83,37.312 L144.309,37.312 L144.309,60.805 L148.896,60.805 L148.896,47.112 L153.416,56.021 L156.518,56.021 L161.005,47.112 L161.005,60.805 L165.591,60.805 Z" id="Shape"></path>
                <path d="M192.146,60.805 L192.146,37.312 L187.559,37.312 L187.559,46.914 L179.607,46.914 L179.607,37.312 L175.02,37.312 L175.02,60.805 L179.607,60.805 L179.607,50.973 L187.559,50.973 L187.559,60.805 L192.146,60.805 Z" id="Shape"></path>
                <path d="M213.553,49.058 C213.553,53.579 213.29,54.668 212.399,55.658 C211.74,56.417 210.716,56.912 209.462,56.912 C208.208,56.912 207.152,56.417 206.491,55.658 C205.601,54.668 205.37,53.579 205.37,49.058 C205.37,44.538 205.601,43.449 206.491,42.459 C207.152,41.7 208.207,41.205 209.462,41.205 C210.716,41.205 211.74,41.7 212.399,42.459 C213.29,43.449 213.553,44.539 213.553,49.058 L213.553,49.058 Z M218.14,49.058 C218.14,45 218.173,42.063 215.798,39.688 C214.149,38.038 212.135,37.114 209.463,37.114 C206.79,37.114 204.745,38.038 203.094,39.688 C200.719,42.063 200.785,45 200.785,49.058 C200.785,53.118 200.719,56.054 203.094,58.43 C204.744,60.079 206.789,61.004 209.463,61.004 C212.135,61.004 214.149,60.08 215.798,58.43 C218.172,56.054 218.14,53.118 218.14,49.058 L218.14,49.058 Z" id="Shape"></path>
                <path d="M242.02,60.805 L242.02,56.714 L231.364,56.714 L231.364,37.312 L226.777,37.312 L226.777,60.805 L242.02,60.805 Z" id="Shape"></path>
                <path d="M262.179,41.404 L262.179,37.312 L245.317,37.312 L245.317,41.404 L251.455,41.404 L251.455,60.805 L256.042,60.805 L256.042,41.404 L262.179,41.404 Z" id="Shape"></path>
                <path d="M283.885,60.805 L283.885,56.714 L273.821,56.714 L283.885,40.942 L283.885,37.312 L268.871,37.312 L268.871,41.404 L278.473,41.404 L268.443,57.11 L268.443,60.805 L283.885,60.805 Z" id="Shape"></path>
                <rect id="Rectangle-path" x="83.439" y="77.992" width="2.293" height="44.4"></rect>
                <g transform="translate(101.000000, 77.000000)" id="Shape">
                    <path d="M15.057,20.857 C13.375,22.633 11.287,23.381 8.95,23.381 C6.644,23.381 4.65,22.539 3.124,21.013 C0.941,18.831 0.973,16.369 0.973,12.099 C0.973,7.83 0.942,5.368 3.124,3.187 C4.65,1.66 6.582,0.819 8.95,0.819 C13.656,0.819 16.398,3.903 17.021,7.706 L13.625,7.706 C13.064,5.274 11.443,3.841 8.95,3.841 C7.641,3.841 6.457,4.371 5.679,5.212 C4.588,6.397 4.339,7.644 4.339,12.099 C4.339,16.556 4.588,17.834 5.679,19.018 C6.458,19.859 7.641,20.358 8.95,20.358 C10.414,20.358 11.693,19.797 12.565,18.8 C13.375,17.865 13.686,16.743 13.686,15.31 L13.686,14.063 L8.95,14.063 L8.95,11.196 L17.052,11.196 L17.052,14.592 C17.051,17.46 16.521,19.299 15.057,20.857 L15.057,20.857 Z"></path>
                    <path d="M23.19,23.194 L23.19,1.006 L37.369,1.006 L37.369,4.028 L26.556,4.028 L26.556,10.511 L35.779,10.511 L35.779,13.502 L26.556,13.502 L26.556,20.171 L37.369,20.171 L37.369,23.194 L23.19,23.194 L23.19,23.194 Z"></path>
                    <path d="M59.338,23.194 L59.338,8.36 L54.228,19.173 L51.735,19.173 L46.5,8.36 L46.5,23.194 L43.134,23.194 L43.134,1.006 L46.5,1.006 L52.981,14.811 L59.337,1.006 L62.703,1.006 L62.703,23.194 L59.338,23.194 L59.338,23.194 Z"></path>
                    <path d="M69.652,23.194 L69.652,1.006 L83.831,1.006 L83.831,4.028 L73.018,4.028 L73.018,10.511 L82.242,10.511 L82.242,13.502 L73.018,13.502 L73.018,20.171 L83.831,20.171 L83.831,23.194 L69.652,23.194 L69.652,23.194 Z"></path>
                    <path d="M89.596,23.194 L89.596,1.006 L92.961,1.006 L92.961,23.194 L89.596,23.194 L89.596,23.194 Z"></path>
                    <path d="M113.56,23.194 L103.308,7.581 L103.308,23.194 L99.942,23.194 L99.942,1.006 L103.027,1.006 L113.278,16.588 L113.278,1.006 L116.644,1.006 L116.644,23.194 L113.56,23.194 L113.56,23.194 Z"></path>
                    <path d="M129.514,23.381 C126.18,23.381 123.78,22.602 121.661,20.452 L123.905,18.239 C125.525,19.859 127.301,20.358 129.576,20.358 C132.473,20.358 134.157,19.111 134.157,16.962 C134.157,15.996 133.877,15.185 133.284,14.655 C132.722,14.126 132.162,13.907 130.853,13.72 L128.235,13.346 C126.428,13.097 124.995,12.473 124.028,11.57 C122.937,10.541 122.407,9.139 122.407,7.331 C122.407,3.467 125.212,0.819 129.824,0.819 C132.753,0.819 134.81,1.567 136.711,3.342 L134.561,5.461 C133.19,4.152 131.6,3.748 129.731,3.748 C127.113,3.748 125.68,5.244 125.68,7.206 C125.68,8.017 125.93,8.733 126.521,9.264 C127.082,9.763 127.986,10.137 129.014,10.292 L131.537,10.666 C133.594,10.978 134.747,11.476 135.682,12.318 C136.897,13.378 137.49,14.966 137.49,16.868 C137.492,20.951 134.157,23.381 129.514,23.381 L129.514,23.381 Z"></path>
                    <path d="M150.33,23.381 C148.024,23.381 146.03,22.539 144.503,21.013 C142.322,18.831 142.353,16.369 142.353,12.099 C142.353,7.83 142.322,5.368 144.503,3.187 C146.03,1.66 148.024,0.819 150.33,0.819 C154.412,0.819 157.466,3.218 158.245,7.644 L154.818,7.644 C154.288,5.399 152.792,3.841 150.331,3.841 C149.022,3.841 147.838,4.34 147.059,5.182 C145.968,6.366 145.719,7.644 145.719,12.099 C145.719,16.556 145.968,17.834 147.059,19.018 C147.838,19.859 149.022,20.358 150.331,20.358 C152.792,20.358 154.32,18.8 154.85,16.556 L158.246,16.556 C157.497,20.981 154.35,23.381 150.33,23.381 L150.33,23.381 Z"></path>
                    <path d="M176.288,23.194 L176.288,13.502 L167.282,13.502 L167.282,23.194 L163.916,23.194 L163.916,1.006 L167.282,1.006 L167.282,10.479 L176.288,10.479 L176.288,1.006 L179.653,1.006 L179.653,23.194 L176.288,23.194 L176.288,23.194 Z"></path>
                    <path d="M199.348,23.194 L197.821,18.737 L189.065,18.737 L187.538,23.194 L183.955,23.194 L192.088,1.006 L194.799,1.006 L202.933,23.194 L199.348,23.194 L199.348,23.194 Z M193.521,6.023 L190.062,15.871 L196.886,15.871 L193.521,6.023 L193.521,6.023 Z"></path>
                    <path d="M210.597,4.028 L210.597,10.791 L219.822,10.791 L219.822,13.814 L210.597,13.814 L210.597,23.194 L207.232,23.194 L207.232,1.006 L221.41,1.006 L221.41,4.028 L210.597,4.028 L210.597,4.028 Z"></path>
                    <path d="M234.155,4.028 L234.155,23.194 L230.789,23.194 L230.789,4.028 L224.682,4.028 L224.682,1.006 L240.263,1.006 L240.263,4.028 L234.155,4.028 L234.155,4.028 Z"></path>
                </g>
                <path d="M6.694,62.148 C7.273,39.42 24.329,20.789 46.361,17.757 C45.147,21.574 44.046,26.089 43.237,31.373 C25.83,32.523 11.901,46.405 10.676,63.793 C9.391,63.36 8.054,62.82 6.694,62.148 L6.694,62.148 Z M0.425,58.078 C0.506,27.228 24.759,2.063 55.243,0.525 C54.301,1.552 50.947,5.56 47.835,13.57 C23.403,15.426 3.993,35.25 2.787,59.86 C1.997,59.318 1.208,58.727 0.425,58.078 L0.425,58.078 Z M15.03,64.937 C15.929,49.782 27.694,37.552 42.64,35.928 C42.161,40.265 41.88,45.055 41.876,50.33 C41.65,50.323 41.422,50.319 41.194,50.319 C31.709,50.319 23.726,56.756 21.377,65.5 C20.051,65.528 17.795,65.464 15.03,64.937 L15.03,64.937 Z" id="Shape"></path>
            </g>
        </g>
    </g>
</svg>