<?xml version="1.0" encoding="UTF-8" standalone="no"?>
<svg width="476px" height="146px" viewBox="0 0 476 146" version="1.1" xmlns="http://www.w3.org/2000/svg" xmlns:xlink="http://www.w3.org/1999/xlink" xmlns:sketch="http://www.bohemiancoding.com/sketch/ns">
    <!-- Generator: Sketch 3.2.2 (9983) - http://www.bohemiancoding.com/sketch -->
    <title>hbz [Converted]</title>
    <desc>Created with Sketch.</desc>
    <defs></defs>
    <g id="Page-1" stroke="none" stroke-width="1" fill="none" fill-rule="evenodd" sketch:type="MSPage">
        <g id="hbz-[Converted]" sketch:type="MSLayerGroup">
            <g id="Group" sketch:type="MSShapeGroup">
                <path d="M322.331,94.978 L322.331,81.756 L312.499,81.756 C308.317,81.756 302.102,81.756 299.728,81.869 L321.878,49.097 L321.878,38.813 L282.55,38.813 L282.55,51.696 L292.494,51.696 C297.919,51.696 302.327,51.583 304.473,51.47 L281.87,84.694 L281.87,94.977 L322.331,94.977 L322.331,94.978 L322.331,94.978 Z" id="Shape" fill="#FA820A"></path>
                <path d="M164.061,23.558 L164.061,94.978 L178.527,94.978 L178.527,67.857 C178.527,58.025 184.177,49.663 191.523,49.663 C196.948,49.663 198.53,53.166 198.53,59.043 L198.53,94.979 L212.883,94.979 L212.883,55.54 C212.883,45.708 208.814,37.572 196.157,37.572 C187.342,37.572 180.9,41.754 177.623,48.082 L177.51,47.969 C178.301,44.692 178.527,39.946 178.527,36.555 L178.527,12.37 C170.164,12.144 161.462,12.483 154.229,13.387 L154.229,22.428 C157.506,22.654 161.348,23.105 164.061,23.558 L164.061,23.558 L164.061,23.558 Z" id="Shape" fill="#FA820A"></path>
                <path d="M239.535,12.208 C231.172,11.982 222.471,12.321 215.238,13.225 L215.238,22.266 C218.515,22.492 222.358,22.944 225.07,23.396 L225.07,93.235 C231.512,95.044 237.84,95.947 245.977,95.947 C265.302,95.947 276.377,82.839 276.377,63.853 C276.377,47.241 269.145,37.522 255.696,37.522 C247.785,37.522 241.569,41.365 238.744,47.467 L238.631,47.467 C239.196,44.529 239.535,39.896 239.535,36.505 L239.535,12.208 L239.535,12.208 L239.535,12.208 Z M261.121,65.321 C261.121,79.221 255.244,84.42 246.994,84.42 C243.942,84.42 241.569,84.081 239.535,83.402 L239.535,67.582 C239.535,58.202 244.056,49.5 251.514,49.5 C258.069,49.5 261.121,54.812 261.121,65.321 L261.121,65.321 L261.121,65.321 Z" id="Shape" fill="#FA820A"></path>
                <path d="M88.475,75.336 L88.475,21.151 L24.199,21.151 L24.199,10.68 L109.668,10.677 L109.672,75.336 L88.475,75.336 L88.475,75.336 Z" id="Shape" fill="#004678"></path>
                <path d="M37.69,78.343 L112.679,78.343 L112.679,10.7 L125.607,10.702 L125.605,94.94 L37.69,94.94 L37.69,78.343 L37.69,78.343 Z" id="Shape" fill="#004678"></path>
                <path d="M34.685,24.157 L34.686,97.946 L109.672,97.946 L109.668,114.94 L24.199,114.94 L24.199,24.157 L34.685,24.157 L34.685,24.157 Z" id="Shape" fill="#004678"></path>
                <path d="M109.668,7.671 L21.194,7.671 L21.194,94.94 L0,94.94 L0,0.893 L109.668,0.89 L109.668,7.671 L109.668,7.671 Z" id="Shape" fill="#004678"></path>
                <path d="M185.527,118.138 C185.366,118.696 185.167,119.473 184.896,120.463 C184.352,122.449 183.522,125.283 182.148,128.898 C181.038,131.917 179.339,135.852 177.957,135.852 C177.055,135.823 176.727,135.75 176.492,135.03 C176.292,134.418 176.114,133.257 175.315,131.035 C174.68,129.279 174.3,127.276 174.045,125.304 C173.816,123.527 173.689,121.768 173.571,120.225 C173.307,120.635 172.875,121.319 172.391,122.138 C171.596,123.486 170.657,125.201 170.088,126.677 C168.546,130.566 167.803,132.661 167.389,133.823 C167.18,134.411 167.053,134.762 166.95,134.987 C166.841,135.225 166.742,135.353 166.593,135.456 C165.797,135.933 164.927,135.56 164.653,135.217 C164.37,134.835 164.396,134.592 164.448,134.224 C164.472,134.053 164.504,133.84 164.513,133.549 C164.523,133.256 164.51,132.885 164.448,132.398 C163.535,125.038 162.829,121.47 162.39,119.659 C162.171,118.755 162.019,118.288 161.941,118.005 C161.859,117.707 161.844,117.56 161.947,117.335 C162.285,116.599 162.928,116.043 163.964,116.722 C164.211,116.874 164.346,117.059 164.432,117.378 C164.513,117.678 164.554,118.111 164.616,118.77 C164.741,120.097 164.955,122.417 165.725,126.644 C166.007,128.24 166.192,129.642 166.345,130.82 C166.486,130.405 166.686,129.835 166.931,129.185 C167.437,127.841 168.134,126.157 168.895,124.795 C169.981,122.841 171.032,121.059 171.86,119.607 C172.693,118.15 173.288,117.051 173.481,116.446 C173.673,115.756 175.154,115.713 175.498,116.227 C175.666,116.471 175.723,116.729 175.736,117.074 C175.749,117.406 175.72,117.844 175.698,118.478 C175.655,119.732 175.641,121.763 176.04,125.287 C176.239,127.045 176.516,128.398 176.86,129.66 C177.179,130.83 177.557,131.922 177.984,133.181 C178.56,132.323 180.419,129.152 182.767,121.067 C183.466,118.66 183.665,117.122 183.901,116.207 C184.149,115.243 184.474,114.86 185.431,114.958 C186.232,115.021 186.508,115.468 186.463,115.985 C186.423,116.452 186.124,116.953 185.878,117.214 C185.81,117.275 185.695,117.556 185.527,118.138 L185.527,118.138 L185.527,118.138 Z" id="Shape" fill="#004678"></path>
                <path d="M198.647,120.755 C198.845,120.883 199.187,121.061 199.489,121.252 C199.644,121.351 199.795,121.456 199.912,121.564 C200.02,121.664 200.136,121.796 200.149,121.952 C200.215,122.355 200.003,122.763 199.38,122.763 C199.071,122.763 198.829,122.665 198.645,122.575 L198.414,122.459 C198.348,122.429 198.316,122.421 198.298,122.421 C197.864,122.434 197.581,122.567 197.115,122.958 C196.634,123.364 195.992,124.02 194.865,125.029 C193.487,126.264 192.818,128.037 192.947,128.783 C193.08,129.62 193.506,130.087 194.134,130.434 C194.453,130.61 194.824,130.755 195.239,130.9 C195.656,131.046 196.112,131.19 196.584,131.362 C197.019,131.54 197.439,131.688 197.823,131.837 C198.21,131.985 198.572,132.139 198.889,132.326 C199.534,132.708 199.985,133.235 200.092,134.152 C200.257,135.503 195.136,138.109 194.763,138.047 C193.926,138.018 193.218,137.339 193.783,136.587 L193.909,136.473 L194.087,136.372 C194.223,136.303 194.408,136.217 194.624,136.12 C195.049,135.929 195.597,135.69 196.135,135.431 C196.673,135.172 197.19,134.896 197.56,134.628 C197.96,134.338 198.092,134.125 198.07,134.001 C198.031,133.765 197.712,133.545 197.057,133.304 C196.429,133.073 195.609,132.856 194.784,132.564 C193.132,131.98 191.352,131.066 191.125,129.058 C190.932,127.319 191.834,125.717 193.005,124.366 C193.593,123.687 194.254,123.065 194.891,122.512 C195.527,121.96 196.14,121.477 196.641,121.07 C197.277,120.496 198.207,120.566 198.647,120.755 L198.647,120.755 L198.647,120.755 Z" id="Shape" fill="#004678"></path>
                <path d="M208.497,120.755 C208.695,120.883 209.037,121.061 209.339,121.252 C209.493,121.351 209.645,121.456 209.762,121.564 C209.869,121.664 209.986,121.796 209.999,121.952 C210.065,122.355 209.852,122.763 209.23,122.763 C208.921,122.763 208.679,122.665 208.494,122.575 L208.263,122.459 C208.197,122.429 208.165,122.421 208.147,122.421 C207.713,122.434 207.43,122.567 206.964,122.958 C206.483,123.364 205.841,124.02 204.714,125.029 C203.336,126.264 202.668,128.037 202.796,128.783 C202.93,129.62 203.355,130.087 203.983,130.434 C204.302,130.61 204.673,130.755 205.088,130.9 C205.505,131.046 205.962,131.19 206.434,131.362 C206.869,131.54 207.288,131.688 207.672,131.837 C208.059,131.985 208.421,132.138 208.738,132.326 C209.383,132.708 209.834,133.235 209.941,134.152 C210.107,135.503 204.985,138.109 204.612,138.047 C203.774,138.018 203.067,137.339 203.631,136.587 L203.758,136.473 L203.936,136.372 C204.072,136.303 204.257,136.217 204.473,136.12 C204.898,135.929 205.446,135.69 205.984,135.431 C206.522,135.172 207.039,134.896 207.409,134.628 C207.809,134.338 207.941,134.125 207.919,134.001 C207.88,133.765 207.561,133.545 206.906,133.304 C206.279,133.073 205.459,132.856 204.633,132.564 C202.981,131.98 201.201,131.066 200.974,129.058 C200.78,127.319 201.683,125.717 202.853,124.366 C203.441,123.687 204.102,123.065 204.74,122.512 C205.376,121.96 205.989,121.477 206.49,121.07 C207.126,120.496 208.057,120.566 208.497,120.755 L208.497,120.755 L208.497,120.755 Z" id="Shape" fill="#004678"></path>
                <path d="M223.027,131.291 C222.952,131.333 222.787,131.455 222.549,131.641 L221.667,132.328 C220.967,132.867 220.067,133.531 219.09,134.138 C217.159,135.335 214.829,136.366 213.149,135.58 C210.934,134.548 209.467,131.618 209.998,129.174 C210.934,124.883 217.379,122.178 220.494,124.368 C220.638,124.478 220.607,124.648 220.563,124.747 C220.517,124.851 220.429,124.966 220.322,125.083 C220.104,125.32 219.762,125.615 219.35,125.933 C218.527,126.568 217.398,127.315 216.362,127.903 C215.749,128.253 215.088,128.52 214.358,128.772 C213.654,129.014 212.879,129.243 212.011,129.517 L211.968,129.682 C211.932,129.844 211.897,130.078 211.897,130.366 C211.897,130.942 212.041,131.746 212.621,132.629 C213.123,133.464 213.764,134.113 214.871,134.061 C217.053,133.979 221.351,130.498 221.622,130.119 L221.824,129.743 C221.907,129.595 222.011,129.431 222.137,129.297 C222.402,129.012 222.788,128.843 223.262,129.158 C224.154,129.806 223.717,130.813 223.027,131.291 L223.027,131.291 L223.027,131.291 Z M216.752,125.723 C216.414,125.939 216.084,126.131 215.724,126.39 C215.008,126.879 213.793,127.256 213.085,127.449 C213.5,127.031 214.188,126.401 214.871,126.053 C215.71,125.62 216.472,125.418 217.022,125.324 L217.406,125.271 C217.18,125.443 216.966,125.587 216.752,125.723 L216.752,125.723 L216.752,125.723 Z" id="Shape" fill="#004678"></path>
                <path d="M226.151,135.96 C225.84,136.118 225.193,136.386 224.738,135.722 C224.496,135.377 224.509,134.826 224.565,133.862 C224.622,132.873 224.736,131.37 224.765,129.035 C224.851,126.345 225.08,124.283 225.138,123.883 C225.221,123.266 225.609,123.045 226.028,123.081 C226.406,123.114 226.799,123.352 226.984,123.603 C227.099,123.75 227.128,123.949 227.128,124.162 C227.129,124.374 227.1,124.641 227.06,124.968 C226.982,125.598 226.861,126.457 226.847,127.561 L226.779,128.807 L226.775,128.982 C227.094,128.332 227.656,127.23 228.311,126.146 C229.287,124.531 230.594,122.726 231.627,122.942 C232.485,123.127 232.856,124.124 233.035,125.463 C233.218,126.827 233.219,128.69 233.219,130.837 C233.19,133.575 233.191,134.517 233.291,134.792 L233.526,135.284 C233.609,135.47 233.686,135.664 233.734,135.852 C233.832,136.233 233.838,136.662 233.472,136.954 C232.754,137.595 231.138,136.532 231.574,135.228 C231.602,135.155 231.61,135.01 231.589,134.747 C231.568,134.489 231.526,134.151 231.48,133.717 C231.386,132.839 231.279,131.57 231.308,129.778 C231.365,127.831 231.377,125.68 231.109,125.295 C230.971,125.408 230.854,125.541 230.712,125.734 C230.429,126.118 230.073,126.705 229.688,127.421 C228.916,128.851 228.034,130.776 227.379,132.579 C226.939,133.726 226.733,134.485 226.594,134.988 C226.522,135.25 226.468,135.444 226.409,135.59 C226.348,135.742 226.272,135.869 226.151,135.96 L226.151,135.96 L226.151,135.96 Z" id="Shape" fill="#004678"></path>
                <path d="M236.902,136.308 C236.126,136.308 235.704,135.72 235.704,134.97 C235.704,134.084 236.52,133.641 236.876,133.576 C237.707,133.472 238.186,134.205 238.186,134.941 C238.186,135.748 237.85,136.308 236.902,136.308 L236.902,136.308 L236.902,136.308 Z" id="Shape" fill="#004678"></path>
                <path d="M252.681,116.775 C252.719,117.27 252.685,117.934 252.613,118.695 C252.47,120.192 252.177,122.067 252.006,123.75 C251.693,127.063 251.643,128.613 251.643,129.794 C251.643,130.968 251.692,131.777 251.582,133.58 C251.641,133.666 251.762,133.852 251.87,134.085 C252.016,134.399 252.159,134.838 252.058,135.239 C251.897,135.851 250.317,136.604 249.794,135.319 C249.343,134.239 250.129,120.947 250.297,119.604 C250.455,118.5 250.456,117.396 250.628,116.651 C250.813,115.853 251.236,115.354 252.213,115.734 C252.538,115.864 252.645,116.307 252.681,116.775 L252.681,116.775 L252.681,116.775 Z" id="Shape" fill="#004678"></path>
                <path d="M256.077,135.96 C255.766,136.118 255.12,136.386 254.665,135.722 C254.423,135.377 254.436,134.826 254.492,133.862 C254.549,132.873 254.663,131.37 254.691,129.035 C254.777,126.345 255.007,124.283 255.064,123.883 C255.148,123.266 255.535,123.045 255.954,123.081 C256.333,123.114 256.725,123.352 256.911,123.603 C257.026,123.75 257.055,123.949 257.056,124.162 C257.056,124.374 257.028,124.641 256.988,124.968 C256.91,125.598 256.789,126.457 256.774,127.561 L256.707,128.807 L256.703,128.982 C257.021,128.332 257.584,127.23 258.239,126.146 C259.215,124.531 260.521,122.726 261.555,122.942 C262.412,123.127 262.784,124.124 262.963,125.463 C263.146,126.827 263.147,128.69 263.147,130.837 C263.118,133.575 263.119,134.517 263.219,134.792 L263.454,135.284 C263.537,135.47 263.613,135.664 263.662,135.852 C263.761,136.233 263.766,136.662 263.4,136.954 C262.682,137.595 261.066,136.532 261.502,135.228 C261.53,135.155 261.538,135.01 261.518,134.747 C261.497,134.489 261.455,134.151 261.409,133.717 C261.315,132.839 261.208,131.57 261.236,129.778 C261.294,127.831 261.305,125.68 261.038,125.295 C260.9,125.408 260.783,125.541 260.641,125.734 C260.358,126.118 260.002,126.705 259.617,127.421 C258.845,128.851 257.963,130.776 257.308,132.579 C256.868,133.726 256.662,134.485 256.523,134.988 C256.451,135.25 256.396,135.444 256.337,135.59 C256.274,135.742 256.199,135.869 256.077,135.96 L256.077,135.96 L256.077,135.96 Z" id="Shape" fill="#004678"></path>
                <path d="M274.97,117.338 C274.783,117.286 274.602,117.197 274.456,117.12 L274.263,117.017 C270.844,115.698 269.425,120.21 269.484,125.985 C269.484,126.377 269.505,126.726 269.511,127.105 C270.765,126.943 271.677,126.936 272.339,126.932 C273.06,126.929 273.402,126.92 273.589,126.788 C274.275,126.309 275.318,126.85 275.284,127.731 C275.267,128.188 275.028,128.448 274.72,128.585 C274.429,128.713 274.074,128.734 273.808,128.749 C271.558,128.831 270.817,128.727 269.541,128.924 C269.538,131.475 269.477,133.917 269.139,136.332 C268.838,138.389 268.459,140.211 268.173,141.575 C267.878,142.98 267.708,143.815 267.762,143.988 C267.936,144.611 267.348,145.736 266.023,145.219 C265.294,144.928 265.288,143.886 265.784,143.328 C265.949,143.116 266.772,140.24 267.232,136.372 C267.621,133.187 267.63,131.863 267.63,129.327 C266.961,129.469 266.78,129.606 266.253,130.357 C265.332,131.685 263.481,130.048 264.565,129.002 C265.088,128.45 265.726,127.85 267.603,127.443 C267.607,126.994 267.63,126.498 267.63,125.955 C267.658,116.049 271.296,114.67 274.054,115.094 C275.866,115.361 276.069,116.207 275.995,116.721 C275.821,117.366 275.369,117.448 274.97,117.338 L274.97,117.338 L274.97,117.338 Z" id="Shape" fill="#004678"></path>
                <path d="M276.894,135.576 C275.463,134.847 273.982,131.895 275.272,128.998 C276.876,125.369 278.541,123.887 280.158,123.765 C281.328,123.672 283.869,124.644 284.368,127.987 C285.154,133.454 279.242,136.764 276.894,135.576 L276.894,135.576 L276.894,135.576 Z M281.848,131.5 C281.283,132.657 279.12,134.36 277.943,133.926 C276.797,133.52 276.397,131.406 276.817,130.235 C277.55,128.108 278.492,126.98 279.234,126.386 C279.606,126.089 279.93,125.923 280.159,125.832 C280.377,125.745 280.687,125.701 280.687,125.701 L280.67,125.621 C281.688,125.807 281.972,126.236 282.302,126.997 C283.012,128.522 282.611,130.033 281.848,131.5 L281.848,131.5 L281.848,131.5 Z" id="Shape" fill="#004678"></path>
                <path d="M297.007,125.039 C296.819,125.083 296.646,125.06 296.488,125.018 C296.344,124.98 296.199,124.922 296.041,124.877 C295.761,124.797 295.444,124.764 294.992,125.022 C293.202,126.027 291.107,128.475 289.021,131.555 C288.528,132.333 288.369,133.246 288.283,134.046 C288.24,134.45 288.217,134.818 288.179,135.116 C288.143,135.405 288.091,135.678 287.955,135.843 C287.49,136.485 286.674,136.235 286.299,135.828 C285.942,135.472 285.992,134.829 286.099,134 C286.209,133.141 286.41,131.961 286.48,130.398 C286.637,127.413 286.437,125.89 286.239,125.067 C286.139,124.653 286.038,124.409 285.979,124.242 C285.919,124.069 285.874,123.905 285.995,123.725 C286.165,123.47 286.887,122.708 287.681,123.467 C288.173,123.925 288.25,124.67 288.306,126.381 C288.331,127.774 288.334,128.3 288.334,129.338 C288.55,129.063 288.867,128.663 289.249,128.205 C289.972,127.337 290.927,126.254 291.85,125.405 C292.18,125.097 292.518,124.759 292.879,124.436 C293.243,124.11 293.637,123.796 294.071,123.549 C294.947,123.05 295.985,122.826 297.28,123.287 C297.643,123.42 298.36,124.683 297.007,125.039 L297.007,125.039 L297.007,125.039 Z" id="Shape" fill="#004678"></path>
                <path d="M310.479,124.579 C310.392,124.654 310.3,124.757 310.185,124.902 C309.954,125.194 309.653,125.631 309.314,126.178 C308.632,127.281 307.801,128.825 307.09,130.528 C306.265,132.558 305.903,134.069 305.64,135.045 C305.509,135.529 305.397,135.909 305.255,136.151 C305.102,136.415 304.888,136.556 304.579,136.473 C303.933,136.331 303.649,136.063 303.541,135.425 C303.491,135.137 303.475,134.762 303.465,134.267 C303.454,133.785 303.449,133.184 303.42,132.437 C303.274,128.141 303.142,125.412 302.873,125.247 C302.848,125.254 302.783,125.274 302.726,125.319 C302.611,125.409 302.467,125.571 302.302,125.803 C301.976,126.267 301.594,126.972 301.212,127.823 C300.448,129.524 299.696,131.778 299.386,133.77 C299.309,134.226 299.291,134.573 299.299,134.841 C299.307,135.107 299.34,135.296 299.364,135.44 C299.419,135.773 299.434,135.969 299.055,136.221 C298.641,136.507 297.719,136.511 297.417,136.059 C297.164,135.655 297.244,134.056 297.365,132.56 C297.49,131.021 297.676,129.45 297.705,128.995 C297.817,127.981 297.754,127.133 297.697,126.486 C297.669,126.152 297.641,125.87 297.639,125.642 C297.637,125.414 297.659,125.2 297.758,125.04 C298.091,124.508 298.936,124.347 299.369,124.815 C299.706,125.177 299.868,125.382 300.014,126.19 C300.213,125.787 300.522,125.187 300.873,124.587 C301.455,123.596 302.251,122.422 302.902,122.422 C303.45,122.422 304.148,123.021 304.419,123.531 C304.723,123.985 304.962,126.092 305.154,130.335 C305.505,129.565 306.136,128.224 306.875,126.866 C307.98,124.835 309.402,122.609 310.508,122.452 C311.278,122.348 312.292,123.586 312.468,124.287 C312.877,125.746 312.786,132.277 312.759,132.808 C312.753,132.919 312.774,133.05 312.81,133.201 L312.939,133.672 C313.022,133.979 313.103,134.358 312.936,134.654 C312.672,135.081 311.672,135.418 311.269,134.649 C310.985,134.143 310.927,132.776 310.93,131.398 C310.934,129.997 311.005,128.507 311.02,127.694 C311.02,127.173 310.992,126.436 310.893,125.789 C310.802,125.179 310.652,124.74 310.479,124.579 L310.479,124.579 L310.479,124.579 Z" id="Shape" fill="#004678"></path>
                <path d="M336.064,124.077 C335.702,124.088 335.271,123.987 335.027,123.987 C333.339,123.987 331.855,124.412 330.8,124.643 C330.694,125.525 330.032,131.136 330.216,134.613 L330.298,134.95 C330.337,135.117 330.376,135.326 330.37,135.53 C330.356,135.976 330.115,136.385 329.378,136.336 C328.828,136.302 328.536,135.917 328.389,135.541 C328.243,135.167 328.22,134.759 328.22,134.593 C328.306,133.309 328.221,131.533 328.535,128.621 C328.722,126.732 328.833,126.109 328.964,125.039 L328.379,125.197 C327.908,125.334 327.311,125.53 326.804,125.768 C326.177,126.06 325.781,126.352 325.493,126.564 L325.293,126.71 L325.112,126.824 C324.994,126.887 324.862,126.928 324.717,126.891 C324.169,126.747 323.55,126.323 323.74,125.679 C323.907,125.177 324.026,124.921 325.612,124.317 C327.215,123.7 327.606,123.549 329.239,123.113 C329.319,122.623 329.656,120.496 329.905,117.759 C329.933,117.418 329.841,116.823 329.862,116.313 C329.883,115.811 330.021,115.209 330.675,115.209 C331.581,115.209 331.92,116.365 331.644,118.988 C331.479,120.628 331.315,121.117 331.076,122.781 C331.704,122.669 333.102,122.33 335.006,122.423 L335.519,122.447 C335.71,122.461 335.909,122.484 336.087,122.532 C336.454,122.628 336.816,122.844 336.853,123.321 C336.892,123.913 336.457,124.065 336.064,124.077 L336.064,124.077 L336.064,124.077 Z" id="Shape" fill="#004678"></path>
                <path d="M342.558,135.576 C341.127,134.847 339.646,131.895 340.937,128.998 C342.54,125.369 344.205,123.887 345.822,123.765 C346.992,123.672 349.533,124.644 350.032,127.987 C350.818,133.454 344.906,136.764 342.558,135.576 L342.558,135.576 L342.558,135.576 Z M347.512,131.5 C346.947,132.657 344.784,134.36 343.607,133.926 C342.461,133.52 342.061,131.406 342.48,130.235 C343.214,128.108 344.156,126.98 344.898,126.386 C345.27,126.089 345.595,125.923 345.823,125.832 C346.041,125.745 346.351,125.701 346.351,125.701 L346.334,125.621 C347.352,125.807 347.636,126.236 347.966,126.997 C348.676,128.522 348.274,130.033 347.512,131.5 L347.512,131.5 L347.512,131.5 Z" id="Shape" fill="#004678"></path>
                <path d="M353.273,135.96 C352.963,136.118 352.316,136.386 351.861,135.722 C351.619,135.377 351.632,134.826 351.688,133.862 C351.745,132.873 351.859,131.37 351.887,129.035 C351.973,126.345 352.203,124.283 352.26,123.883 C352.344,123.266 352.731,123.045 353.151,123.081 C353.529,123.114 353.921,123.352 354.107,123.603 C354.222,123.75 354.25,123.949 354.252,124.162 C354.253,124.374 354.224,124.641 354.184,124.967 C354.106,125.598 353.985,126.457 353.97,127.561 L353.903,128.807 L353.898,128.982 C354.217,128.332 354.781,127.23 355.435,126.146 C356.411,124.531 357.717,122.726 358.751,122.942 C359.609,123.127 359.98,124.124 360.159,125.463 C360.342,126.827 360.343,128.69 360.343,130.837 C360.314,133.575 360.315,134.517 360.415,134.792 L360.65,135.284 C360.733,135.47 360.809,135.664 360.858,135.852 C360.957,136.233 360.962,136.662 360.596,136.954 C359.878,137.595 358.262,136.532 358.698,135.228 C358.726,135.155 358.734,135.01 358.714,134.747 C358.693,134.489 358.651,134.151 358.604,133.717 C358.511,132.839 358.404,131.57 358.432,129.778 C358.49,127.831 358.501,125.68 358.234,125.295 C358.096,125.408 357.979,125.541 357.836,125.734 C357.554,126.118 357.198,126.705 356.812,127.421 C356.041,128.851 355.159,130.776 354.503,132.579 C354.064,133.726 353.857,134.485 353.719,134.988 C353.647,135.25 353.592,135.444 353.533,135.59 C353.471,135.742 353.396,135.869 353.273,135.96 L353.273,135.96 L353.273,135.96 Z" id="Shape" fill="#004678"></path>
                <path d="M364.024,136.308 C363.248,136.308 362.826,135.72 362.826,134.97 C362.826,134.084 363.642,133.641 363.999,133.576 C364.83,133.472 365.309,134.205 365.309,134.941 C365.309,135.748 364.973,136.308 364.024,136.308 L364.024,136.308 L364.024,136.308 Z" id="Shape" fill="#004678"></path>
                <path d="M379.804,116.775 C379.842,117.27 379.808,117.934 379.736,118.695 C379.592,120.192 379.3,122.067 379.129,123.75 C378.816,127.063 378.766,128.613 378.766,129.794 C378.766,130.968 378.815,131.777 378.705,133.58 C378.764,133.666 378.884,133.852 378.993,134.085 C379.139,134.399 379.282,134.838 379.181,135.239 C379.02,135.851 377.439,136.604 376.917,135.319 C376.466,134.239 377.252,120.947 377.42,119.604 C377.577,118.5 377.579,117.396 377.751,116.651 C377.936,115.853 378.359,115.354 379.336,115.734 C379.661,115.864 379.768,116.307 379.804,116.775 L379.804,116.775 L379.804,116.775 Z" id="Shape" fill="#004678"></path>
                <path d="M383.2,135.96 C382.889,136.118 382.243,136.386 381.787,135.722 C381.546,135.377 381.559,134.826 381.615,133.862 C381.672,132.873 381.786,131.37 381.814,129.035 C381.9,126.345 382.129,124.283 382.187,123.883 C382.271,123.266 382.658,123.045 383.077,123.081 C383.456,123.114 383.848,123.352 384.033,123.603 C384.149,123.75 384.177,123.949 384.178,124.162 C384.179,124.374 384.151,124.641 384.11,124.967 C384.033,125.598 383.912,126.457 383.897,127.561 L383.83,128.807 L383.825,128.982 C384.144,128.332 384.707,127.23 385.361,126.146 C386.338,124.531 387.644,122.726 388.678,122.942 C389.535,123.127 389.907,124.124 390.085,125.463 C390.269,126.827 390.27,128.69 390.27,130.837 C390.241,133.575 390.242,134.517 390.342,134.792 L390.577,135.284 C390.66,135.47 390.736,135.664 390.785,135.852 C390.884,136.233 390.889,136.662 390.523,136.954 C389.805,137.595 388.189,136.532 388.625,135.228 C388.652,135.155 388.661,135.01 388.64,134.747 C388.62,134.489 388.577,134.151 388.531,133.717 C388.438,132.839 388.331,131.57 388.359,129.778 C388.416,127.831 388.428,125.68 388.161,125.295 C388.023,125.408 387.906,125.541 387.764,125.734 C387.481,126.118 387.125,126.705 386.739,127.421 C385.968,128.851 385.086,130.776 384.43,132.579 C383.991,133.726 383.784,134.485 383.646,134.988 C383.574,135.25 383.519,135.444 383.46,135.59 C383.397,135.742 383.322,135.869 383.2,135.96 L383.2,135.96 L383.2,135.96 Z" id="Shape" fill="#004678"></path>
                <path d="M393.91,135.96 C393.599,136.118 392.953,136.386 392.497,135.722 C392.255,135.377 392.268,134.826 392.324,133.862 C392.382,132.873 392.496,131.37 392.524,129.035 C392.61,126.345 392.839,124.283 392.897,123.883 C392.98,123.266 393.368,123.045 393.787,123.081 C394.165,123.114 394.558,123.352 394.743,123.603 C394.858,123.75 394.887,123.949 394.888,124.162 C394.889,124.374 394.86,124.641 394.82,124.968 C394.742,125.598 394.621,126.457 394.607,127.561 L394.539,128.807 L394.535,128.983 C394.854,128.332 395.417,127.23 396.071,126.146 C397.047,124.531 398.354,122.726 399.387,122.942 C400.245,123.127 400.616,124.124 400.795,125.463 C400.978,126.827 400.979,128.69 400.979,130.837 C400.95,133.575 400.952,134.517 401.051,134.792 L401.286,135.284 C401.37,135.47 401.446,135.664 401.495,135.852 C401.593,136.233 401.599,136.662 401.233,136.954 C400.514,137.595 398.899,136.532 399.335,135.228 C399.362,135.155 399.371,135.01 399.35,134.747 C399.329,134.489 399.287,134.151 399.241,133.717 C399.147,132.839 399.04,131.57 399.068,129.778 C399.126,127.831 399.137,125.68 398.87,125.295 C398.732,125.408 398.615,125.541 398.473,125.734 C398.19,126.118 397.834,126.705 397.449,127.421 C396.678,128.851 395.795,130.776 395.14,132.579 C394.7,133.726 394.494,134.485 394.355,134.988 C394.284,135.25 394.229,135.444 394.17,135.59 C394.106,135.742 394.031,135.869 393.91,135.96 L393.91,135.96 L393.91,135.96 Z" id="Shape" fill="#004678"></path>
                <path d="M404.669,135.576 C403.239,134.847 401.757,131.895 403.048,128.998 C404.652,125.369 406.316,123.887 407.934,123.765 C409.104,123.672 411.644,124.644 412.144,127.987 C412.931,133.454 407.019,136.764 404.669,135.576 L404.669,135.576 L404.669,135.576 Z M409.624,131.5 C409.058,132.657 406.896,134.36 405.718,133.926 C404.572,133.52 404.173,131.406 404.592,130.235 C405.326,128.108 406.267,126.98 407.01,126.386 C407.382,126.089 407.706,125.923 407.935,125.832 C408.153,125.745 408.463,125.701 408.463,125.701 L408.446,125.621 C409.464,125.807 409.748,126.236 410.078,126.997 C410.787,128.522 410.387,130.033 409.624,131.5 L409.624,131.5 L409.624,131.5 Z" id="Shape" fill="#004678"></path>
                <path d="M424.908,124.946 C423.651,125.978 418.834,133.281 418.382,134.297 C418.222,134.66 417.954,135.152 417.608,135.499 C417.26,135.846 416.788,136.083 416.262,135.804 C415.902,135.616 415.698,135.226 415.563,134.848 C415.43,134.474 415.35,134.064 415.263,133.761 C414.55,131.227 414.038,128.724 413.782,127.984 C413.638,127.611 413.394,127.046 413.236,126.525 C413.156,126.261 413.094,126.001 413.081,125.775 C413.067,125.56 413.099,125.323 413.258,125.175 C413.708,124.801 414.223,125.008 414.625,125.428 C415.032,125.853 415.4,126.553 415.647,127.366 C416.019,128.793 415.934,129.166 416.419,131.077 C416.543,131.547 416.646,132.058 416.857,132.783 C417.355,132.05 418.711,130.067 420.12,128.138 L422.825,124.548 C423.646,123.45 424.209,122.668 424.24,122.564 C424.311,122.393 424.545,121.85 424.862,121.465 C425.174,121.087 425.681,120.753 426.183,121.31 C427.14,122.364 425.933,124.063 424.908,124.946 L424.908,124.946 L424.908,124.946 Z" id="Shape" fill="#004678"></path>
                <path d="M446.918,124.135 C446.556,124.146 446.125,124.046 445.881,124.046 C444.193,124.046 442.317,124.412 441.263,124.644 C441.156,125.526 440.494,131.137 440.678,134.614 L440.76,134.951 C440.799,135.118 440.838,135.327 440.832,135.531 C440.818,135.977 440.578,136.386 439.841,136.337 C439.29,136.303 438.998,135.918 438.851,135.542 C438.705,135.168 438.682,134.761 438.682,134.594 C438.768,133.31 438.683,131.534 438.997,128.622 C439.184,126.733 439.296,126.11 439.426,125.04 C438.988,125.15 438.023,125.414 437.266,125.769 C436.639,126.062 436.243,126.353 435.956,126.565 L435.755,126.711 L435.574,126.825 C435.457,126.888 435.324,126.929 435.179,126.892 C434.631,126.748 434.013,126.324 434.202,125.68 C434.369,125.178 434.489,124.922 436.075,124.318 C437.678,123.701 438.068,123.55 439.701,123.114 C439.781,122.624 440.118,120.497 440.367,117.76 C440.395,117.419 440.303,116.824 440.324,116.314 C440.345,115.812 440.483,115.21 441.137,115.21 C442.043,115.21 442.382,116.366 442.106,118.989 C441.941,120.629 441.777,121.118 441.538,122.782 C442.166,122.67 443.957,122.389 445.86,122.481 L446.373,122.505 C446.565,122.519 446.763,122.543 446.942,122.59 C447.308,122.686 447.671,122.902 447.707,123.38 C447.746,123.971 447.311,124.123 446.918,124.135 L446.918,124.135 L446.918,124.135 Z" id="Shape" fill="#004678"></path>
                <path d="M453.019,135.576 C451.588,134.847 450.107,131.895 451.398,128.998 C453.001,125.369 454.666,123.887 456.283,123.765 C457.454,123.672 459.994,124.644 460.493,127.987 C461.279,133.454 455.367,136.764 453.019,135.576 L453.019,135.576 L453.019,135.576 Z M457.973,131.5 C457.408,132.657 455.245,134.361 454.068,133.926 C452.922,133.52 452.522,131.406 452.942,130.235 C453.675,128.108 454.617,126.98 455.359,126.386 C455.731,126.089 456.056,125.923 456.285,125.832 C456.503,125.745 456.812,125.701 456.812,125.701 L456.795,125.621 C457.814,125.807 458.097,126.236 458.427,126.997 C459.137,128.522 458.736,130.033 457.973,131.5 L457.973,131.5 L457.973,131.5 Z" id="Shape" fill="#004678"></path>
                <path d="M463.735,135.96 C463.424,136.118 462.777,136.386 462.322,135.722 C462.08,135.377 462.093,134.826 462.149,133.862 C462.206,132.873 462.32,131.37 462.348,129.035 C462.434,126.345 462.664,124.283 462.721,123.883 C462.805,123.266 463.192,123.045 463.612,123.081 C463.99,123.114 464.383,123.352 464.568,123.603 C464.683,123.75 464.712,123.949 464.713,124.162 C464.714,124.374 464.685,124.641 464.645,124.968 C464.567,125.598 464.446,126.457 464.432,127.561 L464.364,128.807 L464.36,128.982 C464.679,128.332 465.242,127.23 465.896,126.146 C466.873,124.531 468.179,122.726 469.212,122.942 C470.07,123.127 470.441,124.124 470.62,125.463 C470.803,126.827 470.804,128.69 470.804,130.837 C470.775,133.575 470.776,134.517 470.876,134.792 L471.111,135.284 C471.194,135.47 471.27,135.664 471.319,135.852 C471.418,136.233 471.423,136.662 471.057,136.954 C470.339,137.595 468.723,136.532 469.16,135.228 C469.187,135.155 469.195,135.01 469.175,134.747 C469.154,134.489 469.112,134.151 469.066,133.717 C468.972,132.839 468.865,131.57 468.893,129.778 C468.951,127.831 468.962,125.68 468.695,125.295 C468.557,125.408 468.44,125.541 468.298,125.734 C468.015,126.118 467.659,126.705 467.274,127.421 C466.503,128.851 465.62,130.776 464.965,132.579 C464.525,133.726 464.319,134.485 464.18,134.988 C464.108,135.25 464.053,135.444 463.995,135.59 C463.932,135.742 463.856,135.869 463.735,135.96 L463.735,135.96 L463.735,135.96 Z" id="Shape" fill="#004678"></path>
                <path d="M474.485,136.308 C473.709,136.308 473.287,135.72 473.287,134.97 C473.287,134.084 474.103,133.641 474.46,133.576 C475.291,133.472 475.77,134.205 475.77,134.941 C475.77,135.748 475.434,136.308 474.485,136.308 L474.485,136.308 L474.485,136.308 Z" id="Shape" fill="#004678"></path>
                <path d="M434.786,136.034 C434.786,136.517 434.571,136.759 434.14,136.759 C433.171,136.759 432.373,136.142 431.745,134.906 C431.297,134.01 431,132.972 430.857,131.791 C428.721,134.691 426.784,136.142 425.044,136.142 C424.416,136.142 423.896,135.82 423.482,135.175 C423.124,134.602 422.944,133.985 422.944,133.321 C422.944,132.569 423.249,131.531 423.859,130.206 C424.361,129.114 424.899,128.147 425.473,127.306 C426.227,126.232 426.836,125.462 427.303,124.996 C428.074,124.226 428.792,123.842 429.456,123.842 C430.424,123.842 431.089,124.182 431.447,124.863 C431.572,125.095 431.707,125.651 431.85,126.528 C432.281,126.689 432.54,126.797 432.63,126.85 C432.881,127.011 433.007,127.244 433.007,127.548 C432.989,127.655 432.98,127.736 432.98,127.789 C432.962,127.915 432.909,128.085 432.819,128.3 C432.622,128.82 432.523,129.374 432.523,129.965 C432.523,130.914 432.774,131.961 433.277,133.107 C433.333,133.232 433.836,134.208 434.786,136.034 L434.786,136.034 L434.786,136.034 Z M430.805,127.279 C430.805,127.172 430.724,127.055 430.562,126.93 C430.15,126.625 429.908,126.204 429.835,125.667 C428.687,126.187 427.548,127.412 426.418,129.346 C425.395,131.083 424.884,132.381 424.884,133.241 C424.884,133.849 425.081,134.154 425.476,134.154 C426.014,134.154 427,133.348 428.436,131.737 C430.015,129.965 430.805,128.479 430.805,127.279 L430.805,127.279 L430.805,127.279 Z" id="Shape" fill="#004678"></path>
                <path d="M326.028,136.034 C326.028,136.517 325.812,136.759 325.382,136.759 C324.413,136.759 323.615,136.142 322.987,134.906 C322.538,134.01 322.242,132.972 322.098,131.791 C319.964,134.691 318.026,136.142 316.285,136.142 C315.658,136.142 315.138,135.82 314.724,135.175 C314.366,134.602 314.186,133.985 314.186,133.321 C314.186,132.569 314.492,131.531 315.101,130.206 C315.603,129.114 316.142,128.147 316.715,127.306 C317.469,126.232 318.078,125.462 318.545,124.996 C319.316,124.226 320.034,123.842 320.697,123.842 C321.666,123.842 322.33,124.182 322.689,124.863 C322.814,125.095 322.949,125.651 323.092,126.528 C323.523,126.689 323.782,126.797 323.872,126.85 C324.123,127.011 324.249,127.244 324.249,127.548 C324.23,127.655 324.222,127.736 324.222,127.789 C324.204,127.915 324.151,128.085 324.061,128.3 C323.864,128.82 323.765,129.374 323.765,129.965 C323.765,130.914 324.016,131.961 324.518,133.107 C324.575,133.232 325.077,134.208 326.028,136.034 L326.028,136.034 L326.028,136.034 Z M322.045,127.279 C322.045,127.172 321.964,127.055 321.803,126.93 C321.391,126.625 321.149,126.204 321.076,125.667 C319.928,126.187 318.789,127.412 317.658,129.346 C316.637,131.083 316.125,132.381 316.125,133.241 C316.125,133.849 316.322,134.154 316.717,134.154 C317.255,134.154 318.242,133.348 319.678,131.737 C321.256,129.965 322.045,128.479 322.045,127.279 L322.045,127.279 L322.045,127.279 Z" id="Shape" fill="#004678"></path>
                <path d="M450.763,119.373 C450.763,120.006 450.421,120.322 449.738,120.322 C449.387,120.322 449.046,120.18 448.713,119.897 C448.379,119.615 448.212,119.298 448.212,118.949 C448.212,118.682 448.32,118.45 448.537,118.25 C448.754,118.051 448.996,117.951 449.263,117.951 C449.697,117.951 450.055,118.084 450.338,118.35 C450.621,118.6 450.763,118.94 450.763,119.373 L450.763,119.373 L450.763,119.373 Z" id="Shape" fill="#004678"></path>
                <path d="M448.585,132.07 C448.515,133.174 448.661,133.584 448.775,133.856 L448.863,134.071 C448.89,134.146 448.913,134.225 448.925,134.317 C448.948,134.501 448.926,134.707 448.837,135.01 C448.713,135.587 447.848,135.799 447.196,135.273 C446.796,134.964 446.747,134.033 446.781,132.733 C446.817,131.384 446.96,129.501 447.074,127.118 C447.118,126.328 447.111,125.522 447.212,124.907 C447.312,124.302 447.538,123.744 448.149,123.707 C448.823,123.672 449.365,124.304 449.27,125.149 C449.184,125.947 448.642,130.96 448.585,132.07 L448.585,132.07 L448.585,132.07 Z" id="Shape" fill="#004678"></path>
                <path d="M339.864,119.373 C339.864,120.006 339.522,120.322 338.839,120.322 C338.488,120.322 338.147,120.18 337.814,119.897 C337.48,119.615 337.313,119.298 337.313,118.949 C337.313,118.682 337.421,118.45 337.638,118.25 C337.855,118.051 338.097,117.951 338.364,117.951 C338.798,117.951 339.156,118.084 339.439,118.35 C339.723,118.6 339.864,118.94 339.864,119.373 L339.864,119.373 L339.864,119.373 Z" id="Shape" fill="#004678"></path>
                <path d="M337.687,132.07 C337.617,133.174 337.763,133.584 337.877,133.856 L337.965,134.071 C337.992,134.146 338.015,134.225 338.027,134.317 C338.05,134.501 338.028,134.707 337.939,135.01 C337.815,135.587 336.95,135.799 336.297,135.273 C335.898,134.964 335.849,134.033 335.883,132.733 C335.919,131.384 336.062,129.501 336.176,127.118 C336.22,126.328 336.213,125.522 336.314,124.907 C336.414,124.302 336.64,123.744 337.251,123.707 C337.925,123.672 338.467,124.304 338.372,125.149 C338.286,125.947 337.743,130.96 337.687,132.07 L337.687,132.07 L337.687,132.07 Z" id="Shape" fill="#004678"></path>
                <path d="M189.928,119.373 C189.928,120.006 189.586,120.322 188.903,120.322 C188.552,120.322 188.211,120.18 187.877,119.897 C187.544,119.615 187.377,119.298 187.377,118.949 C187.377,118.682 187.485,118.45 187.702,118.25 C187.919,118.051 188.16,117.951 188.428,117.951 C188.862,117.951 189.22,118.084 189.503,118.35 C189.787,118.6 189.928,118.94 189.928,119.373 L189.928,119.373 L189.928,119.373 Z" id="Shape" fill="#004678"></path>
                <path d="M187.75,132.07 C187.68,133.174 187.827,133.584 187.941,133.856 L188.029,134.071 C188.056,134.146 188.079,134.225 188.091,134.317 C188.114,134.501 188.091,134.707 188.003,135.01 C187.879,135.587 187.014,135.799 186.362,135.273 C185.962,134.964 185.913,134.033 185.948,132.733 C185.984,131.384 186.127,129.501 186.241,127.118 C186.284,126.328 186.278,125.522 186.379,124.907 C186.479,124.302 186.705,123.744 187.316,123.707 C187.99,123.672 188.531,124.304 188.437,125.149 C188.35,125.947 187.808,130.96 187.75,132.07 L187.75,132.07 L187.75,132.07 Z" id="Shape" fill="#004678"></path>
            </g>
        </g>
    </g>
</svg>