<?xml version="1.0" encoding="UTF-8" standalone="no"?>
<svg width="302px" height="55px" viewBox="0 0 302 55" version="1.1" xmlns="http://www.w3.org/2000/svg" xmlns:xlink="http://www.w3.org/1999/xlink" xmlns:sketch="http://www.bohemiancoding.com/sketch/ns">
    <!-- Generator: Sketch 3.2.2 (9983) - http://www.bohemiancoding.com/sketch -->
    <title>fh-koeln</title>
    <desc>Created with Sketch.</desc>
    <defs></defs>
    <g id="Page-1" stroke="none" stroke-width="1" fill="none" fill-rule="evenodd" sketch:type="MSPage">
        <g id="fh-koeln" sketch:type="MSLayerGroup" transform="translate(-4.000000, -4.000000)">
            <g id="Group" transform="translate(4.000000, 4.000000)" fill="#000000" sketch:type="MSShapeGroup">
                <g id="Shape">
                    <path d="M3.548,0.426 C5.231,0.426 6.608,1.795 6.608,3.478 C6.608,5.161 5.231,6.538 3.548,6.538 C1.857,6.538 0.471,5.178 0.471,3.478 C0.471,1.777 1.856,0.426 3.548,0.426 L3.548,0.426 Z"></path>
                    <path d="M27.526,0.426 C29.209,0.426 30.586,1.795 30.586,3.478 C30.586,5.161 29.209,6.538 27.526,6.538 C25.835,6.538 24.449,5.178 24.449,3.478 C24.449,1.777 25.835,0.426 27.526,0.426 L27.526,0.426 Z"></path>
                </g>
                <path d="M39.52,0.426 C41.203,0.426 42.58,1.795 42.58,3.478 C42.58,5.161 41.203,6.538 39.52,6.538 C37.829,6.538 36.443,5.178 36.443,3.478 C36.442,1.777 37.828,0.426 39.52,0.426 L39.52,0.426 Z" id="Shape"></path>
                <g transform="translate(48.000000, 0.000000)" id="Shape">
                    <path d="M3.51,0.426 C5.193,0.426 6.57,1.795 6.57,3.478 C6.57,5.161 5.193,6.538 3.51,6.538 C1.819,6.538 0.433,5.178 0.433,3.478 C0.433,1.777 1.819,0.426 3.51,0.426 L3.51,0.426 Z"></path>
                    <path d="M15.503,0.426 C17.186,0.426 18.563,1.795 18.563,3.478 C18.563,5.161 17.186,6.538 15.503,6.538 C13.812,6.538 12.426,5.178 12.426,3.478 C12.427,1.777 13.812,0.426 15.503,0.426 L15.503,0.426 Z"></path>
                    <path d="M27.497,0.426 C29.18,0.426 30.557,1.795 30.557,3.478 C30.557,5.161 29.18,6.538 27.497,6.538 C25.806,6.538 24.42,5.178 24.42,3.478 C24.42,1.777 25.806,0.426 27.497,0.426 L27.497,0.426 Z"></path>
                </g>
                <g transform="translate(24.000000, 12.000000)" id="Shape">
                    <path d="M3.529,0.426 C5.212,0.426 6.589,1.795 6.589,3.478 C6.589,5.161 5.212,6.538 3.529,6.538 C1.838,6.538 0.452,5.178 0.452,3.478 C0.452,1.777 1.837,0.426 3.529,0.426 L3.529,0.426 Z"></path>
                    <path d="M15.522,0.426 C17.205,0.426 18.582,1.795 18.582,3.478 C18.582,5.161 17.205,6.538 15.522,6.538 C13.831,6.538 12.445,5.178 12.445,3.478 C12.445,1.777 13.831,0.426 15.522,0.426 L15.522,0.426 Z"></path>
                    <path d="M27.516,0.426 C29.199,0.426 30.576,1.795 30.576,3.478 C30.576,5.161 29.199,6.538 27.516,6.538 C25.825,6.538 24.439,5.178 24.439,3.478 C24.438,1.777 25.824,0.426 27.516,0.426 L27.516,0.426 Z"></path>
                    <path d="M39.509,0.426 C41.192,0.426 42.569,1.795 42.569,3.478 C42.569,5.161 41.192,6.538 39.509,6.538 C37.818,6.538 36.432,5.178 36.432,3.478 C36.432,1.777 37.817,0.426 39.509,0.426 L39.509,0.426 Z"></path>
                    <path d="M51.502,0.426 C53.185,0.426 54.562,1.795 54.562,3.478 C54.562,5.161 53.185,6.538 51.502,6.538 C49.811,6.538 48.425,5.178 48.425,3.478 C48.425,1.777 49.811,0.426 51.502,0.426 L51.502,0.426 Z"></path>
                </g>
                <g transform="translate(24.000000, 24.000000)" id="Shape">
                    <path d="M3.529,0.426 C5.212,0.426 6.589,1.795 6.589,3.478 C6.589,5.161 5.212,6.538 3.529,6.538 C1.838,6.538 0.452,5.178 0.452,3.478 C0.452,1.777 1.837,0.426 3.529,0.426 L3.529,0.426 Z"></path>
                    <path d="M15.522,0.426 C17.205,0.426 18.582,1.795 18.582,3.478 C18.582,5.161 17.205,6.538 15.522,6.538 C13.831,6.538 12.445,5.178 12.445,3.478 C12.445,1.777 13.831,0.426 15.522,0.426 L15.522,0.426 Z"></path>
                    <path d="M27.516,0.426 C29.199,0.426 30.576,1.795 30.576,3.478 C30.576,5.161 29.199,6.538 27.516,6.538 C25.825,6.538 24.439,5.178 24.439,3.478 C24.438,1.777 25.824,0.426 27.516,0.426 L27.516,0.426 Z"></path>
                    <path d="M39.509,0.426 C41.192,0.426 42.569,1.795 42.569,3.478 C42.569,5.161 41.192,6.538 39.509,6.538 C37.818,6.538 36.432,5.178 36.432,3.478 C36.432,1.777 37.817,0.426 39.509,0.426 L39.509,0.426 Z"></path>
                    <path d="M51.502,0.426 C53.185,0.426 54.562,1.795 54.562,3.478 C54.562,5.161 53.185,6.538 51.502,6.538 C49.811,6.538 48.425,5.178 48.425,3.478 C48.425,1.777 49.811,0.426 51.502,0.426 L51.502,0.426 Z"></path>
                </g>
                <g transform="translate(24.000000, 36.000000)" id="Shape">
                    <path d="M3.529,0.426 C5.212,0.426 6.589,1.795 6.589,3.478 C6.589,5.161 5.212,6.538 3.529,6.538 C1.838,6.538 0.452,5.178 0.452,3.478 C0.452,1.777 1.837,0.426 3.529,0.426 L3.529,0.426 Z"></path>
                    <path d="M15.522,0.426 C17.205,0.426 18.582,1.795 18.582,3.478 C18.582,5.161 17.205,6.538 15.522,6.538 C13.831,6.538 12.445,5.178 12.445,3.478 C12.445,1.777 13.831,0.426 15.522,0.426 L15.522,0.426 Z"></path>
                    <path d="M27.516,0.426 C29.199,0.426 30.576,1.795 30.576,3.478 C30.576,5.161 29.199,6.538 27.516,6.538 C25.825,6.538 24.439,5.178 24.439,3.478 C24.438,1.777 25.824,0.426 27.516,0.426 L27.516,0.426 Z"></path>
                    <path d="M39.509,0.426 C41.192,0.426 42.569,1.795 42.569,3.478 C42.569,5.161 41.192,6.538 39.509,6.538 C37.818,6.538 36.432,5.178 36.432,3.478 C36.432,1.777 37.817,0.426 39.509,0.426 L39.509,0.426 Z"></path>
                    <path d="M51.502,0.426 C53.185,0.426 54.562,1.795 54.562,3.478 C54.562,5.161 53.185,6.538 51.502,6.538 C49.811,6.538 48.425,5.178 48.425,3.478 C48.425,1.777 49.811,0.426 51.502,0.426 L51.502,0.426 Z"></path>
                </g>
                <g transform="translate(95.000000, 21.000000)" id="Shape">
                    <path d="M0.988,1.331 L5.344,1.331 L5.344,2.207 L2.044,2.207 L2.044,4.895 L5.092,4.895 L5.092,5.759 L2.044,5.759 L2.044,9.419 L0.988,9.419 L0.988,1.331 L0.988,1.331 Z"></path>
                    <g transform="translate(6.000000, 0.000000)">
                        <path d="M4.667,8.026 C4.667,8.53 4.691,9.022 4.751,9.418 L3.803,9.418 L3.707,8.686 L3.671,8.686 C3.359,9.142 2.723,9.55 1.895,9.55 C0.719,9.55 0.119,8.722 0.119,7.882 C0.119,6.478 1.367,5.71 3.611,5.722 L3.611,5.602 C3.611,5.122 3.479,4.246 2.291,4.258 C1.739,4.258 1.175,4.414 0.767,4.69 L0.527,3.982 C1.007,3.682 1.715,3.478 2.447,3.478 C4.235,3.478 4.667,4.69 4.667,5.854 L4.667,8.026 L4.667,8.026 Z M3.635,6.455 C2.483,6.431 1.175,6.635 1.175,7.763 C1.175,8.459 1.631,8.771 2.159,8.771 C2.927,8.771 3.419,8.291 3.587,7.799 C3.623,7.691 3.635,7.571 3.635,7.463 L3.635,6.455 L3.635,6.455 Z"></path>
                        <path d="M10.811,9.203 C10.535,9.335 9.923,9.539 9.143,9.539 C7.391,9.539 6.251,8.351 6.251,6.575 C6.251,4.787 7.475,3.479 9.371,3.479 C9.995,3.479 10.547,3.635 10.835,3.791 L10.595,4.595 C10.343,4.463 9.947,4.319 9.371,4.319 C8.039,4.319 7.319,5.315 7.319,6.515 C7.319,7.859 8.183,8.687 9.335,8.687 C9.935,8.687 10.331,8.543 10.631,8.411 L10.811,9.203 L10.811,9.203 Z"></path>
                        <path d="M12.358,0.898 L13.414,0.898 L13.414,4.522 L13.438,4.522 C13.606,4.222 13.87,3.946 14.194,3.778 C14.506,3.586 14.878,3.478 15.274,3.478 C16.054,3.478 17.302,3.958 17.302,5.962 L17.302,9.418 L16.246,9.418 L16.246,6.07 C16.246,5.134 15.898,4.354 14.902,4.354 C14.218,4.354 13.69,4.834 13.486,5.41 C13.426,5.554 13.414,5.71 13.414,5.914 L13.414,9.418 L12.358,9.418 L12.358,0.898 L12.358,0.898 Z"></path>
                        <path d="M19.331,0.898 L20.387,0.898 L20.387,4.522 L20.411,4.522 C20.579,4.222 20.843,3.946 21.167,3.778 C21.479,3.586 21.851,3.478 22.247,3.478 C23.027,3.478 24.275,3.958 24.275,5.962 L24.275,9.418 L23.219,9.418 L23.219,6.07 C23.219,5.134 22.871,4.354 21.875,4.354 C21.191,4.354 20.663,4.834 20.459,5.41 C20.399,5.554 20.387,5.71 20.387,5.914 L20.387,9.418 L19.331,9.418 L19.331,0.898 L19.331,0.898 Z"></path>
                        <path d="M28.667,9.55 C27.107,9.55 25.883,8.398 25.883,6.562 C25.883,4.618 27.167,3.478 28.763,3.478 C30.431,3.478 31.559,4.69 31.559,6.454 C31.559,8.614 30.059,9.55 28.679,9.55 L28.667,9.55 L28.667,9.55 Z M28.714,8.758 C29.722,8.758 30.478,7.81 30.478,6.49 C30.478,5.506 29.986,4.27 28.738,4.27 C27.502,4.27 26.962,5.422 26.962,6.526 C26.962,7.798 27.682,8.758 28.702,8.758 L28.714,8.758 L28.714,8.758 Z"></path>
                        <path d="M37.342,9.203 C37.066,9.335 36.454,9.539 35.674,9.539 C33.922,9.539 32.782,8.351 32.782,6.575 C32.782,4.787 34.006,3.479 35.902,3.479 C36.526,3.479 37.078,3.635 37.366,3.791 L37.126,4.595 C36.874,4.463 36.478,4.319 35.902,4.319 C34.57,4.319 33.85,5.315 33.85,6.515 C33.85,7.859 34.714,8.687 35.866,8.687 C36.466,8.687 36.862,8.543 37.162,8.411 L37.342,9.203 L37.342,9.203 Z"></path>
                        <path d="M38.891,0.898 L39.947,0.898 L39.947,4.522 L39.971,4.522 C40.139,4.222 40.403,3.946 40.727,3.778 C41.039,3.586 41.411,3.478 41.807,3.478 C42.587,3.478 43.835,3.958 43.835,5.962 L43.835,9.418 L42.779,9.418 L42.779,6.07 C42.779,5.134 42.431,4.354 41.435,4.354 C40.751,4.354 40.223,4.834 40.019,5.41 C39.959,5.554 39.947,5.71 39.947,5.914 L39.947,9.418 L38.891,9.418 L38.891,0.898 L38.891,0.898 Z"></path>
                        <path d="M45.718,8.338 C46.042,8.53 46.594,8.746 47.122,8.746 C47.878,8.746 48.238,8.374 48.238,7.882 C48.238,7.378 47.938,7.114 47.17,6.826 C46.114,6.442 45.622,5.866 45.622,5.182 C45.622,4.246 46.39,3.478 47.626,3.478 C48.214,3.478 48.73,3.634 49.042,3.838 L48.79,4.594 C48.562,4.462 48.142,4.258 47.602,4.258 C46.978,4.258 46.642,4.618 46.642,5.05 C46.642,5.53 46.978,5.746 47.734,6.046 C48.73,6.418 49.258,6.922 49.258,7.786 C49.258,8.818 48.454,9.538 47.098,9.538 C46.462,9.538 45.874,9.37 45.466,9.13 L45.718,8.338 L45.718,8.338 Z"></path>
                        <path d="M55.066,9.203 C54.79,9.335 54.178,9.539 53.398,9.539 C51.646,9.539 50.506,8.351 50.506,6.575 C50.506,4.787 51.73,3.479 53.626,3.479 C54.25,3.479 54.802,3.635 55.09,3.791 L54.85,4.595 C54.598,4.463 54.202,4.319 53.626,4.319 C52.294,4.319 51.574,5.315 51.574,6.515 C51.574,7.859 52.438,8.687 53.59,8.687 C54.19,8.687 54.586,8.543 54.886,8.411 L55.066,9.203 L55.066,9.203 Z"></path>
                        <path d="M56.614,0.898 L57.67,0.898 L57.67,4.522 L57.694,4.522 C57.862,4.222 58.126,3.946 58.45,3.778 C58.762,3.586 59.134,3.478 59.53,3.478 C60.31,3.478 61.558,3.958 61.558,5.962 L61.558,9.418 L60.502,9.418 L60.502,6.07 C60.502,5.134 60.154,4.354 59.158,4.354 C58.474,4.354 57.946,4.834 57.742,5.41 C57.682,5.554 57.67,5.71 57.67,5.914 L57.67,9.418 L56.614,9.418 L56.614,0.898 L56.614,0.898 Z"></path>
                        <path d="M68.446,7.822 C68.446,8.434 68.458,8.962 68.494,9.418 L67.558,9.418 L67.498,8.47 L67.474,8.47 C67.21,8.938 66.586,9.55 65.554,9.55 C64.642,9.55 63.55,9.034 63.55,7.006 L63.55,3.61 L64.606,3.61 L64.606,6.814 C64.606,7.918 64.954,8.674 65.902,8.674 C66.61,8.674 67.102,8.182 67.294,7.702 C67.354,7.558 67.39,7.366 67.39,7.162 L67.39,3.61 L68.446,3.61 L68.446,7.822 L68.446,7.822 Z"></path>
                        <path d="M70.51,0.898 L71.566,0.898 L71.566,9.418 L70.51,9.418 L70.51,0.898 L70.51,0.898 Z"></path>
                        <path d="M74.254,6.707 C74.278,8.123 75.178,8.711 76.234,8.711 C76.99,8.711 77.458,8.579 77.842,8.411 L78.034,9.167 C77.662,9.335 77.014,9.539 76.09,9.539 C74.314,9.539 73.234,8.351 73.234,6.611 C73.234,4.859 74.278,3.479 75.97,3.479 C77.866,3.479 78.358,5.147 78.358,6.215 C78.358,6.431 78.346,6.587 78.322,6.707 L74.254,6.707 L74.254,6.707 Z M77.338,5.95 C77.35,5.278 77.062,4.234 75.886,4.234 C74.806,4.234 74.35,5.218 74.266,5.95 L77.338,5.95 L77.338,5.95 Z"></path>
                    </g>
                    <g transform="translate(89.000000, 0.000000)">
                        <path d="M0.051,1.331 L1.095,1.331 L1.095,5.231 L1.131,5.231 C1.347,4.919 1.563,4.631 1.767,4.367 L4.239,1.331 L5.535,1.331 L2.607,4.763 L5.763,9.419 L4.527,9.419 L1.875,5.447 L1.095,6.335 L1.095,9.419 L0.051,9.419 L0.051,1.331 L0.051,1.331 Z"></path>
                        <path d="M9.195,9.55 C7.635,9.55 6.411,8.398 6.411,6.562 C6.411,4.618 7.695,3.478 9.291,3.478 C10.959,3.478 12.087,4.69 12.087,6.454 C12.087,8.614 10.587,9.55 9.207,9.55 L9.195,9.55 L9.195,9.55 Z M9.243,8.758 C10.251,8.758 11.007,7.81 11.007,6.49 C11.007,5.506 10.515,4.27 9.267,4.27 C8.031,4.27 7.491,5.422 7.491,6.526 C7.491,7.798 8.211,8.758 9.231,8.758 L9.243,8.758 L9.243,8.758 Z M8.126,2.579 C7.79,2.579 7.538,2.291 7.538,1.967 C7.538,1.631 7.802,1.355 8.15,1.355 C8.474,1.355 8.726,1.619 8.726,1.967 C8.726,2.291 8.486,2.579 8.138,2.579 L8.126,2.579 L8.126,2.579 Z M10.358,2.579 C10.01,2.579 9.77,2.291 9.77,1.967 C9.77,1.631 10.034,1.355 10.37,1.355 C10.706,1.355 10.958,1.619 10.958,1.967 C10.958,2.291 10.718,2.579 10.37,2.579 L10.358,2.579 L10.358,2.579 Z"></path>
                        <path d="M13.73,0.898 L14.786,0.898 L14.786,9.418 L13.73,9.418 L13.73,0.898 L13.73,0.898 Z"></path>
                    </g>
                    <path d="M105.858,5.183 C105.858,4.571 105.846,4.091 105.81,3.611 L106.746,3.611 L106.806,4.559 L106.83,4.559 C107.118,4.019 107.79,3.479 108.75,3.479 C109.554,3.479 110.802,3.959 110.802,5.951 L110.802,9.419 L109.746,9.419 L109.746,6.071 C109.746,5.135 109.398,4.343 108.402,4.343 C107.718,4.343 107.178,4.835 106.986,5.423 C106.938,5.555 106.914,5.747 106.914,5.915 L106.914,9.419 L105.858,9.419 L105.858,5.183 L105.858,5.183 Z"></path>
                    <path d="M6.641,21.154 C6.269,21.346 5.489,21.538 4.505,21.538 C2.225,21.538 0.521,20.098 0.521,17.446 C0.521,14.914 2.237,13.21 4.745,13.21 C5.741,13.21 6.389,13.426 6.665,13.558 L6.401,14.422 C6.017,14.23 5.453,14.086 4.781,14.086 C2.885,14.086 1.625,15.298 1.625,17.41 C1.625,19.39 2.765,20.65 4.721,20.65 C5.369,20.65 6.017,20.518 6.437,20.314 L6.641,21.154 L6.641,21.154 Z"></path>
                    <g transform="translate(7.000000, 12.000000)">
                        <path d="M3.462,9.55 C1.902,9.55 0.678,8.398 0.678,6.562 C0.678,4.618 1.962,3.478 3.558,3.478 C5.226,3.478 6.354,4.69 6.354,6.454 C6.354,8.614 4.854,9.55 3.474,9.55 L3.462,9.55 L3.462,9.55 Z M3.51,8.758 C4.518,8.758 5.274,7.81 5.274,6.49 C5.274,5.506 4.782,4.27 3.534,4.27 C2.298,4.27 1.758,5.422 1.758,6.526 C1.758,7.798 2.478,8.758 3.498,8.758 L3.51,8.758 L3.51,8.758 Z"></path>
                        <path d="M7.986,0.898 L9.042,0.898 L9.042,9.418 L7.986,9.418 L7.986,0.898 L7.986,0.898 Z"></path>
                        <path d="M13.482,9.55 C11.922,9.55 10.698,8.398 10.698,6.562 C10.698,4.618 11.982,3.478 13.578,3.478 C15.246,3.478 16.374,4.69 16.374,6.454 C16.374,8.614 14.874,9.55 13.494,9.55 L13.482,9.55 L13.482,9.55 Z M13.53,8.758 C14.538,8.758 15.294,7.81 15.294,6.49 C15.294,5.506 14.802,4.27 13.554,4.27 C12.318,4.27 11.778,5.422 11.778,6.526 C11.778,7.798 12.498,8.758 13.518,8.758 L13.53,8.758 L13.53,8.758 Z"></path>
                        <path d="M22.974,8.566 C22.974,9.91 22.698,10.714 22.146,11.23 C21.57,11.746 20.754,11.926 20.022,11.926 C19.326,11.926 18.558,11.758 18.09,11.446 L18.354,10.63 C18.738,10.882 19.338,11.098 20.058,11.098 C21.138,11.098 21.93,10.534 21.93,9.058 L21.93,8.422 L21.906,8.422 C21.593,8.962 20.958,9.394 20.058,9.394 C18.618,9.394 17.586,8.17 17.586,6.55 C17.586,4.582 18.87,3.478 20.214,3.478 C21.222,3.478 21.762,3.994 22.026,4.486 L22.05,4.486 L22.086,3.61 L23.022,3.61 C22.986,4.018 22.974,4.498 22.974,5.194 L22.974,8.566 L22.974,8.566 Z M21.918,5.891 C21.918,5.723 21.906,5.567 21.858,5.423 C21.666,4.799 21.162,4.295 20.382,4.295 C19.374,4.295 18.654,5.147 18.654,6.503 C18.654,7.631 19.242,8.591 20.37,8.591 C21.03,8.591 21.618,8.183 21.834,7.499 C21.894,7.331 21.918,7.127 21.918,6.935 L21.918,5.891 L21.918,5.891 Z"></path>
                        <path d="M25.014,5.183 C25.014,4.571 25.002,4.091 24.966,3.611 L25.902,3.611 L25.962,4.559 L25.986,4.559 C26.274,4.019 26.946,3.479 27.906,3.479 C28.71,3.479 29.958,3.959 29.958,5.951 L29.958,9.419 L28.902,9.419 L28.902,6.071 C28.902,5.135 28.554,4.343 27.558,4.343 C26.874,4.343 26.334,4.835 26.142,5.423 C26.094,5.555 26.07,5.747 26.07,5.915 L26.07,9.419 L25.014,9.419 L25.014,5.183 L25.014,5.183 Z"></path>
                        <path d="M32.574,6.707 C32.598,8.123 33.498,8.711 34.554,8.711 C35.31,8.711 35.778,8.579 36.162,8.411 L36.354,9.167 C35.982,9.335 35.334,9.539 34.41,9.539 C32.634,9.539 31.554,8.351 31.554,6.611 C31.554,4.859 32.598,3.479 34.29,3.479 C36.186,3.479 36.678,5.147 36.678,6.215 C36.678,6.431 36.666,6.587 36.642,6.707 L32.574,6.707 L32.574,6.707 Z M35.658,5.95 C35.67,5.278 35.382,4.234 34.206,4.234 C33.126,4.234 32.67,5.218 32.586,5.95 L35.658,5.95 L35.658,5.95 Z"></path>
                    </g>
                    <g transform="translate(48.000000, 13.000000)">
                        <path d="M1.438,0.331 L1.438,5.131 C1.438,6.931 2.242,7.699 3.322,7.699 C4.51,7.699 5.29,6.907 5.29,5.131 L5.29,0.331 L6.346,0.331 L6.346,5.059 C6.346,7.543 5.038,8.551 3.286,8.551 C1.63,8.551 0.382,7.615 0.382,5.095 L0.382,0.331 L1.438,0.331 L1.438,0.331 Z"></path>
                        <path d="M8.433,4.183 C8.433,3.571 8.421,3.091 8.385,2.611 L9.321,2.611 L9.381,3.559 L9.405,3.559 C9.693,3.019 10.365,2.479 11.325,2.479 C12.129,2.479 13.377,2.959 13.377,4.951 L13.377,8.419 L12.321,8.419 L12.321,5.071 C12.321,4.135 11.973,3.343 10.977,3.343 C10.293,3.343 9.753,3.835 9.561,4.423 C9.513,4.555 9.489,4.747 9.489,4.915 L9.489,8.419 L8.433,8.419 L8.433,4.183 L8.433,4.183 Z"></path>
                        <path d="M15.909,1.626 C15.525,1.626 15.273,1.326 15.273,0.978 C15.273,0.606 15.537,0.318 15.933,0.318 C16.317,0.318 16.581,0.606 16.581,0.978 C16.581,1.326 16.329,1.626 15.921,1.626 L15.909,1.626 L15.909,1.626 Z M15.405,8.418 L15.405,2.61 L16.461,2.61 L16.461,8.418 L15.405,8.418 L15.405,8.418 Z"></path>
                        <path d="M18.933,2.61 L20.073,5.862 C20.265,6.402 20.421,6.882 20.541,7.362 L20.577,7.362 C20.709,6.882 20.877,6.402 21.069,5.862 L22.197,2.61 L23.301,2.61 L21.021,8.418 L20.013,8.418 L17.805,2.61 L18.933,2.61 L18.933,2.61 Z"></path>
                        <path d="M25.209,5.707 C25.233,7.123 26.133,7.711 27.189,7.711 C27.945,7.711 28.413,7.579 28.797,7.411 L28.989,8.167 C28.617,8.335 27.969,8.539 27.045,8.539 C25.269,8.539 24.189,7.351 24.189,5.611 C24.189,3.859 25.233,2.479 26.925,2.479 C28.821,2.479 29.313,4.147 29.313,5.215 C29.313,5.431 29.301,5.587 29.277,5.707 L25.209,5.707 L25.209,5.707 Z M28.293,4.95 C28.305,4.278 28.017,3.234 26.841,3.234 C25.761,3.234 25.305,4.218 25.221,4.95 L28.293,4.95 L28.293,4.95 Z"></path>
                        <path d="M30.933,4.422 C30.933,3.738 30.921,3.15 30.885,2.61 L31.809,2.61 L31.857,3.75 L31.893,3.75 C32.157,2.97 32.805,2.478 33.513,2.478 C33.621,2.478 33.705,2.49 33.801,2.502 L33.801,3.498 C33.693,3.486 33.585,3.474 33.441,3.474 C32.697,3.474 32.169,4.038 32.025,4.818 C32.001,4.974 31.989,5.142 31.989,5.31 L31.989,8.418 L30.933,8.418 L30.933,4.422 L30.933,4.422 Z"></path>
                        <path d="M35.025,7.338 C35.349,7.53 35.901,7.746 36.429,7.746 C37.185,7.746 37.545,7.374 37.545,6.882 C37.545,6.378 37.245,6.114 36.477,5.826 C35.421,5.442 34.929,4.866 34.929,4.182 C34.929,3.246 35.697,2.478 36.933,2.478 C37.521,2.478 38.037,2.634 38.349,2.838 L38.097,3.594 C37.869,3.462 37.449,3.258 36.909,3.258 C36.285,3.258 35.949,3.618 35.949,4.05 C35.949,4.53 36.285,4.746 37.041,5.046 C38.037,5.418 38.565,5.922 38.565,6.786 C38.565,7.818 37.761,8.538 36.405,8.538 C35.769,8.538 35.181,8.37 34.773,8.13 L35.025,7.338 L35.025,7.338 Z"></path>
                        <path d="M40.737,1.626 C40.353,1.626 40.101,1.326 40.101,0.978 C40.101,0.606 40.365,0.318 40.761,0.318 C41.145,0.318 41.409,0.606 41.409,0.978 C41.409,1.326 41.157,1.626 40.749,1.626 L40.737,1.626 L40.737,1.626 Z M40.233,8.418 L40.233,2.61 L41.289,2.61 L41.289,8.418 L40.233,8.418 L40.233,8.418 Z"></path>
                        <path d="M44.625,1.218 L44.625,2.61 L46.137,2.61 L46.137,3.414 L44.625,3.414 L44.625,6.534 C44.625,7.254 44.829,7.662 45.417,7.662 C45.705,7.662 45.873,7.638 46.029,7.59 L46.077,8.394 C45.873,8.466 45.549,8.538 45.141,8.538 C44.649,8.538 44.253,8.37 44.001,8.094 C43.713,7.77 43.593,7.254 43.593,6.57 L43.593,3.414 L42.693,3.414 L42.693,2.61 L43.593,2.61 L43.593,1.542 L44.625,1.218 L44.625,1.218 Z"></path>
                        <path d="M48.021,2.61 L49.281,6.042 C49.425,6.426 49.569,6.882 49.665,7.23 L49.689,7.23 C49.797,6.882 49.917,6.438 50.061,6.018 L51.213,2.61 L52.329,2.61 L50.745,6.75 C49.989,8.742 49.473,9.75 48.753,10.386 C48.225,10.83 47.721,11.01 47.457,11.058 L47.193,10.182 C47.457,10.098 47.805,9.93 48.117,9.666 C48.405,9.438 48.753,9.03 49.005,8.49 C49.053,8.382 49.089,8.298 49.089,8.238 C49.089,8.178 49.065,8.094 49.005,7.962 L46.869,2.61 L48.021,2.61 L48.021,2.61 Z"></path>
                    </g>
                    <g transform="translate(104.000000, 12.000000)">
                        <path d="M3.006,9.55 C1.446,9.55 0.222,8.398 0.222,6.562 C0.222,4.618 1.506,3.478 3.102,3.478 C4.77,3.478 5.898,4.69 5.898,6.454 C5.898,8.614 4.398,9.55 3.018,9.55 L3.006,9.55 L3.006,9.55 Z M3.054,8.758 C4.062,8.758 4.818,7.81 4.818,6.49 C4.818,5.506 4.326,4.27 3.078,4.27 C1.842,4.27 1.302,5.422 1.302,6.526 C1.302,7.798 2.022,8.758 3.042,8.758 L3.054,8.758 L3.054,8.758 Z"></path>
                        <path d="M7.638,9.418 L7.638,4.414 L6.834,4.414 L6.834,3.61 L7.638,3.61 L7.638,3.334 C7.638,2.518 7.83,1.774 8.322,1.306 C8.718,0.922 9.246,0.766 9.726,0.766 C10.11,0.766 10.422,0.85 10.626,0.934 L10.494,1.75 C10.326,1.678 10.122,1.618 9.81,1.618 C8.922,1.618 8.682,2.41 8.682,3.298 L8.682,3.61 L10.086,3.61 L10.086,4.414 L8.694,4.414 L8.694,9.418 L7.638,9.418 L7.638,9.418 Z"></path>
                    </g>
                    <g transform="translate(117.000000, 12.000000)">
                        <path d="M2.795,6.875 L1.955,9.419 L0.875,9.419 L3.623,1.331 L4.883,1.331 L7.643,9.419 L6.527,9.419 L5.663,6.875 L2.795,6.875 L2.795,6.875 Z M5.447,6.059 L4.643,3.731 C4.475,3.203 4.355,2.723 4.235,2.255 L4.199,2.255 C4.091,2.723 3.959,3.227 3.803,3.719 L3.011,6.059 L5.447,6.059 L5.447,6.059 Z"></path>
                        <path d="M9.106,5.506 C9.106,4.762 9.094,4.162 9.058,3.61 L10.006,3.61 L10.066,4.606 L10.09,4.606 C10.51,3.886 11.206,3.478 12.142,3.478 C13.558,3.478 14.614,4.666 14.614,6.43 C14.614,8.518 13.33,9.55 11.974,9.55 C11.194,9.55 10.534,9.214 10.186,8.638 L10.162,8.638 L10.162,11.794 L9.106,11.794 L9.106,5.506 L9.106,5.506 Z M10.163,7.054 C10.163,7.198 10.175,7.354 10.211,7.486 C10.391,8.218 11.039,8.722 11.783,8.722 C12.899,8.722 13.547,7.81 13.547,6.478 C13.547,5.314 12.947,4.318 11.831,4.318 C11.111,4.318 10.427,4.822 10.223,5.626 C10.199,5.758 10.163,5.914 10.163,6.046 L10.163,7.054 L10.163,7.054 Z"></path>
                        <path d="M16.247,5.506 C16.247,4.762 16.235,4.162 16.199,3.61 L17.147,3.61 L17.207,4.606 L17.231,4.606 C17.651,3.886 18.347,3.478 19.283,3.478 C20.699,3.478 21.755,4.666 21.755,6.43 C21.755,8.518 20.471,9.55 19.115,9.55 C18.335,9.55 17.675,9.214 17.327,8.638 L17.303,8.638 L17.303,11.794 L16.247,11.794 L16.247,5.506 L16.247,5.506 Z M17.303,7.054 C17.303,7.198 17.315,7.354 17.351,7.486 C17.531,8.218 18.179,8.722 18.923,8.722 C20.039,8.722 20.687,7.81 20.687,6.478 C20.687,5.314 20.087,4.318 18.971,4.318 C18.251,4.318 17.567,4.822 17.363,5.626 C17.339,5.758 17.303,5.914 17.303,6.046 L17.303,7.054 L17.303,7.054 Z"></path>
                        <path d="M23.386,0.898 L24.442,0.898 L24.442,9.418 L23.386,9.418 L23.386,0.898 L23.386,0.898 Z"></path>
                        <path d="M27.034,2.626 C26.65,2.626 26.398,2.326 26.398,1.978 C26.398,1.606 26.662,1.318 27.058,1.318 C27.442,1.318 27.706,1.606 27.706,1.978 C27.706,2.326 27.454,2.626 27.046,2.626 L27.034,2.626 L27.034,2.626 Z M26.53,9.418 L26.53,3.61 L27.586,3.61 L27.586,9.418 L26.53,9.418 L26.53,9.418 Z"></path>
                        <path d="M30.25,6.707 C30.274,8.123 31.174,8.711 32.23,8.711 C32.986,8.711 33.454,8.579 33.838,8.411 L34.03,9.167 C33.658,9.335 33.01,9.539 32.086,9.539 C30.31,9.539 29.23,8.351 29.23,6.611 C29.23,4.859 30.274,3.479 31.966,3.479 C33.862,3.479 34.354,5.147 34.354,6.215 C34.354,6.431 34.342,6.587 34.318,6.707 L30.25,6.707 L30.25,6.707 Z M33.334,5.95 C33.346,5.278 33.058,4.234 31.882,4.234 C30.802,4.234 30.346,5.218 30.262,5.95 L33.334,5.95 L33.334,5.95 Z"></path>
                        <path d="M40.99,0.898 L40.99,7.918 C40.99,8.434 41.002,9.022 41.038,9.418 L40.09,9.418 L40.042,8.41 L40.018,8.41 C39.694,9.058 38.998,9.55 38.05,9.55 C36.646,9.55 35.554,8.362 35.554,6.598 C35.542,4.654 36.754,3.478 38.158,3.478 C39.058,3.478 39.658,3.898 39.91,4.354 L39.934,4.354 L39.934,0.898 L40.99,0.898 L40.99,0.898 Z M39.934,5.975 C39.934,5.831 39.922,5.663 39.886,5.519 C39.73,4.859 39.154,4.307 38.362,4.307 C37.27,4.307 36.622,5.267 36.622,6.539 C36.622,7.727 37.21,8.699 38.338,8.699 C39.046,8.699 39.694,8.219 39.886,7.427 C39.922,7.295 39.934,7.151 39.934,6.983 L39.934,5.975 L39.934,5.975 Z"></path>
                    </g>
                    <path d="M163.095,20.146 C163.563,20.434 164.235,20.662 164.955,20.662 C166.023,20.662 166.647,20.11 166.647,19.294 C166.647,18.538 166.215,18.094 165.123,17.686 C163.803,17.23 162.987,16.534 162.987,15.406 C162.987,14.146 164.031,13.21 165.603,13.21 C166.419,13.21 167.031,13.402 167.379,13.594 L167.091,14.458 C166.839,14.302 166.299,14.074 165.567,14.074 C164.463,14.074 164.043,14.734 164.043,15.286 C164.043,16.03 164.535,16.402 165.651,16.834 C167.019,17.374 167.703,18.022 167.703,19.21 C167.703,20.446 166.791,21.538 164.883,21.538 C164.103,21.538 163.251,21.298 162.819,21.01 L163.095,20.146 L163.095,20.146 Z"></path>
                    <g transform="translate(169.000000, 13.000000)">
                        <path d="M4.626,8.203 C4.35,8.335 3.738,8.539 2.958,8.539 C1.206,8.539 0.066,7.351 0.066,5.575 C0.066,3.787 1.29,2.479 3.186,2.479 C3.81,2.479 4.362,2.635 4.65,2.791 L4.41,3.595 C4.158,3.463 3.762,3.319 3.186,3.319 C1.854,3.319 1.134,4.315 1.134,5.515 C1.134,6.859 1.998,7.687 3.15,7.687 C3.75,7.687 4.146,7.543 4.446,7.411 L4.626,8.203 L4.626,8.203 Z"></path>
                        <path d="M6.678,1.626 C6.294,1.626 6.042,1.326 6.042,0.978 C6.042,0.606 6.306,0.318 6.702,0.318 C7.086,0.318 7.35,0.606 7.35,0.978 C7.35,1.326 7.098,1.626 6.69,1.626 L6.678,1.626 L6.678,1.626 Z M6.174,8.418 L6.174,2.61 L7.23,2.61 L7.23,8.418 L6.174,8.418 L6.174,8.418 Z"></path>
                        <path d="M9.894,5.707 C9.918,7.123 10.818,7.711 11.874,7.711 C12.63,7.711 13.098,7.579 13.481,7.411 L13.673,8.167 C13.301,8.335 12.652,8.539 11.729,8.539 C9.954,8.539 8.874,7.351 8.874,5.611 C8.874,3.859 9.918,2.479 11.609,2.479 C13.505,2.479 13.998,4.147 13.998,5.215 C13.998,5.431 13.985,5.587 13.962,5.707 L9.894,5.707 L9.894,5.707 Z M12.978,4.95 C12.991,4.278 12.703,3.234 11.526,3.234 C10.446,3.234 9.991,4.218 9.907,4.95 L12.978,4.95 L12.978,4.95 Z"></path>
                        <path d="M15.617,4.183 C15.617,3.571 15.605,3.091 15.569,2.611 L16.506,2.611 L16.566,3.559 L16.59,3.559 C16.878,3.019 17.55,2.479 18.51,2.479 C19.314,2.479 20.562,2.959 20.562,4.951 L20.562,8.419 L19.506,8.419 L19.506,5.071 C19.506,4.135 19.157,3.343 18.162,3.343 C17.477,3.343 16.937,3.835 16.746,4.423 C16.697,4.555 16.674,4.747 16.674,4.915 L16.674,8.419 L15.617,8.419 L15.617,4.183 L15.617,4.183 Z"></path>
                        <path d="M26.729,8.203 C26.453,8.335 25.841,8.539 25.061,8.539 C23.309,8.539 22.169,7.351 22.169,5.575 C22.169,3.787 23.393,2.479 25.289,2.479 C25.913,2.479 26.465,2.635 26.753,2.791 L26.513,3.595 C26.261,3.463 25.865,3.319 25.289,3.319 C23.957,3.319 23.236,4.315 23.236,5.515 C23.236,6.859 24.1,7.687 25.253,7.687 C25.853,7.687 26.249,7.543 26.549,7.411 L26.729,8.203 L26.729,8.203 Z"></path>
                        <path d="M28.878,5.707 C28.901,7.123 29.802,7.711 30.857,7.711 C31.613,7.711 32.082,7.579 32.465,7.411 L32.656,8.167 C32.284,8.335 31.636,8.539 30.713,8.539 C28.937,8.539 27.857,7.351 27.857,5.611 C27.857,3.859 28.901,2.479 30.593,2.479 C32.489,2.479 32.981,4.147 32.981,5.215 C32.981,5.431 32.969,5.587 32.945,5.707 L28.878,5.707 L28.878,5.707 Z M31.962,4.95 C31.974,4.278 31.686,3.234 30.51,3.234 C29.43,3.234 28.974,4.218 28.89,4.95 L31.962,4.95 L31.962,4.95 Z"></path>
                        <path d="M34.457,7.338 C34.781,7.53 35.333,7.746 35.861,7.746 C36.617,7.746 36.977,7.374 36.977,6.882 C36.977,6.378 36.677,6.114 35.909,5.826 C34.853,5.442 34.361,4.866 34.361,4.182 C34.361,3.246 35.13,2.478 36.365,2.478 C36.953,2.478 37.469,2.634 37.781,2.838 L37.529,3.594 C37.301,3.462 36.882,3.258 36.341,3.258 C35.717,3.258 35.381,3.618 35.381,4.05 C35.381,4.53 35.717,4.746 36.473,5.046 C37.469,5.418 37.996,5.922 37.996,6.786 C37.996,7.818 37.192,8.538 35.837,8.538 C35.2,8.538 34.612,8.37 34.204,8.13 L34.457,7.338 L34.457,7.338 Z"></path>
                    </g>
                </g>
                <g transform="translate(24.000000, 48.000000)" id="Shape">
                    <path d="M3.529,0.426 C5.212,0.426 6.589,1.795 6.589,3.478 C6.589,5.161 5.212,6.538 3.529,6.538 C1.838,6.538 0.452,5.178 0.452,3.478 C0.452,1.777 1.837,0.426 3.529,0.426 L3.529,0.426 Z"></path>
                    <path d="M15.522,0.426 C17.205,0.426 18.582,1.795 18.582,3.478 C18.582,5.161 17.205,6.538 15.522,6.538 C13.831,6.538 12.445,5.178 12.445,3.478 C12.445,1.777 13.831,0.426 15.522,0.426 L15.522,0.426 Z"></path>
                </g>
                <path d="M51.51,48.426 C53.193,48.426 54.57,49.795 54.57,51.478 C54.57,53.161 53.193,54.538 51.51,54.538 C49.819,54.538 48.433,53.178 48.433,51.478 C48.433,49.777 49.819,48.426 51.51,48.426 L51.51,48.426 Z" id="Shape"></path>
            </g>
            <rect id="_x003C_Slice_x003E_" sketch:type="MSShapeGroup" x="0.833" y="0.45" width="310.167" height="61.133"></rect>
        </g>
    </g>
</svg>