<?xml version="1.0" encoding="UTF-8" standalone="no"?>
<svg width="469px" height="318px" viewBox="0 0 469 318" version="1.1" xmlns="http://www.w3.org/2000/svg" xmlns:xlink="http://www.w3.org/1999/xlink" xmlns:sketch="http://www.bohemiancoding.com/sketch/ns">
    <!-- Generator: Sketch 3.2.2 (9983) - http://www.bohemiancoding.com/sketch -->
    <title>Leibniz-Gemeinschaft</title>
    <desc>Created with Sketch.</desc>
    <defs></defs>
    <g id="Page-1" stroke="none" stroke-width="1" fill="none" fill-rule="evenodd" sketch:type="MSPage">
        <g id="Leibniz-Gemeinschaft" sketch:type="MSLayerGroup">
            <g id="Group" sketch:type="MSShapeGroup">
                <path d="M379.986,238.407 C379.986,240.012 380.474,241.343 381.451,242.397 C382.425,243.451 383.623,243.978 385.036,243.978 C386.609,243.978 388.056,243.81 389.369,243.475 L388.9,240.682 C388.031,241.096 387.188,241.301 386.374,241.301 C385.248,241.301 384.433,240.983 383.924,240.348 C383.417,239.712 383.164,238.641 383.164,237.137 L383.164,228.238 L388.082,228.238 L388.082,225.73 L383.164,225.73 L383.164,220.763 L379.986,221.983 L379.986,225.73 L377.912,225.73 L377.912,228.238 L379.986,228.238 L379.986,238.407 L379.986,238.407 Z M373.674,218.888 C372.615,218.554 371.623,218.387 370.699,218.387 C368.845,218.387 367.358,219.04 366.231,220.343 C365.106,221.648 364.541,223.444 364.541,225.729 L361.933,225.729 L361.933,228.405 L364.541,228.405 L364.541,243.643 L367.719,243.643 L367.719,228.405 L371.367,228.405 L371.367,225.729 L367.719,225.729 C367.665,225.405 367.637,225.094 367.637,224.792 C367.637,223.667 367.951,222.737 368.582,222 C369.211,221.265 370.014,220.897 370.982,220.897 C371.54,220.897 372.143,221.007 372.788,221.231 L373.674,218.888 L373.674,218.888 Z M351.841,239.176 C350.604,240.705 349.183,241.468 347.577,241.468 C345.379,241.468 344.281,240.537 344.281,238.674 C344.281,237.548 344.789,236.573 345.804,235.748 C346.817,234.923 348.13,234.511 349.734,234.511 C350.135,234.511 350.838,234.621 351.84,234.845 L351.84,239.176 L351.841,239.176 Z M353.523,243.409 C354.166,243.775 355.13,243.959 356.423,243.959 L356.423,242.372 C355.487,241.847 355.018,240.799 355.018,239.228 L355.018,232.805 C355.018,230.229 354.43,228.348 353.256,227.168 C352.078,225.985 350.19,225.395 347.592,225.395 C346.622,225.395 345.606,225.569 344.539,225.921 C343.476,226.274 342.641,226.694 342.039,227.185 L343.377,229.843 C344.447,228.775 345.975,228.237 347.961,228.237 C350.548,228.237 351.84,229.685 351.84,232.586 C350.995,232.296 350.236,232.152 349.566,232.152 C347.101,232.152 345.079,232.779 343.488,234.033 C341.898,235.288 341.103,236.823 341.103,238.641 C341.103,240.158 341.618,241.425 342.65,242.445 C343.683,243.469 344.901,243.979 346.306,243.979 C348.925,243.979 350.871,243.18 352.142,241.585 C352.421,242.432 352.883,243.038 353.523,243.409 L353.523,243.409 Z M334.44,243.643 L334.44,232.387 C334.44,230.223 333.905,228.514 332.826,227.269 C331.753,226.019 330.264,225.394 328.372,225.394 C327.368,225.394 326.393,225.613 325.451,226.054 C324.507,226.493 323.825,227.044 323.401,227.701 L323.401,218.386 L320.224,218.386 L320.224,243.642 L323.401,243.642 L323.401,230.328 C323.814,229.726 324.408,229.199 325.183,228.745 C325.959,228.295 326.73,228.069 327.499,228.069 C328.691,228.069 329.617,228.454 330.276,229.224 C330.933,229.994 331.263,231.048 331.263,232.386 L331.263,243.642 L334.44,243.642 L334.44,243.643 Z M311.303,225.979 C310.221,225.591 309.218,225.395 308.293,225.395 C305.415,225.395 303.15,226.261 301.496,227.986 C299.839,229.715 299.008,232.007 299.008,234.862 C299.008,237.659 299.808,239.879 301.402,241.519 C302.995,243.158 305.014,243.979 307.459,243.979 C309.979,243.979 312.091,243.426 313.797,242.321 L312.542,239.645 C311.092,240.749 309.655,241.301 308.226,241.301 C306.389,241.301 304.949,240.751 303.912,239.653 C302.878,238.555 302.355,236.96 302.355,234.862 C302.355,232.754 302.862,231.094 303.877,229.887 C304.893,228.674 306.266,228.071 307.995,228.071 C308.783,228.071 309.588,228.216 310.411,228.505 C311.229,228.797 311.8,229.101 312.124,229.424 L313.697,227.185 C313.185,226.771 312.386,226.369 311.303,225.979 L311.303,225.979 Z M287.379,243.978 C289.376,243.978 290.937,243.522 292.065,242.613 C293.192,241.706 293.753,240.448 293.753,238.841 C293.753,237.616 293.437,236.596 292.801,235.782 C292.163,234.967 291.151,234.243 289.757,233.607 L287.482,232.57 C286.178,231.979 285.525,231.107 285.525,229.96 C285.525,229.414 285.785,228.962 286.301,228.606 C286.821,228.248 287.458,228.069 288.216,228.069 C289.489,228.069 290.753,228.57 292.016,229.574 L292.917,226.63 C290.934,225.805 289.288,225.393 287.981,225.393 C286.253,225.393 284.855,225.806 283.787,226.63 C282.712,227.456 282.18,228.606 282.18,230.076 C282.18,230.644 282.272,231.178 282.457,231.674 C282.638,232.169 282.916,232.639 283.291,233.079 C283.664,233.52 284.104,233.913 284.613,234.257 C285.119,234.603 286.104,235.112 287.565,235.781 C289.46,236.626 290.407,237.641 290.407,238.822 C290.407,240.473 289.426,241.299 287.464,241.299 C286.384,241.299 284.955,240.719 283.183,239.56 L282.064,242.571 C283.723,243.509 285.495,243.978 287.379,243.978 L287.379,243.978 Z M275.635,243.643 L275.635,232.555 C275.635,227.782 273.672,225.395 269.746,225.395 C267.37,225.395 265.658,226.275 264.608,228.038 L263.605,225.729 L261.43,225.729 L261.43,243.644 L264.608,243.644 L264.608,230.33 C265.035,229.694 265.641,229.159 266.432,228.725 C267.223,228.29 267.982,228.072 268.708,228.072 C270.058,228.072 271.018,228.455 271.592,229.218 C272.167,229.982 272.453,231.316 272.453,233.225 L272.453,243.644 L275.635,243.644 L275.635,243.643 Z M253.298,243.643 L253.298,225.728 L247.662,225.728 L247.662,228.404 L250.12,228.404 L250.12,243.642 L253.298,243.642 L253.298,243.643 Z M250.472,219.521 C250.092,219.901 249.903,220.363 249.903,220.91 C249.903,221.455 250.096,221.922 250.48,222.308 C250.867,222.69 251.325,222.884 251.861,222.884 C252.407,222.884 252.872,222.691 253.257,222.308 C253.643,221.922 253.833,221.455 253.833,220.91 C253.833,220.377 253.643,219.914 253.257,219.529 C252.871,219.147 252.406,218.955 251.861,218.955 C251.313,218.955 250.852,219.144 250.472,219.521 L250.472,219.521 Z M237.787,229.475 C238.59,230.332 238.992,231.405 238.992,232.686 L229.072,232.686 C229.195,231.392 229.713,230.311 230.629,229.442 C231.587,228.528 232.775,228.069 234.191,228.069 C235.709,228.07 236.907,228.538 237.787,229.475 L237.787,229.475 Z M242.152,233.056 C242.152,230.768 241.451,228.933 240.047,227.553 C238.596,226.115 236.595,225.395 234.042,225.395 C231.843,225.395 229.943,226.193 228.337,227.787 C226.543,229.569 225.646,231.94 225.646,234.894 C225.646,237.738 226.521,240.001 228.271,241.685 C229.844,243.214 231.754,243.978 234.008,243.978 C235.569,243.978 236.985,243.743 238.256,243.273 C239.272,242.916 240.022,242.493 240.514,242.003 L239.176,239.711 C237.961,240.77 236.444,241.3 234.626,241.3 C233.033,241.3 231.727,240.809 230.714,239.827 C229.565,238.703 228.99,237.092 228.99,234.994 L241.903,234.994 C242.07,234.404 242.152,233.756 242.152,233.056 L242.152,233.056 Z M219.216,243.643 L219.216,231.667 C219.216,229.681 218.71,228.141 217.694,227.041 C216.678,225.943 215.246,225.394 213.397,225.394 C212.372,225.394 211.373,225.621 210.403,226.079 C209.432,226.537 208.768,227.106 208.411,227.787 C207.386,226.193 205.59,225.395 203.025,225.395 C201.186,225.395 199.652,226.197 198.426,227.804 L197.373,225.729 L195.299,225.729 L195.299,243.644 L198.477,243.644 L198.477,230.429 C198.778,229.838 199.288,229.3 200.008,228.807 C200.727,228.316 201.404,228.072 202.039,228.072 C203.134,228.072 204.012,228.325 204.675,228.833 C205.338,229.34 205.67,230.035 205.67,230.914 L205.67,243.644 L208.849,243.644 L208.849,230.397 C209.094,229.794 209.551,229.256 210.22,228.782 C210.889,228.309 211.607,228.071 212.377,228.071 C214.819,228.071 216.04,229.481 216.04,232.303 L216.04,243.643 L219.216,243.643 L219.216,243.643 Z M184.504,229.475 C185.307,230.332 185.707,231.405 185.707,232.686 L175.79,232.686 C175.913,231.392 176.43,230.311 177.346,229.442 C178.304,228.528 179.492,228.069 180.908,228.069 C182.423,228.07 183.623,228.538 184.504,229.475 L184.504,229.475 Z M188.869,233.056 C188.869,230.768 188.166,228.933 186.763,227.553 C185.313,226.115 183.309,225.395 180.758,225.395 C178.561,225.395 176.661,226.193 175.055,227.787 C173.26,229.569 172.36,231.94 172.36,234.894 C172.36,237.738 173.236,240.001 174.986,241.685 C176.56,243.214 178.472,243.978 180.725,243.978 C182.284,243.978 183.702,243.743 184.973,243.273 C185.989,242.916 186.74,242.493 187.232,242.003 L185.894,239.711 C184.677,240.77 183.163,241.3 181.344,241.3 C179.748,241.3 178.445,240.809 177.429,239.827 C176.28,238.703 175.706,237.092 175.706,234.994 L188.62,234.994 C188.787,234.404 188.869,233.756 188.869,233.056 L188.869,233.056 Z M158.271,218.721 C154.626,218.721 151.728,219.9 149.583,222.257 C147.437,224.617 146.363,227.692 146.363,231.482 C146.363,235.283 147.342,238.332 149.299,240.625 C151.256,242.916 153.923,244.062 157.303,244.062 C158.808,244.062 160.358,243.83 161.954,243.366 C163.548,242.904 164.79,242.294 165.683,241.536 L165.683,230.863 L158.942,230.863 L158.942,233.705 L162.338,233.705 L162.338,239.445 C161.235,240.513 159.79,241.049 158.008,241.049 C155.497,241.049 153.517,240.185 152.061,238.458 C150.604,236.729 149.877,234.447 149.877,231.616 C149.877,228.638 150.619,226.246 152.102,224.441 C153.584,222.633 155.609,221.732 158.175,221.732 C159.79,221.732 161.441,222.356 163.125,223.606 L164.514,220.845 C162.906,219.427 160.827,218.721 158.271,218.721 L158.271,218.721 Z M139.181,232.251 L132.023,232.251 L132.023,235.178 L139.181,235.178 L139.181,232.251 L139.181,232.251 Z M125.511,226.631 L125.511,225.728 L110.86,225.728 L110.86,228.572 L120.879,228.572 L110.694,242.807 L110.694,243.643 L125.612,243.643 L125.612,240.799 L115.676,240.799 L125.511,226.631 L125.511,226.631 Z M104.146,243.643 L104.146,225.728 L98.509,225.728 L98.509,228.404 L100.967,228.404 L100.967,243.642 L104.146,243.642 L104.146,243.643 Z M101.32,219.521 C100.94,219.901 100.751,220.363 100.751,220.91 C100.751,221.455 100.943,221.922 101.328,222.308 C101.713,222.69 102.173,222.884 102.706,222.884 C103.254,222.884 103.72,222.691 104.105,222.308 C104.49,221.922 104.681,221.455 104.681,220.91 C104.681,220.377 104.49,219.914 104.105,219.529 C103.72,219.147 103.254,218.955 102.706,218.955 C102.161,218.955 101.699,219.144 101.32,219.521 L101.32,219.521 Z M91.83,243.643 L91.83,232.555 C91.83,227.782 89.867,225.395 85.942,225.395 C83.568,225.395 81.856,226.275 80.808,228.038 L79.805,225.729 L77.631,225.729 L77.631,243.644 L80.809,243.644 L80.809,230.33 C81.232,229.694 81.84,229.159 82.632,228.725 C83.424,228.29 84.182,228.072 84.907,228.072 C86.254,228.072 87.218,228.455 87.792,229.218 C88.367,229.982 88.652,231.316 88.652,233.225 L88.652,243.644 L91.83,243.644 L91.83,243.643 Z M60.003,228.572 C60.701,228.237 61.244,228.071 61.635,228.071 C63.485,228.071 64.957,228.639 66.05,229.779 C67.142,230.913 67.69,232.498 67.69,234.527 C67.69,236.969 67.221,238.708 66.284,239.745 C65.348,240.785 63.797,241.301 61.635,241.301 C61.222,241.301 60.619,241.097 59.828,240.69 C59.036,240.284 58.641,239.991 58.641,239.812 L58.641,229.476 C58.853,229.208 59.308,228.906 60.003,228.572 L60.003,228.572 Z M60.038,243.499 C60.857,243.818 61.69,243.978 62.538,243.978 C65.149,243.978 67.216,243.119 68.745,241.41 C70.273,239.697 71.036,237.347 71.036,234.358 C71.036,231.772 70.275,229.632 68.753,227.938 C67.23,226.24 65.243,225.395 62.789,225.395 C61.987,225.395 61.172,225.568 60.339,225.912 C59.508,226.261 58.943,226.638 58.643,227.052 L58.643,218.387 L55.464,218.387 L55.464,243.979 L57.052,243.979 L58.172,242.355 C58.597,242.8 59.217,243.183 60.038,243.499 L60.038,243.499 Z M47.329,243.643 L47.329,225.728 L41.693,225.728 L41.693,228.404 L44.151,228.404 L44.151,243.642 L47.329,243.642 L47.329,243.643 Z M44.502,219.521 C44.124,219.901 43.933,220.363 43.933,220.91 C43.933,221.455 44.125,221.922 44.51,222.308 C44.894,222.69 45.354,222.884 45.89,222.884 C46.436,222.884 46.901,222.691 47.286,222.308 C47.671,221.922 47.865,221.455 47.865,220.91 C47.865,220.377 47.671,219.914 47.286,219.529 C46.901,219.147 46.436,218.955 45.89,218.955 C45.344,218.955 44.88,219.144 44.502,219.521 L44.502,219.521 Z M31.817,229.475 C32.621,230.332 33.021,231.405 33.021,232.686 L23.104,232.686 C23.227,231.392 23.744,230.311 24.66,229.442 C25.618,228.528 26.805,228.069 28.223,228.069 C29.738,228.07 30.937,228.538 31.817,229.475 L31.817,229.475 Z M36.185,233.056 C36.185,230.768 35.481,228.933 34.076,227.553 C32.628,226.115 30.624,225.395 28.071,225.395 C25.875,225.395 23.973,226.193 22.366,227.787 C20.572,229.569 19.675,231.94 19.675,234.894 C19.675,237.738 20.55,240.001 22.301,241.685 C23.874,243.214 25.787,243.978 28.038,243.978 C29.6,243.978 31.016,243.743 32.288,243.273 C33.302,242.916 34.055,242.493 34.545,242.003 L33.207,239.711 C31.991,240.77 30.476,241.3 28.658,241.3 C27.062,241.3 25.759,240.809 24.743,239.827 C23.595,238.703 23.02,237.092 23.02,234.994 L35.933,234.994 C36.099,234.404 36.185,233.756 36.185,233.056 L36.185,233.056 Z M15.086,243.643 L15.086,240.633 L4.014,240.633 L4.014,219.139 L0.67,219.139 L0.67,243.643 L15.086,243.643 L15.086,243.643 Z" id="Shape" fill="#0066B3"></path>
                <g transform="translate(76.000000, 0.000000)" id="Shape" fill="#000000">
                    <path d="M284.568,182.486 C287.996,185.31 291.426,189.749 303.73,178.25 C316.037,166.75 309.783,171.593 316.443,186.723 C323.101,201.853 327.324,193.512 327.742,190.558 C328.775,183.171 326.513,168.678 324.968,162.798 C323.664,157.855 315.192,155.413 311.805,157.872 C308.603,160.195 300.103,169.776 294.451,171.592 C288.801,173.406 293.276,167.961 291.866,158.882 C290.453,149.803 287.124,145.684 283.57,147.212 C281.173,148.246 275.931,153.605 273.475,152.225 C268.697,149.536 265.385,137.994 242.002,150.81 C214.764,165.739 239.176,131.847 239.176,131.847 C239.176,131.847 257.332,107.031 246.442,89.077 C235.548,71.121 212.141,109.656 212.141,109.656 C212.141,109.656 199.838,134.069 194.389,159.891 C188.942,185.714 177.809,182.788 173.639,177.265 C169.126,171.287 170.381,147.787 154.243,157.671 C138.105,167.556 138.305,187.328 128.621,164.93 C118.936,142.541 108.755,156.925 107.437,159.283 C105.595,162.583 106.548,169.82 103.808,171.389 C100.72,173.156 96.86,166.809 94.527,165.944 C92.018,165.011 75.717,180.24 68.312,194.362 C57.641,214.709 40.523,165.78 42.184,162.72 C43.639,160.038 85.34,102.297 89.281,93.918 C93.379,85.203 99.368,82.615 102.394,82.21 C105.42,81.806 143.954,75.35 171.797,45.897 C199.639,16.441 195.401,9.178 182.086,1.712 C168.773,-5.752 130.814,31.431 129.025,32.781 C127.726,33.763 96.341,69.096 94.123,73.536 C91.904,77.975 40.258,75.149 40.258,75.149 C34.269,78.079 40.898,80.537 40.898,80.537 C40.898,80.537 64.067,83.904 78.527,83.511 C92.985,83.114 83.436,91.563 81.731,93.582 C70.537,106.851 49.414,142.92 41.888,150.445 C34.362,157.968 19.943,149.593 19.114,149.455 C18.264,149.315 -3.265,146.088 1.094,162.525 C5.453,178.964 18.53,171.668 24.859,173.218 C26.797,173.694 29.539,177.072 30.601,178.763 C33.807,183.864 35.324,191.951 38.687,196.95 C43.611,204.264 62.287,222.434 76.746,196.192 C91.752,168.958 101.303,179.161 102.096,194.014 C102.888,208.867 107.64,203.322 112.988,200.945 C118.334,198.57 113.778,188.269 114.371,174.805 C114.966,161.335 126.057,180.745 125.265,186.092 C124.475,191.44 132.789,190.449 140.121,187.48 C147.449,184.508 141.703,179.953 151.801,170.646 C161.903,161.336 162.413,183.187 165.055,188.281 C167.173,192.37 177.743,200.946 183.093,189.458 C188.441,177.976 196.807,180.467 194.989,192.169 C193.173,203.872 203.243,208.474 206.493,208.311 C209.58,208.153 227.272,198.425 227.473,178.854 C227.675,159.283 241.667,159.395 244.014,159.084 C246.383,158.766 264.392,155.853 262.779,161.099 C261.166,166.344 253.092,181.476 262.376,181.275 C271.654,181.074 267.823,173.004 276.499,163.925 C285.17,154.846 281.137,179.661 284.568,182.486 M121.894,50.439 C159.915,15.677 158.851,16.595 161.9,15.385 C165.543,13.941 178.754,7.878 181.302,10.829 C184.423,14.445 184.674,22.911 177.939,29.643 C171.204,36.376 149.052,58.993 135.164,64.697 C121.993,70.107 76.832,91.639 121.894,50.439 M17.768,167.92 C16.416,168.484 12.634,165.23 12.774,163.518 C13.052,160.169 16.519,163.621 20.498,163.518 C24.541,163.414 19.196,167.324 17.768,167.92 M222.498,169.457 C220.318,177.381 217.108,190.472 213.464,193.848 C210.257,196.819 206.007,204.313 202.271,190.65 C198.534,176.984 208.239,165.5 208.239,165.5 C208.239,165.5 212.359,159.953 214.972,160.203 C218.191,160.507 224.677,161.541 222.498,169.457 M222.152,143.703 C220.58,146.173 217.798,140.437 212.175,147.587 C209.835,150.565 211.305,154.195 208.435,157.379 C205.231,160.937 202.493,163.717 205.069,153.816 C207.645,143.914 206.738,148.082 208.328,144.394 C209.888,140.777 216.821,122.4 217.349,120.94 C217.652,120.102 223.742,108.177 229.95,99.161 C229.95,99.161 246.663,84.406 239.923,111.038 C235.409,128.891 230.325,130.869 222.152,143.703"></path>
                    <path d="M172.91,99.762 C171.676,112.883 179.752,108.621 179.752,108.621 C194.782,100.884 182.893,93.707 182.893,93.707 C182.893,93.707 174.146,86.641 172.91,99.762"></path>
                    <path d="M392.213,216.987 C391.447,214.876 389.884,212.053 383.609,219.763 C373.994,231.569 375.295,224.128 374.39,216.394 C374.234,215.087 375.185,211.561 368.588,205.992 C365.145,203.08 349.103,198.609 352.72,194.939 C361.948,185.578 359.536,186.492 362.904,182.332 C366.272,178.172 378.747,165.893 378.152,148.468 C377.558,131.04 352.408,132.624 352.408,132.624 C335.97,135.595 342.902,150.645 354.783,149.653 C365.861,148.732 364.393,158.032 363.556,161.029 C363.549,161.051 362.178,164.652 359.43,168.985 C355.749,174.785 351.215,183.131 346.85,187.356 C344.476,189.659 331.738,197.782 340.922,202.333 C356.156,209.883 367.658,225.898 361.715,234.811 C355.775,243.721 309.043,261.442 299.334,265.704 C289.935,269.834 271.412,271.052 271.805,295.211 C272.201,319.373 297.956,319.16 309.234,316.205 C328.965,311.035 337.201,303.342 344.684,294.815 C352.635,285.753 368.447,249.861 368.844,249.465 C369.241,249.067 374.39,228.274 383.496,225.898 C392.607,223.524 393.324,220.075 392.213,216.987 L392.213,216.987 Z M363.557,161.033 C363.497,161.25 363.438,161.439 363.39,161.582 L363.557,161.033 L363.557,161.033 Z M361.565,246.492 C361.565,246.492 343.338,281.601 341.317,284.714 C338.861,288.492 326.152,306.772 307.533,309.345 C288.916,311.92 278.736,301.148 278.932,294.612 C279.129,288.08 285.21,279.531 305.603,269.418 C351.325,246.758 355.348,245.022 355.348,245.022 C358.651,243.715 365.716,239.514 361.565,246.492 L361.565,246.492 Z"></path>
                </g>
                <path d="M421.029,107.315 C416.396,105.4 402.564,112.547 406.705,124.458 C410.934,136.625 442.342,116.114 421.029,107.315" id="Shape" fill="#000000"></path>
            </g>
        </g>
    </g>
</svg>