<?xml version="1.0" encoding="UTF-8" standalone="no"?>
<svg width="1642px" height="557px" viewBox="0 0 1642 557" version="1.1" xmlns="http://www.w3.org/2000/svg" xmlns:xlink="http://www.w3.org/1999/xlink" xmlns:sketch="http://www.bohemiancoding.com/sketch/ns">
    <!-- Generator: Sketch 3.2.2 (9983) - http://www.bohemiancoding.com/sketch -->
    <title>DINI</title>
    <desc>Created with Sketch.</desc>
    <defs></defs>
    <g id="Page-1" stroke="none" stroke-width="1" fill="none" fill-rule="evenodd" sketch:type="MSPage">
        <g id="DINI" sketch:type="MSLayerGroup">
            <g id="Group" sketch:type="MSShapeGroup">
                <path d="M234.821,0 C247.575,14.018 275.88,41.647 287.359,54.264 C272.874,67.443 61.883,273.92 51.135,283.698 C35.406,266.409 10.628,239.84 0,228.158 C20.56,209.453 225.902,8.969 234.821,0 L234.821,0 L234.821,0 Z" id="Shape" fill="#F47732"></path>
                <path d="M48.799,259.681 L22.567,232.739 L30.12,225.396 L50.799,239.244 L37.506,218.214 L45.066,210.863 L71.297,237.805 L66.497,242.473 L43.334,218.473 L61.589,247.246 L58.508,250.241 L30.21,231.234 L53.6,255.014 L48.799,259.681 L48.799,259.681 Z" id="Shape" fill="#FFFFFF"></path>
                <path d="M68.585,215.753 L73.152,211.313 L72.317,210.455 C70.965,209.067 69.865,208.276 69.014,208.081 C68.163,207.886 67.311,208.205 66.456,209.036 C65.624,209.844 65.297,210.69 65.474,211.574 C65.651,212.458 66.398,213.576 67.715,214.929 C67.715,214.929 67.814,215.019 68.013,215.201 C68.213,215.383 68.403,215.567 68.585,215.753 L68.585,215.753 L68.585,215.753 Z M78.89,216.893 L83.286,212.618 C83.376,212.711 83.514,212.84 83.695,213.004 C83.877,213.168 84.008,213.29 84.087,213.372 C86.336,215.681 87.434,217.912 87.382,220.061 C87.331,222.211 86.11,224.448 83.72,226.772 C82.461,227.996 81.252,228.865 80.095,229.378 C78.937,229.891 77.761,230.081 76.567,229.95 C75.153,229.804 73.734,229.266 72.308,228.338 C70.882,227.409 68.665,225.4 65.657,222.311 C63.261,219.851 61.664,217.977 60.865,216.689 C60.066,215.401 59.616,214.147 59.517,212.927 C59.419,211.66 59.667,210.393 60.259,209.125 C60.851,207.857 61.795,206.594 63.089,205.335 C64.336,204.122 65.596,203.266 66.869,202.767 C68.141,202.267 69.45,202.114 70.794,202.305 C71.954,202.494 73.138,202.994 74.348,203.805 C75.557,204.616 77.269,206.158 79.483,208.432 L80.984,209.974 L71.777,218.926 C71.901,219.1 72.042,219.275 72.201,219.449 C72.36,219.623 72.621,219.897 72.984,220.27 C74.856,222.192 76.344,223.365 77.45,223.787 C78.556,224.209 79.536,224.004 80.391,223.173 C81.222,222.365 81.521,221.466 81.287,220.477 C81.053,219.488 80.255,218.294 78.89,216.893 L78.89,216.893 L78.89,216.893 Z" id="Shape" fill="#FFFFFF"></path>
                <path d="M88.87,200.423 C91.91,203.545 93.973,205.361 95.058,205.87 C96.144,206.379 97.101,206.231 97.929,205.426 C98.862,204.519 99.151,203.54 98.797,202.489 C98.443,201.438 97.184,199.801 95.017,197.575 C91.535,193.999 89.191,191.935 87.985,191.384 C86.779,190.833 85.71,191.011 84.777,191.918 C83.961,192.712 83.77,193.64 84.204,194.704 C84.638,195.768 86.193,197.674 88.87,200.423 L88.87,200.423 L88.87,200.423 Z M101.66,204.154 C102.126,205.404 102.234,206.587 101.983,207.705 C101.732,208.823 101.11,209.865 100.118,210.829 C98.169,212.724 96.037,213.287 93.722,212.52 C91.407,211.752 88.332,209.398 84.495,205.457 C80.522,201.376 78.175,198.184 77.453,195.879 C76.731,193.574 77.332,191.485 79.258,189.613 C80.215,188.682 81.202,188.087 82.219,187.825 C83.236,187.563 84.307,187.624 85.431,188.009 L77.232,179.587 L81.925,175.024 L108.156,201.966 L103.725,206.275 L101.66,204.154 L101.66,204.154 Z" id="Shape" fill="#FFFFFF"></path>
                <path d="M91.085,174.278 L87.003,170.086 L91.66,165.558 L95.742,169.75 L91.085,174.278 L91.085,174.278 Z M113.235,197.028 L93.527,176.786 L98.185,172.258 L117.893,192.5 L113.235,197.028 L113.235,197.028 Z" id="Shape" fill="#FFFFFF"></path>
                <path d="M114.85,170.77 L119.417,166.33 L118.582,165.473 C117.231,164.085 116.13,163.294 115.279,163.099 C114.428,162.905 113.576,163.223 112.721,164.054 C111.889,164.862 111.562,165.709 111.739,166.592 C111.916,167.476 112.663,168.594 113.981,169.947 C113.981,169.947 114.08,170.038 114.279,170.219 C114.478,170.4 114.668,170.583 114.85,170.77 L114.85,170.77 L114.85,170.77 Z M125.155,171.909 L129.551,167.635 C129.642,167.728 129.778,167.857 129.96,168.02 C130.142,168.184 130.273,168.307 130.352,168.388 C132.601,170.698 133.699,172.927 133.647,175.077 C133.596,177.227 132.375,179.465 129.985,181.788 C128.726,183.013 127.517,183.881 126.36,184.394 C125.202,184.907 124.026,185.097 122.832,184.966 C121.418,184.82 119.998,184.282 118.573,183.354 C117.147,182.425 114.93,180.416 111.922,177.327 C109.526,174.867 107.929,172.993 107.13,171.705 C106.331,170.417 105.881,169.163 105.782,167.943 C105.684,166.676 105.932,165.409 106.524,164.141 C107.116,162.873 108.06,161.61 109.354,160.351 C110.602,159.138 111.861,158.282 113.134,157.782 C114.407,157.282 115.715,157.129 117.059,157.32 C118.219,157.509 119.403,158.008 120.613,158.82 C121.822,159.631 123.534,161.173 125.748,163.447 L127.249,164.989 L118.042,173.941 C118.166,174.115 118.307,174.29 118.466,174.464 C118.625,174.638 118.886,174.912 119.249,175.285 C121.121,177.207 122.609,178.38 123.715,178.802 C124.821,179.224 125.801,179.019 126.656,178.188 C127.487,177.38 127.786,176.481 127.552,175.492 C127.318,174.503 126.52,173.31 125.155,171.909 L125.155,171.909 L125.155,171.909 Z" id="Shape" fill="#FFFFFF"></path>
                <path d="M141.094,169.941 L121.386,149.699 L125.974,145.238 L127.973,147.291 C127.633,145.963 127.605,144.734 127.89,143.606 C128.175,142.477 128.772,141.471 129.681,140.587 C131.149,139.159 132.683,138.486 134.282,138.567 C135.881,138.648 137.448,139.478 138.983,141.054 L154.458,156.948 L149.944,161.337 L136.734,147.769 C135.576,146.58 134.61,145.891 133.837,145.701 C133.064,145.511 132.322,145.763 131.611,146.453 C130.831,147.211 130.562,148.052 130.803,148.974 C131.044,149.896 131.857,151.069 133.241,152.491 L145.788,165.378 L141.094,169.941 L141.094,169.941 Z" id="Shape" fill="#FFFFFF"></path>
                <path d="M158.246,153.264 L154.619,149.539 L149.218,130.309 L142.445,136.895 L138.607,132.954 L150.648,121.246 L153.952,124.639 L159.432,144.37 L166.555,137.444 L170.427,141.42 L158.246,153.264 L158.246,153.264 Z" id="Shape" fill="#FFFFFF"></path>
                <path d="M166.149,120.891 L170.715,116.451 L169.88,115.593 C168.529,114.205 167.428,113.414 166.577,113.219 C165.726,113.024 164.873,113.343 164.019,114.173 C163.187,114.982 162.86,115.828 163.038,116.712 C163.215,117.596 163.962,118.714 165.279,120.067 C165.279,120.067 165.379,120.158 165.578,120.339 C165.777,120.521 165.967,120.704 166.149,120.891 L166.149,120.891 L166.149,120.891 Z M176.454,122.03 L180.85,117.755 C180.94,117.848 181.077,117.977 181.259,118.141 C181.441,118.305 181.572,118.427 181.651,118.509 C183.9,120.819 184.998,123.048 184.947,125.198 C184.895,127.348 183.675,129.585 181.284,131.909 C180.025,133.134 178.816,134.002 177.659,134.515 C176.501,135.028 175.326,135.219 174.131,135.087 C172.717,134.941 171.298,134.404 169.872,133.475 C168.446,132.547 166.229,130.537 163.221,127.448 C160.826,124.988 159.228,123.114 158.429,121.827 C157.63,120.539 157.18,119.285 157.081,118.065 C156.983,116.798 157.231,115.531 157.823,114.263 C158.416,112.994 159.359,111.731 160.653,110.473 C161.901,109.26 163.16,108.404 164.433,107.904 C165.706,107.404 167.014,107.251 168.358,107.442 C169.518,107.631 170.702,108.131 171.912,108.942 C173.121,109.753 174.833,111.296 177.047,113.57 L178.548,115.112 L169.341,124.065 C169.465,124.239 169.606,124.414 169.765,124.588 C169.924,124.763 170.185,125.037 170.548,125.41 C172.42,127.332 173.908,128.504 175.014,128.926 C176.12,129.348 177.1,129.144 177.955,128.313 C178.786,127.505 179.085,126.606 178.851,125.617 C178.617,124.628 177.818,123.432 176.454,122.03 L176.454,122.03 L176.454,122.03 Z" id="Shape" fill="#FFFFFF"></path>
                <path d="M192.393,120.063 L172.685,99.821 L177.273,95.36 L179.272,97.414 C178.932,96.085 178.904,94.857 179.189,93.728 C179.474,92.6 180.071,91.593 180.98,90.709 C182.448,89.281 183.982,88.608 185.581,88.689 C187.18,88.77 188.747,89.599 190.282,91.175 L205.757,107.069 L201.243,111.458 L188.033,97.89 C186.875,96.701 185.909,96.012 185.136,95.822 C184.363,95.632 183.621,95.883 182.91,96.573 C182.13,97.332 181.861,98.172 182.102,99.094 C182.343,100.017 183.156,101.189 184.54,102.611 L197.087,115.498 L192.393,120.063 L192.393,120.063 Z" id="Shape" fill="#FFFFFF"></path>
                <path d="M208.488,89.836 L209.818,91.202 C210.875,92.287 211.647,92.877 212.134,92.971 C212.621,93.065 213.138,92.846 213.684,92.316 C213.812,92.191 213.911,92.089 213.98,92.01 C214.049,91.931 214.114,91.863 214.172,91.806 L217.712,95.442 C217.106,96.171 216.625,96.732 216.269,97.125 C215.914,97.517 215.619,97.827 215.386,98.053 C213.812,99.583 212.427,100.323 211.23,100.271 C210.033,100.219 208.486,99.219 206.589,97.27 L194.759,85.12 L192.932,86.897 L189.549,83.422 L191.376,81.645 L186.004,76.127 L190.697,71.564 L196.069,77.082 L198.004,75.201 L201.388,78.676 L199.453,80.557 L208.488,89.836 L208.488,89.836 Z" id="Shape" fill="#FFFFFF"></path>
                <path d="M221.678,91.589 L201.97,71.346 L206.454,66.986 L209.654,70.273 C208.964,68.281 208.698,66.638 208.858,65.345 C209.017,64.052 209.616,62.889 210.654,61.857 L216.198,67.552 C216,67.698 215.808,67.851 215.622,68.01 C215.436,68.168 215.215,68.372 214.958,68.621 C213.955,69.596 213.449,70.667 213.439,71.835 C213.43,73.002 213.913,74.088 214.89,75.091 L226.442,86.956 L221.678,91.589 L221.678,91.589 Z" id="Shape" fill="#FFFFFF"></path>
                <path d="M226.661,62.055 L231.227,57.615 L230.392,56.758 C229.041,55.37 227.939,54.579 227.089,54.384 C226.238,54.189 225.385,54.508 224.531,55.338 C223.699,56.147 223.372,56.993 223.549,57.877 C223.726,58.761 224.473,59.879 225.79,61.232 C225.79,61.232 225.89,61.323 226.089,61.504 C226.289,61.684 226.479,61.868 226.661,62.055 L226.661,62.055 L226.661,62.055 Z M236.966,63.194 L241.362,58.919 C241.453,59.012 241.59,59.141 241.772,59.305 C241.954,59.469 242.085,59.591 242.164,59.673 C244.413,61.982 245.511,64.212 245.46,66.362 C245.408,68.512 244.188,70.749 241.797,73.073 C240.538,74.297 239.329,75.166 238.172,75.678 C237.014,76.191 235.838,76.382 234.644,76.25 C233.23,76.104 231.811,75.567 230.385,74.638 C228.959,73.71 226.742,71.7 223.734,68.612 C221.338,66.152 219.741,64.278 218.941,62.99 C218.142,61.702 217.693,60.448 217.593,59.228 C217.496,57.962 217.743,56.694 218.335,55.426 C218.927,54.157 219.871,52.894 221.165,51.636 C222.413,50.423 223.672,49.567 224.945,49.067 C226.218,48.567 227.526,48.414 228.87,48.605 C230.03,48.794 231.214,49.294 232.424,50.105 C233.633,50.916 235.345,52.459 237.559,54.733 L239.06,56.275 L229.853,65.228 C229.977,65.402 230.118,65.577 230.277,65.751 C230.436,65.926 230.697,66.2 231.06,66.573 C232.932,68.495 234.42,69.667 235.526,70.09 C236.632,70.512 237.612,70.307 238.467,69.476 C239.298,68.668 239.597,67.769 239.363,66.78 C239.129,65.791 238.33,64.595 236.966,63.194 L236.966,63.194 L236.966,63.194 Z" id="Shape" fill="#FFFFFF"></path>
                <path d="M252.904,61.227 L233.196,40.985 L237.784,36.524 L239.783,38.577 C239.443,37.249 239.415,36.021 239.7,34.892 C239.985,33.763 240.582,32.757 241.491,31.873 C242.96,30.445 244.493,29.772 246.092,29.853 C247.692,29.935 249.259,30.764 250.793,32.339 L266.268,48.233 L261.754,52.622 L248.544,39.054 C247.386,37.866 246.42,37.176 245.647,36.987 C244.874,36.798 244.132,37.048 243.421,37.738 C242.642,38.497 242.372,39.337 242.613,40.259 C242.854,41.182 243.667,42.354 245.051,43.776 L257.598,56.663 L252.904,61.227 L252.904,61.227 Z" id="Shape" fill="#FFFFFF"></path>
                <path d="M286.646,53.75 C300.113,40.423 323.637,13.999 334.951,2.371 C348.722,16.287 563.803,218.374 574.019,228.699 C557.41,245.135 535.604,267.625 524.381,278.731 C504.836,258.979 295.979,62.284 286.646,53.75 L286.646,53.75 L286.646,53.75 Z" id="Shape" fill="#881518"></path>
                <path d="M336.746,69.054 L338.839,71.037 C340.15,72.279 341.374,72.83 342.513,72.69 C343.652,72.55 344.973,71.684 346.477,70.091 C348.037,68.439 348.823,67.026 348.835,65.853 C348.847,64.679 348.055,63.337 346.46,61.826 L344.935,60.38 L336.746,69.054 L336.746,69.054 Z M348.396,56.715 L350.099,58.329 C351.376,59.539 352.519,60.097 353.528,60.001 C354.537,59.905 355.744,59.114 357.148,57.626 C358.408,56.292 359.023,55.147 358.996,54.193 C358.968,53.238 358.273,52.116 356.913,50.828 L355.352,49.349 L348.396,56.715 L348.396,56.715 Z M328.15,68.267 L353.919,40.978 L362.076,48.707 C364.411,50.92 365.636,53.109 365.747,55.274 C365.859,57.439 364.85,59.65 362.72,61.906 C361.013,63.714 359.411,64.848 357.914,65.309 C356.417,65.77 355.013,65.571 353.703,64.71 C354.809,66.094 355.203,67.67 354.884,69.439 C354.565,71.208 353.558,72.99 351.863,74.786 C349.13,77.681 346.517,79.235 344.025,79.448 C341.534,79.661 339.008,78.555 336.449,76.131 L328.15,68.267 L328.15,68.267 Z" id="Shape" fill="#FFFFFF"></path>
                <path d="M370.119,64.371 L374.128,60.125 L378.839,64.589 L374.83,68.835 L370.119,64.371 L370.119,64.371 Z M348.359,87.415 L367.719,66.912 L372.43,71.376 L353.07,91.879 L348.359,87.415 L348.359,87.415 Z" id="Shape" fill="#FFFFFF"></path>
                <path d="M381.032,86.056 C380.089,85.162 379.019,84.998 377.824,85.565 C376.63,86.132 374.467,88.073 371.336,91.389 C368.929,93.938 367.555,95.743 367.211,96.804 C366.868,97.866 367.169,98.843 368.113,99.737 C368.95,100.53 369.901,100.671 370.965,100.159 C372.029,99.647 373.948,97.923 376.723,94.985 C379.586,91.952 381.23,89.904 381.653,88.841 C382.076,87.778 381.869,86.849 381.032,86.056 L381.032,86.056 L381.032,86.056 Z M357.862,96.417 L383.63,69.127 L388.378,73.625 L380.323,82.155 C381.45,81.766 382.52,81.694 383.532,81.936 C384.545,82.178 385.535,82.758 386.503,83.675 C388.462,85.531 389.096,87.614 388.404,89.923 C387.712,92.232 385.414,95.452 381.511,99.585 C377.742,103.576 374.713,105.974 372.42,106.778 C370.129,107.583 367.991,107.046 366.008,105.167 C365.016,104.228 364.384,103.197 364.111,102.077 C363.838,100.957 363.931,99.775 364.39,98.531 L362.361,100.68 L357.862,96.417 L357.862,96.417 Z" id="Shape" fill="#FFFFFF"></path>
                <path d="M376.118,113.715 L401.886,86.426 L406.598,90.89 L380.829,118.179 L376.118,113.715 L376.118,113.715 Z" id="Shape" fill="#FFFFFF"></path>
                <path d="M407.343,99.64 L411.352,95.394 L416.063,99.857 L412.054,104.103 L407.343,99.64 L407.343,99.64 Z M385.584,122.684 L404.944,102.181 L409.655,106.645 L390.294,127.148 L385.584,122.684 L385.584,122.684 Z" id="Shape" fill="#FFFFFF"></path>
                <path d="M409.199,125.249 L408.747,125.728 C405.747,128.905 404.071,130.999 403.72,132.009 C403.368,133.018 403.645,133.953 404.551,134.81 C405.492,135.702 406.443,135.97 407.402,135.615 C408.361,135.26 410.163,133.682 412.806,130.884 L413.593,130.051 L414.697,128.882 C417.229,126.201 418.654,124.356 418.97,123.347 C419.287,122.338 418.993,121.405 418.087,120.546 C417.193,119.699 416.28,119.433 415.348,119.747 C414.416,120.061 412.812,121.423 410.537,123.833 L409.199,125.249 L409.199,125.249 Z M404.142,120.861 C408.045,116.728 411.252,114.397 413.764,113.867 C416.275,113.338 418.87,114.342 421.548,116.88 C424.238,119.429 425.389,121.974 425.002,124.515 C424.614,127.056 422.469,130.393 418.566,134.527 C414.664,138.659 411.459,140.987 408.953,141.511 C406.447,142.034 403.849,141.021 401.159,138.472 C398.481,135.935 397.333,133.399 397.715,130.863 C398.097,128.328 400.239,124.994 404.142,120.861 L404.142,120.861 L404.142,120.861 Z" id="Shape" fill="#FFFFFF"></path>
                <path d="M425.287,145.931 L423.98,147.315 C422.942,148.414 422.386,149.209 422.313,149.7 C422.24,150.19 422.479,150.697 423.031,151.221 C423.16,151.344 423.266,151.438 423.348,151.505 C423.43,151.571 423.5,151.632 423.559,151.688 L420.081,155.371 C419.329,154.796 418.749,154.338 418.343,153.999 C417.937,153.66 417.616,153.379 417.381,153.156 C415.789,151.647 414.993,150.295 414.995,149.098 C414.997,147.902 415.93,146.316 417.793,144.343 L429.414,132.036 L427.566,130.285 L430.89,126.765 L432.738,128.516 L438.015,122.928 L442.762,127.426 L437.485,133.014 L439.442,134.868 L436.118,138.388 L434.161,136.534 L425.287,145.931 L425.287,145.931 Z" id="Shape" fill="#FFFFFF"></path>
                <path d="M423.693,158.791 L449.461,131.502 L454.172,135.966 L445.925,144.699 C447.083,144.301 448.233,144.23 449.376,144.487 C450.519,144.743 451.555,145.313 452.486,146.195 C453.972,147.602 454.708,149.105 454.697,150.701 C454.685,152.299 453.928,153.892 452.426,155.484 L437.21,171.599 L432.644,167.273 L445.634,153.516 C446.851,152.228 447.524,151.237 447.654,150.544 C447.785,149.85 447.509,149.18 446.825,148.533 C445.965,147.718 445.082,147.424 444.176,147.652 C443.27,147.88 442.125,148.726 440.741,150.192 L428.404,163.257 L423.693,158.791 L423.693,158.791 Z" id="Shape" fill="#FFFFFF"></path>
                <path d="M458.375,167.313 L462.994,171.69 L463.814,170.821 C465.142,169.415 465.885,168.284 466.043,167.427 C466.201,166.57 465.848,165.731 464.984,164.912 C464.143,164.115 463.285,163.823 462.411,164.036 C461.537,164.249 460.453,165.04 459.159,166.411 C459.159,166.411 459.073,166.514 458.9,166.72 C458.727,166.926 458.554,167.124 458.375,167.313 L458.375,167.313 L458.375,167.313 Z M457.671,177.646 L462.118,181.859 C462.029,181.954 461.906,182.095 461.75,182.283 C461.594,182.471 461.478,182.607 461.399,182.689 C459.191,185.028 457.013,186.216 454.867,186.253 C452.721,186.29 450.438,185.163 448.02,182.872 C446.746,181.665 445.83,180.495 445.27,179.36 C444.71,178.225 444.471,177.059 444.552,175.861 C444.638,174.444 445.115,173.005 445.981,171.543 C446.847,170.081 448.758,167.786 451.712,164.657 C454.065,162.165 455.867,160.493 457.117,159.643 C458.367,158.792 459.599,158.292 460.812,158.143 C462.071,157.994 463.345,158.189 464.635,158.728 C465.925,159.268 467.224,160.157 468.533,161.397 C469.795,162.593 470.702,163.816 471.253,165.065 C471.805,166.315 472.013,167.615 471.878,168.964 C471.738,170.13 471.289,171.333 470.531,172.573 C469.773,173.814 468.307,175.585 466.132,177.889 L464.657,179.451 L455.343,170.627 C455.175,170.758 455.007,170.906 454.839,171.072 C454.672,171.237 454.409,171.509 454.052,171.887 C452.214,173.834 451.107,175.368 450.733,176.49 C450.358,177.611 450.604,178.581 451.468,179.401 C452.309,180.197 453.218,180.459 454.195,180.185 C455.172,179.913 456.331,179.066 457.671,177.646 L457.671,177.646 L457.671,177.646 Z" id="Shape" fill="#FFFFFF"></path>
                <path d="M459.938,193.133 L485.707,165.844 L490.31,170.205 L476.84,184.469 L488.133,181 L493.108,185.714 L480.595,188.699 L473.818,206.284 L468.666,201.402 L473.439,190.379 L470.565,191.114 L464.541,197.494 L459.938,193.133 L459.938,193.133 Z" id="Shape" fill="#FFFFFF"></path>
                <path d="M492.669,199.805 L497.289,204.181 L498.109,203.312 C499.437,201.906 500.179,200.775 500.338,199.917 C500.497,199.06 500.144,198.222 499.279,197.403 C498.438,196.606 497.581,196.314 496.707,196.527 C495.833,196.74 494.749,197.531 493.455,198.902 C493.455,198.902 493.369,199.005 493.196,199.211 C493.023,199.418 492.847,199.616 492.669,199.805 L492.669,199.805 L492.669,199.805 Z M491.965,210.139 L496.412,214.353 C496.323,214.447 496.201,214.589 496.045,214.777 C495.889,214.965 495.773,215.101 495.694,215.183 C493.486,217.522 491.308,218.71 489.161,218.746 C487.015,218.783 484.732,217.656 482.314,215.365 C481.041,214.158 480.124,212.988 479.564,211.853 C479.004,210.718 478.765,209.552 478.846,208.354 C478.932,206.937 479.409,205.498 480.275,204.036 C481.141,202.575 483.051,200.279 486.006,197.15 C488.359,194.658 490.161,192.987 491.411,192.136 C492.661,191.285 493.893,190.785 495.106,190.636 C496.365,190.487 497.639,190.682 498.929,191.221 C500.219,191.76 501.518,192.65 502.827,193.89 C504.089,195.086 504.995,196.308 505.547,197.558 C506.098,198.808 506.307,200.108 506.172,201.458 C506.032,202.624 505.584,203.826 504.826,205.066 C504.068,206.307 502.601,208.079 500.426,210.382 L498.951,211.944 L489.638,203.119 C489.469,203.25 489.301,203.398 489.134,203.564 C488.967,203.73 488.705,204.002 488.348,204.379 C486.509,206.326 485.403,207.86 485.028,208.982 C484.653,210.103 484.899,211.073 485.763,211.892 C486.604,212.688 487.513,212.95 488.489,212.676 C489.465,212.402 490.625,211.558 491.965,210.139 L491.965,210.139 L491.965,210.139 Z" id="Shape" fill="#FFFFFF"></path>
                <path d="M494.232,225.626 L513.592,205.123 L518.233,209.52 L516.269,211.6 C517.579,211.206 518.803,211.129 519.94,211.367 C521.077,211.605 522.106,212.159 523.025,213.031 C524.51,214.438 525.246,215.942 525.233,217.542 C525.218,219.142 524.457,220.74 522.95,222.336 L507.749,238.435 L503.183,234.109 L516.16,220.365 C517.297,219.161 517.945,218.169 518.101,217.389 C518.257,216.609 517.976,215.879 517.258,215.198 C516.469,214.45 515.62,214.216 514.71,214.495 C513.8,214.774 512.665,215.633 511.305,217.073 L498.98,230.126 L494.232,225.626 L494.232,225.626 Z" id="Shape" fill="#FFFFFF"></path>
                <path d="M524.52,278.198 C537.046,292.406 561.089,318.261 572.362,331.049 C557.68,343.992 343.601,547.029 332.708,556.633 C317.259,539.11 296.725,514.368 286.287,502.529 C307.125,484.158 515.466,287.021 524.52,278.198 L524.52,278.198 L524.52,278.198 Z" id="Shape" fill="#186925"></path>
                <path d="M346.746,516.829 L315.668,494.428 L320.951,489.468 L343.815,507.087 L327.871,482.97 L332.096,479.002 L355.939,496.474 L338.951,472.566 L344.189,467.646 L364.959,499.728 L358.912,505.405 L339.468,491.072 L352.829,511.117 L346.746,516.829 L346.746,516.829 Z" id="Shape" fill="#FFFFFF"></path>
                <path d="M351.56,468.752 L347.552,464.489 L352.287,460.043 L356.295,464.305 L351.56,468.752 L351.56,468.752 Z M373.312,491.884 L353.958,471.302 L358.693,466.856 L378.047,487.438 L373.312,491.884 L373.312,491.884 Z" id="Shape" fill="#FFFFFF"></path>
                <path d="M375.693,476.752 L379.991,472.716 L380.543,473.303 C381.659,474.49 382.631,475.161 383.461,475.321 C384.291,475.479 385.127,475.164 385.968,474.374 C386.632,473.751 386.987,473.083 387.031,472.371 C387.076,471.659 386.802,470.989 386.212,470.36 C385.476,469.578 383.862,469.396 381.369,469.816 C380.731,469.923 380.239,470.006 379.89,470.065 L379.526,470.106 C373.777,470.995 369.821,470.29 367.658,467.989 C365.942,466.164 365.198,464.239 365.427,462.216 C365.656,460.192 366.85,458.167 369.008,456.141 C371.095,454.181 373.159,453.243 375.201,453.324 C377.242,453.406 379.278,454.525 381.307,456.683 L381.709,457.111 L377.52,461.045 L377.118,460.617 C376.18,459.619 375.302,459.067 374.486,458.961 C373.67,458.855 372.851,459.187 372.031,459.957 C371.435,460.516 371.114,461.126 371.064,461.787 C371.014,462.448 371.241,463.047 371.743,463.581 C372.212,464.079 372.793,464.383 373.488,464.49 C374.182,464.597 375.423,464.506 377.209,464.216 C377.614,464.148 378.205,464.05 378.98,463.925 C384.572,462.958 388.444,463.618 390.594,465.905 C392.311,467.73 393.052,469.69 392.82,471.783 C392.587,473.876 391.391,475.936 389.231,477.965 C386.964,480.093 384.792,481.128 382.715,481.07 C380.638,481.011 378.535,479.85 376.407,477.587 C376.329,477.505 376.213,477.369 376.058,477.18 C375.905,476.988 375.783,476.847 375.693,476.752 L375.693,476.752 L375.693,476.752 Z" id="Shape" fill="#FFFFFF"></path>
                <path d="M392.458,461.009 L396.756,456.973 L397.309,457.561 C398.424,458.747 399.397,459.419 400.227,459.578 C401.057,459.737 401.892,459.422 402.734,458.632 C403.398,458.009 403.753,457.341 403.797,456.629 C403.841,455.917 403.568,455.247 402.977,454.618 C402.241,453.835 400.627,453.654 398.134,454.074 C397.496,454.181 397.004,454.264 396.656,454.323 L396.292,454.363 C390.542,455.253 386.587,454.547 384.423,452.247 C382.707,450.421 381.963,448.496 382.192,446.473 C382.421,444.45 383.615,442.424 385.773,440.398 C387.86,438.439 389.924,437.5 391.966,437.582 C394.007,437.663 396.043,438.783 398.071,440.941 L398.473,441.369 L394.284,445.302 L393.882,444.874 C392.944,443.877 392.066,443.324 391.25,443.219 C390.434,443.113 389.615,443.445 388.795,444.215 C388.2,444.774 387.878,445.383 387.828,446.045 C387.778,446.706 388.004,447.304 388.507,447.838 C388.976,448.337 389.558,448.64 390.252,448.748 C390.946,448.855 392.187,448.764 393.973,448.473 C394.378,448.405 394.969,448.308 395.744,448.183 C401.336,447.215 405.208,447.876 407.359,450.163 C409.075,451.988 409.817,453.947 409.585,456.04 C409.352,458.134 408.156,460.194 405.996,462.222 C403.729,464.351 401.558,465.386 399.48,465.327 C397.403,465.269 395.3,464.108 393.171,461.845 C393.094,461.762 392.977,461.626 392.822,461.437 C392.67,461.246 392.548,461.104 392.458,461.009 L392.458,461.009 L392.458,461.009 Z" id="Shape" fill="#FFFFFF"></path>
                <path d="M408.547,434.515 L413.19,430.156 L412.37,429.284 C411.043,427.873 409.955,427.062 409.109,426.852 C408.262,426.643 407.403,426.946 406.535,427.762 C405.689,428.556 405.347,429.396 405.509,430.283 C405.671,431.17 406.398,432.302 407.692,433.677 C407.692,433.677 407.79,433.77 407.986,433.954 C408.182,434.138 408.369,434.325 408.547,434.515 L408.547,434.515 L408.547,434.515 Z M418.831,435.834 L423.301,431.636 C423.39,431.732 423.524,431.863 423.703,432.03 C423.882,432.196 424.011,432.321 424.088,432.404 C426.296,434.752 427.356,437.001 427.267,439.15 C427.179,441.298 425.919,443.514 423.489,445.796 C422.209,446.998 420.986,447.845 419.819,448.338 C418.652,448.83 417.473,449 416.281,448.848 C414.87,448.677 413.46,448.116 412.05,447.162 C410.64,446.208 408.459,444.162 405.505,441.02 C403.153,438.518 401.588,436.617 400.811,435.316 C400.034,434.014 399.606,432.753 399.529,431.531 C399.453,430.263 399.722,429.001 400.337,427.743 C400.952,426.485 401.917,425.239 403.232,424.003 C404.501,422.813 405.775,421.979 407.056,421.501 C408.337,421.023 409.648,420.893 410.989,421.107 C412.145,421.316 413.321,421.836 414.516,422.669 C415.711,423.5 417.396,425.072 419.57,427.385 L421.045,428.953 L411.684,437.743 C411.805,437.92 411.943,438.097 412.099,438.274 C412.254,438.451 412.51,438.729 412.868,439.109 C414.706,441.063 416.174,442.261 417.273,442.703 C418.371,443.143 419.355,442.956 420.224,442.14 C421.069,441.346 421.383,440.453 421.166,439.46 C420.949,438.468 420.171,437.259 418.831,435.834 L418.831,435.834 L418.831,435.834 Z" id="Shape" fill="#FFFFFF"></path>
                <path d="M434.437,434.486 L415.083,413.904 L419.748,409.524 L421.711,411.612 C421.394,410.278 421.388,409.049 421.692,407.925 C421.996,406.802 422.61,405.807 423.535,404.939 C425.028,403.537 426.573,402.89 428.171,403 C429.769,403.11 431.32,403.966 432.828,405.568 L448.024,421.728 L443.435,426.038 L430.462,412.242 C429.325,411.033 428.372,410.327 427.602,410.124 C426.831,409.922 426.086,410.159 425.364,410.837 C424.571,411.582 424.287,412.418 424.512,413.345 C424.737,414.272 425.53,415.457 426.889,416.904 L439.21,430.007 L434.437,434.486 L434.437,434.486 Z" id="Shape" fill="#FFFFFF"></path>
                <path d="M445.655,411.058 L449.953,407.022 L450.506,407.61 C451.621,408.796 452.594,409.468 453.424,409.628 C454.254,409.786 455.09,409.471 455.931,408.681 C456.595,408.058 456.95,407.39 456.994,406.678 C457.038,405.966 456.765,405.295 456.174,404.667 C455.438,403.884 453.824,403.703 451.331,404.123 C450.693,404.23 450.201,404.313 449.853,404.372 L449.489,404.413 C443.739,405.302 439.784,404.596 437.62,402.296 C435.904,400.47 435.16,398.545 435.389,396.522 C435.618,394.499 436.812,392.473 438.97,390.447 C441.057,388.488 443.121,387.549 445.163,387.631 C447.204,387.712 449.24,388.832 451.269,390.99 L451.671,391.418 L447.482,395.351 L447.08,394.923 C446.142,393.926 445.264,393.373 444.448,393.268 C443.632,393.162 442.813,393.494 441.993,394.264 C441.398,394.823 441.076,395.432 441.026,396.094 C440.976,396.755 441.203,397.353 441.705,397.887 C442.174,398.386 442.756,398.69 443.45,398.797 C444.144,398.904 445.385,398.813 447.171,398.522 C447.576,398.454 448.167,398.357 448.942,398.232 C454.534,397.264 458.406,397.925 460.556,400.212 C462.273,402.037 463.014,403.996 462.782,406.089 C462.549,408.183 461.353,410.243 459.193,412.271 C456.926,414.4 454.755,415.435 452.677,415.376 C450.6,415.318 448.497,414.157 446.369,411.894 C446.291,411.811 446.175,411.675 446.02,411.486 C445.866,411.295 445.744,411.152 445.655,411.058 L445.655,411.058 L445.655,411.058 Z" id="Shape" fill="#FFFFFF"></path>
                <path d="M474.951,381.216 C475.097,381.347 475.248,381.489 475.405,381.645 C475.562,381.799 475.785,382.031 476.075,382.339 C478.474,384.891 479.703,387.284 479.763,389.519 C479.822,391.754 478.713,393.941 476.436,396.079 C473.852,398.506 471.327,399.436 468.864,398.87 C466.4,398.304 463.213,395.94 459.301,391.78 C455.399,387.631 453.237,384.304 452.814,381.8 C452.39,379.296 453.471,376.831 456.055,374.404 C458.319,372.277 460.52,371.271 462.659,371.384 C464.797,371.497 466.976,372.735 469.195,375.094 L469.882,375.824 L465.329,380.099 L464.893,379.636 C463.721,378.39 462.719,377.644 461.886,377.397 C461.053,377.151 460.276,377.367 459.554,378.044 C458.821,378.732 458.543,379.497 458.72,380.336 C458.897,381.176 459.572,382.219 460.744,383.466 L467.406,390.55 C468.736,391.964 469.817,392.806 470.65,393.075 C471.483,393.344 472.272,393.13 473.017,392.429 C473.822,391.673 474.079,390.827 473.789,389.891 C473.499,388.955 472.528,387.608 470.874,385.849 L470.455,385.404 L474.951,381.216 L474.951,381.216 Z" id="Shape" fill="#FFFFFF"></path>
                <path d="M486.865,385.256 L461.105,357.862 L465.84,353.415 L474.084,362.182 C473.754,361.001 473.751,359.846 474.073,358.719 C474.396,357.591 475.026,356.588 475.962,355.709 C477.455,354.307 478.999,353.659 480.594,353.766 C482.189,353.872 483.738,354.725 485.24,356.322 L500.451,372.499 L495.862,376.81 L482.876,362.999 C481.66,361.706 480.709,360.974 480.024,360.802 C479.339,360.63 478.653,360.866 477.966,361.511 C477.102,362.323 476.757,363.189 476.931,364.109 C477.105,365.029 477.884,366.225 479.267,367.696 L491.6,380.811 L486.865,385.256 L486.865,385.256 Z" id="Shape" fill="#FFFFFF"></path>
                <path d="M504.184,348.694 C503.24,351.277 502.786,353.221 502.82,354.529 C502.855,355.836 503.329,356.975 504.243,357.948 C505.101,358.861 505.903,359.375 506.648,359.49 C507.393,359.605 508.127,359.323 508.851,358.644 C509.681,357.865 509.963,356.918 509.699,355.805 C509.434,354.692 508.621,353.412 507.261,351.965 L504.184,348.694 L504.184,348.694 Z M514.979,358.857 C514.728,358.803 514.418,358.658 514.051,358.421 C513.684,358.184 513.197,357.826 512.588,357.347 C512.871,358.643 512.821,359.877 512.44,361.049 C512.059,362.221 511.34,363.303 510.286,364.292 C508.723,365.761 507.009,366.376 505.146,366.139 C503.283,365.902 501.471,364.846 499.709,362.973 C498.115,361.278 497.229,359.571 497.05,357.852 C496.871,356.133 497.439,353.708 498.753,350.578 C498.878,350.26 499.064,349.816 499.312,349.249 C500.426,346.705 500.481,344.899 499.477,343.831 C498.863,343.179 498.211,342.846 497.521,342.834 C496.832,342.822 496.144,343.139 495.458,343.782 C494.595,344.593 494.178,345.421 494.206,346.266 C494.234,347.113 494.711,348.029 495.638,349.015 L496.023,349.424 L491.397,353.769 C489.225,351.457 488.208,349.244 488.348,347.126 C488.488,345.008 489.807,342.777 492.307,340.43 C494.807,338.083 497.014,336.919 498.929,336.94 C500.844,336.96 502.938,338.178 505.211,340.595 L516.131,352.209 C516.668,352.778 517.209,353.248 517.756,353.617 C518.303,353.986 518.919,354.285 519.603,354.514 L514.979,358.857 L514.979,358.857 Z" id="Shape" fill="#FFFFFF"></path>
                <path d="M524.074,350.316 L508.043,333.268 L506.186,335.012 L502.863,331.478 L504.72,329.734 L502.794,327.685 C501.133,325.919 500.292,324.348 500.271,322.973 C500.25,321.597 501.033,320.163 502.622,318.672 C502.942,318.371 503.3,318.052 503.696,317.714 C504.092,317.375 504.531,317.013 505.015,316.625 L508.375,320.198 C508.315,320.254 508.227,320.326 508.108,320.415 C507.989,320.504 507.912,320.565 507.877,320.6 C507.353,321.092 507.078,321.551 507.052,321.977 C507.027,322.404 507.242,322.86 507.7,323.347 L509.492,325.253 L511.423,323.44 L514.745,326.973 L512.815,328.786 L528.846,345.835 L524.074,350.316 L524.074,350.316 Z" id="Shape" fill="#FFFFFF"></path>
                <path d="M532.213,328.338 L533.519,329.728 C534.556,330.832 535.318,331.434 535.804,331.537 C536.289,331.64 536.81,331.431 537.365,330.909 C537.495,330.787 537.596,330.686 537.667,330.609 C537.738,330.531 537.803,330.464 537.862,330.409 L541.338,334.105 C540.719,334.824 540.228,335.376 539.866,335.762 C539.503,336.148 539.204,336.452 538.968,336.675 C537.367,338.177 535.969,338.893 534.774,338.82 C533.578,338.748 532.049,337.72 530.186,335.739 L518.569,323.385 L516.712,325.129 L513.389,321.596 L515.247,319.852 L509.972,314.242 L514.743,309.762 L520.018,315.372 L521.985,313.524 L525.308,317.057 L523.341,318.905 L532.213,328.338 L532.213,328.338 Z" id="Shape" fill="#FFFFFF"></path>
                <path d="M0.647,335.26 C14.053,321.855 39.389,295.077 51.455,283.013 C65.308,296.866 275.681,492.043 285.958,502.321 C269.424,518.855 244.981,542.057 233.81,553.229 C214.147,533.565 10.031,343.751 0.647,335.26 L0.647,335.26 L0.647,335.26 Z" id="Shape" fill="#043776"></path>
                <path d="M47.031,320.21 L49.955,322.977 C51.432,324.375 52.736,325.049 53.868,324.999 C54.999,324.95 56.286,324.162 57.727,322.636 C59.012,321.275 59.599,320.027 59.486,318.89 C59.374,317.752 58.491,316.402 56.837,314.836 L54.338,312.471 L47.031,320.21 L47.031,320.21 Z M27.244,331.341 L53.043,304.02 L62.141,312.631 C64.897,315.241 66.354,317.679 66.512,319.944 C66.67,322.209 65.553,324.609 63.161,327.141 C61.485,328.915 59.839,330.006 58.221,330.412 C56.603,330.819 55.077,330.512 53.642,329.49 C55.455,332.415 54.79,335.648 51.647,339.191 C51.501,339.344 51.39,339.462 51.312,339.545 L48.038,343.297 C47.114,344.37 46.465,345.318 46.091,346.14 C45.717,346.962 45.543,347.81 45.567,348.683 L39.532,342.971 C39.825,342.375 40.23,341.734 40.744,341.046 C41.26,340.358 42.041,339.435 43.089,338.277 L45.714,335.354 L46.401,334.627 C47.898,333.042 48.588,331.636 48.473,330.406 C48.358,329.177 47.267,327.586 45.2,325.629 L43.463,323.985 L32.142,335.974 L27.244,331.341 L27.244,331.341 Z" id="Shape" fill="#FFFFFF"></path>
                <path d="M65.063,342.782 L69.688,347.16 L70.509,346.29 C71.838,344.883 72.582,343.75 72.74,342.892 C72.899,342.035 72.546,341.196 71.68,340.376 C70.838,339.579 69.979,339.288 69.104,339.501 C68.229,339.715 67.144,340.507 65.848,341.879 C65.848,341.879 65.762,341.983 65.589,342.189 C65.417,342.395 65.242,342.593 65.063,342.782 L65.063,342.782 L65.063,342.782 Z M64.357,353.124 L68.81,357.338 C68.721,357.433 68.598,357.574 68.442,357.763 C68.286,357.952 68.169,358.087 68.091,358.17 C65.879,360.512 63.699,361.701 61.55,361.739 C59.401,361.777 57.116,360.65 54.696,358.359 C53.421,357.152 52.503,355.98 51.942,354.845 C51.381,353.71 51.142,352.542 51.223,351.344 C51.309,349.926 51.786,348.485 52.654,347.022 C53.522,345.559 55.434,343.261 58.392,340.128 C60.747,337.633 62.552,335.96 63.804,335.107 C65.056,334.255 66.289,333.754 67.503,333.605 C68.763,333.455 70.039,333.649 71.33,334.188 C72.622,334.727 73.922,335.617 75.233,336.858 C76.497,338.053 77.404,339.277 77.957,340.527 C78.509,341.778 78.718,343.079 78.582,344.429 C78.442,345.595 77.993,346.799 77.234,348.041 C76.475,349.282 75.006,351.057 72.829,353.362 L71.352,354.926 L62.027,346.1 C61.859,346.231 61.69,346.379 61.523,346.545 C61.356,346.71 61.093,346.983 60.735,347.361 C58.894,349.31 57.786,350.846 57.412,351.968 C57.037,353.09 57.282,354.061 58.148,354.88 C58.989,355.677 59.899,355.938 60.877,355.663 C61.856,355.393 63.016,354.545 64.357,353.124 L64.357,353.124 L64.357,353.124 Z" id="Shape" fill="#FFFFFF"></path>
                <path d="M86.617,372.266 C86.494,372.42 86.362,372.579 86.217,372.745 C86.072,372.91 85.854,373.147 85.564,373.455 C83.161,375.999 80.847,377.367 78.62,377.558 C76.394,377.748 74.147,376.77 71.88,374.623 C69.305,372.186 68.227,369.722 68.646,367.229 C69.064,364.737 71.233,361.416 75.151,357.267 C79.058,353.128 82.249,350.775 84.721,350.204 C87.194,349.634 89.717,350.567 92.292,353.004 C94.548,355.139 95.682,357.277 95.696,359.418 C95.71,361.559 94.605,363.807 92.383,366.159 L91.695,366.888 L87.16,362.595 L87.596,362.134 C88.77,360.891 89.455,359.846 89.651,359 C89.847,358.154 89.586,357.392 88.867,356.711 C88.137,356.02 87.358,355.787 86.53,356.013 C85.704,356.24 84.703,356.974 83.529,358.217 L76.858,365.282 C75.526,366.692 74.751,367.821 74.531,368.669 C74.311,369.516 74.573,370.291 75.315,370.993 C76.117,371.752 76.976,371.959 77.893,371.615 C78.81,371.27 80.096,370.221 81.752,368.468 L82.171,368.024 L86.617,372.266 L86.617,372.266 Z" id="Shape" fill="#FFFFFF"></path>
                <path d="M82.749,383.88 L108.549,356.559 L113.266,361.024 L105.01,369.767 C106.169,369.369 107.321,369.296 108.465,369.553 C109.609,369.809 110.647,370.378 111.579,371.261 C113.066,372.668 113.804,374.171 113.792,375.77 C113.78,377.369 113.022,378.964 111.518,380.557 L96.283,396.691 L91.711,392.364 L104.717,378.591 C105.935,377.301 106.61,376.31 106.74,375.615 C106.871,374.921 106.594,374.25 105.91,373.602 C105.049,372.788 104.165,372.494 103.258,372.722 C102.35,372.95 101.204,373.797 99.819,375.265 L87.467,388.345 L82.749,383.88 L82.749,383.88 Z" id="Shape" fill="#FFFFFF"></path>
                <path d="M116.928,391.875 L121.553,396.253 L122.374,395.384 C123.703,393.976 124.447,392.843 124.606,391.986 C124.765,391.129 124.411,390.29 123.546,389.47 C122.704,388.673 121.845,388.381 120.97,388.595 C120.095,388.808 119.01,389.601 117.714,390.973 C117.714,390.973 117.628,391.077 117.455,391.283 C117.283,391.488 117.107,391.687 116.928,391.875 L116.928,391.875 L116.928,391.875 Z M116.223,402.217 L120.676,406.432 C120.587,406.527 120.464,406.668 120.308,406.857 C120.152,407.046 120.035,407.181 119.957,407.263 C117.746,409.605 115.565,410.795 113.416,410.833 C111.267,410.87 108.982,409.744 106.562,407.452 C105.287,406.245 104.369,405.074 103.808,403.939 C103.247,402.803 103.008,401.636 103.089,400.437 C103.175,399.019 103.652,397.579 104.52,396.116 C105.388,394.653 107.3,392.355 110.258,389.222 C112.614,386.727 114.418,385.053 115.67,384.201 C116.922,383.348 118.155,382.847 119.369,382.698 C120.63,382.548 121.906,382.743 123.197,383.282 C124.488,383.821 125.789,384.711 127.1,385.951 C128.363,387.147 129.271,388.371 129.823,389.621 C130.375,390.871 130.584,392.172 130.449,393.523 C130.309,394.689 129.86,395.893 129.101,397.134 C128.342,398.376 126.874,400.15 124.696,402.456 L123.219,404.02 L113.894,395.194 C113.725,395.325 113.557,395.473 113.389,395.638 C113.222,395.804 112.96,396.076 112.602,396.454 C110.761,398.403 109.653,399.939 109.278,401.061 C108.903,402.184 109.149,403.155 110.013,403.974 C110.855,404.77 111.765,405.032 112.743,404.757 C113.721,404.482 114.881,403.639 116.223,402.217 L116.223,402.217 L116.223,402.217 Z" id="Shape" fill="#FFFFFF"></path>
                <path d="M117.949,417.198 L137.333,396.672 L141.979,401.069 L140.013,403.151 C141.325,402.756 142.55,402.678 143.689,402.916 C144.828,403.153 145.858,403.708 146.778,404.58 C148.265,405.987 149.002,407.491 148.987,409.093 C148.973,410.694 148.211,412.293 146.702,413.892 L131.482,430.009 L126.911,425.682 L139.904,411.922 C141.043,410.717 141.691,409.724 141.847,408.943 C142.004,408.163 141.722,407.432 141.003,406.752 C140.213,406.004 139.363,405.77 138.452,406.049 C137.54,406.328 136.404,407.189 135.043,408.631 L122.703,421.699 L117.949,417.198 L117.949,417.198 Z" id="Shape" fill="#FFFFFF"></path>
                <path d="M134.413,432.783 L137.98,429.005 L156.953,422.812 L150.094,416.318 L153.868,412.322 L166.062,423.865 L162.813,427.306 L143.343,433.599 L150.557,440.427 L146.749,444.459 L134.413,432.783 L134.413,432.783 Z" id="Shape" fill="#FFFFFF"></path>
                <path d="M166.16,438.476 L170.785,442.853 L171.606,441.984 C172.935,440.577 173.679,439.444 173.838,438.586 C173.997,437.729 173.643,436.89 172.777,436.071 C171.935,435.273 171.076,434.981 170.201,435.195 C169.326,435.409 168.241,436.201 166.946,437.573 C166.946,437.573 166.86,437.677 166.687,437.883 C166.514,438.088 166.338,438.286 166.16,438.476 L166.16,438.476 L166.16,438.476 Z M165.455,448.817 L169.908,453.031 C169.819,453.126 169.696,453.267 169.54,453.456 C169.384,453.645 169.267,453.78 169.189,453.863 C166.978,456.205 164.797,457.394 162.648,457.432 C160.499,457.47 158.214,456.343 155.794,454.052 C154.519,452.845 153.601,451.673 153.04,450.538 C152.479,449.402 152.24,448.236 152.321,447.037 C152.407,445.619 152.884,444.179 153.752,442.715 C154.619,441.252 156.532,438.954 159.491,435.821 C161.846,433.326 163.651,431.653 164.903,430.8 C166.155,429.948 167.388,429.447 168.602,429.298 C169.862,429.148 171.138,429.342 172.429,429.881 C173.721,430.42 175.021,431.31 176.331,432.551 C177.595,433.746 178.503,434.97 179.055,436.22 C179.607,437.471 179.816,438.772 179.681,440.122 C179.541,441.288 179.092,442.492 178.333,443.734 C177.573,444.975 176.105,446.75 173.928,449.055 L172.451,450.619 L163.127,441.793 C162.958,441.924 162.79,442.072 162.622,442.238 C162.455,442.403 162.192,442.676 161.834,443.054 C159.993,445.003 158.885,446.539 158.511,447.661 C158.136,448.783 158.381,449.754 159.247,450.573 C160.089,451.37 160.998,451.631 161.976,451.356 C162.953,451.086 164.113,450.238 165.455,448.817 L165.455,448.817 L165.455,448.817 Z" id="Shape" fill="#FFFFFF"></path>
                <path d="M167.18,463.799 L186.564,443.272 L191.21,447.669 L189.243,449.752 C190.555,449.357 191.781,449.278 192.919,449.516 C194.058,449.754 195.087,450.309 196.008,451.18 C197.495,452.588 198.232,454.092 198.217,455.693 C198.202,457.295 197.441,458.894 195.931,460.492 L180.711,476.61 L176.139,472.282 L189.132,458.523 C190.271,457.317 190.918,456.324 191.075,455.544 C191.232,454.763 190.95,454.032 190.231,453.352 C189.441,452.604 188.59,452.37 187.679,452.649 C186.768,452.928 185.631,453.79 184.27,455.231 L171.93,468.299 L167.18,463.799 L167.18,463.799 Z" id="Shape" fill="#FFFFFF"></path>
                <path d="M197.128,477.765 L195.82,479.151 C194.78,480.252 194.224,481.047 194.151,481.538 C194.077,482.029 194.317,482.536 194.869,483.059 C194.999,483.182 195.105,483.277 195.187,483.343 C195.269,483.409 195.339,483.47 195.398,483.527 L191.916,487.214 C191.163,486.639 190.583,486.181 190.176,485.842 C189.769,485.503 189.448,485.222 189.213,484.998 C187.619,483.489 186.822,482.137 186.824,480.938 C186.826,479.741 187.76,478.154 189.625,476.178 L201.26,463.857 L199.41,462.105 L202.738,458.581 L204.589,460.333 L209.872,454.737 L214.625,459.236 L209.342,464.832 L211.301,466.686 L207.973,470.21 L206.014,468.356 L197.128,477.765 L197.128,477.765 Z" id="Shape" fill="#FFFFFF"></path>
                <path d="M195.024,490.154 L214.408,469.627 L218.95,473.926 L215.803,477.259 C217.763,476.487 219.392,476.153 220.69,476.258 C221.988,476.364 223.174,476.914 224.248,477.908 L218.794,483.683 C218.639,483.491 218.479,483.305 218.313,483.126 C218.147,482.946 217.934,482.733 217.674,482.488 C216.659,481.527 215.568,481.065 214.402,481.104 C213.235,481.143 212.172,481.671 211.212,482.688 L199.85,494.72 L195.024,490.154 L195.024,490.154 Z" id="Shape" fill="#FFFFFF"></path>
                <path d="M223.814,493.048 L228.439,497.426 L229.26,496.557 C230.589,495.149 231.333,494.017 231.491,493.159 C231.649,492.301 231.297,491.463 230.431,490.643 C229.589,489.846 228.73,489.554 227.855,489.767 C226.98,489.981 225.895,490.774 224.599,492.146 C224.599,492.146 224.513,492.249 224.34,492.456 C224.168,492.661 223.993,492.859 223.814,493.048 L223.814,493.048 L223.814,493.048 Z M223.109,503.39 L227.562,507.605 C227.473,507.7 227.35,507.841 227.194,508.03 C227.037,508.218 226.921,508.354 226.843,508.436 C224.632,510.779 222.451,511.968 220.302,512.006 C218.153,512.043 215.868,510.917 213.448,508.625 C212.173,507.418 211.255,506.247 210.694,505.112 C210.133,503.976 209.894,502.809 209.975,501.61 C210.061,500.192 210.538,498.752 211.406,497.289 C212.274,495.826 214.186,493.528 217.144,490.395 C219.5,487.9 221.304,486.226 222.556,485.374 C223.808,484.521 225.041,484.02 226.255,483.871 C227.515,483.721 228.791,483.916 230.082,484.454 C231.373,484.994 232.674,485.884 233.985,487.124 C235.249,488.32 236.156,489.543 236.709,490.794 C237.261,492.044 237.469,493.345 237.334,494.696 C237.194,495.862 236.745,497.066 235.986,498.307 C235.227,499.549 233.759,501.323 231.581,503.629 L230.104,505.192 L220.779,496.366 C220.611,496.498 220.442,496.645 220.275,496.811 C220.108,496.977 219.845,497.249 219.487,497.627 C217.646,499.576 216.538,501.112 216.164,502.234 C215.789,503.357 216.034,504.328 216.9,505.147 C217.741,505.943 218.651,506.205 219.629,505.93 C220.607,505.659 221.767,504.811 223.109,503.39 L223.109,503.39 L223.109,503.39 Z" id="Shape" fill="#FFFFFF"></path>
                <path d="M224.834,518.372 L244.219,497.844 L248.865,502.242 L246.899,504.324 C248.211,503.929 249.436,503.851 250.575,504.089 C251.714,504.327 252.743,504.881 253.664,505.753 C255.151,507.16 255.888,508.664 255.873,510.266 C255.859,511.867 255.097,513.466 253.588,515.065 L238.368,531.182 L233.796,526.855 L246.789,513.095 C247.928,511.889 248.575,510.896 248.732,510.116 C248.889,509.336 248.607,508.605 247.888,507.924 C247.098,507.177 246.247,506.943 245.336,507.222 C244.425,507.501 243.289,508.362 241.927,509.804 L229.587,522.872 L224.834,518.372 L224.834,518.372 Z" id="Shape" fill="#FFFFFF"></path>
                <path d="M647.611,331.901 C647.611,333.482 647.244,334.666 646.511,335.446 C645.779,336.227 644.68,336.618 643.216,336.618 C641.79,336.618 640.706,336.218 639.964,335.417 C639.222,334.616 638.85,333.444 638.85,331.901 L638.85,299.735 C638.85,297.099 639.241,295.306 640.022,294.36 C640.804,293.412 642.21,292.938 644.241,292.938 L664.761,292.938 C666.345,292.938 667.543,293.26 668.353,293.905 C669.165,294.55 669.571,295.496 669.571,296.746 C669.571,297.958 669.165,298.876 668.353,299.501 C667.542,300.127 666.345,300.439 664.761,300.439 L647.611,300.439 L647.611,310.219 L662.123,310.219 C663.706,310.219 664.903,310.54 665.715,311.185 C666.526,311.83 666.932,312.767 666.932,313.998 C666.932,315.229 666.526,316.158 665.715,316.782 C664.903,317.407 663.706,317.72 662.123,317.72 L647.611,317.72 L647.611,331.901 L647.611,331.901 L647.611,331.901 Z" id="Shape" fill="#01102F"></path>
                <path d="M674.555,297.083 C674.555,295.481 674.919,294.292 675.65,293.51 C676.38,292.729 677.496,292.338 678.996,292.338 C680.475,292.338 681.596,292.734 682.355,293.525 C683.114,294.316 683.495,295.502 683.495,297.084 L683.495,319.872 C683.495,323.212 684.16,325.647 685.488,327.181 C686.817,328.713 688.928,329.479 691.821,329.479 C694.753,329.479 696.887,328.719 698.227,327.196 C699.565,325.673 700.235,323.231 700.235,319.873 L700.235,297.085 C700.235,295.483 700.601,294.294 701.334,293.512 C702.067,292.731 703.175,292.34 704.66,292.34 C706.145,292.34 707.258,292.736 708.001,293.527 C708.744,294.318 709.115,295.504 709.115,297.086 L709.115,320.841 C709.115,326.135 707.636,330.2 704.677,333.032 C701.719,335.865 697.458,337.281 691.892,337.281 C686.288,337.281 681.997,335.87 679.02,333.047 C676.043,330.224 674.555,326.154 674.555,320.841 L674.555,297.083 L674.555,297.083 L674.555,297.083 Z M696.935,279.679 C698.109,279.679 699.093,280.074 699.885,280.864 C700.677,281.654 701.074,282.635 701.074,283.803 C701.074,284.954 700.668,285.936 699.855,286.745 C699.043,287.555 698.069,287.959 696.934,287.959 C695.837,287.959 694.873,287.535 694.041,286.687 C693.209,285.838 692.793,284.857 692.793,283.746 C692.793,282.635 693.199,281.679 694.011,280.879 C694.825,280.079 695.799,279.679 696.935,279.679 L696.935,279.679 L696.935,279.679 Z M686.733,279.679 C687.909,279.679 688.891,280.074 689.684,280.864 C690.477,281.654 690.873,282.635 690.873,283.803 C690.873,284.954 690.467,285.936 689.655,286.745 C688.842,287.555 687.869,287.959 686.733,287.959 C685.618,287.959 684.649,287.535 683.826,286.687 C683.005,285.838 682.594,284.857 682.594,283.746 C682.594,282.635 683,281.679 683.813,280.879 C684.624,280.079 685.598,279.679 686.733,279.679 L686.733,279.679 L686.733,279.679 Z" id="Shape" fill="#01102F"></path>
                <path d="M726.776,300.379 L726.776,311.778 L737.219,311.778 C739.487,311.778 741.153,311.32 742.218,310.404 C743.283,309.489 743.816,308.047 743.816,306.079 C743.816,304.208 743.293,302.79 742.248,301.825 C741.203,300.861 739.664,300.379 737.63,300.379 L726.776,300.379 L726.776,300.379 L726.776,300.379 Z M726.776,331.895 C726.776,333.48 726.409,334.663 725.677,335.446 C724.944,336.228 723.825,336.619 722.321,336.619 C720.837,336.619 719.728,336.223 718.996,335.431 C718.263,334.639 717.896,333.461 717.896,331.896 L717.896,299.736 C717.896,297.099 718.287,295.308 719.069,294.362 C719.85,293.414 721.257,292.94 723.289,292.94 L738.832,292.94 C743.542,292.94 747.03,293.945 749.297,295.955 C751.564,297.964 752.696,301.036 752.696,305.172 C752.696,307.807 752.144,310 751.039,311.755 C749.934,313.513 748.346,314.712 746.273,315.356 C747.891,315.903 749.118,316.763 749.956,317.937 C750.794,319.11 751.301,320.674 751.477,322.63 C751.555,323.432 751.613,324.478 751.651,325.769 C751.692,327.059 751.759,327.937 751.857,328.408 C751.937,328.917 752.087,329.656 752.307,330.623 C752.527,331.59 752.637,332.27 752.637,332.661 C752.637,333.893 752.237,334.87 751.436,335.594 C750.634,336.319 749.561,336.68 748.213,336.68 C746.358,336.68 745.034,336.147 744.243,335.08 C743.452,334.015 742.91,331.291 742.618,326.91 C742.384,323.447 741.821,321.31 740.931,320.499 C740.041,319.687 738.462,319.281 736.194,319.281 L726.777,319.281 L726.777,331.895 L726.776,331.895 L726.776,331.895 Z" id="Shape" fill="#01102F"></path>
                <path d="M786.512,331.344 C786.512,333.141 786.15,334.47 785.427,335.329 C784.705,336.188 783.602,336.618 782.117,336.618 C780.595,336.618 779.485,336.198 778.791,335.357 C778.099,334.518 777.751,333.18 777.751,331.343 L777.751,299.106 C777.751,296.489 778.142,294.706 778.924,293.758 C779.706,292.812 781.112,292.337 783.143,292.337 C785.468,292.337 787.793,294.3 790.118,298.227 C790.334,298.58 790.489,298.841 790.587,299.017 L804.572,322.572 L804.572,297.611 C804.572,295.815 804.928,294.486 805.641,293.627 C806.353,292.769 807.462,292.338 808.967,292.338 C810.47,292.338 811.574,292.764 812.278,293.612 C812.981,294.462 813.333,295.795 813.333,297.611 L813.333,329.965 C813.333,332.466 812.976,334.2 812.262,335.166 C811.549,336.134 810.304,336.617 808.526,336.617 C806.963,336.617 805.733,336.344 804.833,335.797 C803.935,335.25 802.852,333.91 801.582,331.782 L786.512,306.429 L786.512,331.344 L786.512,331.344 L786.512,331.344 Z" id="Shape" fill="#01102F"></path>
                <path d="M850.468,328.159 C852.074,328.159 853.28,328.486 854.082,329.141 C854.884,329.796 855.285,330.788 855.285,332.119 C855.285,333.409 854.88,334.391 854.066,335.066 C853.253,335.741 852.054,336.079 850.467,336.079 L827.675,336.079 C825.645,336.079 824.238,335.604 823.456,334.656 C822.676,333.708 822.284,331.923 822.284,329.302 L822.284,299.735 C822.284,297.099 822.676,295.306 823.456,294.36 C824.238,293.412 825.644,292.938 827.675,292.938 L849.324,292.938 C850.912,292.938 852.112,293.26 852.925,293.905 C853.739,294.55 854.145,295.496 854.145,296.746 C854.145,297.958 853.74,298.876 852.925,299.501 C852.112,300.127 850.912,300.439 849.324,300.439 L831.045,300.439 L831.045,309.62 L847.48,309.62 C849.062,309.62 850.248,309.927 851.04,310.542 C851.831,311.157 852.227,312.089 852.227,313.339 C852.227,314.529 851.821,315.437 851.011,316.063 C850.199,316.688 849.025,317.001 847.481,317.001 L831.046,317.001 L831.046,328.161 L850.468,328.161 L850.468,328.159 L850.468,328.159 Z" id="Shape" fill="#01102F"></path>
                <path d="M862.015,300.618 C860.551,300.618 859.463,300.305 858.751,299.68 C858.038,299.054 857.682,298.107 857.682,296.837 C857.682,295.567 858.048,294.609 858.78,293.964 C859.511,293.32 860.591,292.998 862.015,292.998 L888.869,292.998 C890.312,292.998 891.396,293.32 892.118,293.964 C892.84,294.61 893.202,295.568 893.202,296.837 C893.202,298.087 892.84,299.03 892.118,299.665 C891.396,300.3 890.312,300.617 888.869,300.617 L879.882,300.617 L879.882,331.896 C879.882,333.48 879.516,334.663 878.783,335.445 C878.05,336.226 876.941,336.617 875.456,336.617 C873.972,336.617 872.858,336.221 872.115,335.43 C871.373,334.638 871.002,333.46 871.002,331.896 L871.002,300.617 L862.015,300.617 L862.015,300.618 L862.015,300.618 Z" id="Shape" fill="#01102F"></path>
                <path d="M899.395,300.738 C897.813,300.738 896.64,300.417 895.879,299.775 C895.116,299.131 894.735,298.159 894.735,296.853 C894.735,295.489 895.107,294.497 895.848,293.872 C896.591,293.25 897.774,292.938 899.394,292.938 L922.808,292.938 C925.833,292.938 927.86,293.274 928.884,293.945 C929.909,294.619 930.422,295.782 930.422,297.436 C930.422,297.944 930.326,298.45 930.13,298.956 C929.935,299.462 929.634,299.949 929.226,300.417 L905.696,328.339 L924.566,328.339 C926.187,328.339 927.389,328.652 928.171,329.277 C928.951,329.902 929.343,330.871 929.343,332.18 C929.343,333.529 928.956,334.515 928.185,335.142 C927.414,335.766 926.208,336.08 924.566,336.08 L901.211,336.08 C898.516,336.08 896.641,335.732 895.586,335.039 C894.53,334.345 894.004,333.148 894.004,331.446 C894.004,330.88 894.097,330.353 894.281,329.865 C894.468,329.377 894.756,328.886 895.146,328.398 L918.442,300.739 L899.395,300.739 L899.395,300.738 L899.395,300.738 Z" id="Shape" fill="#01102F"></path>
                <path d="M953.502,330.875 C953.034,333.259 952.442,334.812 951.731,335.534 C951.018,336.257 949.783,336.618 948.026,336.618 C946.444,336.618 945.336,336.35 944.702,335.812 C944.067,335.275 943.358,333.649 942.578,330.932 L933.586,299.72 C933.371,298.9 933.23,298.289 933.161,297.889 C933.092,297.489 933.049,297.142 933.03,296.849 C933.03,295.501 933.433,294.412 934.245,293.583 C935.055,292.752 936.095,292.337 937.364,292.337 C938.593,292.337 939.546,292.708 940.219,293.45 C940.893,294.193 941.464,295.54 941.934,297.493 L948.231,323.362 L953.561,297.551 C953.972,295.559 954.592,294.193 955.421,293.449 C956.252,292.707 957.525,292.336 959.244,292.336 C960.943,292.336 962.192,292.688 962.992,293.391 C963.794,294.094 964.429,295.579 964.897,297.844 L970.168,323.362 L976.173,298.461 C976.777,295.98 977.427,294.339 978.12,293.539 C978.813,292.738 979.784,292.337 981.035,292.337 C982.362,292.337 983.363,292.703 984.036,293.436 C984.71,294.169 985.047,295.267 985.047,296.732 C985.047,297.025 985.009,297.407 984.93,297.876 C984.852,298.345 984.735,298.882 984.578,299.486 L975.527,330.845 C975.45,331.079 975.361,331.382 975.264,331.752 C974.346,334.996 972.666,336.617 970.225,336.617 C968.489,336.617 967.278,336.285 966.593,335.621 C965.91,334.956 965.324,333.392 964.835,330.932 L959.184,303.032 L953.502,330.875 L953.502,330.875 Z" id="Shape" fill="#01102F"></path>
                <path d="M1019.923,328.159 C1021.529,328.159 1022.735,328.486 1023.537,329.141 C1024.339,329.796 1024.741,330.788 1024.741,332.119 C1024.741,333.409 1024.335,334.391 1023.521,335.066 C1022.708,335.741 1021.509,336.079 1019.922,336.079 L997.131,336.079 C995.1,336.079 993.693,335.604 992.911,334.656 C992.131,333.708 991.74,331.923 991.74,329.302 L991.74,299.735 C991.74,297.099 992.131,295.306 992.911,294.36 C993.693,293.412 995.099,292.938 997.131,292.938 L1018.78,292.938 C1020.367,292.938 1021.567,293.26 1022.38,293.905 C1023.193,294.55 1023.601,295.496 1023.601,296.746 C1023.601,297.958 1023.194,298.876 1022.38,299.501 C1021.567,300.127 1020.367,300.439 1018.78,300.439 L1000.501,300.439 L1000.501,309.62 L1016.935,309.62 C1018.517,309.62 1019.704,309.927 1020.495,310.542 C1021.286,311.157 1021.682,312.089 1021.682,313.339 C1021.682,314.529 1021.277,315.437 1020.466,316.063 C1019.655,316.688 1018.48,317.001 1016.936,317.001 L1000.502,317.001 L1000.502,328.161 L1019.923,328.161 L1019.923,328.159 L1019.923,328.159 Z" id="Shape" fill="#01102F"></path>
                <path d="M1039.857,300.379 L1039.857,311.778 L1050.299,311.778 C1052.567,311.778 1054.234,311.32 1055.298,310.404 C1056.363,309.489 1056.896,308.047 1056.896,306.079 C1056.896,304.208 1056.375,302.79 1055.329,301.825 C1054.283,300.861 1052.744,300.379 1050.71,300.379 L1039.857,300.379 L1039.857,300.379 L1039.857,300.379 Z M1039.857,331.895 C1039.857,333.48 1039.491,334.663 1038.757,335.446 C1038.025,336.228 1036.905,336.619 1035.402,336.619 C1033.918,336.619 1032.808,336.223 1032.076,335.431 C1031.344,334.639 1030.976,333.461 1030.976,331.896 L1030.976,299.736 C1030.976,297.099 1031.368,295.308 1032.149,294.362 C1032.931,293.414 1034.337,292.94 1036.369,292.94 L1051.914,292.94 C1056.623,292.94 1060.11,293.945 1062.378,295.955 C1064.644,297.964 1065.777,301.036 1065.777,305.172 C1065.777,307.807 1065.224,310 1064.119,311.755 C1063.015,313.513 1061.426,314.712 1059.353,315.356 C1060.97,315.903 1062.198,316.763 1063.037,317.937 C1063.875,319.11 1064.382,320.674 1064.558,322.63 C1064.634,323.432 1064.693,324.478 1064.732,325.769 C1064.771,327.059 1064.839,327.937 1064.936,328.408 C1065.017,328.917 1065.166,329.656 1065.386,330.623 C1065.607,331.59 1065.717,332.27 1065.717,332.661 C1065.717,333.893 1065.317,334.87 1064.515,335.594 C1063.714,336.319 1062.64,336.68 1061.292,336.68 C1059.437,336.68 1058.114,336.147 1057.322,335.08 C1056.531,334.015 1055.989,331.291 1055.696,326.91 C1055.462,323.447 1054.9,321.31 1054.009,320.499 C1053.119,319.687 1051.539,319.281 1049.272,319.281 L1039.856,319.281 L1039.856,331.895 L1039.857,331.895 L1039.857,331.895 Z" id="Shape" fill="#01102F"></path>
                <path d="M1073.793,297.084 C1073.793,295.483 1074.159,294.292 1074.893,293.51 C1075.625,292.729 1076.734,292.338 1078.219,292.338 C1079.703,292.338 1080.817,292.734 1081.559,293.525 C1082.301,294.316 1082.673,295.503 1082.673,297.085 L1082.673,310.65 L1098.946,293.658 C1099.358,293.247 1099.832,292.925 1100.369,292.69 C1100.907,292.456 1101.449,292.338 1101.997,292.338 C1103.15,292.338 1104.119,292.704 1104.9,293.437 C1105.682,294.17 1106.073,295.064 1106.073,296.119 C1106.073,296.588 1105.99,297.036 1105.824,297.466 C1105.657,297.897 1105.428,298.267 1105.135,298.58 L1093.406,310.386 L1106.747,328.65 L1106.776,328.678 C1107.868,330.261 1108.413,331.551 1108.413,332.545 C1108.413,333.758 1108.028,334.748 1107.257,335.52 C1106.486,336.292 1105.494,336.678 1104.282,336.678 C1103.481,336.678 1102.715,336.473 1101.981,336.062 C1101.249,335.653 1100.619,335.067 1100.09,334.304 L1087.277,316.334 L1082.673,320.907 L1082.673,331.9 C1082.673,333.481 1082.307,334.665 1081.574,335.446 C1080.841,336.227 1079.722,336.618 1078.219,336.618 C1076.734,336.618 1075.625,336.223 1074.893,335.431 C1074.16,334.64 1073.793,333.463 1073.793,331.9 L1073.793,297.084 L1073.793,297.084 L1073.793,297.084 Z" id="Shape" fill="#01102F"></path>
                <path d="M1113.472,297.084 C1113.472,295.483 1113.839,294.292 1114.572,293.51 C1115.304,292.729 1116.413,292.338 1117.897,292.338 C1119.381,292.338 1120.496,292.734 1121.238,293.525 C1121.981,294.316 1122.352,295.503 1122.352,297.085 L1122.352,331.9 C1122.352,333.481 1121.986,334.665 1121.253,335.446 C1120.52,336.227 1119.401,336.618 1117.897,336.618 C1116.432,336.618 1115.328,336.223 1114.585,335.431 C1113.843,334.64 1113.472,333.463 1113.472,331.9 L1113.472,297.084 L1113.472,297.084 Z" id="Shape" fill="#01102F"></path>
                <path d="M1140.404,331.344 C1140.404,333.141 1140.042,334.47 1139.319,335.329 C1138.596,336.188 1137.493,336.618 1136.007,336.618 C1134.485,336.618 1133.376,336.198 1132.683,335.357 C1131.99,334.518 1131.642,333.18 1131.642,331.343 L1131.642,299.106 C1131.642,296.489 1132.034,294.706 1132.815,293.758 C1133.597,292.812 1135.003,292.337 1137.034,292.337 C1139.359,292.337 1141.684,294.3 1144.011,298.227 C1144.225,298.58 1144.381,298.841 1144.48,299.017 L1158.463,322.572 L1158.463,297.611 C1158.463,295.815 1158.819,294.486 1159.533,293.627 C1160.245,292.769 1161.354,292.338 1162.857,292.338 C1164.362,292.338 1165.465,292.764 1166.169,293.612 C1166.872,294.462 1167.224,295.795 1167.224,297.611 L1167.224,329.965 C1167.224,332.466 1166.868,334.2 1166.155,335.166 C1165.441,336.134 1164.196,336.617 1162.418,336.617 C1160.856,336.617 1159.625,336.344 1158.727,335.797 C1157.829,335.25 1156.745,333.91 1155.474,331.782 L1140.406,306.429 L1140.406,331.344 L1140.404,331.344 L1140.404,331.344 Z" id="Shape" fill="#01102F"></path>
                <path d="M1184.937,331.901 C1184.937,333.482 1184.572,334.666 1183.839,335.446 C1183.106,336.227 1182.007,336.618 1180.543,336.618 C1179.117,336.618 1178.033,336.218 1177.291,335.417 C1176.548,334.616 1176.178,333.444 1176.178,331.901 L1176.178,299.735 C1176.178,297.099 1176.569,295.306 1177.35,294.36 C1178.131,293.412 1179.538,292.938 1181.569,292.938 L1202.09,292.938 C1203.673,292.938 1204.87,293.26 1205.682,293.905 C1206.494,294.55 1206.899,295.496 1206.899,296.746 C1206.899,297.958 1206.494,298.876 1205.682,299.501 C1204.87,300.127 1203.673,300.439 1202.09,300.439 L1184.938,300.439 L1184.938,310.219 L1199.451,310.219 C1201.034,310.219 1202.232,310.54 1203.042,311.185 C1203.854,311.83 1204.259,312.767 1204.259,313.998 C1204.259,315.229 1203.854,316.158 1203.042,316.782 C1202.232,317.407 1201.034,317.72 1199.451,317.72 L1184.938,317.72 L1184.938,331.901 L1184.937,331.901 L1184.937,331.901 Z" id="Shape" fill="#01102F"></path>
                <path d="M1231.322,299.539 C1227.536,299.539 1224.589,300.847 1222.48,303.464 C1220.374,306.082 1219.32,309.774 1219.32,314.539 C1219.32,319.284 1220.374,322.972 1222.48,325.599 C1224.588,328.226 1227.536,329.539 1231.322,329.539 C1235.146,329.539 1238.123,328.226 1240.249,325.599 C1242.377,322.972 1243.44,319.285 1243.44,314.539 C1243.44,309.792 1242.377,306.104 1240.249,303.479 C1238.123,300.853 1235.146,299.539 1231.322,299.539 L1231.322,299.539 L1231.322,299.539 Z M1231.32,291.799 C1237.764,291.799 1242.896,293.849 1246.714,297.952 C1250.532,302.055 1252.441,307.583 1252.441,314.539 C1252.441,321.493 1250.533,327.022 1246.714,331.125 C1242.897,335.228 1237.765,337.278 1231.32,337.278 C1224.857,337.278 1219.731,335.232 1215.943,331.138 C1212.154,327.046 1210.26,321.512 1210.26,314.538 C1210.26,307.543 1212.154,302.005 1215.943,297.922 C1219.731,293.84 1224.857,291.799 1231.32,291.799 L1231.32,291.799 L1231.32,291.799 Z" id="Shape" fill="#01102F"></path>
                <path d="M1268.397,300.379 L1268.397,311.778 L1278.841,311.778 C1281.108,311.778 1282.775,311.32 1283.839,310.404 C1284.904,309.489 1285.437,308.047 1285.437,306.079 C1285.437,304.208 1284.916,302.79 1283.87,301.825 C1282.824,300.861 1281.285,300.379 1279.251,300.379 L1268.397,300.379 L1268.397,300.379 L1268.397,300.379 Z M1268.397,331.895 C1268.397,333.48 1268.032,334.663 1267.298,335.446 C1266.566,336.228 1265.446,336.619 1263.943,336.619 C1262.459,336.619 1261.35,336.223 1260.617,335.431 C1259.886,334.639 1259.517,333.461 1259.517,331.896 L1259.517,299.736 C1259.517,297.099 1259.91,295.308 1260.69,294.362 C1261.472,293.414 1262.878,292.94 1264.91,292.94 L1280.454,292.94 C1285.164,292.94 1288.651,293.945 1290.92,295.955 C1293.186,297.964 1294.318,301.036 1294.318,305.172 C1294.318,307.807 1293.765,310 1292.661,311.755 C1291.556,313.513 1289.968,314.712 1287.894,315.356 C1289.511,315.903 1290.739,316.763 1291.577,317.937 C1292.417,319.11 1292.923,320.674 1293.098,322.63 C1293.176,323.432 1293.235,324.478 1293.274,325.769 C1293.313,327.059 1293.381,327.937 1293.478,328.408 C1293.559,328.917 1293.709,329.656 1293.928,330.623 C1294.149,331.59 1294.258,332.27 1294.258,332.661 C1294.258,333.893 1293.858,334.87 1293.057,335.594 C1292.256,336.319 1291.182,336.68 1289.835,336.68 C1287.979,336.68 1286.654,336.147 1285.864,335.08 C1285.073,334.015 1284.531,331.291 1284.238,326.91 C1284.004,323.447 1283.441,321.31 1282.55,320.499 C1281.661,319.687 1280.082,319.281 1277.815,319.281 L1268.397,319.281 L1268.397,331.895 L1268.397,331.895 Z" id="Shape" fill="#01102F"></path>
                <path d="M1310.674,331.344 C1310.674,333.159 1310.341,334.494 1309.675,335.344 C1309.01,336.194 1307.962,336.618 1306.533,336.618 C1305.064,336.618 1303.998,336.203 1303.332,335.373 C1302.667,334.543 1302.334,333.199 1302.334,331.344 L1302.334,299.107 C1302.334,296.49 1302.726,294.707 1303.509,293.759 C1304.292,292.813 1305.701,292.338 1307.738,292.338 L1310.849,292.338 C1312.605,292.338 1313.879,292.675 1314.669,293.35 C1315.459,294.023 1316.226,295.825 1316.967,298.754 L1324.052,325.767 L1330.874,299.311 C1331.653,296.323 1332.439,294.414 1333.229,293.584 C1334.02,292.753 1335.196,292.338 1336.757,292.338 L1340.309,292.338 C1342.344,292.338 1343.755,292.817 1344.538,293.776 C1345.321,294.733 1345.714,296.51 1345.714,299.107 L1345.714,331.344 C1345.714,333.159 1345.376,334.494 1344.7,335.344 C1344.025,336.194 1342.981,336.618 1341.571,336.618 C1340.104,336.618 1339.036,336.198 1338.371,335.357 C1337.706,334.518 1337.374,333.18 1337.374,331.343 L1337.374,301.274 L1329.936,330.698 C1329.35,332.907 1328.623,334.445 1327.755,335.314 C1326.887,336.183 1325.652,336.618 1324.051,336.618 C1322.489,336.618 1321.25,336.164 1320.333,335.256 C1319.416,334.347 1318.675,332.829 1318.108,330.698 L1310.671,301.274 L1310.671,331.344 L1310.674,331.344 L1310.674,331.344 Z" id="Shape" fill="#01102F"></path>
                <path d="M1370.813,301.567 L1364.838,319.938 L1376.815,319.938 L1370.813,301.567 L1370.813,301.567 Z M1360.504,333.391 C1360.152,334.488 1359.626,335.299 1358.923,335.827 C1358.22,336.355 1357.313,336.619 1356.199,336.619 C1354.929,336.619 1353.9,336.263 1353.11,335.548 C1352.319,334.835 1351.924,333.891 1351.924,332.716 C1351.924,332.326 1351.957,331.944 1352.026,331.572 C1352.094,331.2 1352.209,330.818 1352.364,330.427 L1364.281,296.908 C1364.965,294.974 1365.725,293.729 1366.565,293.173 C1367.404,292.616 1368.82,292.338 1370.812,292.338 C1372.704,292.338 1374.076,292.603 1374.924,293.129 C1375.774,293.657 1376.55,294.878 1377.252,296.791 L1389.403,330.427 C1389.559,330.818 1389.673,331.199 1389.741,331.572 C1389.808,331.943 1389.845,332.326 1389.845,332.716 C1389.845,333.871 1389.445,334.811 1388.643,335.534 C1387.843,336.258 1386.798,336.619 1385.51,336.619 C1384.416,336.619 1383.523,336.36 1382.83,335.843 C1382.138,335.324 1381.615,334.508 1381.264,333.392 L1379.214,327.2 L1362.494,327.2 L1360.504,333.391 L1360.504,333.391 Z" id="Shape" fill="#01102F"></path>
                <path d="M1388.92,300.618 C1387.456,300.618 1386.368,300.305 1385.656,299.68 C1384.943,299.054 1384.586,298.107 1384.586,296.837 C1384.586,295.567 1384.953,294.609 1385.684,293.964 C1386.417,293.32 1387.496,292.998 1388.92,292.998 L1415.774,292.998 C1417.219,292.998 1418.301,293.32 1419.024,293.964 C1419.746,294.61 1420.106,295.568 1420.106,296.837 C1420.106,298.087 1419.746,299.03 1419.024,299.665 C1418.301,300.3 1417.219,300.617 1415.774,300.617 L1406.787,300.617 L1406.787,331.896 C1406.787,333.48 1406.421,334.663 1405.688,335.445 C1404.956,336.226 1403.847,336.617 1402.363,336.617 C1400.878,336.617 1399.764,336.221 1399.021,335.43 C1398.278,334.638 1397.908,333.46 1397.908,331.896 L1397.908,300.617 L1388.92,300.617 L1388.92,300.618 L1388.92,300.618 Z" id="Shape" fill="#01102F"></path>
                <path d="M1425.528,297.084 C1425.528,295.483 1425.894,294.292 1426.627,293.51 C1427.359,292.729 1428.469,292.338 1429.953,292.338 C1431.438,292.338 1432.553,292.734 1433.295,293.525 C1434.037,294.316 1434.408,295.503 1434.408,297.085 L1434.408,331.9 C1434.408,333.481 1434.042,334.665 1433.309,335.446 C1432.576,336.227 1431.457,336.618 1429.953,336.618 C1428.488,336.618 1427.384,336.223 1426.642,335.431 C1425.899,334.64 1425.528,333.463 1425.528,331.9 L1425.528,297.084 L1425.528,297.084 L1425.528,297.084 Z" id="Shape" fill="#01102F"></path>
                <path d="M1462.902,299.539 C1459.115,299.539 1456.169,300.847 1454.061,303.464 C1451.954,306.082 1450.9,309.774 1450.9,314.539 C1450.9,319.284 1451.954,322.972 1454.061,325.599 C1456.168,328.226 1459.115,329.539 1462.902,329.539 C1466.726,329.539 1469.703,328.226 1471.829,325.599 C1473.957,322.972 1475.019,319.285 1475.019,314.539 C1475.019,309.792 1473.956,306.104 1471.829,303.479 C1469.703,300.853 1466.727,299.539 1462.902,299.539 L1462.902,299.539 L1462.902,299.539 Z M1462.901,291.799 C1469.344,291.799 1474.475,293.849 1478.294,297.952 C1482.111,302.055 1484.02,307.583 1484.02,314.539 C1484.02,321.493 1482.112,327.022 1478.294,331.125 C1474.476,335.228 1469.345,337.278 1462.901,337.278 C1456.437,337.278 1451.311,335.232 1447.522,331.138 C1443.734,327.046 1441.839,321.512 1441.839,314.538 C1441.839,307.543 1443.734,302.005 1447.522,297.922 C1451.312,293.84 1456.438,291.799 1462.901,291.799 L1462.901,291.799 L1462.901,291.799 Z" id="Shape" fill="#01102F"></path>
                <path d="M1499.857,331.344 C1499.857,333.141 1499.496,334.47 1498.773,335.329 C1498.05,336.188 1496.947,336.618 1495.462,336.618 C1493.939,336.618 1492.831,336.198 1492.137,335.357 C1491.444,334.518 1491.097,333.18 1491.097,331.343 L1491.097,299.106 C1491.097,296.489 1491.488,294.706 1492.271,293.758 C1493.051,292.812 1494.458,292.337 1496.49,292.337 C1498.813,292.337 1501.139,294.3 1503.465,298.227 C1503.68,298.58 1503.836,298.841 1503.934,299.017 L1517.918,322.572 L1517.918,297.611 C1517.918,295.815 1518.274,294.486 1518.987,293.627 C1519.7,292.769 1520.808,292.338 1522.312,292.338 C1523.816,292.338 1524.919,292.764 1525.623,293.612 C1526.326,294.462 1526.678,295.795 1526.678,297.611 L1526.678,329.965 C1526.678,332.466 1526.322,334.2 1525.609,335.166 C1524.895,336.134 1523.651,336.617 1521.874,336.617 C1520.311,336.617 1519.08,336.344 1518.182,335.797 C1517.283,335.25 1516.2,333.91 1514.929,331.782 L1499.859,306.429 L1499.859,331.344 L1499.857,331.344 L1499.857,331.344 Z" id="Shape" fill="#01102F"></path>
                <path d="M1580.854,328.159 C1582.461,328.159 1583.666,328.486 1584.468,329.141 C1585.27,329.796 1585.672,330.788 1585.672,332.119 C1585.672,333.409 1585.266,334.391 1584.453,335.066 C1583.64,335.741 1582.439,336.079 1580.853,336.079 L1558.062,336.079 C1556.031,336.079 1554.624,335.604 1553.843,334.656 C1553.062,333.708 1552.671,331.923 1552.671,329.302 L1552.671,299.735 C1552.671,297.099 1553.062,295.306 1553.843,294.36 C1554.624,293.412 1556.031,292.938 1558.062,292.938 L1579.711,292.938 C1581.297,292.938 1582.499,293.26 1583.312,293.905 C1584.125,294.55 1584.532,295.496 1584.532,296.746 C1584.532,297.958 1584.125,298.876 1583.312,299.501 C1582.499,300.127 1581.297,300.439 1579.711,300.439 L1561.432,300.439 L1561.432,309.62 L1577.865,309.62 C1579.447,309.62 1580.634,309.927 1581.426,310.542 C1582.217,311.157 1582.612,312.089 1582.612,313.339 C1582.612,314.529 1582.207,315.437 1581.398,316.063 C1580.586,316.688 1579.411,317.001 1577.866,317.001 L1561.433,317.001 L1561.433,328.161 L1580.854,328.161 L1580.854,328.159 L1580.854,328.159 Z" id="Shape" fill="#01102F"></path>
                <path d="M1590.947,331.64 C1590.947,330.292 1591.435,329.124 1592.413,328.138 C1593.39,327.152 1594.561,326.659 1595.929,326.659 C1597.335,326.659 1598.527,327.141 1599.502,328.11 C1600.48,329.075 1600.968,330.252 1600.968,331.639 C1600.968,333.026 1600.47,334.212 1599.473,335.199 C1598.478,336.184 1597.295,336.678 1595.929,336.678 C1594.58,336.678 1593.414,336.18 1592.428,335.183 C1591.44,334.188 1590.947,333.008 1590.947,331.64 L1590.947,331.64 L1590.947,331.64 Z" id="Shape" fill="#01102F"></path>
                <path d="M1622.222,332.076 C1621.499,334.147 1620.772,335.422 1620.038,335.9 C1619.306,336.379 1618.129,336.618 1616.51,336.618 C1613.737,336.618 1611.852,335.173 1610.856,332.282 L1610.827,332.193 L1599.49,298.928 C1599.373,298.596 1599.28,298.264 1599.212,297.932 C1599.144,297.6 1599.109,297.258 1599.109,296.908 C1599.109,295.52 1599.539,294.402 1600.398,293.553 C1601.258,292.703 1602.371,292.279 1603.738,292.279 C1604.928,292.279 1605.881,292.65 1606.593,293.392 C1607.305,294.134 1607.936,295.443 1608.483,297.318 L1616.51,325.21 L1624.566,297.377 C1625.053,295.719 1625.727,294.463 1626.587,293.613 C1627.446,292.764 1628.49,292.338 1629.72,292.338 C1630.971,292.338 1631.991,292.729 1632.782,293.511 C1633.574,294.291 1633.97,295.299 1633.97,296.529 C1633.97,296.92 1633.935,297.316 1633.867,297.716 C1633.798,298.116 1633.696,298.521 1633.559,298.931 L1622.222,332.076 L1622.222,332.076 Z" id="Shape" fill="#01102F"></path>
                <path d="M1631.917,331.64 C1631.917,330.292 1632.406,329.124 1633.383,328.138 C1634.359,327.152 1635.53,326.659 1636.899,326.659 C1638.305,326.659 1639.496,327.141 1640.472,328.11 C1641.45,329.075 1641.938,330.252 1641.938,331.639 C1641.938,333.026 1641.439,334.212 1640.444,335.199 C1639.447,336.184 1638.266,336.678 1636.899,336.678 C1635.55,336.678 1634.382,336.18 1633.397,335.183 C1632.409,334.188 1631.917,333.008 1631.917,331.64 L1631.917,331.64 L1631.917,331.64 Z" id="Shape" fill="#01102F"></path>
                <path d="M647.552,225.499 L647.552,253.278 L654.671,253.278 C658.793,253.278 661.776,252.199 663.622,250.041 C665.468,247.882 666.392,244.379 666.392,239.535 C666.392,234.71 665.532,231.165 663.813,228.899 C662.094,226.632 659.408,225.5 655.756,225.5 L647.552,225.5 L647.552,225.499 L647.552,225.499 Z M644.241,261.079 C642.211,261.079 640.804,260.605 640.022,259.657 C639.241,258.709 638.85,256.926 638.85,254.305 L638.85,224.71 C638.85,222.083 639.241,220.298 640.022,219.353 C640.804,218.411 642.21,217.938 644.241,217.938 L655.756,217.938 C662.379,217.938 667.317,219.724 670.571,223.297 C673.824,226.872 675.452,232.289 675.452,239.552 C675.452,243.496 674.851,246.971 673.649,249.978 C672.447,252.985 670.703,255.406 668.418,257.241 C666.699,258.609 664.745,259.588 662.556,260.184 C660.368,260.78 657.301,261.078 653.353,261.078 L644.241,261.078 L644.241,261.079 L644.241,261.079 Z" id="Shape" fill="#01102F"></path>
                <path d="M710.708,253.159 C712.315,253.159 713.52,253.486 714.322,254.141 C715.124,254.796 715.527,255.789 715.527,257.119 C715.527,258.409 715.12,259.391 714.308,260.067 C713.494,260.742 712.294,261.079 710.708,261.079 L687.916,261.079 C685.885,261.079 684.478,260.605 683.698,259.657 C682.916,258.709 682.526,256.924 682.526,254.303 L682.526,224.736 C682.526,222.1 682.916,220.307 683.698,219.361 C684.478,218.413 685.885,217.94 687.916,217.94 L709.566,217.94 C711.153,217.94 712.353,218.263 713.167,218.907 C713.98,219.552 714.387,220.498 714.387,221.748 C714.387,222.96 713.98,223.878 713.167,224.503 C712.354,225.128 711.153,225.441 709.566,225.441 L691.286,225.441 L691.286,234.621 L707.72,234.621 C709.303,234.621 710.489,234.929 711.28,235.543 C712.07,236.158 712.466,237.09 712.466,238.34 C712.466,239.53 712.062,240.438 711.251,241.063 C710.441,241.688 709.264,242.001 707.72,242.001 L691.286,242.001 L691.286,253.161 L710.708,253.161 L710.708,253.159 L710.708,253.159 Z" id="Shape" fill="#01102F"></path>
                <path d="M721.523,222.083 C721.523,220.48 721.887,219.291 722.618,218.509 C723.348,217.728 724.463,217.337 725.964,217.337 C727.443,217.337 728.563,217.733 729.323,218.524 C730.082,219.315 730.462,220.501 730.462,222.083 L730.462,244.871 C730.462,248.21 731.127,250.646 732.456,252.18 C733.786,253.712 735.896,254.478 738.788,254.478 C741.72,254.478 743.855,253.718 745.194,252.194 C746.532,250.671 747.203,248.23 747.203,244.871 L747.203,222.083 C747.203,220.48 747.569,219.291 748.301,218.509 C749.034,217.728 750.143,217.337 751.628,217.337 C753.113,217.337 754.226,217.733 754.969,218.524 C755.711,219.315 756.083,220.501 756.083,222.083 L756.083,245.837 C756.083,251.131 754.604,255.196 751.645,258.028 C748.687,260.861 744.425,262.278 738.86,262.278 C733.257,262.278 728.965,260.866 725.988,258.043 C723.01,255.219 721.523,251.15 721.523,245.837 L721.523,222.083 L721.523,222.083 L721.523,222.083 Z" id="Shape" fill="#01102F"></path>
                <path d="M765.358,225.618 C763.895,225.618 762.806,225.306 762.093,224.68 C761.381,224.055 761.025,223.107 761.025,221.838 C761.025,220.568 761.391,219.61 762.123,218.965 C762.854,218.321 763.933,217.998 765.358,217.998 L792.212,217.998 C793.656,217.998 794.74,218.321 795.462,218.965 C796.184,219.61 796.545,220.568 796.545,221.838 C796.545,223.088 796.184,224.031 795.462,224.666 C794.739,225.301 793.655,225.618 792.212,225.618 L783.225,225.618 L783.225,256.898 C783.225,258.482 782.859,259.665 782.125,260.446 C781.393,261.228 780.285,261.618 778.8,261.618 C777.315,261.618 776.201,261.222 775.459,260.432 C774.716,259.64 774.345,258.462 774.345,256.898 L774.345,225.618 L765.358,225.618 L765.358,225.618 L765.358,225.618 Z" id="Shape" fill="#01102F"></path>
                <path d="M832.506,226.671 C832.506,227.864 832.146,228.816 831.422,229.528 C830.699,230.241 829.741,230.598 828.55,230.598 C827.007,230.598 825.513,229.653 824.067,227.765 C823.696,227.298 823.413,226.938 823.217,226.684 C822.455,225.788 821.493,225.118 820.332,224.669 C819.17,224.222 817.79,223.998 816.188,223.998 C813.885,223.998 812.099,224.456 810.83,225.373 C809.561,226.29 808.927,227.575 808.927,229.233 C808.927,231.495 811.386,233.2 816.306,234.352 C817.497,234.642 818.414,234.867 819.058,235.023 C822.144,235.784 824.403,236.405 825.838,236.884 C827.275,237.363 828.498,237.885 829.514,238.451 C831.311,239.467 832.639,240.786 833.498,242.407 C834.357,244.03 834.786,246.012 834.786,248.358 C834.786,252.636 833.277,256.025 830.262,258.527 C827.245,261.028 823.121,262.279 817.889,262.279 C815.097,262.279 812.685,261.976 810.655,261.37 C808.625,260.764 806.654,259.787 804.74,258.437 C803.452,257.499 802.422,256.38 801.65,255.082 C800.879,253.783 800.493,252.517 800.493,251.285 C800.493,249.996 800.863,248.945 801.606,248.135 C802.348,247.323 803.314,246.918 804.504,246.918 C806.066,246.918 807.511,247.934 808.838,249.967 C809.346,250.75 809.756,251.337 810.068,251.728 C810.926,252.784 811.985,253.566 813.245,254.076 C814.504,254.584 816.003,254.837 817.741,254.837 C820.493,254.837 822.573,254.368 823.978,253.43 C825.383,252.492 826.086,251.103 826.086,249.266 C826.086,246.686 822.465,244.564 815.223,242.903 L814.608,242.757 C809.025,241.488 805.252,239.905 803.29,238.012 C801.328,236.117 800.347,233.363 800.347,229.749 C800.347,225.667 801.783,222.487 804.652,220.211 C807.523,217.935 811.535,216.798 816.69,216.798 C819.053,216.798 821.201,217.066 823.133,217.603 C825.067,218.14 826.814,218.965 828.376,220.079 C829.607,220.938 830.603,221.983 831.363,223.214 C832.126,224.445 832.506,225.599 832.506,226.671 L832.506,226.671 L832.506,226.671 Z" id="Shape" fill="#01102F"></path>
                <path d="M839.961,240.183 C839.961,232.797 841.787,227.044 845.44,222.922 C849.091,218.8 854.187,216.739 860.73,216.739 C863.307,216.739 865.675,217.091 867.833,217.794 C869.991,218.498 872.036,219.603 873.97,221.108 C875.298,222.106 876.343,223.246 877.106,224.526 C877.866,225.807 878.248,227.034 878.248,228.207 C878.248,229.497 877.866,230.528 877.106,231.302 C876.344,232.073 875.32,232.46 874.031,232.46 C873.308,232.46 872.62,232.314 871.967,232.02 C871.313,231.728 870.664,231.278 870.02,230.671 C869.688,230.359 869.322,229.881 868.921,229.236 C868.521,228.59 868.233,228.171 868.058,227.975 C867.12,226.88 866.008,226.064 864.719,225.526 C863.431,224.989 861.957,224.721 860.298,224.721 C856.803,224.721 854.05,226.03 852.039,228.645 C850.028,231.26 849.022,234.873 849.022,239.479 C849.022,244.186 850.033,247.82 852.052,250.389 C854.073,252.955 856.948,254.24 860.677,254.24 C862.317,254.24 863.79,253.981 865.098,253.465 C866.407,252.947 867.471,252.202 868.291,251.228 C868.622,250.817 868.953,250.306 869.286,249.69 C869.618,249.076 869.843,248.69 869.96,248.535 C870.701,247.579 871.385,246.921 872.009,246.561 C872.634,246.2 873.347,246.019 874.148,246.019 C875.338,246.019 876.348,246.41 877.177,247.191 C878.007,247.972 878.421,248.92 878.421,250.033 C878.421,251.127 878.056,252.328 877.323,253.637 C876.591,254.946 875.62,256.147 874.41,257.241 C872.418,258.999 870.294,260.278 868.038,261.078 C865.783,261.88 863.161,262.28 860.174,262.28 C853.905,262.28 848.969,260.312 845.366,256.375 C841.762,252.437 839.961,247.041 839.961,240.183 L839.961,240.183 L839.961,240.183 Z" id="Shape" fill="#01102F"></path>
                <path d="M886.499,222.088 C886.499,220.485 886.865,219.293 887.599,218.512 C888.331,217.73 889.44,217.338 890.923,217.338 C892.409,217.338 893.523,217.734 894.265,218.526 C895.008,219.318 895.379,220.505 895.379,222.089 L895.379,234.02 L913.199,234.02 L913.199,222.089 C913.199,220.486 913.565,219.294 914.298,218.513 C915.03,217.731 916.151,217.339 917.654,217.339 C919.139,217.339 920.258,217.735 921.01,218.527 C921.762,219.319 922.138,220.506 922.138,222.09 L922.138,256.899 C922.138,258.482 921.767,259.667 921.025,260.447 C920.282,261.23 919.159,261.62 917.654,261.62 C916.17,261.62 915.054,261.224 914.312,260.432 C913.57,259.642 913.199,258.463 913.199,256.899 L913.199,241.941 L895.379,241.941 L895.379,256.899 C895.379,258.482 895.012,259.667 894.28,260.447 C893.547,261.23 892.427,261.62 890.923,261.62 C889.44,261.62 888.331,261.224 887.599,260.432 C886.866,259.642 886.499,258.463 886.499,256.899 L886.499,222.088 L886.499,222.088 Z" id="Shape" fill="#01102F"></path>
                <path d="M959.299,253.159 C960.905,253.159 962.111,253.486 962.912,254.141 C963.715,254.796 964.117,255.789 964.117,257.119 C964.117,258.409 963.71,259.391 962.897,260.067 C962.084,260.742 960.884,261.079 959.298,261.079 L936.506,261.079 C934.476,261.079 933.068,260.605 932.288,259.657 C931.506,258.709 931.116,256.924 931.116,254.303 L931.116,224.736 C931.116,222.1 931.506,220.307 932.288,219.361 C933.068,218.413 934.476,217.94 936.506,217.94 L958.154,217.94 C959.743,217.94 960.942,218.263 961.757,218.907 C962.57,219.552 962.976,220.498 962.976,221.748 C962.976,222.96 962.57,223.878 961.757,224.503 C960.943,225.128 959.743,225.441 958.154,225.441 L939.875,225.441 L939.875,234.621 L956.31,234.621 C957.892,234.621 959.079,234.929 959.87,235.543 C960.66,236.158 961.057,237.09 961.057,238.34 C961.057,239.53 960.653,240.438 959.842,241.063 C959.03,241.688 957.854,242.001 956.311,242.001 L939.876,242.001 L939.876,253.161 L959.299,253.161 L959.299,253.159 L959.299,253.159 Z" id="Shape" fill="#01102F"></path>
                <path d="M987.692,222.084 C987.692,220.482 988.058,219.291 988.791,218.509 C989.524,217.728 990.634,217.337 992.117,217.337 C993.602,217.337 994.717,217.733 995.459,218.524 C996.201,219.316 996.572,220.502 996.572,222.084 L996.572,256.9 C996.572,258.482 996.206,259.665 995.472,260.445 C994.74,261.227 993.621,261.617 992.117,261.617 C990.652,261.617 989.549,261.223 988.806,260.431 C988.063,259.64 987.692,258.463 987.692,256.9 L987.692,222.084 L987.692,222.084 Z" id="Shape" fill="#01102F"></path>
                <path d="M1014.624,256.343 C1014.624,258.14 1014.264,259.469 1013.54,260.328 C1012.816,261.188 1011.713,261.617 1010.23,261.617 C1008.707,261.617 1007.597,261.197 1006.904,260.357 C1006.211,259.518 1005.864,258.18 1005.864,256.342 L1005.864,224.105 C1005.864,221.487 1006.255,219.705 1007.036,218.757 C1007.818,217.81 1009.224,217.336 1011.256,217.336 C1013.581,217.336 1015.905,219.299 1018.231,223.225 C1018.447,223.578 1018.602,223.84 1018.7,224.016 L1032.684,247.571 L1032.684,222.61 C1032.684,220.814 1033.04,219.485 1033.753,218.626 C1034.467,217.767 1035.575,217.337 1037.08,217.337 C1038.583,217.337 1039.686,217.762 1040.39,218.612 C1041.093,219.461 1041.445,220.795 1041.445,222.611 L1041.445,254.966 C1041.445,257.466 1041.088,259.2 1040.375,260.167 C1039.663,261.134 1038.417,261.617 1036.64,261.617 C1035.077,261.617 1033.846,261.344 1032.948,260.797 C1032.05,260.251 1030.966,258.911 1029.695,256.783 L1014.626,231.43 L1014.626,256.343 L1014.624,256.343 L1014.624,256.343 Z" id="Shape" fill="#01102F"></path>
                <path d="M1050.698,222.084 C1050.698,220.482 1051.064,219.291 1051.798,218.509 C1052.531,217.728 1053.639,217.337 1055.123,217.337 C1056.608,217.337 1057.722,217.733 1058.465,218.524 C1059.207,219.316 1059.578,220.502 1059.578,222.084 L1059.578,256.9 C1059.578,258.482 1059.213,259.665 1058.479,260.445 C1057.746,261.227 1056.627,261.617 1055.123,261.617 C1053.659,261.617 1052.555,261.223 1051.811,260.431 C1051.069,259.64 1050.698,258.463 1050.698,256.9 L1050.698,222.084 L1050.698,222.084 L1050.698,222.084 Z" id="Shape" fill="#01102F"></path>
                <path d="M1069.363,225.618 C1067.899,225.618 1066.81,225.306 1066.098,224.68 C1065.385,224.055 1065.03,223.107 1065.03,221.838 C1065.03,220.568 1065.396,219.61 1066.129,218.965 C1066.859,218.321 1067.938,217.998 1069.363,217.998 L1096.217,217.998 C1097.66,217.998 1098.744,218.321 1099.466,218.965 C1100.188,219.61 1100.55,220.568 1100.55,221.838 C1100.55,223.088 1100.188,224.031 1099.466,224.666 C1098.744,225.301 1097.66,225.618 1096.217,225.618 L1087.229,225.618 L1087.229,256.898 C1087.229,258.482 1086.864,259.665 1086.13,260.446 C1085.398,261.228 1084.289,261.618 1082.804,261.618 C1081.319,261.618 1080.205,261.222 1079.463,260.432 C1078.72,259.64 1078.349,258.462 1078.349,256.898 L1078.349,225.618 L1069.363,225.618 L1069.363,225.618 L1069.363,225.618 Z" id="Shape" fill="#01102F"></path>
                <path d="M1105.972,222.084 C1105.972,220.482 1106.339,219.291 1107.072,218.509 C1107.804,217.728 1108.913,217.337 1110.397,217.337 C1111.881,217.337 1112.996,217.733 1113.738,218.524 C1114.481,219.316 1114.852,220.502 1114.852,222.084 L1114.852,256.9 C1114.852,258.482 1114.486,259.665 1113.753,260.445 C1113.02,261.227 1111.901,261.617 1110.397,261.617 C1108.932,261.617 1107.828,261.223 1107.085,260.431 C1106.343,259.64 1105.972,258.463 1105.972,256.9 L1105.972,222.084 L1105.972,222.084 Z" id="Shape" fill="#01102F"></path>
                <path d="M1140.211,226.567 L1134.236,244.938 L1146.214,244.938 L1140.211,226.567 L1140.211,226.567 Z M1129.904,258.391 C1129.552,259.487 1129.025,260.299 1128.322,260.827 C1127.619,261.355 1126.712,261.618 1125.597,261.618 C1124.328,261.618 1123.299,261.262 1122.508,260.547 C1121.718,259.834 1121.322,258.89 1121.322,257.715 C1121.322,257.325 1121.356,256.943 1121.425,256.571 C1121.493,256.199 1121.607,255.817 1121.763,255.426 L1133.68,221.907 C1134.363,219.974 1135.124,218.729 1135.964,218.172 C1136.803,217.615 1138.218,217.337 1140.21,217.337 C1142.103,217.337 1143.474,217.601 1144.322,218.128 C1145.172,218.656 1145.948,219.877 1146.65,221.79 L1158.802,255.426 C1158.958,255.817 1159.071,256.198 1159.139,256.571 C1159.208,256.942 1159.242,257.325 1159.242,257.715 C1159.242,258.87 1158.843,259.81 1158.042,260.533 C1157.242,261.257 1156.197,261.617 1154.909,261.617 C1153.815,261.617 1152.922,261.358 1152.228,260.841 C1151.536,260.323 1151.014,259.506 1150.663,258.39 L1148.613,252.198 L1131.893,252.198 L1129.904,258.391 L1129.904,258.391 Z" id="Shape" fill="#01102F"></path>
                <path d="M1158.319,225.618 C1156.855,225.618 1155.766,225.306 1155.053,224.68 C1154.341,224.055 1153.985,223.107 1153.985,221.838 C1153.985,220.568 1154.351,219.61 1155.083,218.965 C1155.815,218.321 1156.894,217.998 1158.319,217.998 L1185.172,217.998 C1186.617,217.998 1187.701,218.321 1188.423,218.965 C1189.146,219.61 1189.506,220.568 1189.506,221.838 C1189.506,223.088 1189.146,224.031 1188.423,224.666 C1187.701,225.301 1186.617,225.618 1185.172,225.618 L1176.187,225.618 L1176.187,256.898 C1176.187,258.482 1175.819,259.665 1175.087,260.446 C1174.354,261.228 1173.244,261.618 1171.762,261.618 C1170.277,261.618 1169.162,261.222 1168.419,260.432 C1167.677,259.64 1167.307,258.462 1167.307,256.898 L1167.307,225.618 L1158.319,225.618 L1158.319,225.618 L1158.319,225.618 Z" id="Shape" fill="#01102F"></path>
                <path d="M1194.928,222.084 C1194.928,220.482 1195.293,219.291 1196.027,218.509 C1196.76,217.728 1197.869,217.337 1199.353,217.337 C1200.838,217.337 1201.952,217.733 1202.694,218.524 C1203.436,219.316 1203.808,220.502 1203.808,222.084 L1203.808,256.9 C1203.808,258.482 1203.442,259.665 1202.708,260.445 C1201.975,261.227 1200.856,261.617 1199.353,261.617 C1197.888,261.617 1196.784,261.223 1196.041,260.431 C1195.298,259.64 1194.928,258.463 1194.928,256.9 L1194.928,222.084 L1194.928,222.084 Z" id="Shape" fill="#01102F"></path>
                <path d="M1232.371,257.077 C1231.649,259.148 1230.922,260.422 1230.189,260.901 C1229.457,261.38 1228.281,261.618 1226.66,261.618 C1223.887,261.618 1222.002,260.173 1221.006,257.282 L1220.978,257.194 L1209.639,223.928 C1209.523,223.596 1209.43,223.264 1209.362,222.932 C1209.294,222.6 1209.26,222.258 1209.26,221.908 C1209.26,220.52 1209.688,219.402 1210.549,218.553 C1211.407,217.703 1212.52,217.279 1213.888,217.279 C1215.078,217.279 1216.031,217.649 1216.743,218.392 C1217.457,219.134 1218.086,220.443 1218.633,222.318 L1226.66,250.21 L1234.715,222.377 C1235.204,220.718 1235.877,219.463 1236.737,218.614 C1237.596,217.764 1238.64,217.338 1239.871,217.338 C1241.121,217.338 1242.142,217.729 1242.933,218.511 C1243.724,219.291 1244.119,220.299 1244.119,221.529 C1244.119,221.92 1244.087,222.316 1244.018,222.716 C1243.949,223.116 1243.846,223.52 1243.71,223.93 L1232.371,257.077 L1232.371,257.077 Z" id="Shape" fill="#01102F"></path>
                <path d="M1277.51,253.159 C1279.116,253.159 1280.322,253.486 1281.123,254.141 C1281.926,254.796 1282.327,255.789 1282.327,257.119 C1282.327,258.409 1281.921,259.391 1281.108,260.067 C1280.295,260.742 1279.095,261.079 1277.509,261.079 L1254.717,261.079 C1252.686,261.079 1251.28,260.605 1250.498,259.657 C1249.717,258.709 1249.326,256.924 1249.326,254.303 L1249.326,224.736 C1249.326,222.1 1249.717,220.307 1250.498,219.361 C1251.28,218.413 1252.686,217.94 1254.717,217.94 L1276.365,217.94 C1277.954,217.94 1279.153,218.263 1279.967,218.907 C1280.78,219.552 1281.187,220.498 1281.187,221.748 C1281.187,222.96 1280.781,223.878 1279.967,224.503 C1279.154,225.128 1277.954,225.441 1276.365,225.441 L1258.086,225.441 L1258.086,234.621 L1274.521,234.621 C1276.104,234.621 1277.29,234.929 1278.081,235.543 C1278.873,236.158 1279.269,237.09 1279.269,238.34 C1279.269,239.53 1278.863,240.438 1278.053,241.063 C1277.241,241.688 1276.066,242.001 1274.522,242.001 L1258.087,242.001 L1258.087,253.161 L1277.51,253.161 L1277.51,253.159 L1277.51,253.159 Z" id="Shape" fill="#01102F"></path>
                <path d="M182.132,305.672 L195.008,305.672 C202.336,305.672 207.706,303.515 211.118,299.2 C214.53,294.885 216.237,288.12 216.237,278.903 C216.237,269.645 214.531,262.868 211.118,258.575 C207.705,254.281 202.335,252.134 195.008,252.134 L182.132,252.134 L182.132,305.672 L182.132,305.672 L182.132,305.672 Z M158.323,325.105 L158.323,232.572 L197.833,232.572 C211.529,232.572 222.031,236.561 229.34,244.539 C236.649,252.517 240.304,263.981 240.304,278.934 C240.304,294.386 236.524,305.946 228.964,313.61 C221.404,321.274 210.002,325.106 194.756,325.106 L158.323,325.106 L158.323,325.105 L158.323,325.105 Z" id="Shape" fill="#01102F"></path>
                <path d="M255.285,325.105 L255.285,232.572 L278.965,232.572 L278.965,325.105 L255.285,325.105 L255.285,325.105 Z" id="Shape" fill="#01102F"></path>
                <path d="M297.741,325.105 L297.741,232.572 L323.35,232.572 L340.817,262.976 C343.666,267.917 346.368,272.818 348.923,277.676 C351.478,282.535 353.887,287.33 356.149,292.062 C355.814,285.068 355.562,278.514 355.394,272.399 C355.226,266.285 355.142,260.903 355.142,256.253 L355.142,232.571 L378.05,232.571 L378.05,325.104 L352.457,325.104 L334.285,293.821 C332.149,290.135 329.825,286 327.312,281.414 C324.799,276.828 322.14,271.875 319.334,266.557 C319.794,272.588 320.128,278.201 320.337,283.393 C320.546,288.585 320.65,293.193 320.65,297.213 L320.65,325.104 L297.741,325.104 L297.741,325.105 L297.741,325.105 Z" id="Shape" fill="#01102F"></path>
                <path d="M396.94,325.105 L396.94,232.572 L420.621,232.572 L420.621,325.105 L396.94,325.105 L396.94,325.105 Z" id="Shape" fill="#01102F"></path>
            </g>
        </g>
    </g>
</svg>