<?xml version="1.0" encoding="UTF-8" standalone="no"?>
<svg width="99px" height="27px" viewBox="0 0 99 27" version="1.1" xmlns="http://www.w3.org/2000/svg" xmlns:xlink="http://www.w3.org/1999/xlink" xmlns:sketch="http://www.bohemiancoding.com/sketch/ns">
    <!-- Generator: Sketch 3.2.2 (9983) - http://www.bohemiancoding.com/sketch -->
    <title>Springer</title>
    <desc>Created with Sketch.</desc>
    <defs></defs>
    <g id="Page-1" stroke="none" stroke-width="1" fill="none" fill-rule="evenodd" sketch:type="MSPage">
        <g id="Springer" sketch:type="MSLayerGroup">
            <g id="Group" sketch:type="MSShapeGroup">
                <path d="M20.908,20.22 L3.918,20.22 L3.918,19.176 L5.358,19.176 C5.61,15.792 8.849,14.532 10.649,11.797 L8.562,11.797 C7.554,12.157 6.042,14.388 6.042,15.684 L3.415,15.684 L3.451,14.604 L2.587,15.324 L0.283,12.66 C0.283,12.66 0.175,12.516 0.175,12.408 C0.175,12.3 0.211,12.228 0.211,12.228 L3.847,7.297 L4.494,5.353 L5.466,4.993 L6.474,3.589 L6.114,1.141 C7.086,0.781 8.022,1.105 8.489,1.573 C8.525,0.853 8.453,0.061 8.453,0.061 C10.181,-0.119 10.792,0.817 11.08,1.861 C11.548,1.897 11.98,1.969 12.376,2.041 C12.448,1.825 12.664,1.645 12.916,1.645 C13.24,1.645 13.456,1.897 13.456,2.185 L13.456,2.329 C14.212,2.581 14.932,2.941 15.58,3.337 C15.688,3.193 15.832,3.121 16.012,3.121 C16.336,3.121 16.552,3.373 16.552,3.661 C16.552,3.805 16.516,3.913 16.444,3.985 C17.056,4.489 17.56,5.101 18.028,5.749 C18.1,5.713 18.208,5.677 18.28,5.677 C18.604,5.677 18.856,5.929 18.856,6.217 C18.856,6.433 18.748,6.613 18.568,6.685 C18.928,7.332 19.215,8.053 19.432,8.809 C19.468,8.773 19.54,8.773 19.576,8.773 C19.9,8.773 20.116,9.025 20.116,9.313 C20.116,9.601 19.936,9.817 19.72,9.853 C19.864,10.609 19.972,11.365 20.044,12.157 C20.368,12.157 20.62,12.409 20.62,12.697 C20.62,13.021 20.368,13.237 20.08,13.273 C20.08,14.029 20.044,14.857 19.972,15.649 C20.26,15.685 20.476,15.937 20.476,16.225 C20.476,16.513 20.224,16.765 19.9,16.765 L19.864,16.765 C19.72,17.557 19.576,18.348 19.396,19.177 L20.908,19.177 L20.908,20.22 L20.908,20.22 Z M18.316,19.212 C20.404,10.609 17.956,3.77 11.297,2.978 C11.333,3.338 11.333,3.626 11.333,3.914 C11.333,4.346 11.297,4.706 11.297,4.706 L10.254,4.526 C10.29,4.166 10.362,1.718 9.498,1.179 C9.498,1.179 9.498,2.474 9.21,3.77 L8.238,3.59 C8.238,2.69 7.842,2.33 7.302,2.078 L7.554,3.842 L6.942,4.742 L7.23,5.57 L5.322,6.218 L4.782,7.766 L1.434,12.373 L2.694,13.885 L4.098,12.697 L4.422,12.913 L4.422,14.677 L5.178,14.677 C5.502,13.417 6.546,11.941 7.518,11.221 L6.978,10.573 L7.77,9.889 L8.526,10.825 C8.526,10.825 11.226,10.825 11.226,10.789 C11.622,9.925 11.874,8.881 11.874,7.658 L12.918,7.658 C12.918,11.762 10.866,13.381 8.311,15.901 C7.375,16.837 6.547,17.844 6.439,19.213 L18.316,19.213 L18.316,19.212 Z M3.307,11.257 C3.343,11.725 3.271,12.445 3.019,12.805 L2.263,12.517 C2.515,12.157 2.659,11.653 2.659,11.221 L3.307,11.257 L3.307,11.257 Z M7.446,7.262 L5.826,8.126 L5.718,6.794 L7.41,6.614 L7.446,7.262 L7.446,7.262 Z" id="Shape" fill="#002A5C"></path>
                <path d="M20.908,25.547 L3.918,25.547 L3.918,23.459 L20.908,23.459 L20.908,25.547 L20.908,25.547 Z" id="Shape" fill="#F47920"></path>
                <path d="M32.574,20.508 C31.206,20.508 30.126,20.184 29.082,19.716 C28.866,18.78 28.794,17.52 28.722,16.224 L29.55,16.08 C30.018,17.844 30.666,19.572 32.825,19.572 C34.337,19.572 35.237,18.636 35.237,17.232 C35.237,13.524 29.082,14.353 29.082,10.069 C29.082,8.125 30.666,6.361 33.474,6.361 C34.41,6.361 35.418,6.613 36.426,6.973 C36.498,7.729 36.57,8.593 36.606,10.105 L35.85,10.141 C35.49,8.881 34.914,7.333 33.079,7.333 C31.711,7.333 31.027,8.269 31.027,9.385 C31.027,12.805 37.29,12.085 37.29,16.548 C37.289,18.672 35.381,20.508 32.574,20.508 L32.574,20.508 Z M42.833,20.364 C42.257,20.328 41.789,20.22 41.501,20.112 L41.501,23.495 C41.501,24.719 41.645,24.827 43.301,24.971 L43.301,25.655 L38.226,25.655 L38.226,24.971 C39.522,24.827 39.63,24.719 39.63,23.495 L39.63,13.884 C39.63,12.624 39.594,12.588 38.37,12.48 L38.37,11.868 C39.45,11.652 40.457,11.328 41.501,10.968 L41.501,12.336 L43.445,11.328 C43.697,11.184 43.949,11.148 44.201,11.148 C46.433,11.148 47.693,13.091 47.693,14.963 C47.692,17.988 45.532,20.04 42.833,20.364 L42.833,20.364 Z M43.3,12.481 C42.724,12.481 41.968,12.877 41.5,13.165 L41.5,18.492 C41.896,18.924 42.544,19.248 43.336,19.248 C44.38,19.248 45.748,18.456 45.748,15.757 C45.748,13.489 44.668,12.481 43.3,12.481 L43.3,12.481 Z M54.531,13.381 C54.315,13.093 54.027,13.021 53.667,13.021 C53.199,13.021 52.623,13.561 52.227,14.677 L52.227,18.025 C52.227,19.249 52.371,19.357 53.919,19.465 L53.919,20.185 L49.023,20.185 L49.023,19.465 C50.247,19.357 50.391,19.249 50.391,18.025 L50.391,13.958 C50.391,12.734 50.283,12.734 49.167,12.518 L49.167,11.906 C50.247,11.69 51.291,11.474 52.227,11.114 L52.227,13.274 L52.263,13.274 C52.911,12.086 53.811,11.15 54.638,11.15 C55.358,11.15 55.862,11.69 55.862,12.266 C55.863,13.093 54.999,13.813 54.531,13.381 L54.531,13.381 Z M61.406,20.184 L56.799,20.184 L56.799,19.464 C58.023,19.356 58.203,19.248 58.203,17.952 L58.203,14.064 C58.203,12.66 58.095,12.66 56.907,12.516 L56.907,11.904 C58.023,11.688 59.138,11.436 60.038,11.112 L60.038,17.951 C60.038,19.246 60.146,19.355 61.406,19.463 L61.406,20.184 L61.406,20.184 Z M59.03,9.206 C58.346,9.206 57.806,8.666 57.806,7.982 C57.806,7.262 58.346,6.722 59.03,6.722 C59.75,6.722 60.29,7.262 60.29,7.982 C60.29,8.666 59.75,9.206 59.03,9.206 L59.03,9.206 Z M72.421,20.184 L68.173,20.184 L68.173,19.464 C69.181,19.356 69.325,19.248 69.325,18.096 L69.325,14.569 C69.325,13.273 68.749,12.481 67.669,12.481 C66.985,12.481 66.193,12.985 65.653,13.489 L65.653,18.096 C65.653,19.248 65.761,19.356 66.769,19.464 L66.769,20.184 L62.377,20.184 L62.377,19.464 C63.601,19.356 63.781,19.248 63.781,18.096 L63.781,13.957 C63.781,12.733 63.709,12.661 62.629,12.517 L62.629,11.905 C63.709,11.689 64.717,11.473 65.652,11.113 L65.652,12.553 C66.12,12.157 67.488,11.149 68.532,11.149 C70.152,11.149 71.159,12.265 71.159,13.92 L71.159,18.095 C71.159,19.247 71.339,19.355 72.419,19.463 L72.419,20.184 L72.421,20.184 Z M82.679,11.617 C82.535,11.941 82.139,12.553 81.815,12.733 L80.771,12.625 C81.059,13.021 81.275,13.813 81.275,14.425 C81.275,16.621 79.296,17.809 77.496,17.809 C77.388,17.809 77.1,17.773 76.848,17.773 C76.416,17.917 76.056,18.421 76.056,18.745 C76.056,19.069 76.38,19.465 77.244,19.465 L79.404,19.465 C80.664,19.465 82.356,20.077 82.356,22.092 C82.356,24.396 79.944,26.34 77.137,26.34 C74.689,26.34 73.393,24.828 73.393,23.604 C73.393,22.812 73.789,22.2 75.481,20.904 C74.869,20.688 73.789,20.076 73.861,18.925 C74.689,18.565 75.445,17.917 75.769,17.521 C74.797,17.197 73.897,16.045 73.897,14.75 C73.897,12.41 75.985,11.15 77.712,11.15 C78.468,11.15 79.188,11.33 79.8,11.654 C80.736,11.618 81.672,11.51 82.536,11.402 L82.679,11.617 L82.679,11.617 Z M79.836,21.264 C79.332,21.084 78.648,21.048 77.532,21.048 C75.984,21.048 75.3,22.2 75.3,23.064 C75.3,24.288 76.38,25.224 78,25.224 C79.8,25.224 80.808,24.036 80.808,22.848 C80.808,22.092 80.375,21.48 79.836,21.264 L79.836,21.264 Z M77.532,12.013 C76.776,12.013 75.912,12.805 75.912,14.317 C75.912,15.829 76.704,16.909 77.784,16.909 C78.576,16.909 79.332,16.225 79.332,14.569 C79.332,13.165 78.648,12.013 77.532,12.013 L77.532,12.013 Z M90.238,15.181 C89.914,15.217 87.43,15.397 85.163,15.469 C85.235,17.844 86.639,18.852 88.043,18.852 C88.835,18.852 89.411,18.636 90.13,17.916 L90.598,18.564 C89.41,20.04 88.006,20.399 87.358,20.399 C84.802,20.399 83.326,18.456 83.326,16.152 C83.326,13.344 85.45,11.149 87.574,11.149 C89.338,11.149 90.741,12.661 90.741,14.353 C90.742,14.893 90.634,15.109 90.238,15.181 L90.238,15.181 Z M87.179,12.049 C86.351,12.049 85.487,12.949 85.271,14.496 L88.367,14.424 C88.763,14.424 88.835,14.316 88.835,13.956 C88.834,12.985 88.151,12.049 87.179,12.049 L87.179,12.049 Z M97.545,13.381 C97.293,13.129 96.969,13.021 96.681,13.021 C96.213,13.021 95.601,13.561 95.205,14.677 L95.205,18.025 C95.205,19.249 95.349,19.357 96.896,19.465 L96.896,20.185 L91.965,20.185 L91.965,19.465 C93.225,19.357 93.333,19.249 93.333,18.025 L93.333,13.958 C93.333,12.734 93.261,12.734 92.109,12.518 L92.109,11.906 C93.261,11.69 94.269,11.474 95.205,11.114 L95.205,13.274 L95.241,13.274 C95.853,12.086 96.753,11.15 97.617,11.15 C98.301,11.15 98.841,11.69 98.841,12.266 C98.841,13.093 97.941,13.813 97.545,13.381 L97.545,13.381 Z" id="Shape" fill="#002A5C"></path>
            </g>
        </g>
    </g>
</svg>