<?xml version="1.0" encoding="UTF-8" standalone="no"?>
<svg width="254px" height="33px" viewBox="0 0 254 33" version="1.1" xmlns="http://www.w3.org/2000/svg" xmlns:xlink="http://www.w3.org/1999/xlink" xmlns:sketch="http://www.bohemiancoding.com/sketch/ns">
    <!-- Generator: Sketch 3.2.2 (9983) - http://www.bohemiancoding.com/sketch -->
    <title>logo_dfg</title>
    <desc>Created with Sketch.</desc>
    <defs></defs>
    <g id="Page-1" stroke="none" stroke-width="1" fill="none" fill-rule="evenodd" sketch:type="MSPage">
        <g id="logo_dfg" sketch:type="MSLayerGroup" fill="#005BAA">
            <g id="Group" sketch:type="MSShapeGroup">
                <path d="M0,29.778 L15.048,29.778 C19.027,29.778 22.484,28.924 24.935,26.762 C27.386,24.602 28.889,21.11 28.892,15.687 C28.89,9.863 27.488,6.326 25.154,4.231 C22.82,2.134 19.478,1.43 15.49,1.431 L15.49,1.43 L0,1.43 L0,7.552 L10.469,7.552 L13.12,7.552 C15.108,7.541 16.467,8.246 17.235,9.611 C18.005,10.965 18.236,12.89 18.239,15.397 C18.236,17.82 18.025,19.724 17.272,21.079 C16.52,22.441 15.17,23.171 13.16,23.159 L10.171,23.159 L10.171,13.125 L0,13.125 L0,29.778 L0,29.778 Z" id="Shape"></path>
                <path d="M31.101,29.778 L41.272,29.778 L41.272,19.495 L53.943,19.495 L53.943,13.125 L41.272,13.125 L41.272,7.553 L53.943,7.553 L53.943,1.431 L31.101,1.431 L31.101,29.778 Z" id="Shape"></path>
                <path d="M60.947,4.509 C57.942,6.886 56.043,10.42 56.039,15.191 C56.043,20.283 57.871,24.026 60.834,26.526 C63.799,29.025 67.926,30.276 72.533,30.276 C76.848,30.275 80.258,29.84 83.846,28.776 L83.846,15.696 L75.203,15.696 L75.203,23.314 L75.012,23.388 C74.285,23.665 73.379,23.654 72.614,23.658 C70.385,23.664 68.798,22.732 67.823,21.288 C66.846,19.846 66.454,17.924 66.452,15.895 C66.45,13.199 67.366,11.086 68.989,9.674 C70.611,8.261 72.906,7.553 75.628,7.553 C78.411,7.553 80.605,8.179 82.165,9.001 L82.165,1.948 C79.595,1.32 77.639,0.935 72.534,0.933 L72.532,0.933 C68.086,0.934 63.953,2.135 60.947,4.509" id="Shape"></path>
            </g>
            <g id="Group" transform="translate(98.000000, 0.000000)" sketch:type="MSShapeGroup">
                <path d="M0.361,1.396 L2.862,1.396 C4.656,1.416 5.954,1.897 6.755,2.841 C7.537,3.79 7.923,5.04 7.913,6.592 C7.894,8.455 7.348,9.796 6.274,10.613 C5.214,11.421 3.832,11.824 2.127,11.824 L0.361,11.824 L0.361,1.396 L0.361,1.396 Z M1.353,10.936 L2.181,10.936 C5.261,11.004 6.842,9.538 6.922,6.538 C6.899,4.96 6.502,3.848 5.734,3.2 C4.951,2.582 3.978,2.277 2.818,2.287 L1.353,2.287 L1.353,10.936 L1.353,10.936 Z" id="Shape"></path>
                <path d="M15.261,11.588 C14.569,11.858 13.855,11.998 13.119,12.007 C11.912,11.983 11.048,11.598 10.524,10.854 C10.005,10.125 9.751,9.178 9.76,8.015 C9.77,6.828 10.059,5.867 10.629,5.132 C11.18,4.403 11.927,4.033 12.869,4.023 C13.9,4.043 14.654,4.417 15.13,5.147 C15.582,5.862 15.809,6.748 15.809,7.803 L15.809,8.284 L10.751,8.284 C10.751,9.114 10.959,9.797 11.374,10.333 C11.779,10.904 12.384,11.194 13.186,11.204 C13.545,11.204 13.922,11.138 14.319,11.006 C14.715,10.899 15.03,10.775 15.26,10.633 L15.26,11.588 L15.261,11.588 Z M14.818,7.484 C14.818,6.784 14.676,6.172 14.393,5.648 C14.095,5.12 13.606,4.846 12.926,4.826 C12.26,4.846 11.734,5.125 11.346,5.663 C10.95,6.206 10.751,6.813 10.751,7.484 L14.818,7.484 L14.818,7.484 Z" id="Shape"></path>
                <path d="M23.537,10.031 C23.527,10.61 23.548,11.208 23.6,11.825 L22.717,11.825 L22.717,10.468 L22.689,10.468 C22.623,10.634 22.531,10.801 22.414,10.971 C22.301,11.151 22.152,11.321 21.969,11.482 C21.785,11.633 21.558,11.752 21.284,11.839 C21.015,11.951 20.688,12.007 20.303,12.007 C19.408,11.997 18.764,11.717 18.368,11.168 C17.972,10.628 17.779,9.93 17.789,9.073 L17.789,4.205 L18.692,4.205 L18.692,8.837 C18.692,9.567 18.832,10.137 19.11,10.546 C19.383,10.984 19.83,11.204 20.448,11.204 C20.863,11.204 21.215,11.114 21.502,10.933 C21.795,10.763 22.017,10.544 22.168,10.276 C22.342,9.998 22.463,9.699 22.528,9.377 C22.599,9.061 22.634,8.742 22.634,8.42 L22.634,4.204 L23.537,4.204 L23.537,10.031 L23.537,10.031 Z" id="Shape"></path>
                <path d="M29.274,5.008 L27.595,5.008 L27.595,9.948 C27.595,10.299 27.672,10.594 27.828,10.832 C27.97,11.081 28.22,11.205 28.579,11.205 C28.909,11.205 29.19,11.144 29.421,11.022 L29.478,11.797 C29.371,11.836 29.22,11.879 29.027,11.927 C28.825,11.98 28.603,12.007 28.364,12.007 C27.968,12.007 27.656,11.936 27.426,11.795 C27.204,11.654 27.037,11.469 26.925,11.24 C26.826,11.002 26.763,10.734 26.735,10.437 C26.707,10.135 26.692,9.809 26.692,9.459 L26.692,5.007 L25.246,5.007 L25.246,4.205 L26.692,4.205 L26.692,2.366 L27.596,2.037 L27.596,4.204 L29.275,4.204 L29.275,5.008 L29.274,5.008 Z" id="Shape"></path>
                <path d="M30.512,10.723 C31.073,11.035 31.712,11.196 32.433,11.206 C32.889,11.206 33.275,11.082 33.59,10.833 C33.901,10.604 34.061,10.275 34.07,9.847 C34.06,9.394 33.882,9.038 33.533,8.78 C33.184,8.532 32.774,8.308 32.304,8.108 C32.082,8.001 31.87,7.886 31.668,7.764 C31.466,7.642 31.272,7.509 31.089,7.363 C30.924,7.202 30.787,7.017 30.679,6.807 C30.575,6.608 30.524,6.374 30.524,6.106 C30.534,5.346 30.783,4.808 31.272,4.491 C31.748,4.179 32.298,4.024 32.924,4.024 C33.136,4.024 33.411,4.043 33.75,4.082 C34.084,4.14 34.415,4.234 34.745,4.365 L34.66,5.184 C34.127,4.955 33.58,4.836 33.018,4.826 C32.546,4.826 32.171,4.914 31.893,5.089 C31.747,5.182 31.634,5.308 31.554,5.469 C31.469,5.625 31.426,5.834 31.426,6.097 C31.426,6.253 31.481,6.402 31.589,6.543 C31.693,6.674 31.831,6.793 32.006,6.901 C32.181,7.003 32.378,7.108 32.6,7.215 C32.822,7.318 33.038,7.427 33.25,7.544 C33.731,7.754 34.15,8.034 34.509,8.384 C34.867,8.735 35.051,9.219 35.061,9.838 C35.061,10.237 34.983,10.571 34.829,10.839 C34.664,11.116 34.457,11.34 34.208,11.511 C33.667,11.842 33.094,12.008 32.487,12.008 C31.777,12.008 31.09,11.887 30.427,11.647 L30.512,10.723 L30.512,10.723 Z" id="Shape"></path>
                <path d="M41.694,5.214 C41.171,4.965 40.643,4.836 40.11,4.826 C39.223,4.836 38.545,5.129 38.073,5.704 C37.578,6.294 37.331,7.065 37.331,8.016 C37.331,8.904 37.574,9.648 38.06,10.247 C38.532,10.876 39.182,11.196 40.012,11.205 C40.582,11.205 41.138,11.09 41.681,10.861 L41.765,11.739 C41.167,11.927 40.536,12.016 39.872,12.007 C38.685,11.983 37.802,11.579 37.223,10.796 C36.634,10.027 36.34,9.1 36.34,8.015 C36.35,6.808 36.686,5.848 37.35,5.132 C38.01,4.403 38.888,4.033 39.986,4.023 C40.438,4.023 40.814,4.057 41.116,4.124 C41.271,4.153 41.406,4.184 41.518,4.218 C41.626,4.257 41.709,4.29 41.765,4.319 L41.694,5.214 L41.694,5.214 Z" id="Shape"></path>
                <path d="M43.528,0.616 L44.431,0.616 L44.431,5.485 L44.459,5.485 C44.662,5.059 44.961,4.705 45.356,4.424 C45.752,4.167 46.217,4.034 46.754,4.025 C47.738,4.035 48.409,4.334 48.768,4.922 C49.117,5.521 49.286,6.301 49.276,7.265 L49.276,11.826 L48.373,11.826 L48.373,7.274 C48.373,6.938 48.354,6.619 48.316,6.317 C48.274,6.029 48.191,5.776 48.068,5.557 C47.838,5.079 47.353,4.836 46.618,4.826 C45.825,4.846 45.259,5.16 44.919,5.769 C44.584,6.378 44.421,7.035 44.431,7.742 L44.431,11.826 L43.528,11.826 L43.528,0.616 L43.528,0.616 Z" id="Shape"></path>
                <path d="M56.785,11.588 C56.093,11.858 55.379,11.998 54.643,12.007 C53.436,11.983 52.572,11.598 52.048,10.854 C51.529,10.125 51.275,9.178 51.284,8.015 C51.294,6.828 51.583,5.867 52.153,5.132 C52.704,4.403 53.451,4.033 54.393,4.023 C55.424,4.043 56.178,4.417 56.654,5.147 C57.106,5.862 57.333,6.748 57.333,7.803 L57.333,8.284 L52.275,8.284 C52.275,9.114 52.483,9.797 52.898,10.333 C53.303,10.904 53.908,11.194 54.71,11.204 C55.069,11.204 55.446,11.138 55.843,11.006 C56.239,10.899 56.554,10.775 56.784,10.633 L56.784,11.588 L56.785,11.588 Z M56.343,7.484 C56.343,6.784 56.201,6.172 55.918,5.648 C55.62,5.12 55.131,4.846 54.451,4.826 C53.785,4.846 53.259,5.125 52.871,5.663 C52.475,6.206 52.276,6.813 52.276,7.484 L56.343,7.484 L56.343,7.484 Z" id="Shape"></path>
                <path d="M0.317,19.332 L5.118,19.332 L5.118,20.222 L1.308,20.222 L1.308,23.952 L4.941,23.952 L4.941,24.841 L1.308,24.841 L1.308,29.761 L0.317,29.761 L0.317,19.332 L0.317,19.332 Z" id="Shape"></path>
                <path d="M6.411,25.951 C6.411,24.866 6.691,23.939 7.252,23.171 C7.808,22.383 8.674,21.979 9.852,21.959 C11.048,21.979 11.926,22.383 12.487,23.171 C13.029,23.94 13.3,24.866 13.3,25.951 C13.3,27.016 13.029,27.938 12.487,28.717 C11.926,29.51 11.049,29.919 9.852,29.944 C8.674,29.92 7.808,29.51 7.252,28.717 C6.691,27.938 6.411,27.017 6.411,25.951 L6.411,25.951 Z M7.402,25.951 C7.402,26.858 7.615,27.607 8.04,28.197 C8.446,28.816 9.052,29.132 9.855,29.14 C10.658,29.131 11.272,28.816 11.698,28.197 C12.104,27.607 12.307,26.858 12.307,25.951 C12.307,25.039 12.104,24.28 11.698,23.676 C11.272,23.076 10.658,22.772 9.855,22.762 C9.051,22.772 8.446,23.076 8.04,23.676 C7.615,24.28 7.402,25.039 7.402,25.951 L7.402,25.951 Z" id="Shape"></path>
                <path d="M15.293,23.842 C15.293,23.137 15.274,22.571 15.236,22.142 L16.14,22.142 L16.14,23.601 L16.167,23.601 C16.342,23.154 16.587,22.772 16.903,22.455 C17.214,22.135 17.6,21.969 18.062,21.959 C18.302,21.969 18.514,21.998 18.698,22.046 L18.698,23.025 C18.496,22.966 18.274,22.937 18.034,22.937 C17.676,22.947 17.381,23.037 17.15,23.208 C16.919,23.388 16.73,23.632 16.585,23.938 C16.447,24.24 16.351,24.564 16.295,24.91 C16.229,25.28 16.195,25.64 16.195,25.991 L16.195,29.762 L15.292,29.762 L15.292,23.842 L15.293,23.842 Z" id="Shape"></path>
                <path d="M19.703,28.658 C20.264,28.971 20.903,29.132 21.624,29.14 C22.08,29.14 22.466,29.016 22.781,28.768 C23.092,28.539 23.252,28.21 23.261,27.782 C23.251,27.329 23.073,26.973 22.724,26.716 C22.375,26.467 21.965,26.243 21.495,26.043 C21.273,25.937 21.061,25.821 20.859,25.7 C20.657,25.578 20.463,25.444 20.28,25.298 C20.115,25.138 19.978,24.952 19.87,24.743 C19.766,24.543 19.715,24.309 19.715,24.041 C19.725,23.281 19.974,22.743 20.463,22.427 C20.939,22.115 21.489,21.959 22.115,21.959 C22.327,21.959 22.602,21.979 22.941,22.018 C23.275,22.076 23.606,22.17 23.936,22.3 L23.851,23.119 C23.318,22.89 22.771,22.771 22.209,22.762 C21.737,22.762 21.362,22.849 21.084,23.025 C20.938,23.118 20.825,23.244 20.745,23.405 C20.66,23.561 20.617,23.77 20.617,24.033 C20.617,24.189 20.672,24.338 20.78,24.479 C20.884,24.611 21.022,24.73 21.197,24.836 C21.372,24.939 21.569,25.043 21.791,25.15 C22.013,25.253 22.229,25.362 22.441,25.479 C22.922,25.688 23.341,25.968 23.7,26.319 C24.059,26.67 24.242,27.155 24.252,27.773 C24.252,28.172 24.174,28.506 24.02,28.774 C23.855,29.051 23.648,29.276 23.399,29.446 C22.858,29.777 22.285,29.943 21.678,29.943 C20.968,29.943 20.281,29.823 19.618,29.582 L19.703,28.658 L19.703,28.658 Z" id="Shape"></path>
                <path d="M30.886,23.149 C30.363,22.9 29.835,22.771 29.302,22.761 C28.415,22.771 27.737,23.063 27.265,23.639 C26.77,24.229 26.523,24.999 26.523,25.951 C26.523,26.839 26.766,27.583 27.252,28.182 C27.724,28.811 28.374,29.131 29.204,29.14 C29.774,29.14 30.33,29.026 30.873,28.796 L30.957,29.675 C30.359,29.863 29.728,29.952 29.064,29.943 C27.877,29.919 26.994,29.514 26.415,28.731 C25.826,27.962 25.532,27.036 25.532,25.951 C25.542,24.745 25.878,23.784 26.542,23.068 C27.202,22.339 28.08,21.968 29.178,21.959 C29.63,21.959 30.006,21.993 30.308,22.061 C30.463,22.09 30.598,22.122 30.71,22.155 C30.818,22.194 30.901,22.227 30.957,22.257 L30.886,23.149 L30.886,23.149 Z" id="Shape"></path>
                <path d="M32.72,18.551 L33.623,18.551 L33.623,23.42 L33.651,23.42 C33.854,22.993 34.153,22.64 34.548,22.359 C34.944,22.102 35.409,21.968 35.946,21.959 C36.93,21.969 37.601,22.269 37.96,22.857 C38.309,23.455 38.478,24.236 38.468,25.199 L38.468,29.761 L37.565,29.761 L37.565,25.209 C37.565,24.873 37.546,24.554 37.508,24.252 C37.466,23.965 37.383,23.711 37.26,23.492 C37.03,23.014 36.545,22.771 35.81,22.762 C35.017,22.782 34.451,23.095 34.111,23.704 C33.776,24.312 33.613,24.971 33.623,25.677 L33.623,29.761 L32.72,29.761 L32.72,18.551 L32.72,18.551 Z" id="Shape"></path>
                <path d="M46.781,27.966 C46.771,28.545 46.792,29.144 46.844,29.761 L45.961,29.761 L45.961,28.405 L45.933,28.405 C45.867,28.57 45.775,28.738 45.658,28.908 C45.545,29.088 45.396,29.259 45.213,29.419 C45.029,29.569 44.802,29.689 44.528,29.776 C44.259,29.887 43.932,29.944 43.547,29.944 C42.652,29.934 42.008,29.654 41.612,29.104 C41.216,28.564 41.023,27.867 41.033,27.01 L41.033,22.142 L41.936,22.142 L41.936,26.774 C41.936,27.505 42.076,28.075 42.354,28.484 C42.627,28.922 43.074,29.141 43.692,29.141 C44.107,29.141 44.459,29.051 44.746,28.871 C45.039,28.7 45.261,28.481 45.412,28.213 C45.586,27.936 45.707,27.636 45.772,27.315 C45.843,26.999 45.878,26.679 45.878,26.358 L45.878,22.142 L46.781,22.142 L46.781,27.966 L46.781,27.966 Z" id="Shape"></path>
                <path d="M49.345,23.929 C49.345,23.346 49.326,22.75 49.288,22.142 L50.17,22.142 L50.17,23.498 L50.198,23.498 C50.282,23.318 50.384,23.139 50.501,22.959 C50.614,22.778 50.758,22.616 50.932,22.47 C51.116,22.31 51.341,22.183 51.61,22.091 C51.882,22.003 52.205,21.959 52.576,21.959 C53.484,21.969 54.136,22.249 54.53,22.799 C54.907,23.334 55.094,24.029 55.094,24.886 L55.094,29.761 L54.191,29.761 L54.191,25.121 C54.191,24.395 54.061,23.818 53.801,23.39 C53.518,22.981 53.063,22.772 52.436,22.762 C51.624,22.782 51.053,23.078 50.723,23.653 C50.553,23.926 50.433,24.221 50.362,24.538 C50.287,24.869 50.249,25.205 50.249,25.546 L50.249,29.762 L49.346,29.762 L49.346,23.929 L49.345,23.929 Z" id="Shape"></path>
                <path d="M63.493,29.134 C63.493,30.219 63.238,31.126 62.729,31.856 C62.197,32.59 61.299,32.967 60.038,32.987 C59.553,32.977 59.107,32.924 58.702,32.828 C58.306,32.725 58.007,32.646 57.805,32.588 L57.883,31.652 C58.491,31.988 59.216,32.166 60.056,32.185 C60.646,32.175 61.108,32.066 61.444,31.857 C61.793,31.658 62.049,31.378 62.215,31.019 C62.389,30.66 62.5,30.247 62.547,29.78 C62.586,29.313 62.605,28.811 62.605,28.271 L62.576,28.271 C62.054,29.284 61.306,29.781 60.336,29.761 C59.177,29.732 58.366,29.304 57.905,28.477 C57.66,28.097 57.49,27.689 57.395,27.25 C57.278,26.812 57.219,26.38 57.219,25.951 C57.209,24.764 57.447,23.808 57.933,23.083 C58.413,22.344 59.188,21.969 60.258,21.959 C60.742,21.959 61.169,22.015 61.536,22.126 C61.89,22.262 62.231,22.551 62.561,22.995 L62.589,22.995 L62.589,22.14 L63.492,22.142 L63.492,29.134 L63.493,29.134 Z M58.21,25.951 C58.199,26.731 58.362,27.415 58.698,28 C59.029,28.62 59.577,28.939 60.343,28.959 C61.165,28.939 61.748,28.61 62.094,27.971 C62.424,27.352 62.59,26.679 62.59,25.951 C62.59,25 62.436,24.234 62.129,23.654 C61.808,23.068 61.232,22.771 60.4,22.761 C59.965,22.761 59.611,22.856 59.337,23.046 C59.058,23.222 58.831,23.47 58.656,23.792 C58.5,24.09 58.385,24.429 58.308,24.809 C58.242,25.19 58.21,25.571 58.21,25.951 L58.21,25.951 Z" id="Shape"></path>
                <path d="M65.402,28.658 C65.963,28.971 66.602,29.132 67.323,29.14 C67.779,29.14 68.165,29.016 68.48,28.768 C68.791,28.539 68.951,28.21 68.96,27.782 C68.95,27.329 68.772,26.973 68.423,26.716 C68.074,26.467 67.664,26.243 67.194,26.043 C66.972,25.937 66.76,25.821 66.558,25.7 C66.356,25.578 66.162,25.444 65.979,25.298 C65.814,25.138 65.677,24.952 65.569,24.743 C65.465,24.543 65.414,24.309 65.414,24.041 C65.424,23.281 65.673,22.743 66.162,22.427 C66.638,22.115 67.188,21.959 67.814,21.959 C68.026,21.959 68.301,21.979 68.64,22.018 C68.974,22.076 69.305,22.17 69.635,22.3 L69.55,23.119 C69.017,22.89 68.47,22.771 67.908,22.762 C67.436,22.762 67.061,22.849 66.783,23.025 C66.637,23.118 66.524,23.244 66.444,23.405 C66.359,23.561 66.316,23.77 66.316,24.033 C66.316,24.189 66.371,24.338 66.479,24.479 C66.583,24.611 66.721,24.73 66.896,24.836 C67.071,24.939 67.268,25.043 67.49,25.15 C67.712,25.253 67.928,25.362 68.14,25.479 C68.621,25.688 69.04,25.968 69.399,26.319 C69.758,26.67 69.941,27.155 69.951,27.773 C69.951,28.172 69.873,28.506 69.719,28.774 C69.554,29.051 69.347,29.276 69.098,29.446 C68.557,29.777 67.984,29.943 67.377,29.943 C66.667,29.943 65.98,29.823 65.317,29.582 L65.402,28.658 L65.402,28.658 Z" id="Shape"></path>
                <path d="M77.622,29.134 C77.622,30.219 77.367,31.126 76.858,31.856 C76.326,32.59 75.428,32.967 74.167,32.987 C73.682,32.977 73.236,32.924 72.831,32.828 C72.435,32.725 72.136,32.646 71.934,32.588 L72.012,31.652 C72.62,31.988 73.345,32.166 74.185,32.185 C74.775,32.175 75.237,32.066 75.573,31.857 C75.922,31.658 76.178,31.378 76.344,31.019 C76.518,30.66 76.629,30.247 76.676,29.78 C76.715,29.313 76.734,28.811 76.734,28.271 L76.705,28.271 C76.183,29.284 75.435,29.781 74.465,29.761 C73.306,29.732 72.495,29.304 72.034,28.477 C71.789,28.097 71.619,27.689 71.524,27.25 C71.407,26.812 71.348,26.38 71.348,25.951 C71.338,24.764 71.576,23.808 72.062,23.083 C72.542,22.344 73.317,21.969 74.387,21.959 C74.871,21.959 75.298,22.015 75.665,22.126 C76.019,22.262 76.36,22.551 76.69,22.995 L76.718,22.995 L76.718,22.14 L77.621,22.142 L77.621,29.134 L77.622,29.134 Z M72.339,25.951 C72.328,26.731 72.491,27.415 72.827,28 C73.158,28.62 73.706,28.939 74.472,28.959 C75.294,28.939 75.877,28.61 76.223,27.971 C76.553,27.352 76.719,26.679 76.719,25.951 C76.719,25 76.565,24.234 76.258,23.654 C75.937,23.068 75.361,22.771 74.529,22.761 C74.094,22.761 73.74,22.856 73.466,23.046 C73.187,23.222 72.96,23.47 72.785,23.792 C72.629,24.09 72.514,24.429 72.437,24.809 C72.371,25.19 72.339,25.571 72.339,25.951 L72.339,25.951 Z" id="Shape"></path>
                <path d="M85.043,29.524 C84.351,29.794 83.637,29.933 82.901,29.943 C81.694,29.919 80.83,29.534 80.306,28.79 C79.787,28.061 79.533,27.114 79.542,25.951 C79.552,24.764 79.841,23.804 80.411,23.068 C80.962,22.339 81.709,21.968 82.651,21.959 C83.682,21.979 84.436,22.354 84.912,23.083 C85.364,23.798 85.591,24.684 85.591,25.739 L85.591,26.22 L80.533,26.22 C80.533,27.049 80.741,27.733 81.156,28.27 C81.561,28.84 82.166,29.131 82.968,29.14 C83.327,29.14 83.704,29.075 84.101,28.943 C84.497,28.836 84.812,28.712 85.042,28.57 L85.042,29.524 L85.043,29.524 Z M84.601,25.419 C84.601,24.72 84.459,24.107 84.176,23.584 C83.878,23.055 83.389,22.781 82.709,22.762 C82.043,22.782 81.517,23.06 81.129,23.599 C80.733,24.142 80.534,24.749 80.534,25.419 L84.601,25.419 L84.601,25.419 Z" id="Shape"></path>
                <path d="M96.627,29.761 L96.627,24.691 C96.627,24.409 96.607,24.148 96.568,23.909 C96.508,23.68 96.413,23.48 96.28,23.31 C96.162,23.134 95.998,22.996 95.786,22.893 C95.575,22.806 95.311,22.762 94.997,22.762 C94.467,22.762 93.994,22.981 93.582,23.419 C93.159,23.877 92.942,24.586 92.933,25.545 L92.933,29.761 L92.03,29.761 L92.03,24.691 C92.03,24.409 92.008,24.148 91.964,23.909 C91.905,23.68 91.809,23.48 91.677,23.31 C91.559,23.134 91.394,22.996 91.183,22.893 C90.971,22.806 90.708,22.762 90.394,22.762 C89.863,22.762 89.391,22.981 88.978,23.419 C88.555,23.877 88.339,24.586 88.33,25.545 L88.33,29.761 L87.425,29.761 L87.425,23.93 C87.425,23.346 87.406,22.75 87.368,22.142 L88.277,22.142 L88.277,23.427 L88.305,23.441 C88.373,23.3 88.468,23.145 88.589,22.974 C88.686,22.804 88.824,22.646 89.003,22.499 C89.183,22.349 89.405,22.217 89.672,22.105 C89.939,22.007 90.271,21.959 90.668,21.959 C90.848,21.959 91.042,21.979 91.25,22.018 C91.449,22.057 91.647,22.137 91.847,22.258 C92.045,22.369 92.22,22.529 92.37,22.737 C92.516,22.955 92.62,23.231 92.683,23.566 L92.712,23.566 C92.9,23.11 93.204,22.73 93.621,22.424 C94.028,22.123 94.534,21.968 95.141,21.958 C95.912,21.968 96.505,22.206 96.922,22.674 C97.329,23.136 97.533,23.749 97.533,24.513 L97.533,29.76 L96.627,29.76 L96.627,29.761 Z" id="Shape"></path>
                <path d="M104.966,29.524 C104.274,29.794 103.56,29.933 102.824,29.943 C101.617,29.919 100.753,29.534 100.229,28.79 C99.71,28.061 99.456,27.114 99.465,25.951 C99.475,24.764 99.764,23.804 100.334,23.068 C100.885,22.339 101.632,21.968 102.574,21.959 C103.605,21.979 104.359,22.354 104.835,23.083 C105.287,23.798 105.514,24.684 105.514,25.739 L105.514,26.22 L100.456,26.22 C100.456,27.049 100.664,27.733 101.079,28.27 C101.484,28.84 102.089,29.131 102.891,29.14 C103.25,29.14 103.627,29.075 104.024,28.943 C104.42,28.836 104.735,28.712 104.965,28.57 L104.965,29.524 L104.966,29.524 Z M104.523,25.419 C104.523,24.72 104.381,24.107 104.098,23.584 C103.8,23.055 103.311,22.781 102.631,22.762 C101.965,22.782 101.439,23.06 101.051,23.599 C100.655,24.142 100.456,24.749 100.456,25.419 L104.523,25.419 L104.523,25.419 Z" id="Shape"></path>
                <path d="M108.397,20.105 L107.494,20.105 L107.494,18.851 L108.397,18.851 L108.397,20.105 L108.397,20.105 Z M107.494,22.142 L108.397,22.142 L108.397,29.761 L107.494,29.761 L107.494,22.142 L107.494,22.142 Z" id="Shape"></path>
                <path d="M110.814,23.929 C110.814,23.346 110.795,22.75 110.757,22.142 L111.639,22.142 L111.639,23.498 L111.667,23.498 C111.751,23.318 111.853,23.139 111.97,22.959 C112.083,22.778 112.227,22.616 112.401,22.47 C112.585,22.31 112.81,22.183 113.079,22.091 C113.351,22.003 113.674,21.959 114.045,21.959 C114.953,21.969 115.605,22.249 115.999,22.799 C116.376,23.334 116.563,24.029 116.563,24.886 L116.563,29.761 L115.66,29.761 L115.66,25.121 C115.66,24.395 115.53,23.818 115.27,23.39 C114.987,22.981 114.532,22.772 113.905,22.762 C113.093,22.782 112.522,23.078 112.192,23.653 C112.022,23.926 111.902,24.221 111.831,24.538 C111.756,24.869 111.718,25.205 111.718,25.546 L111.718,29.762 L110.815,29.762 L110.815,23.929 L110.814,23.929 Z" id="Shape"></path>
                <path d="M118.561,28.658 C119.122,28.971 119.761,29.132 120.482,29.14 C120.938,29.14 121.324,29.016 121.639,28.768 C121.95,28.539 122.11,28.21 122.119,27.782 C122.109,27.329 121.931,26.973 121.582,26.716 C121.233,26.467 120.823,26.243 120.353,26.043 C120.131,25.937 119.919,25.821 119.717,25.7 C119.515,25.578 119.321,25.444 119.138,25.298 C118.973,25.138 118.836,24.952 118.728,24.743 C118.624,24.543 118.573,24.309 118.573,24.041 C118.583,23.281 118.832,22.743 119.321,22.427 C119.797,22.115 120.347,21.959 120.973,21.959 C121.185,21.959 121.46,21.979 121.799,22.018 C122.133,22.076 122.464,22.17 122.794,22.3 L122.709,23.119 C122.176,22.89 121.629,22.771 121.067,22.762 C120.595,22.762 120.22,22.849 119.942,23.025 C119.796,23.118 119.683,23.244 119.603,23.405 C119.518,23.561 119.475,23.77 119.475,24.033 C119.475,24.189 119.53,24.338 119.638,24.479 C119.742,24.611 119.88,24.73 120.055,24.836 C120.23,24.939 120.427,25.043 120.649,25.15 C120.871,25.253 121.087,25.362 121.299,25.479 C121.78,25.688 122.199,25.968 122.558,26.319 C122.917,26.67 123.1,27.155 123.11,27.773 C123.11,28.172 123.032,28.506 122.878,28.774 C122.713,29.051 122.506,29.276 122.257,29.446 C121.716,29.777 121.143,29.943 120.536,29.943 C119.826,29.943 119.139,29.823 118.476,29.582 L118.561,28.658 L118.561,28.658 Z" id="Shape"></path>
                <path d="M129.743,23.149 C129.22,22.9 128.692,22.771 128.159,22.761 C127.272,22.771 126.594,23.063 126.122,23.639 C125.627,24.229 125.38,24.999 125.38,25.951 C125.38,26.839 125.623,27.583 126.109,28.182 C126.581,28.811 127.231,29.131 128.061,29.14 C128.631,29.14 129.187,29.026 129.73,28.796 L129.814,29.675 C129.216,29.863 128.585,29.952 127.921,29.943 C126.734,29.919 125.851,29.514 125.272,28.731 C124.683,27.962 124.389,27.036 124.389,25.951 C124.399,24.745 124.735,23.784 125.399,23.068 C126.059,22.339 126.937,21.968 128.035,21.959 C128.487,21.959 128.863,21.993 129.165,22.061 C129.32,22.09 129.455,22.122 129.567,22.155 C129.675,22.194 129.758,22.227 129.814,22.257 L129.743,23.149 L129.743,23.149 Z" id="Shape"></path>
                <path d="M131.576,18.551 L132.479,18.551 L132.479,23.42 L132.507,23.42 C132.71,22.993 133.009,22.64 133.404,22.359 C133.8,22.102 134.265,21.968 134.802,21.959 C135.786,21.969 136.457,22.269 136.816,22.857 C137.165,23.455 137.334,24.236 137.324,25.199 L137.324,29.761 L136.421,29.761 L136.421,25.209 C136.421,24.873 136.402,24.554 136.364,24.252 C136.322,23.965 136.239,23.711 136.116,23.492 C135.886,23.014 135.401,22.771 134.666,22.762 C133.873,22.782 133.307,23.095 132.967,23.704 C132.632,24.312 132.469,24.971 132.479,25.677 L132.479,29.761 L131.576,29.761 L131.576,18.551 L131.576,18.551 Z" id="Shape"></path>
                <path d="M144.125,28.541 L144.097,28.541 C143.885,28.986 143.56,29.328 143.122,29.565 C142.688,29.807 142.231,29.933 141.751,29.943 C141.237,29.933 140.822,29.848 140.507,29.688 C140.177,29.538 139.925,29.348 139.751,29.12 C139.443,28.625 139.3,28.182 139.319,27.794 C139.319,27.157 139.467,26.655 139.764,26.286 C140.056,25.917 140.428,25.652 140.881,25.491 C141.333,25.326 141.825,25.217 142.358,25.164 C142.881,25.135 143.383,25.12 143.864,25.12 L144.041,25.12 L144.041,24.73 C144.07,23.417 143.509,22.761 142.356,22.761 C141.592,22.751 140.868,22.961 140.183,23.393 L140.183,22.479 C140.867,22.152 141.589,21.978 142.352,21.958 C144.099,21.939 144.963,22.885 144.944,24.797 L144.944,28.161 C144.929,28.74 144.955,29.273 145.02,29.76 L144.124,29.76 L144.124,28.541 L144.125,28.541 Z M144.041,25.921 L143.779,25.921 C143.383,25.921 142.986,25.932 142.59,25.951 C142.175,25.989 141.797,26.075 141.457,26.207 C141.117,26.324 140.846,26.507 140.644,26.756 C140.421,27.01 140.311,27.346 140.311,27.766 C140.311,28.253 140.466,28.603 140.778,28.812 C141.066,29.032 141.423,29.141 141.847,29.141 C142.38,29.141 142.8,29.032 143.107,28.812 C143.41,28.603 143.628,28.354 143.765,28.066 C143.907,27.753 143.988,27.449 144.006,27.151 C144.029,26.839 144.041,26.583 144.041,26.383 L144.041,25.921 L144.041,25.921 Z" id="Shape"></path>
                <path d="M147.982,22.944 L146.492,22.944 L146.492,22.141 L147.982,22.141 L147.982,21.586 C147.982,21.178 148.001,20.778 148.039,20.39 C148.058,20.01 148.131,19.672 148.258,19.375 C148.38,19.063 148.577,18.818 148.851,18.638 C149.109,18.463 149.469,18.375 149.93,18.375 C150.085,18.375 150.244,18.38 150.409,18.39 C150.574,18.419 150.698,18.463 150.783,18.521 L150.726,19.345 C150.523,19.234 150.283,19.177 150.004,19.177 C149.701,19.177 149.473,19.248 149.317,19.389 C149.151,19.55 149.041,19.744 148.984,19.973 C148.927,20.202 148.899,20.446 148.899,20.703 C148.889,20.971 148.884,21.228 148.884,21.476 L148.884,22.14 L150.548,22.14 L150.548,22.943 L148.884,22.943 L148.884,29.759 L147.981,29.759 L147.981,22.944 L147.982,22.944 Z" id="Shape"></path>
                <path d="M155.513,22.944 L153.834,22.944 L153.834,27.883 C153.834,28.235 153.911,28.529 154.067,28.768 C154.209,29.016 154.459,29.14 154.818,29.14 C155.148,29.14 155.429,29.079 155.66,28.957 L155.717,29.732 C155.61,29.771 155.459,29.814 155.266,29.862 C155.064,29.916 154.842,29.942 154.603,29.942 C154.207,29.942 153.895,29.872 153.665,29.73 C153.443,29.589 153.276,29.404 153.164,29.175 C153.065,28.937 153.002,28.669 152.974,28.372 C152.946,28.07 152.931,27.744 152.931,27.394 L152.931,22.942 L151.485,22.942 L151.485,22.139 L152.931,22.139 L152.931,20.3 L153.835,19.972 L153.835,22.139 L155.514,22.139 L155.514,22.944 L155.513,22.944 Z" id="Shape"></path>
            </g>
        </g>
    </g>
</svg>