<?xml version="1.0" encoding="UTF-8" standalone="no"?>
<svg width="205px" height="28px" viewBox="0 0 205 28" version="1.1" xmlns="http://www.w3.org/2000/svg" xmlns:xlink="http://www.w3.org/1999/xlink" xmlns:sketch="http://www.bohemiancoding.com/sketch/ns">
    <!-- Generator: Sketch 3.2.2 (9983) - http://www.bohemiancoding.com/sketch -->
    <title>HRK</title>
    <desc>Created with Sketch.</desc>
    <defs></defs>
    <g id="Page-1" stroke="none" stroke-width="1" fill="none" fill-rule="evenodd" sketch:type="MSPage">
        <g id="HRK" sketch:type="MSLayerGroup">
            <g id="Group" sketch:type="MSShapeGroup">
                <path d="M40.684,24.194 C40.684,21.978 39.592,20.687 37.314,20.687 L36.023,20.687 L36.023,27.69 L37.503,27.69 C39.634,27.69 40.684,26.252 40.684,24.194 L40.684,24.194 L40.684,24.194 Z M39.665,24.194 C39.665,25.632 39.151,26.882 37.565,26.882 L36.998,26.882 L36.998,21.486 L37.45,21.486 C39.119,21.485 39.665,22.683 39.665,24.194 L39.665,24.194 L39.665,24.194 Z" id="Shape" fill="#000000"></path>
                <path d="M42.825,21.37 L42.825,20.362 L41.901,20.362 L41.901,21.37 L42.825,21.37 L42.825,21.37 Z M42.814,27.69 L42.814,22.441 L41.911,22.441 L41.911,27.69 L42.814,27.69 L42.814,27.69 Z" id="Shape" fill="#000000"></path>
                <path d="M47.693,25.296 L47.693,24.961 C47.693,23.774 47.315,22.336 45.877,22.336 C44.492,22.336 43.935,23.753 43.935,25.044 C43.935,26.514 44.492,27.806 46.129,27.806 C46.581,27.806 47.106,27.701 47.515,27.512 L47.452,26.703 C47.106,26.934 46.634,27.101 46.213,27.101 C45.163,27.101 44.859,26.157 44.859,25.295 L47.693,25.295 L47.693,25.296 L47.693,25.296 Z M46.811,24.688 L44.858,24.688 C44.858,24.016 45.131,23.019 45.876,23.019 C46.643,23.019 46.811,24.047 46.811,24.688 L46.811,24.688 L46.811,24.688 Z" id="Shape" fill="#000000"></path>
                <path d="M54.708,25.779 C54.708,24.834 54.362,24.435 53.448,23.847 L52.839,23.458 C52.367,23.154 52.073,22.881 52.073,22.324 C52.073,21.632 52.703,21.369 53.154,21.369 C53.658,21.369 54.057,21.537 54.383,21.725 L54.446,20.812 C54.162,20.739 53.7,20.582 53.113,20.582 C52.441,20.582 51.066,20.918 51.066,22.398 C51.066,23.196 51.391,23.71 52.137,24.193 L52.767,24.602 C53.323,24.969 53.701,25.201 53.701,25.893 C53.701,26.229 53.523,27.006 52.515,27.006 C52.221,27.006 51.622,26.922 51.14,26.544 L51.077,27.479 C51.487,27.699 52.169,27.804 52.641,27.804 C53.816,27.806 54.708,26.986 54.708,25.779 L54.708,25.779 L54.708,25.779 Z" id="Shape" fill="#000000"></path>
                <path d="M57.951,27.658 L57.888,26.902 C57.731,26.986 57.584,27.049 57.416,27.049 C56.923,27.049 56.891,26.734 56.891,26.324 L56.891,23.164 L57.91,23.164 L57.91,22.44 L56.891,22.44 L56.891,20.991 L55.998,21.285 L55.998,22.44 L55.232,22.44 L55.232,23.164 L55.988,23.164 L55.988,26.545 C55.988,27.29 56.303,27.805 57.112,27.805 C57.374,27.806 57.688,27.753 57.951,27.658 L57.951,27.658 L57.951,27.658 Z" id="Shape" fill="#000000"></path>
                <path d="M59.777,21.37 L59.777,20.362 L58.853,20.362 L58.853,21.37 L59.777,21.37 L59.777,21.37 Z M59.767,27.69 L59.767,22.441 L58.864,22.441 L58.864,27.69 L59.767,27.69 L59.767,27.69 Z" id="Shape" fill="#000000"></path>
                <path d="M67.186,27.69 L67.186,24.057 C67.186,23.028 66.808,22.335 65.821,22.335 C65.254,22.335 64.834,22.682 64.519,23.206 C64.309,22.65 63.91,22.335 63.28,22.335 C62.703,22.335 62.251,22.702 62.009,23.206 L61.978,22.44 L61.138,22.44 C61.149,22.912 61.18,23.416 61.18,23.888 L61.18,27.689 L62.083,27.689 L62.083,24.361 C62.083,23.815 62.409,23.08 62.986,23.08 C63.627,23.08 63.732,23.637 63.732,24.151 L63.732,27.689 L64.624,27.689 L64.624,24.361 C64.624,23.815 64.95,23.08 65.537,23.08 C66.178,23.08 66.283,23.637 66.283,24.151 L66.283,27.689 L67.186,27.689 L67.186,27.69 L67.186,27.69 Z" id="Shape" fill="#000000"></path>
                <path d="M74.605,27.69 L74.605,24.057 C74.605,23.028 74.227,22.335 73.24,22.335 C72.673,22.335 72.253,22.682 71.938,23.206 C71.728,22.65 71.329,22.335 70.699,22.335 C70.121,22.335 69.67,22.702 69.428,23.206 L69.397,22.44 L68.557,22.44 C68.568,22.912 68.599,23.416 68.599,23.888 L68.599,27.689 L69.502,27.689 L69.502,24.361 C69.502,23.815 69.827,23.08 70.405,23.08 C71.045,23.08 71.15,23.637 71.15,24.151 L71.15,27.689 L72.043,27.689 L72.043,24.361 C72.043,23.815 72.368,23.08 72.957,23.08 C73.597,23.08 73.702,23.637 73.702,24.151 L73.702,27.689 L74.605,27.689 L74.605,27.69 L74.605,27.69 Z" id="Shape" fill="#000000"></path>
                <path d="M79.485,25.296 L79.485,24.961 C79.485,23.774 79.107,22.336 77.669,22.336 C76.283,22.336 75.727,23.753 75.727,25.044 C75.727,26.514 76.283,27.806 77.921,27.806 C78.373,27.806 78.898,27.701 79.307,27.512 L79.244,26.703 C78.898,26.934 78.425,27.101 78.005,27.101 C76.955,27.101 76.651,26.157 76.651,25.295 L79.485,25.295 L79.485,25.296 L79.485,25.296 Z M78.603,24.688 L76.65,24.688 C76.65,24.016 76.923,23.019 77.668,23.019 C78.435,23.019 78.603,24.047 78.603,24.688 L78.603,24.688 L78.603,24.688 Z" id="Shape" fill="#000000"></path>
                <path d="M86.784,27.69 C86.752,27.154 86.752,26.776 86.752,26.241 L86.752,20.121 L85.839,20.121 L85.839,23.176 C85.566,22.694 85.188,22.336 84.547,22.336 C83.13,22.336 82.773,23.911 82.773,25.044 C82.773,26.157 83.151,27.806 84.547,27.806 C85.198,27.806 85.639,27.417 85.891,26.924 L85.923,27.691 L86.784,27.691 L86.784,27.69 L86.784,27.69 Z M85.86,25.044 C85.86,25.821 85.734,27.07 84.778,27.07 C83.875,27.07 83.738,25.706 83.738,25.044 C83.738,24.362 83.854,23.07 84.778,23.07 C85.692,23.07 85.86,24.278 85.86,25.044 L85.86,25.044 L85.86,25.044 Z" id="Shape" fill="#000000"></path>
                <path d="M91.631,25.296 L91.631,24.961 C91.631,23.774 91.253,22.336 89.815,22.336 C88.429,22.336 87.873,23.753 87.873,25.044 C87.873,26.514 88.429,27.806 90.067,27.806 C90.519,27.806 91.044,27.701 91.453,27.512 L91.39,26.703 C91.044,26.934 90.571,27.101 90.151,27.101 C89.101,27.101 88.797,26.157 88.797,25.295 L91.631,25.295 L91.631,25.296 L91.631,25.296 Z M90.75,24.688 L88.797,24.688 C88.797,24.016 89.07,23.019 89.815,23.019 C90.582,23.019 90.75,24.047 90.75,24.688 L90.75,24.688 L90.75,24.688 Z" id="Shape" fill="#000000"></path>
                <path d="M95.05,22.367 C94.976,22.357 94.903,22.336 94.829,22.336 C94.23,22.336 93.79,22.745 93.548,23.271 L93.527,22.442 L92.687,22.442 C92.698,22.924 92.729,23.408 92.729,23.89 L92.729,27.691 L93.632,27.691 L93.632,24.751 C93.632,24.079 93.937,23.208 94.724,23.208 C94.819,23.208 94.902,23.229 94.987,23.239 L95.05,22.367 L95.05,22.367 Z" id="Shape" fill="#000000"></path>
                <path d="M102.791,27.69 L102.791,20.688 L101.815,20.688 L101.815,23.648 L99.505,23.648 L99.505,20.688 L98.529,20.688 L98.529,27.69 L99.505,27.69 L99.505,24.467 L101.815,24.467 L101.815,27.69 L102.791,27.69 L102.791,27.69 Z" id="Shape" fill="#000000"></path>
                <path d="M108.206,25.044 C108.206,23.701 107.691,22.336 106.128,22.336 C104.679,22.336 104.049,23.753 104.049,25.044 C104.049,26.378 104.595,27.806 106.128,27.806 C107.649,27.806 108.206,26.346 108.206,25.044 L108.206,25.044 L108.206,25.044 Z M107.24,25.044 C107.24,25.769 107.083,27.07 106.128,27.07 C105.162,27.07 105.015,25.779 105.015,25.044 C105.015,24.341 105.194,23.07 106.128,23.07 C107.114,23.07 107.24,24.299 107.24,25.044 L107.24,25.044 L107.24,25.044 Z" id="Shape" fill="#000000"></path>
                <path d="M112.37,27.596 L112.307,26.766 C112.077,26.913 111.741,27.039 111.457,27.039 C110.365,27.039 110.008,25.978 110.008,25.044 C110.008,24.163 110.376,23.103 111.394,23.103 C111.699,23.103 112.024,23.176 112.276,23.344 L112.339,22.546 C112.003,22.409 111.656,22.336 111.299,22.336 C109.924,22.336 109.042,23.501 109.042,25.044 C109.042,26.462 109.693,27.806 111.268,27.806 C111.646,27.806 112.014,27.722 112.37,27.596 L112.37,27.596 L112.37,27.596 Z" id="Shape" fill="#000000"></path>
                <path d="M117.008,27.69 L117.008,24.078 C117.008,23.134 116.63,22.336 115.57,22.336 C115.004,22.336 114.5,22.725 114.29,23.207 L114.29,20.121 L113.387,20.121 L113.387,27.69 L114.29,27.69 L114.29,24.424 C114.29,23.858 114.615,23.08 115.287,23.08 C115.886,23.08 116.106,23.573 116.106,24.13 L116.106,27.69 L117.008,27.69 L117.008,27.69 L117.008,27.69 Z" id="Shape" fill="#000000"></path>
                <path d="M121.227,26.241 C121.227,24.625 119.065,24.877 119.065,23.753 C119.065,23.322 119.485,23.07 119.883,23.07 C120.251,23.07 120.545,23.175 120.891,23.312 L120.954,22.524 C120.597,22.409 120.198,22.336 119.841,22.336 C119.012,22.336 118.13,22.829 118.13,23.806 C118.13,25.433 120.293,25.254 120.293,26.336 C120.293,26.787 119.852,27.07 119.453,27.07 C119.012,27.07 118.57,26.924 118.161,26.703 L118.077,27.554 C118.55,27.722 119.043,27.806 119.557,27.806 C120.513,27.806 121.227,27.218 121.227,26.241 L121.227,26.241 L121.227,26.241 Z" id="Shape" fill="#000000"></path>
                <path d="M125.31,27.596 L125.247,26.766 C125.016,26.913 124.68,27.039 124.396,27.039 C123.304,27.039 122.947,25.978 122.947,25.044 C122.947,24.163 123.315,23.103 124.333,23.103 C124.638,23.103 124.963,23.176 125.215,23.344 L125.278,22.546 C124.942,22.409 124.595,22.336 124.239,22.336 C122.863,22.336 121.981,23.501 121.981,25.044 C121.981,26.462 122.632,27.806 124.207,27.806 C124.585,27.806 124.953,27.722 125.31,27.596 L125.31,27.596 L125.31,27.596 Z" id="Shape" fill="#000000"></path>
                <path d="M129.947,27.69 L129.947,24.078 C129.947,23.134 129.569,22.336 128.509,22.336 C127.942,22.336 127.438,22.725 127.228,23.207 L127.228,20.121 L126.326,20.121 L126.326,27.69 L127.228,27.69 L127.228,24.424 C127.228,23.858 127.553,23.08 128.225,23.08 C128.824,23.08 129.044,23.573 129.044,24.13 L129.044,27.69 L129.947,27.69 L129.947,27.69 L129.947,27.69 Z" id="Shape" fill="#000000"></path>
                <path d="M134.996,27.69 C134.985,27.207 134.954,26.724 134.954,26.241 L134.954,22.441 L134.051,22.441 L134.051,25.757 C134.051,26.324 133.746,27.049 133.065,27.049 C132.456,27.049 132.246,26.534 132.246,25.978 L132.246,22.441 L131.344,22.441 L131.344,26.009 C131.344,26.965 131.711,27.805 132.782,27.805 C133.423,27.805 133.895,27.416 134.136,26.934 L134.157,27.69 L134.996,27.69 L134.996,27.69 L134.996,27.69 Z" id="Shape" fill="#000000"></path>
                <path d="M137.27,27.69 L137.27,20.121 L136.367,20.121 L136.367,27.69 L137.27,27.69 L137.27,27.69 Z" id="Shape" fill="#000000"></path>
                <path d="M142.148,25.296 L142.148,24.961 C142.148,23.774 141.77,22.336 140.332,22.336 C138.947,22.336 138.391,23.753 138.391,25.044 C138.391,26.514 138.948,27.806 140.584,27.806 C141.036,27.806 141.561,27.701 141.971,27.512 L141.908,26.703 C141.561,26.934 141.089,27.101 140.669,27.101 C139.619,27.101 139.315,26.157 139.315,25.295 L142.148,25.295 L142.148,25.296 L142.148,25.296 Z M141.267,24.688 L139.315,24.688 C139.315,24.016 139.587,23.019 140.333,23.019 C141.099,23.019 141.267,24.047 141.267,24.688 L141.267,24.688 L141.267,24.688 Z" id="Shape" fill="#000000"></path>
                <path d="M146.879,27.69 L146.879,24.121 C146.879,23.165 146.501,22.336 145.431,22.336 C144.79,22.336 144.308,22.725 144.066,23.207 L144.045,22.441 L143.205,22.441 C143.216,22.923 143.247,23.407 143.247,23.889 L143.247,27.69 L144.149,27.69 L144.149,24.373 C144.149,23.806 144.464,23.081 145.146,23.081 C145.755,23.081 145.976,23.596 145.976,24.152 L145.976,27.69 L146.879,27.69 L146.879,27.69 L146.879,27.69 Z" id="Shape" fill="#000000"></path>
                <path d="M7.516,11.69 L7.516,1.024 L4.958,1.024 L4.958,5.214 L2.543,5.214 L2.543,1.024 L0,1.024 L0,11.69 L2.543,11.69 L2.543,7.212 L4.958,7.212 L4.958,11.69 L7.516,11.69 L7.516,11.69 Z" id="Shape" fill="#B10A30"></path>
                <path d="M17.43,11.69 L16.311,8.06 C15.991,7.02 15.623,6.588 14.856,6.381 C16.231,6.11 16.982,5.15 16.982,3.758 C16.982,1.903 15.415,1.024 13.688,1.024 L9.77,1.024 L9.77,11.69 L12.281,11.69 L12.281,7.42 L12.793,7.42 C13.321,7.42 13.641,7.709 13.88,8.571 L14.728,11.69 L17.43,11.69 L17.43,11.69 L17.43,11.69 Z M14.408,4.19 C14.408,5.038 13.88,5.549 12.969,5.549 L12.265,5.549 L12.265,2.878 L12.953,2.878 C13.833,2.878 14.408,3.279 14.408,4.19 L14.408,4.19 L14.408,4.19 Z" id="Shape" fill="#B10A30"></path>
                <path d="M27.14,11.69 L23.67,5.997 L26.852,1.024 L23.958,1.024 L21.479,5.501 L21.479,1.024 L18.937,1.024 L18.937,11.69 L21.479,11.69 L21.479,6.781 L24.086,11.69 L27.14,11.69 L27.14,11.69 Z" id="Shape" fill="#B10A30"></path>
                <path d="M42.567,11.69 L42.567,1.024 L41.08,1.024 L41.08,5.533 L37.562,5.533 L37.562,1.024 L36.074,1.024 L36.074,11.69 L37.562,11.69 L37.562,6.781 L41.08,6.781 L41.08,11.69 L42.567,11.69 L42.567,11.69 Z" id="Shape" fill="#000000"></path>
                <path d="M50.818,7.66 C50.818,5.613 50.034,3.534 47.651,3.534 C45.444,3.534 44.485,5.693 44.485,7.66 C44.485,9.691 45.317,11.866 47.651,11.866 C49.971,11.866 50.818,9.643 50.818,7.66 L50.818,7.66 L50.818,7.66 Z M49.347,7.66 C49.347,8.764 49.107,10.746 47.652,10.746 C46.181,10.746 45.957,8.779 45.957,7.66 C45.957,6.588 46.229,4.654 47.652,4.654 C49.155,4.654 49.347,6.525 49.347,7.66 L49.347,7.66 L49.347,7.66 Z" id="Shape" fill="#000000"></path>
                <path d="M57.164,11.546 L57.068,10.282 C56.716,10.506 56.205,10.698 55.773,10.698 C54.11,10.698 53.566,9.083 53.566,7.66 C53.566,6.317 54.126,4.702 55.677,4.702 C56.141,4.702 56.636,4.814 57.02,5.07 L57.116,3.855 C56.604,3.647 56.077,3.535 55.533,3.535 C53.438,3.535 52.095,5.31 52.095,7.661 C52.095,9.82 53.086,11.867 55.485,11.867 C56.061,11.866 56.62,11.738 57.164,11.546 L57.164,11.546 L57.164,11.546 Z" id="Shape" fill="#000000"></path>
                <path d="M64.23,11.69 L64.23,6.189 C64.23,4.75 63.655,3.534 62.04,3.534 C61.176,3.534 60.409,4.126 60.089,4.862 L60.089,0.16 L58.714,0.16 L58.714,11.69 L60.089,11.69 L60.089,6.716 C60.089,5.853 60.585,4.67 61.609,4.67 C62.52,4.67 62.856,5.421 62.856,6.269 L62.856,11.69 L64.23,11.69 L64.23,11.69 Z" id="Shape" fill="#000000"></path>
                <path d="M70.66,9.483 C70.66,7.021 67.366,7.404 67.366,5.693 C67.366,5.037 68.006,4.653 68.614,4.653 C69.174,4.653 69.621,4.813 70.149,5.021 L70.245,3.822 C69.701,3.646 69.094,3.534 68.55,3.534 C67.287,3.534 65.944,4.286 65.944,5.773 C65.944,8.252 69.238,7.98 69.238,9.627 C69.238,10.315 68.566,10.746 67.959,10.746 C67.287,10.746 66.616,10.522 65.992,10.187 L65.864,11.482 C66.584,11.738 67.336,11.866 68.119,11.866 C69.573,11.866 70.66,10.97 70.66,9.483 L70.66,9.483 L70.66,9.483 Z" id="Shape" fill="#000000"></path>
                <path d="M76.881,11.546 L76.785,10.282 C76.433,10.506 75.922,10.698 75.49,10.698 C73.827,10.698 73.283,9.083 73.283,7.66 C73.283,6.317 73.843,4.702 75.394,4.702 C75.858,4.702 76.353,4.814 76.737,5.07 L76.833,3.855 C76.321,3.647 75.794,3.535 75.25,3.535 C73.155,3.535 71.812,5.31 71.812,7.661 C71.812,9.82 72.803,11.867 75.202,11.867 C75.778,11.866 76.337,11.738 76.881,11.546 L76.881,11.546 L76.881,11.546 Z" id="Shape" fill="#000000"></path>
                <path d="M83.948,11.69 L83.948,6.189 C83.948,4.75 83.372,3.534 81.757,3.534 C80.893,3.534 80.126,4.126 79.806,4.862 L79.806,0.16 L78.431,0.16 L78.431,11.69 L79.806,11.69 L79.806,6.716 C79.806,5.853 80.302,4.67 81.325,4.67 C82.237,4.67 82.573,5.421 82.573,6.269 L82.573,11.69 L83.948,11.69 L83.948,11.69 Z" id="Shape" fill="#000000"></path>
                <path d="M91.641,11.69 C91.625,10.955 91.577,10.219 91.577,9.483 L91.577,3.694 L90.202,3.694 L90.202,8.747 C90.202,9.61 89.738,10.714 88.699,10.714 C87.771,10.714 87.451,9.93 87.451,9.083 L87.451,3.694 L86.076,3.694 L86.076,9.131 C86.076,10.586 86.636,11.865 88.267,11.865 C89.242,11.865 89.962,11.273 90.33,10.538 L90.362,11.689 L91.641,11.689 L91.641,11.69 L91.641,11.69 Z" id="Shape" fill="#000000"></path>
                <path d="M95.107,11.69 L95.107,0.16 L93.732,0.16 L93.732,11.69 L95.107,11.69 L95.107,11.69 Z" id="Shape" fill="#000000"></path>
                <path d="M100.797,3.583 C100.685,3.567 100.573,3.535 100.462,3.535 C99.55,3.535 98.879,4.159 98.511,4.958 L98.479,3.695 L97.2,3.695 C97.216,4.43 97.264,5.166 97.264,5.902 L97.264,11.691 L98.639,11.691 L98.639,7.213 C98.639,6.19 99.103,4.862 100.302,4.862 C100.446,4.862 100.574,4.894 100.702,4.91 L100.797,3.583 L100.797,3.583 Z" id="Shape" fill="#000000"></path>
                <path d="M107.191,8.044 L107.191,7.532 C107.191,5.725 106.616,3.534 104.424,3.534 C102.314,3.534 101.466,5.693 101.466,7.66 C101.466,9.899 102.314,11.866 104.808,11.866 C105.496,11.866 106.295,11.706 106.919,11.418 L106.823,10.187 C106.295,10.539 105.575,10.794 104.935,10.794 C103.336,10.794 102.872,9.355 102.872,8.044 L107.191,8.044 L107.191,8.044 L107.191,8.044 Z M105.849,7.117 L102.874,7.117 C102.874,6.093 103.29,4.574 104.425,4.574 C105.593,4.574 105.849,6.141 105.849,7.117 L105.849,7.117 L105.849,7.117 Z" id="Shape" fill="#000000"></path>
                <path d="M114.544,11.69 L111.474,7.244 L114.288,3.694 L112.705,3.694 L110.242,6.973 L110.242,0.16 L108.867,0.16 L108.867,11.69 L110.242,11.69 L110.242,7.581 L112.945,11.69 L114.544,11.69 L114.544,11.69 Z" id="Shape" fill="#000000"></path>
                <path d="M119.068,11.642 L118.972,10.491 C118.732,10.619 118.508,10.715 118.252,10.715 C117.5,10.715 117.452,10.236 117.452,9.611 L117.452,4.798 L119.003,4.798 L119.003,3.694 L117.452,3.694 L117.452,1.487 L116.093,1.935 L116.093,3.694 L114.926,3.694 L114.926,4.798 L116.077,4.798 L116.077,9.947 C116.077,11.082 116.556,11.865 117.788,11.865 C118.188,11.866 118.668,11.786 119.068,11.642 L119.068,11.642 L119.068,11.642 Z" id="Shape" fill="#000000"></path>
                <path d="M126.345,7.66 C126.345,5.613 125.561,3.534 123.179,3.534 C120.972,3.534 120.012,5.693 120.012,7.66 C120.012,9.691 120.844,11.866 123.179,11.866 C125.497,11.866 126.345,9.643 126.345,7.66 L126.345,7.66 L126.345,7.66 Z M124.873,7.66 C124.873,8.764 124.634,10.746 123.179,10.746 C121.707,10.746 121.484,8.779 121.484,7.66 C121.484,6.588 121.755,4.654 123.179,4.654 C124.682,4.654 124.873,6.525 124.873,7.66 L124.873,7.66 L124.873,7.66 Z" id="Shape" fill="#000000"></path>
                <path d="M131.603,3.583 C131.492,3.567 131.379,3.535 131.267,3.535 C130.356,3.535 129.684,4.159 129.317,4.958 L129.285,3.695 L128.006,3.695 C128.022,4.43 128.069,5.166 128.069,5.902 L128.069,11.691 L129.445,11.691 L129.445,7.213 C129.445,6.19 129.909,4.862 131.108,4.862 C131.252,4.862 131.379,4.894 131.507,4.91 L131.603,3.583 L131.603,3.583 Z" id="Shape" fill="#000000"></path>
                <path d="M137.997,8.044 L137.997,7.532 C137.997,5.725 137.422,3.534 135.23,3.534 C133.12,3.534 132.272,5.693 132.272,7.66 C132.272,9.899 133.12,11.866 135.614,11.866 C136.302,11.866 137.101,11.706 137.725,11.418 L137.628,10.187 C137.101,10.539 136.381,10.794 135.741,10.794 C134.142,10.794 133.678,9.355 133.678,8.044 L137.997,8.044 L137.997,8.044 L137.997,8.044 Z M136.654,7.117 L133.679,7.117 C133.679,6.093 134.095,4.574 135.23,4.574 C136.398,4.574 136.654,6.141 136.654,7.117 L136.654,7.117 L136.654,7.117 Z" id="Shape" fill="#000000"></path>
                <path d="M145.206,11.69 L145.206,6.253 C145.206,4.798 144.63,3.534 142.999,3.534 C142.023,3.534 141.288,4.126 140.92,4.862 L140.888,3.695 L139.61,3.695 C139.626,4.43 139.673,5.166 139.673,5.902 L139.673,11.691 L141.048,11.691 L141.048,6.638 C141.048,5.774 141.527,4.671 142.568,4.671 C143.495,4.671 143.831,5.455 143.831,6.302 L143.831,11.691 L145.206,11.691 L145.206,11.69 L145.206,11.69 Z" id="Shape" fill="#000000"></path>
                <path d="M153.042,11.69 L149.972,7.244 L152.786,3.694 L151.203,3.694 L148.74,6.973 L148.74,0.16 L147.365,0.16 L147.365,11.69 L148.74,11.69 L148.74,7.581 L151.442,11.69 L153.042,11.69 L153.042,11.69 Z" id="Shape" fill="#000000"></path>
                <path d="M160.108,7.66 C160.108,5.613 159.325,3.534 156.942,3.534 C154.735,3.534 153.776,5.693 153.776,7.66 C153.776,9.691 154.607,11.866 156.942,11.866 C159.261,11.866 160.108,9.643 160.108,7.66 L160.108,7.66 L160.108,7.66 Z M158.638,7.66 C158.638,8.764 158.398,10.746 156.943,10.746 C155.471,10.746 155.248,8.779 155.248,7.66 C155.248,6.588 155.519,4.654 156.943,4.654 C158.445,4.654 158.638,6.525 158.638,7.66 L158.638,7.66 L158.638,7.66 Z" id="Shape" fill="#000000"></path>
                <path d="M167.365,11.69 L167.365,6.253 C167.365,4.798 166.79,3.534 165.159,3.534 C164.183,3.534 163.448,4.126 163.08,4.862 L163.048,3.695 L161.769,3.695 C161.786,4.43 161.833,5.166 161.833,5.902 L161.833,11.691 L163.208,11.691 L163.208,6.638 C163.208,5.774 163.687,4.671 164.728,4.671 C165.655,4.671 165.991,5.455 165.991,6.302 L165.991,11.691 L167.365,11.691 L167.365,11.69 L167.365,11.69 Z" id="Shape" fill="#000000"></path>
                <path d="M172.995,0.145 C172.755,0.097 172.467,0 172.019,0 C170.675,0 169.956,0.656 169.956,2.303 L169.956,3.694 L168.709,3.694 L168.709,4.798 L169.956,4.798 L169.956,11.69 L171.332,11.69 L171.332,4.798 L172.739,4.798 L172.739,3.694 L171.332,3.694 L171.332,2.319 C171.332,1.551 171.619,1.119 172.308,1.119 C172.516,1.119 172.723,1.151 172.9,1.231 L172.995,0.145 L172.995,0.145 Z" id="Shape" fill="#000000"></path>
                <path d="M179.291,8.044 L179.291,7.532 C179.291,5.725 178.716,3.534 176.524,3.534 C174.414,3.534 173.566,5.693 173.566,7.66 C173.566,9.899 174.414,11.866 176.908,11.866 C177.596,11.866 178.395,11.706 179.019,11.418 L178.923,10.187 C178.395,10.539 177.675,10.794 177.035,10.794 C175.436,10.794 174.972,9.355 174.972,8.044 L179.291,8.044 L179.291,8.044 L179.291,8.044 Z M177.948,7.117 L174.973,7.117 C174.973,6.093 175.389,4.574 176.524,4.574 C177.692,4.574 177.948,6.141 177.948,7.117 L177.948,7.117 L177.948,7.117 Z" id="Shape" fill="#000000"></path>
                <path d="M184.501,3.583 C184.389,3.567 184.276,3.535 184.165,3.535 C183.254,3.535 182.582,4.159 182.214,4.958 L182.182,3.695 L180.903,3.695 C180.92,4.43 180.967,5.166 180.967,5.902 L180.967,11.691 L182.342,11.691 L182.342,7.213 C182.342,6.19 182.806,4.862 184.005,4.862 C184.15,4.862 184.276,4.894 184.404,4.91 L184.501,3.583 L184.501,3.583 Z" id="Shape" fill="#000000"></path>
                <path d="M190.896,8.044 L190.896,7.532 C190.896,5.725 190.32,3.534 188.129,3.534 C186.018,3.534 185.17,5.693 185.17,7.66 C185.17,9.899 186.018,11.866 188.513,11.866 C189.201,11.866 190,11.706 190.623,11.418 L190.527,10.187 C190,10.539 189.28,10.794 188.64,10.794 C187.04,10.794 186.577,9.355 186.577,8.044 L190.896,8.044 L190.896,8.044 L190.896,8.044 Z M189.552,7.117 L186.578,7.117 C186.578,6.093 186.993,4.574 188.129,4.574 C189.296,4.574 189.552,6.141 189.552,7.117 L189.552,7.117 L189.552,7.117 Z" id="Shape" fill="#000000"></path>
                <path d="M198.104,11.69 L198.104,6.253 C198.104,4.798 197.529,3.534 195.897,3.534 C194.922,3.534 194.186,4.126 193.819,4.862 L193.787,3.695 L192.508,3.695 C192.524,4.43 192.571,5.166 192.571,5.902 L192.571,11.691 L193.947,11.691 L193.947,6.638 C193.947,5.774 194.426,4.671 195.466,4.671 C196.394,4.671 196.73,5.455 196.73,6.302 L196.73,11.691 L198.104,11.691 L198.104,11.69 L198.104,11.69 Z" id="Shape" fill="#000000"></path>
                <path d="M204.597,11.69 L204.597,10.586 L201.063,10.586 L204.549,4.894 L204.549,3.694 L199.735,3.694 L199.735,4.798 L203.109,4.798 L199.623,10.491 L199.623,11.69 L204.597,11.69 L204.597,11.69 Z" id="Shape" fill="#000000"></path>
            </g>
        </g>
    </g>
</svg>