<?xml version="1.0" encoding="UTF-8" standalone="no"?>
<svg width="188px" height="37px" viewBox="0 0 188 37" version="1.1" xmlns="http://www.w3.org/2000/svg" xmlns:xlink="http://www.w3.org/1999/xlink" xmlns:sketch="http://www.bohemiancoding.com/sketch/ns">
    <!-- Generator: Sketch 3.2.2 (9983) - http://www.bohemiancoding.com/sketch -->
    <title>VW Stiftung_4C</title>
    <desc>Created with Sketch.</desc>
    <defs></defs>
    <g id="Page-1" stroke="none" stroke-width="1" fill="none" fill-rule="evenodd" sketch:type="MSPage">
        <g id="VW-Stiftung_4C" sketch:type="MSLayerGroup" fill="#003E7A">
            <g id="Group" sketch:type="MSShapeGroup">
                <path d="M61.364,7.108 L60.318,7.108 L57.648,14.23 C57.351,15.027 57.071,15.823 56.852,16.604 L56.836,16.604 C56.617,15.791 56.32,14.949 56.086,14.324 L53.524,7.109 L52.368,7.109 L56.272,17.651 L57.349,17.651 L61.364,7.108 L61.364,7.108 Z" id="Shape"></path>
                <path d="M68.344,13.652 C68.344,10.762 66.767,9.763 64.956,9.763 C62.629,9.763 61.318,11.622 61.318,13.792 C61.318,16.509 62.63,17.774 64.691,17.774 C66.971,17.775 68.344,15.917 68.344,13.652 L68.344,13.652 L68.344,13.652 Z M67.33,13.699 C67.33,15.979 66.143,16.963 64.862,16.963 C63.254,16.963 62.348,15.776 62.348,13.715 C62.348,11.544 63.566,10.56 64.847,10.56 C66.486,10.56 67.33,11.747 67.33,13.699 L67.33,13.699 L67.33,13.699 Z" id="Shape"></path>
                <path d="M71.546,17.649 L71.546,6.25 L70.563,6.25 L70.563,17.649 L71.546,17.649 L71.546,17.649 Z" id="Shape"></path>
                <path d="M80.042,17.649 L76.622,13.417 L79.776,9.888 L78.589,9.888 L75.528,13.417 L75.528,6.25 L74.545,6.25 L74.545,17.649 L75.528,17.649 L75.528,13.527 L78.73,17.649 L80.042,17.649 L80.042,17.649 Z" id="Shape"></path>
                <path d="M86.037,15.369 C86.037,12.683 82.102,13.87 82.102,11.871 C82.102,11.059 82.727,10.543 83.93,10.543 C84.476,10.543 85.054,10.653 85.569,10.809 L85.616,9.934 C85.116,9.824 84.554,9.762 84.07,9.762 C82.149,9.762 81.103,10.715 81.103,11.98 C81.103,14.775 85.022,13.526 85.022,15.509 C85.022,16.399 84.179,16.93 82.977,16.93 C82.368,16.93 81.728,16.82 81.228,16.68 L81.196,17.617 C81.665,17.726 82.259,17.773 82.851,17.773 C84.85,17.775 86.037,16.697 86.037,15.369 L86.037,15.369 L86.037,15.369 Z" id="Shape"></path>
                <path d="M98.965,9.888 L97.903,9.888 L96.388,14.901 C96.154,15.682 95.998,16.151 95.857,16.713 L95.842,16.713 C95.717,16.26 95.608,15.869 95.279,14.87 L93.655,9.889 L92.468,9.889 L90.86,14.887 C90.672,15.48 90.485,16.12 90.344,16.698 L90.329,16.698 C90.204,16.23 90.001,15.574 89.814,14.887 L88.377,9.889 L87.253,9.889 L89.673,17.65 L90.86,17.65 L92.39,12.809 C92.594,12.153 92.796,11.513 92.968,10.857 L92.984,10.857 C93.109,11.341 93.249,11.81 93.405,12.278 L95.247,17.65 L96.419,17.65 L98.965,9.888 L98.965,9.888 Z" id="Shape"></path>
                <path d="M105.683,17.649 C105.667,16.947 105.651,16.041 105.651,15.244 L105.651,12.262 C105.651,10.825 105.074,9.763 103.013,9.763 C101.966,9.763 101.075,10.013 100.342,10.357 L100.451,11.247 C101.139,10.794 102.075,10.56 102.825,10.56 C104.215,10.56 104.668,11.263 104.668,12.527 L104.668,13.215 C101.544,13.215 99.889,14.355 99.889,15.932 C99.889,17.165 100.795,17.775 101.997,17.775 C103.355,17.775 104.371,16.947 104.746,15.932 L104.777,15.947 C104.699,16.4 104.682,17.025 104.682,17.649 L105.683,17.649 L105.683,17.649 Z M104.668,14.073 C104.668,15.494 103.698,16.963 102.231,16.963 C101.418,16.963 100.888,16.495 100.888,15.729 C100.888,14.964 101.56,13.964 104.667,13.964 L104.667,14.073 L104.668,14.073 L104.668,14.073 Z" id="Shape"></path>
                <path d="M115.111,18.931 C115.111,17.603 114.19,16.776 112.505,16.776 L110.911,16.776 C109.943,16.776 109.475,16.557 109.475,16.073 C109.475,15.777 109.663,15.495 110.083,15.323 C110.379,15.401 110.832,15.464 111.223,15.464 C113.472,15.464 114.596,14.167 114.596,12.527 C114.596,11.714 114.283,11.044 113.783,10.669 L115.251,10.669 L115.251,9.888 L112.612,9.888 C112.206,9.81 111.894,9.763 111.488,9.763 C109.411,9.763 108.146,11.122 108.146,12.746 C108.146,13.761 108.521,14.558 109.301,15.026 C108.754,15.276 108.457,15.729 108.457,16.244 C108.457,16.744 108.754,17.134 109.239,17.369 C108.489,17.76 107.864,18.478 107.864,19.478 C107.864,20.946 109.129,21.756 111.081,21.756 C113.409,21.756 115.111,20.555 115.111,18.931 L115.111,18.931 L115.111,18.931 Z M113.598,12.637 C113.598,13.965 112.723,14.699 111.365,14.699 C109.959,14.699 109.147,13.98 109.147,12.637 C109.147,11.419 109.991,10.529 111.426,10.529 C112.801,10.529 113.598,11.31 113.598,12.637 L113.598,12.637 L113.598,12.637 Z M114.112,19.056 C114.112,20.164 113.05,20.93 111.255,20.93 C109.897,20.93 108.85,20.384 108.85,19.305 C108.85,18.618 109.334,18.025 110.053,17.65 L112.24,17.65 C113.487,17.649 114.112,18.165 114.112,19.056 L114.112,19.056 L114.112,19.056 Z" id="Shape"></path>
                <path d="M122.903,12.886 C122.903,11.215 122.029,9.763 119.922,9.763 C117.814,9.763 116.564,11.481 116.564,13.792 C116.564,16.525 117.797,17.774 120.109,17.774 C121.078,17.774 121.922,17.602 122.624,17.321 L122.529,16.446 C121.968,16.727 121.093,16.946 120.281,16.946 C118.47,16.946 117.517,15.915 117.61,13.401 L122.873,13.401 C122.903,13.184 122.903,12.996 122.903,12.886 L122.903,12.886 L122.903,12.886 Z M121.857,12.637 L117.672,12.637 C117.891,11.341 118.702,10.513 119.858,10.513 C121.124,10.513 121.89,11.388 121.857,12.637 L121.857,12.637 L121.857,12.637 Z" id="Shape"></path>
                <path d="M131.245,17.649 L131.245,12.246 C131.245,10.856 130.699,9.748 128.904,9.748 C127.529,9.748 126.53,10.513 126.092,11.7 L126.062,11.684 C126.155,11.2 126.202,10.42 126.202,9.888 L125.202,9.888 L125.202,17.649 L126.186,17.649 L126.186,13.933 C126.186,11.981 127.216,10.544 128.685,10.544 C129.902,10.544 130.262,11.31 130.262,12.606 L130.262,17.65 L131.245,17.65 L131.245,17.649 L131.245,17.649 Z" id="Shape"></path>
                <path d="M139.962,14.386 C139.962,11.091 135.526,11.793 135.526,9.904 C135.526,9.154 136.12,8.624 137.291,8.624 C137.932,8.624 138.587,8.733 139.181,8.905 L139.289,7.125 C138.665,7.015 137.977,6.937 137.385,6.937 C134.856,6.937 133.372,8.233 133.372,10.106 C133.372,13.574 137.79,12.652 137.79,14.667 C137.79,15.635 136.995,16.057 135.964,16.057 C135.198,16.057 134.356,15.885 133.763,15.682 L133.637,17.571 C134.293,17.743 135.043,17.821 135.791,17.821 C138.385,17.821 139.962,16.37 139.962,14.386 L139.962,14.386 L139.962,14.386 Z" id="Shape"></path>
                <path d="M145.914,17.603 L145.914,15.995 C145.634,16.073 145.273,16.12 144.946,16.12 C144.258,16.12 144.025,15.839 144.025,14.839 L144.025,11.435 L145.914,11.435 L145.914,9.889 L144.025,9.889 L144.025,6.969 L142.026,7.5 L142.026,9.889 L140.698,9.889 L140.698,11.435 L142.042,11.435 L142.042,15.37 C142.042,17.182 142.572,17.807 144.291,17.807 C144.837,17.806 145.415,17.728 145.914,17.603 L145.914,17.603 L145.914,17.603 Z" id="Shape"></path>
                <path d="M149.79,7.671 C149.79,6.999 149.227,6.469 148.541,6.469 C147.855,6.469 147.308,7.015 147.308,7.671 C147.308,8.342 147.855,8.889 148.541,8.889 C149.227,8.889 149.79,8.342 149.79,7.671 L149.79,7.671 L149.79,7.671 Z M149.541,17.649 L149.541,9.888 L147.542,9.888 L147.542,17.649 L149.541,17.649 L149.541,17.649 Z" id="Shape"></path>
                <path d="M156.454,6.25 C156.049,6.156 155.611,6.125 155.189,6.125 C153.066,6.125 152.097,7.155 152.097,9.264 L152.097,9.889 L150.738,9.889 L150.738,11.435 L152.097,11.435 L152.097,17.65 L154.08,17.65 L154.08,11.435 L155.892,11.435 L155.892,9.889 L154.08,9.889 L154.08,9.234 C154.08,8.203 154.471,7.75 155.345,7.75 C155.642,7.75 156,7.781 156.313,7.891 L156.454,6.25 L156.454,6.25 Z" id="Shape"></path>
                <path d="M161.042,17.603 L161.042,15.995 C160.76,16.073 160.4,16.12 160.072,16.12 C159.386,16.12 159.152,15.839 159.152,14.839 L159.152,11.435 L161.042,11.435 L161.042,9.889 L159.152,9.889 L159.152,6.969 L157.152,7.5 L157.152,9.889 L155.826,9.889 L155.826,11.435 L157.169,11.435 L157.169,15.37 C157.169,17.182 157.7,17.807 159.417,17.807 C159.964,17.806 160.542,17.728 161.042,17.603 L161.042,17.603 L161.042,17.603 Z" id="Shape"></path>
                <path d="M169.415,17.649 L169.415,9.888 L167.416,9.888 L167.416,13.637 C167.416,14.995 166.635,16.151 165.62,16.151 C164.87,16.151 164.652,15.667 164.652,14.855 L164.652,9.889 L162.668,9.889 L162.668,15.339 C162.668,16.697 163.231,17.822 164.98,17.822 C166.261,17.822 167.151,17.182 167.62,16.26 L167.635,16.276 C167.557,16.682 167.542,17.291 167.542,17.65 L169.415,17.65 L169.415,17.649 L169.415,17.649 Z" id="Shape"></path>
                <path d="M178.314,17.649 L178.314,12.2 C178.314,10.841 177.753,9.717 176.003,9.717 C174.738,9.717 173.833,10.358 173.365,11.279 L173.348,11.263 C173.426,10.857 173.457,10.248 173.457,9.888 L171.567,9.888 L171.567,17.649 L173.566,17.649 L173.566,13.901 C173.566,12.543 174.363,11.387 175.378,11.387 C176.111,11.387 176.33,11.871 176.33,12.683 L176.33,17.649 L178.314,17.649 L178.314,17.649 Z" id="Shape"></path>
                <path d="M187.543,18.524 C187.543,17.025 186.575,16.244 184.889,16.244 L183.687,16.244 C182.781,16.244 182.485,16.119 182.485,15.76 C182.485,15.572 182.61,15.369 182.859,15.26 C183.063,15.306 183.359,15.322 183.625,15.322 C185.78,15.322 186.983,14.198 186.983,12.48 C186.983,12.043 186.827,11.668 186.592,11.45 L187.638,11.45 L187.638,9.888 L185.015,9.888 C184.577,9.794 184.172,9.716 183.656,9.716 C181.377,9.716 180.143,11.091 180.143,12.73 C180.143,13.683 180.533,14.51 181.298,14.9 C180.752,15.104 180.377,15.681 180.377,16.243 C180.377,16.79 180.674,17.196 181.142,17.43 C180.501,17.758 179.955,18.492 179.955,19.304 C179.955,20.819 181.22,21.599 183.28,21.599 C185.873,21.6 187.543,20.21 187.543,18.524 L187.543,18.524 L187.543,18.524 Z M185.076,12.59 C185.076,13.449 184.483,13.965 183.577,13.965 C182.609,13.965 182.047,13.434 182.047,12.575 C182.047,11.747 182.625,11.17 183.577,11.17 C184.515,11.169 185.076,11.7 185.076,12.59 L185.076,12.59 L185.076,12.59 Z M185.576,18.789 C185.576,19.523 184.888,20.071 183.577,20.071 C182.578,20.071 181.922,19.648 181.922,18.93 C181.922,18.492 182.173,18.071 182.625,17.821 L182.984,17.821 L184.342,17.821 C185.201,17.821 185.576,18.229 185.576,18.789 L185.576,18.789 L185.576,18.789 Z" id="Shape"></path>
                <path d="M0.225,23.885 C0.225,22.367 1.454,21.138 2.971,21.138 C4.487,21.138 5.717,22.367 5.717,23.885 C5.717,25.401 4.488,26.63 2.971,26.63 C1.454,26.63 0.225,25.4 0.225,23.885 L0.225,23.885 L0.225,23.885 Z" id="Shape"></path>
                <path d="M1.626,2.022 C1.626,1.205 2.288,0.543 3.105,0.543 C3.922,0.543 4.583,1.205 4.583,2.022 C4.583,2.839 3.921,3.501 3.105,3.501 C2.289,3.501 1.626,2.839 1.626,2.022 L1.626,2.022 L1.626,2.022 Z" id="Shape"></path>
                <path d="M1.626,13.003 C1.626,12.187 2.288,11.524 3.105,11.524 C3.922,11.524 4.583,12.186 4.583,13.003 C4.583,13.82 3.921,14.482 3.105,14.482 C2.289,14.482 1.626,13.82 1.626,13.003 L1.626,13.003 L1.626,13.003 Z" id="Shape"></path>
                <path d="M12.966,1.924 C12.966,1.107 13.628,0.445 14.444,0.445 C15.261,0.445 15.923,1.107 15.923,1.924 C15.923,2.74 15.261,3.403 14.444,3.403 C13.627,3.402 12.966,2.74 12.966,1.924 L12.966,1.924 L12.966,1.924 Z" id="Shape"></path>
                <path d="M23.91,2.022 C23.91,1.205 24.572,0.543 25.388,0.543 C26.205,0.543 26.867,1.205 26.867,2.022 C26.867,2.839 26.205,3.501 25.388,3.501 C24.572,3.501 23.91,2.839 23.91,2.022 L23.91,2.022 L23.91,2.022 Z" id="Shape"></path>
                <path d="M23.91,13.003 C23.91,12.187 24.572,11.524 25.388,11.524 C26.205,11.524 26.867,12.186 26.867,13.003 C26.867,13.82 26.205,14.482 25.388,14.482 C24.572,14.481 23.91,13.82 23.91,13.003 L23.91,13.003 L23.91,13.003 Z" id="Shape"></path>
                <path d="M23.91,35.091 C23.91,34.275 24.572,33.613 25.388,33.613 C26.205,33.613 26.867,34.274 26.867,35.091 C26.867,35.909 26.205,36.57 25.388,36.57 C24.572,36.57 23.91,35.909 23.91,35.091 L23.91,35.091 L23.91,35.091 Z" id="Shape"></path>
                <path d="M35.149,2.022 C35.149,1.205 35.812,0.543 36.628,0.543 C37.445,0.543 38.107,1.205 38.107,2.022 C38.107,2.839 37.445,3.501 36.628,3.501 C35.812,3.501 35.149,2.839 35.149,2.022 L35.149,2.022 L35.149,2.022 Z" id="Shape"></path>
                <path d="M35.149,24.048 C35.149,23.231 35.812,22.569 36.628,22.569 C37.445,22.569 38.107,23.23 38.107,24.048 C38.107,24.862 37.445,25.527 36.628,25.527 C35.812,25.526 35.149,24.862 35.149,24.048 L35.149,24.048 L35.149,24.048 Z" id="Shape"></path>
                <path d="M35.149,35.091 C35.149,34.275 35.812,33.613 36.628,33.613 C37.445,33.613 38.107,34.274 38.107,35.091 C38.107,35.909 37.445,36.57 36.628,36.57 C35.812,36.57 35.149,35.909 35.149,35.091 L35.149,35.091 L35.149,35.091 Z" id="Shape"></path>
                <path d="M10.87,13.092 C10.87,11.109 12.478,9.501 14.46,9.501 C16.443,9.501 18.05,11.108 18.05,13.092 C18.05,15.076 16.443,16.682 14.46,16.682 C12.478,16.682 10.87,15.075 10.87,13.092 L10.87,13.092 L10.87,13.092 Z" id="Shape"></path>
                <path d="M21.017,23.686 C21.017,21.236 23.003,19.25 25.452,19.25 C27.902,19.25 29.887,21.235 29.887,23.686 C29.887,26.137 27.902,28.122 25.452,28.122 C23.003,28.121 21.017,26.136 21.017,23.686 L21.017,23.686 L21.017,23.686 Z" id="Shape"></path>
                <path d="M31.364,12.747 C31.364,9.83 33.728,7.466 36.643,7.466 C39.559,7.466 41.923,9.83 41.923,12.747 C41.923,15.663 39.559,18.028 36.643,18.028 C33.728,18.027 31.364,15.663 31.364,12.747 L31.364,12.747 L31.364,12.747 Z" id="Shape"></path>
                <path d="M12.966,34.991 C12.966,34.177 13.628,33.512 14.444,33.512 C15.261,33.512 15.923,34.176 15.923,34.991 C15.923,35.809 15.261,36.47 14.444,36.47 C13.627,36.47 12.966,35.81 12.966,34.991 L12.966,34.991 L12.966,34.991 Z" id="Shape"></path>
                <path d="M12.966,23.948 C12.966,23.133 13.628,22.469 14.444,22.469 C15.261,22.469 15.923,23.133 15.923,23.948 C15.923,24.765 15.261,25.427 14.444,25.427 C13.627,25.427 12.966,24.766 12.966,23.948 L12.966,23.948 L12.966,23.948 Z" id="Shape"></path>
                <path d="M1.626,35.091 C1.626,34.275 2.288,33.613 3.105,33.613 C3.922,33.613 4.583,34.274 4.583,35.091 C4.583,35.906 3.921,36.57 3.105,36.57 C2.289,36.57 1.626,35.906 1.626,35.091 L1.626,35.091 L1.626,35.091 Z" id="Shape"></path>
            </g>
        </g>
    </g>
</svg>