<?xml version="1.0" encoding="UTF-8" standalone="no"?>
<svg width="805px" height="289px" viewBox="0 0 805 289" version="1.1" xmlns="http://www.w3.org/2000/svg" xmlns:xlink="http://www.w3.org/1999/xlink" xmlns:sketch="http://www.bohemiancoding.com/sketch/ns">
    <!-- Generator: Sketch 3.2.2 (9983) - http://www.bohemiancoding.com/sketch -->
    <title>gmw</title>
    <desc>Created with Sketch.</desc>
    <defs></defs>
    <g id="Page-1" stroke="none" stroke-width="1" fill="none" fill-rule="evenodd" sketch:type="MSPage">
        <g id="gmw" sketch:type="MSLayerGroup">
            <g id="Group" transform="translate(16.000000, 179.000000)" sketch:type="MSShapeGroup">
                <rect id="Rectangle-path" fill="#000000" x="425.116" y="90.461" width="4.856" height="6.273"></rect>
                <rect id="Rectangle-path" fill="#000000" x="471.121" y="90.461" width="4.857" height="6.273"></rect>
                <rect id="Rectangle-path" fill="#000000" x="172.122" y="68.022" width="3.407" height="28.582"></rect>
                <rect id="Rectangle-path" fill="#000000" x="100.793" y="0.715" width="3.406" height="41.374"></rect>
                <rect id="Rectangle-path" fill="#000000" x="111.808" y="0.715" width="3.406" height="41.374"></rect>
                <rect id="Rectangle-path" fill="#000000" x="111.808" y="0.715" width="3.406" height="41.374"></rect>
                <rect id="Rectangle-path" fill="#000000" x="171.454" y="57.151" width="4.795" height="5.433"></rect>
                <rect id="Rectangle-path" fill="#000000" x="413.616" y="13.667" width="3.407" height="28.582"></rect>
                <rect id="Rectangle-path" fill="#000000" x="412.948" y="2.796" width="4.795" height="5.434"></rect>
                <rect id="Rectangle-path" fill="#000000" x="272.74" y="2.796" width="4.795" height="5.434"></rect>
                <rect id="Rectangle-path" fill="#000000" x="280.606" y="2.796" width="4.795" height="5.434"></rect>
                <rect id="Rectangle-path" fill="#000000" x="2.034" y="68.022" width="3.407" height="28.582"></rect>
                <rect id="Rectangle-path" fill="#000000" x="1.366" y="57.151" width="4.795" height="5.433"></rect>
                <path d="M324.457,41.952 L327.986,41.952 L327.986,8.621 L338.867,41.952 L342.004,41.952 L353.082,8.229 L353.082,41.952 L356.513,41.952 L356.513,3.522 L350.533,3.522 L340.485,35.385 L330.437,3.522 L324.457,3.522 L324.457,41.952 Z" id="Shape" fill="#000000"></path>
                <path d="M446.154,57.965 L457.303,96.497 L461.133,96.497 L473.55,57.965 L468.793,57.965 L459.417,89.694 L450.271,57.965 L446.154,57.965 Z" id="Shape" fill="#000000"></path>
                <path d="M100.368,67.984 L100.414,72.056 L100.414,96.438 L103.847,96.438 L103.847,76.247 C103.847,76.247 104.778,71.593 111.062,71.301 L111.062,67.344 C111.062,67.344 104.604,67.985 104.021,70.603 L103.905,68.042 L100.368,67.984 L100.368,67.984 Z" id="Shape" fill="#000000"></path>
                <path d="M295.109,14.051 L295.156,18.124 L295.156,42.506 L298.589,42.506 L298.589,22.314 C298.589,22.314 299.52,17.66 305.804,17.369 L305.804,13.412 C305.804,13.412 299.345,14.052 298.763,16.671 L298.647,14.11 L295.109,14.051 L295.109,14.051 Z" id="Shape" fill="#000000"></path>
                <path d="M13.038,67.974 L13.038,96.555 L17.04,96.555 L17.04,75.501 C17.04,75.501 19.374,71.164 22.977,71.23 C22.977,71.23 27.179,70.963 27.846,76.234 L27.846,96.554 L31.381,96.554 L31.381,73.631 C31.381,73.631 30.314,67.361 23.31,67.228 C23.31,67.228 18.174,67.562 16.573,70.831 L16.44,67.974 L13.038,67.974 L13.038,67.974 Z" id="Shape" fill="#000000"></path>
                <path d="M245.015,67.974 L245.015,96.555 L249.017,96.555 L249.017,75.501 C249.017,75.501 251.351,71.164 254.954,71.23 C254.954,71.23 259.156,70.963 259.824,76.234 L259.824,96.554 L263.36,96.554 L263.36,73.631 C263.36,73.631 262.293,67.361 255.289,67.228 C255.289,67.228 250.152,67.562 248.551,70.831 L248.418,67.974 L245.015,67.974 L245.015,67.974 Z" id="Shape" fill="#000000"></path>
                <path d="M287.99,41.876 L287.99,13.295 L283.987,13.295 L283.987,34.35 C283.987,34.35 281.653,38.686 278.05,38.62 C278.05,38.62 273.848,38.886 273.18,33.617 L273.18,13.296 L269.645,13.296 L269.645,36.219 C269.645,36.219 270.712,42.49 277.716,42.622 C277.716,42.622 282.852,42.289 284.453,39.019 L284.586,41.876 L287.99,41.876 L287.99,41.876 Z" id="Shape" fill="#000000"></path>
                <path d="M310.145,55.177 L310.145,96.555 L314.148,96.555 L314.148,75.501 C314.148,75.501 316.482,71.164 320.085,71.23 C320.085,71.23 324.287,70.963 324.955,76.234 L324.955,96.554 L328.491,96.554 L328.491,73.631 C328.491,73.631 327.423,67.361 320.419,67.228 C320.419,67.228 315.282,67.562 313.681,70.831 L314.144,71.786 L314.203,55.115 L310.145,55.177 L310.145,55.177 Z" id="Shape" fill="#000000"></path>
                <path d="M162.282,0.744 L162.282,42.122 L166.284,42.122 L166.284,21.068 C166.284,21.068 168.618,16.731 172.221,16.797 C172.221,16.797 176.423,16.531 177.09,21.801 L177.09,42.121 L180.625,42.121 L180.625,19.198 C180.625,19.198 179.558,12.928 172.554,12.796 C172.554,12.796 167.418,13.129 165.817,16.398 L166.279,17.353 L166.338,0.682 L162.282,0.744 L162.282,0.744 Z" id="Shape" fill="#000000"></path>
                <path d="M448.124,14.04 L448.124,42.622 L452.126,42.622 L452.126,21.567 C452.126,21.567 454.46,17.23 458.063,17.297 C458.063,17.297 462.265,17.03 462.932,22.299 L462.932,42.621 L466.468,42.621 L466.468,19.698 C466.468,19.698 465.401,13.427 458.396,13.295 C458.396,13.295 453.26,13.628 451.659,16.897 L451.526,14.04 L448.124,14.04 L448.124,14.04 Z" id="Shape" fill="#000000"></path>
                <path d="M15.714,21.065 L26.643,21.065 L26.643,40.58 C26.643,40.58 22.428,42.375 17.51,42.219 C17.51,42.219 0.961,44.25 0.649,21.924 C0.649,21.924 0.258,3.736 17.041,2.721 C17.041,2.721 21.803,2.409 25.862,5.453 L25.784,9.199 C25.784,9.199 19.695,6.312 17.743,6.78 C17.743,6.78 6.034,5.569 4.785,22.49 C4.785,22.49 5.487,38.784 17.509,38.472 L22.505,37.926 L22.427,24.577 L15.792,24.421 L15.714,21.065 L15.714,21.065 Z" id="Shape" fill="#000000"></path>
                <path d="M125.951,57.944 L134.213,96.604 L139.45,96.604 L146.898,64.752 L153.881,96.604 L159.06,96.604 L167.905,57.944 L163.367,57.944 L156.559,89.018 L149.808,57.944 L144.338,57.944 L136.773,89.075 L130.664,57.944 L125.951,57.944 Z" id="Shape" fill="#000000"></path>
                <g transform="translate(357.000000, 56.000000)">
                    <rect id="Rectangle-path" fill="#000000" x="0.122" y="12.03" width="12.92" height="3.392"></rect>
                    <rect id="Rectangle-path" fill="#000000" x="4.196" y="3.88" width="4.1" height="36.704"></rect>
                    <path d="M6.246,6.449 L6.246,3.88 C6.246,3.88 6.408,0.307 9.256,0.308 L14.104,0.307" id="Shape" stroke="#000000" stroke-width="4.112"></path>
                </g>
                <g transform="translate(251.000000, 1.000000)">
                    <rect id="Rectangle-path" fill="#000000" x="0.955" y="11.987" width="12.92" height="3.392"></rect>
                    <rect id="Rectangle-path" fill="#000000" x="5.029" y="3.837" width="4.1" height="36.703"></rect>
                    <path d="M7.079,6.406 L7.079,3.837 C7.079,3.837 7.241,0.264 10.089,0.265 L14.937,0.264" id="Shape" stroke="#000000" stroke-width="4.112"></path>
                </g>
                <g transform="translate(209.000000, 2.000000)">
                    <rect id="Rectangle-path" fill="#000000" x="0.314" y="12.074" width="12.92" height="3.393"></rect>
                    <rect id="Rectangle-path" fill="#000000" x="4.389" y="3.924" width="4.1" height="36.705"></rect>
                    <path d="M6.439,6.493 L6.439,3.924 C6.439,3.924 6.6,0.352 9.449,0.352 L14.297,0.352" id="Shape" stroke="#000000" stroke-width="4.112"></path>
                </g>
                <g transform="translate(51.000000, 55.000000)">
                    <rect id="Rectangle-path" fill="#000000" x="15.692" y="0.174" width="3.679" height="41.381"></rect>
                    <path d="M17.391,23.75 C17.391,23.75 17.533,13.673 8.291,14.503 C8.291,14.503 1.394,15.663 0.992,26.571 C0.563,38.2 5.762,40.159 8.219,40.159 C11.326,40.159 16.99,38.324 17.532,31.46" id="Shape" stroke="#000000" stroke-width="3.5666"></path>
                </g>
                <g transform="translate(387.000000, 0.000000)">
                    <rect id="Rectangle-path" fill="#000000" x="14.973" y="0.712" width="3.679" height="41.381"></rect>
                    <path d="M16.67,24.288 C16.67,24.288 16.812,14.212 7.571,15.041 C7.571,15.041 0.674,16.2 0.272,27.109 C-0.157,38.738 5.042,40.696 7.499,40.696 C10.607,40.696 16.27,38.862 16.812,31.997" id="Shape" stroke="#000000" stroke-width="3.5666"></path>
                </g>
                <g transform="translate(371.000000, 60.000000)" id="Shape">
                    <path d="M4.52,2.372 L8.6,0.657 L8.6,7.576 L13.922,7.576 L13.922,11.064 L8.541,11.064 L8.658,30.403 C8.658,30.403 4.651,31.907 4.52,31.269 L4.52,11.064 L0.445,11.082 L0.44,7.633 L4.462,7.592 L4.52,2.372 L4.52,2.372 Z" fill="#000000"></path>
                    <path d="M6.584,30.176 C6.584,30.176 6.066,38.429 13.793,33.645" stroke="#000000" stroke-width="4.154"></path>
                </g>
                <g transform="translate(223.000000, 6.000000)" id="Shape">
                    <path d="M4.795,2.332 L8.876,0.617 L8.876,7.536 L14.198,7.536 L14.198,11.025 L8.817,11.025 L8.934,30.364 C8.934,30.364 4.926,31.867 4.795,31.228 L4.795,11.025 L0.72,11.042 L0.715,7.594 L4.737,7.552 L4.795,2.332 L4.795,2.332 Z" fill="#000000"></path>
                    <path d="M6.86,30.137 C6.86,30.137 6.342,38.39 14.069,33.604" stroke="#000000" stroke-width="4.154"></path>
                </g>
                <path d="M78.8,25.144 L90.477,25.144 C90.477,25.144 90.937,17.457 85.908,16.89 C85.908,16.89 79.532,16.785 79.461,25.357 C79.461,25.357 79.036,29.182 79.88,32.584 C79.99,33.025 82.75,42.363 93.518,36.836 L93.518,40.838 C93.518,40.838 89.752,42.282 86.28,42.254 C86.28,42.254 78.327,43.246 75.812,33.54 C75.812,33.54 73.951,25.989 76.444,20.298 C76.444,20.298 79.444,12.727 85.796,12.923 C85.796,12.923 93.347,12.712 94.552,22.169 L94.552,29.183 L79.036,29.183" id="Shape" fill="#000000"></path>
                <path d="M78.8,79.85 L90.477,79.85 C90.477,79.85 90.937,72.162 85.908,71.597 C85.908,71.597 79.532,71.491 79.461,80.062 C79.461,80.062 79.036,83.888 79.88,87.29 C79.99,87.731 82.75,97.069 93.518,91.541 L93.518,95.543 C93.518,95.543 89.752,96.988 86.28,96.96 C86.28,96.96 78.327,97.951 75.812,88.246 C75.812,88.246 73.951,80.695 76.444,75.004 C76.444,75.004 79.444,67.433 85.796,67.63 C85.796,67.63 93.347,67.417 94.552,76.875 L94.552,83.889 L79.036,83.889" id="Shape" fill="#000000"></path>
                <path d="M223.805,79.85 L235.483,79.85 C235.483,79.85 235.943,72.162 230.914,71.597 C230.914,71.597 224.538,71.491 224.467,80.062 C224.467,80.062 224.042,83.888 224.886,87.29 C224.995,87.731 227.755,97.069 238.524,91.541 L238.524,95.543 C238.524,95.543 234.758,96.988 231.286,96.96 C231.286,96.96 223.334,97.951 220.819,88.246 C220.819,88.246 218.958,80.695 221.451,75.004 C221.451,75.004 224.451,67.433 230.802,67.63 C230.802,67.63 238.353,67.417 239.558,76.875 L239.558,83.889 L224.043,83.889" id="Shape" fill="#000000"></path>
                <path d="M366.033,25.389 L377.711,25.389 C377.711,25.389 378.171,17.701 373.141,17.134 C373.141,17.134 366.766,17.029 366.694,25.6 C366.694,25.6 366.269,29.426 367.113,32.828 C367.222,33.269 369.982,42.607 380.751,37.08 L380.751,41.082 C380.751,41.082 376.985,42.527 373.513,42.499 C373.513,42.499 365.56,43.489 363.045,33.784 C363.045,33.784 361.184,26.232 363.676,20.542 C363.676,20.542 366.676,12.971 373.028,13.168 C373.028,13.168 380.579,12.955 381.783,22.413 L381.783,29.427 L366.267,29.427" id="Shape" fill="#000000"></path>
                <path d="M426.416,25.389 L438.094,25.389 C438.094,25.389 438.554,17.701 433.524,17.134 C433.524,17.134 427.148,17.029 427.077,25.6 C427.077,25.6 426.652,29.426 427.496,32.828 C427.606,33.269 430.365,42.607 441.133,37.08 L441.133,41.082 C441.133,41.082 437.367,42.527 433.896,42.499 C433.896,42.499 425.943,43.489 423.428,33.784 C423.428,33.784 421.567,26.232 424.059,20.542 C424.059,20.542 427.059,12.971 433.411,13.168 C433.411,13.168 440.963,12.955 442.167,22.413 L442.167,29.427 L426.652,29.427" id="Shape" fill="#000000"></path>
                <path d="M404.676,79.515 L416.354,79.515 C416.354,79.515 416.814,71.827 411.784,71.261 C411.784,71.261 405.409,71.154 405.337,79.726 C405.337,79.726 404.911,83.552 405.756,86.953 C405.866,87.396 408.626,96.733 419.394,91.206 L419.394,95.208 C419.394,95.208 415.628,96.653 412.156,96.625 C412.156,96.625 404.203,97.616 401.689,87.911 C401.689,87.911 399.828,80.359 402.32,74.668 C402.32,74.668 405.32,67.097 411.672,67.294 C411.672,67.294 419.223,67.081 420.428,76.539 L420.428,83.553 L404.912,83.553" id="Shape" fill="#000000"></path>
                <path d="M36.216,25.144 L47.893,25.144 C47.893,25.144 48.353,17.457 43.324,16.89 C43.324,16.89 36.948,16.785 36.877,25.357 C36.877,25.357 36.452,29.182 37.296,32.584 C37.406,33.025 40.166,42.363 50.934,36.836 L50.934,40.838 C50.934,40.838 47.168,42.282 43.696,42.254 C43.696,42.254 35.743,43.246 33.229,33.54 C33.229,33.54 31.368,25.989 33.86,20.298 C33.86,20.298 36.86,12.727 43.212,12.923 C43.212,12.923 50.763,12.712 51.968,22.169 L51.968,29.183 L36.453,29.183" id="Shape" fill="#000000"></path>
                <path d="M157.163,15.771 C157.163,15.771 154.287,14.866 152.574,14.866 C150.86,14.866 143.492,15.275 142.341,26.733 C142.341,26.733 140.984,40.922 151.962,40.379 C151.962,40.379 155.223,40.074 157.12,38.788" id="Shape" stroke="#000000" stroke-width="4.112"></path>
                <path d="M305.385,70.032 C305.385,70.032 302.51,69.127 300.796,69.127 C299.082,69.127 291.713,69.537 290.563,80.995 C290.563,80.995 289.206,95.183 300.184,94.641 C300.184,94.641 303.445,94.335 305.342,93.05" id="Shape" stroke="#000000" stroke-width="4.112"></path>
                <path d="M69.976,15.775 C69.976,15.775 65.232,13.602 62.217,14.977 C59.71,16.12 57.694,19.632 58.492,22.692 C59.29,25.752 65.808,28.81 65.808,28.81 C65.808,28.81 71.118,31.625 69.755,35.595 C68.597,38.964 65.675,40.826 62.261,40.427 C58.846,40.029 55.965,38.83 55.965,38.83" id="Shape" stroke="#000000" stroke-width="3.9862"></path>
                <path d="M135.51,15.775 C135.51,15.775 130.765,13.602 127.751,14.977 C125.244,16.12 123.228,19.632 124.026,22.692 C124.824,25.752 131.342,28.81 131.342,28.81 C131.342,28.81 136.652,31.625 135.288,35.595 C134.13,38.964 131.209,40.826 127.794,40.427 C124.38,40.029 121.498,38.83 121.498,38.83" id="Shape" stroke="#000000" stroke-width="3.9862"></path>
                <path d="M194.637,70.588 C194.637,70.588 189.893,68.415 186.877,69.789 C184.371,70.932 182.355,74.445 183.153,77.504 C183.951,80.564 190.469,83.623 190.469,83.623 C190.469,83.623 195.779,86.438 194.415,90.407 C193.257,93.777 190.336,95.639 186.921,95.24 C183.507,94.841 180.625,93.644 180.625,93.644" id="Shape" stroke="#000000" stroke-width="3.9862"></path>
                <path d="M215.177,70.588 C215.177,70.588 210.433,68.415 207.418,69.789 C204.912,70.932 202.896,74.445 203.693,77.504 C204.491,80.564 211.009,83.623 211.009,83.623 C211.009,83.623 216.319,86.438 214.955,90.407 C213.798,93.777 210.876,95.639 207.462,95.24 C204.048,94.841 201.166,93.644 201.166,93.644" id="Shape" stroke="#000000" stroke-width="3.9862"></path>
                <path d="M282.562,70.168 C282.562,70.168 277.818,67.995 274.802,69.369 C272.296,70.512 270.28,74.026 271.077,77.086 C271.875,80.145 278.393,83.204 278.393,83.204 C278.393,83.204 283.703,86.018 282.339,89.987 C281.182,93.357 278.26,95.22 274.846,94.821 C271.432,94.423 268.55,93.224 268.55,93.224" id="Shape" stroke="#000000" stroke-width="3.9862"></path>
                <g transform="translate(186.000000, 13.000000)" id="Shape" fill="#000000">
                    <path d="M17.345,15.406 C7.112,11.994 4.912,18.113 4.912,18.113 C4.912,18.113 2.439,25.798 10.007,25.835 C10.007,25.835 16.188,26.384 16.158,18.409 C16.158,18.409 16.442,13.138 16.09,9.767 C16.043,9.313 15.954,-0.519 3.156,6.563 L3.156,2.981 C3.156,2.981 6.348,0.304 9.837,0.098 C9.837,0.098 17.738,-1.029 19.767,7.508 C19.767,7.508 20.508,17.978 19.281,23.529 C19.281,23.529 18.321,30.529 8.207,29.437 C8.207,29.437 0.403,29.121 0.762,19.848 C0.762,19.848 0.119,9.776 16.315,11.429"></path>
                    <path d="M19.612,21.59 L19.517,26.332 L19.57,26.503 L19.57,29.122 L16.575,29.122 L15.754,27.084 L19.612,21.59 Z"></path>
                </g>
                <g transform="translate(333.000000, 67.000000)" id="Shape" fill="#000000">
                    <path d="M17.149,15.495 C6.916,12.084 4.717,18.203 4.717,18.203 C4.717,18.203 2.243,25.888 9.812,25.925 C9.812,25.925 15.993,26.473 15.964,18.498 C15.964,18.498 16.247,13.228 15.895,9.857 C15.848,9.404 15.76,-0.429 2.961,6.653 L2.961,3.071 C2.961,3.071 6.153,0.393 9.642,0.188 C9.642,0.188 17.542,-0.94 19.572,7.597 C19.572,7.597 20.312,18.068 19.086,23.619 C19.086,23.619 18.126,30.619 8.012,29.527 C8.012,29.527 0.208,29.211 0.567,19.937 C0.567,19.937 -0.076,9.865 16.12,11.519"></path>
                    <path d="M19.416,21.68 L19.321,26.421 L19.374,26.593 L19.374,29.212 L16.379,29.212 L15.559,27.173 L19.416,21.68 Z"></path>
                </g>
            </g>
            <path d="M137.061,148.85 L155.566,148.85 L195.025,44.611 L235.143,151.15 L272.958,44.611 L312.747,149.179 L333.572,149.179 L271.972,0.548 L235.316,106.76 L195.025,0.548 L137.061,148.85 Z" id="Shape" fill="#A7AAB1" sketch:type="MSShapeGroup"></path>
            <path d="M295.647,2.191 L355.823,151.15 L396.269,44.939 L436.057,151.15 L496.232,2.61 L477.161,2.191 L435.729,107.417 L395.94,2.191 L356.151,107.417 L315.376,2.191 L295.647,2.191 Z" id="Shape" fill="#A7AAB1" sketch:type="MSShapeGroup"></path>
            <path d="M87.899,75.849 L141.34,75.849 C141.34,75.849 143.769,147.613 77.741,149.821 C77.741,149.821 4.426,149.836 0.45,75.849 C0.45,75.849 -0.84,2.954 75.683,1.806 C75.683,1.806 106.449,-1.67 134.053,27.701 L121.244,38.08 C121.244,38.08 103.799,16.439 75.974,17.322 C75.974,17.322 19.662,17.779 16.349,75.849 C16.349,75.849 15.024,127.738 73.544,133.701 C73.544,133.701 118.151,137.012 121.464,89.975 L87.235,90.637 L87.899,75.849 L87.899,75.849 Z" id="Shape" fill="#A7AAB1" sketch:type="MSShapeGroup"></path>
            <path d="M595.143,157.377 C595.143,157.377 592.94,157.103 590.922,159.856 L581.468,183.444 L572.291,209.142 L564.399,230.802 L556.414,254.298 L552.56,266.413 L552.56,275.131 C552.56,275.131 555.772,279.722 556.323,279.996 C556.873,280.271 562.84,283.484 562.84,283.484 L573.853,288.165 L579.36,288.165 L581.562,287.522 L590.098,276.325 L595.513,269.075 L603.406,259.071 L615.43,245.854 L626.627,235.298 L636.815,226.487 L645.167,219.696 L653.335,212.536 L662.514,205.379 L671.141,198.862 L683.072,189.591 L694.453,181.515 L709.689,171.694 L721.62,164.627 L733.459,158.11 L745.757,150.86 L760.534,142.599 L772.65,136.082 L780.726,132.043 L790.363,126.354 L795.319,123.233 L799.725,120.296 L802.662,118.001 C802.662,118.001 804.038,116.9 804.13,116.074 C804.222,115.248 804.627,114.053 804.222,113.504 C803.819,112.953 802.754,111.47 802.295,111.478 C801.836,111.486 792.291,111.478 792.291,111.478 L777.606,117.542 L760.076,126.354 L744.014,135.256 L715.196,151.042 L691.149,166.277 L668.479,180.686 L649.756,195.83 L628.005,213.544 L600.104,235.662 C600.104,235.662 598.728,236.581 598.36,236.581 C597.993,236.581 596.616,236.398 596.157,235.938 C595.699,235.479 595.239,233 595.331,232.358 C595.423,231.716 600.655,212.075 600.655,212.075 L607.264,186.376 L611.302,170.407 L611.578,165.818 C611.578,165.818 611.944,162.422 611.578,162.053 C611.21,161.687 606.254,157.833 602.399,157.19 L595.143,157.377 L595.143,157.377 Z" id="Shape" fill="#E62428" sketch:type="MSShapeGroup"></path>
        </g>
    </g>
</svg>