<?xml version="1.0" encoding="UTF-8" standalone="no"?>
<svg width="433px" height="91px" viewBox="0 0 433 91" version="1.1" xmlns="http://www.w3.org/2000/svg" xmlns:xlink="http://www.w3.org/1999/xlink" xmlns:sketch="http://www.bohemiancoding.com/sketch/ns">
    <!-- Generator: Sketch 3.2.2 (9983) - http://www.bohemiancoding.com/sketch -->
    <title>Wiley</title>
    <desc>Created with Sketch.</desc>
    <defs></defs>
    <g id="Page-1" stroke="none" stroke-width="1" fill="none" fill-rule="evenodd" sketch:type="MSPage">
        <g id="Wiley" sketch:type="MSLayerGroup" fill="#000000">
            <path d="M93.523,90.868 L94.149,90.868 L124.941,14.132 C127.946,6.747 130.7,3.113 133.456,1.493 L133.456,0.74 L114.927,0.74 L114.927,1.493 C118.81,3.617 119.684,9.379 117.055,16.008 L98.153,63.328 L72.485,0.486 L71.867,0.486 L44.825,63.205 L25.418,13.879 C23.168,7.999 23.794,3.616 27.42,1.493 L27.42,0.74 L0.387,0.74 L0.387,1.493 C3.267,2.993 5.391,6.118 8.021,12.506 L39.82,90.869 L40.441,90.869 L67.23,27.399 L93.523,90.868 L93.523,90.868 Z M293.061,46.932 L293.061,22.021 L319.098,22.021 C330.989,22.021 335.496,23.896 339.754,29.906 L340.505,29.655 L338.998,15.884 L273.906,15.884 L273.781,16.513 C277.666,18.89 278.793,22.393 278.793,27.398 L278.793,76.723 C278.793,81.861 277.666,85.235 273.781,87.612 L273.906,88.364 L342.381,88.364 L344.889,73.596 L344.254,73.345 C339.875,79.23 334.622,82.231 322.853,82.231 L293.061,82.231 L293.061,52.811 L312.971,52.811 C321.474,52.811 325.732,54.188 327.986,57.821 L328.86,57.821 L328.86,42.046 L327.986,41.922 C325.732,45.551 321.474,46.931 312.971,46.931 L293.061,46.931 L293.061,46.932 Z M380.309,87.612 L380.43,88.364 L405.475,88.364 L405.475,87.612 C401.338,85.235 400.09,81.474 400.09,75.468 L400.09,58.446 L422.122,27.026 C426.129,21.268 429.507,17.761 432.387,16.513 L432.387,15.884 L412.857,15.884 L412.857,16.513 C416.363,18.515 416.858,23.397 413.11,28.774 L396.963,52.065 L379.184,25.899 C376.428,21.891 376.929,18.261 380.19,16.513 L380.19,15.884 L352.768,15.884 L352.768,16.513 C356.029,17.886 358.032,19.761 361.532,24.77 L385.818,59.451 L385.818,75.469 C385.817,81.475 384.441,85.235 380.309,87.612 L380.309,87.612 Z M259.512,88.364 L263.015,73.094 L262.264,72.842 C258.005,79.476 251.496,82.231 241.855,82.231 L213.568,82.231 L213.568,28.657 C213.568,22.516 215.072,19.014 219.324,16.513 L219.324,15.884 L194.42,15.884 L194.293,16.513 C198.174,18.89 199.297,22.393 199.297,27.398 L199.297,76.723 C199.297,81.861 198.174,85.235 194.293,87.612 L194.42,88.364 L259.512,88.364 L259.512,88.364 Z M149.226,76.094 C149.226,81.734 147.974,85.364 143.966,87.613 L143.966,88.365 L168.757,88.365 L168.757,87.613 C164.751,85.364 163.503,81.734 163.503,76.094 L163.503,28.025 C163.503,22.517 164.751,18.891 168.757,16.514 L168.757,15.885 L143.966,15.885 L143.966,16.514 C147.974,18.891 149.226,22.517 149.226,28.025 L149.226,76.094 L149.226,76.094 Z" id="Shape" sketch:type="MSShapeGroup"></path>
        </g>
    </g>
</svg>