<?xml version="1.0" encoding="UTF-8" standalone="no"?>
<svg width="1004px" height="354px" viewBox="0 0 1004 354" version="1.1" xmlns="http://www.w3.org/2000/svg" xmlns:xlink="http://www.w3.org/1999/xlink" xmlns:sketch="http://www.bohemiancoding.com/sketch/ns">
    <!-- Generator: Sketch 3.2.2 (9983) - http://www.bohemiancoding.com/sketch -->
    <title>ebsco</title>
    <desc>Created with Sketch.</desc>
    <defs></defs>
    <g id="Page-1" stroke="none" stroke-width="1" fill="none" fill-rule="evenodd" sketch:type="MSPage">
        <g id="ebsco" sketch:type="MSLayerGroup">
            <path d="M1003.07,303.977 C1003.07,331.42 980.611,353.879 953.168,353.879 L50.178,353.879 C22.735,353.879 0.276,331.42 0.276,303.977 L0.276,50.359 C0.276,22.916 22.735,0.466 50.178,0.466 L953.168,0.466 C980.61,0.466 1003.07,22.915 1003.07,50.359 L1003.07,303.977 L1003.07,303.977 Z" id="path5942" fill="#00457C" sketch:type="MSShapeGroup"></path>
            <path d="M295.103,240.922 L295.103,192.667 C295.103,180.453 297.55,178.066 310.293,178.066 C335.808,178.066 354.633,191.428 354.633,220.569 C354.633,244.797 342.469,261.823 318.192,261.823 C300.007,261.823 295.103,256.99 295.103,240.922 L295.103,240.922 Z M295.103,108.241 C295.103,97.316 298.169,92.482 310.292,92.482 C332.153,92.482 345.495,101.02 345.495,129.222 C345.495,158.353 330.675,166.552 311.84,166.552 C299.377,166.552 295.103,163.506 295.103,154.728 L295.103,108.241 L295.103,108.241 Z M392.831,222.377 C392.831,199.938 375.295,175.64 338.853,171.096 L338.853,170.467 C356.429,165.314 381.925,153.18 381.925,126.167 C381.925,97.316 355.271,80.918 306.047,80.918 L227.723,80.918 L227.723,92.482 C249.913,92.482 255.645,98.554 255.645,114.942 L255.645,239.394 C255.645,255.802 249.913,261.824 227.723,261.824 L227.723,273.348 L322.475,273.348 C377.082,273.349 392.831,242.989 392.831,222.377 L392.831,222.377 Z M205.283,229.672 C205.583,226.936 205.862,225.428 205.862,224.16 C205.862,222.961 204.654,222.082 201.339,222.082 C197.693,222.082 197.114,222.961 196.186,224.489 C181.017,250.593 170.69,261.818 133.361,261.818 C105.149,261.818 102.113,258.763 102.113,242.724 L102.113,178.061 L126.08,178.061 C141.839,178.061 147.002,179.608 155.221,206.293 C155.55,207.531 156.13,208.42 159.475,208.42 C162.81,208.42 165.227,207.531 165.227,204.445 L165.227,144.966 C165.227,140.112 163.689,139.214 160.034,139.214 C155.55,139.554 154.921,139.813 154.282,143.189 C150.387,160.745 143.716,164.72 126.08,164.72 L102.113,164.72 L102.113,104.651 C102.113,92.487 104.22,89.391 123.035,89.391 C150.048,89.391 167.655,93.037 181.316,113.439 C184.651,118.572 185.53,119.83 187.647,119.83 C191.022,119.83 193.779,116.734 193.779,115.226 C193.779,113.977 193.17,111.261 192.271,108.246 L184.352,80.923 L36.552,80.923 L36.552,92.487 C56.855,92.487 62.647,98.549 62.647,114.946 L62.647,239.387 C62.647,255.805 56.855,261.817 36.552,261.817 L36.552,273.352 L198.583,273.352 L205.283,229.672 L205.283,229.672 Z M864.553,90.044 C891.527,90.044 924.352,113.123 924.352,177.147 C924.352,241.171 891.527,264.249 864.553,264.249 C837.539,264.249 804.694,241.171 804.694,177.147 C804.694,113.123 837.539,90.044 864.553,90.044 L864.553,90.044 Z M864.553,275.803 C921.296,275.803 966.855,231.453 966.855,177.147 C966.855,122.77 921.296,78.54 864.553,78.54 C807.78,78.54 762.201,122.77 762.201,177.147 C762.201,231.453 807.779,275.803 864.553,275.803 L864.553,275.803 Z M667.877,275.807 C710.68,275.807 735.236,260.028 739.78,254.565 C742.467,251.24 743.724,247.844 744.603,239.956 L745.822,229.329 C746.181,224.496 746.47,221.76 746.47,219.952 C746.47,217.546 744.603,216.038 741.616,216.038 C737.961,216.038 737.022,216.606 734.286,222.958 C730.391,232.705 710.368,264.253 676.983,264.253 C640.842,264.253 608.066,241.163 608.066,177.14 C608.066,113.117 640.842,90.048 667.876,90.048 C695.419,90.048 717.31,104.658 727.355,130.434 C731.519,141.719 732.818,142.578 735.854,142.578 C739.479,142.578 740.977,138.384 740.977,136.486 C740.977,131.642 743.104,120.068 743.104,106.716 C743.104,93.045 702.758,78.544 667.875,78.544 C611.071,78.544 565.533,122.774 565.533,177.141 C565.535,231.456 611.073,275.806 667.877,275.807 L667.877,275.807 Z M473.608,275.806 C529.782,275.806 544.612,243.619 544.612,216.926 C544.612,150.466 446.904,161.401 446.904,118.569 C446.904,102.141 462.044,90.048 479.65,90.048 C499.133,90.048 514.583,104.658 521.553,118.889 C525.507,126.808 526.666,128.636 530.022,128.636 C534.016,128.636 535.205,127.407 535.205,120.987 L535.205,109.48 C535.205,97.656 534.336,93.702 534.017,89.397 C532.18,86.97 513.076,78.542 484.474,78.542 C454.774,78.542 418.364,96.138 418.364,133.728 C418.364,194.146 516.112,188.404 516.112,233.613 C516.112,254.564 498.765,264.252 479.351,264.252 C446.326,264.252 433.533,236.299 430.198,224.495 C428.071,216.605 426.862,216.037 421.729,216.037 C416.556,216.037 415.297,218.124 415.297,224.495 C415.297,237.558 418.033,261.535 420.151,264.252 C430.786,270.033 457.53,275.806 473.608,275.806 L473.608,275.806 Z" id="path5962" fill="#FFFFFF" sketch:type="MSShapeGroup"></path>
        </g>
    </g>
</svg>