<?xml version="1.0" encoding="UTF-8" standalone="no"?>
<svg width="367px" height="80px" viewBox="0 0 367 80" version="1.1" xmlns="http://www.w3.org/2000/svg" xmlns:xlink="http://www.w3.org/1999/xlink" xmlns:sketch="http://www.bohemiancoding.com/sketch/ns">
    <!-- Generator: Sketch 3.2.2 (9983) - http://www.bohemiancoding.com/sketch -->
    <title>logo_copernicus</title>
    <desc>Created with Sketch.</desc>
    <defs></defs>
    <g id="Page-1" stroke="none" stroke-width="1" fill="none" fill-rule="evenodd" sketch:type="MSPage">
        <g id="logo_copernicus" sketch:type="MSLayerGroup" transform="translate(-1.000000, 0.000000)" fill="#00346C">
            <g id="Group" sketch:type="MSShapeGroup">
                <path d="M92.489,19.998 L92.359,17.091 C91.39,16.449 90.372,15.97 89.305,15.654 C88.248,15.339 87.144,15.181 85.99,15.18 C83.05,15.18 80.693,16.073 78.919,17.858 C77.155,19.644 76.273,22.033 76.273,25.027 C76.273,27.128 76.719,29.001 77.612,30.644 C78.515,32.289 79.795,33.589 81.449,34.547 C83.103,35.505 84.851,35.984 86.691,35.984 C88.149,35.984 89.592,35.816 91.018,35.478 C92.084,35.228 93.157,34.706 94.235,33.91 L94.578,34.237 C94.349,34.738 94.137,35.244 93.941,35.756 C92.667,36.388 91.382,36.866 90.087,37.193 C88.802,37.508 87.507,37.666 86.2,37.666 C83.522,37.666 81.165,37.149 79.129,36.115 C77.104,35.081 75.547,33.655 74.459,31.837 C73.37,30.008 72.826,27.945 72.826,25.648 C72.826,23.351 73.375,21.299 74.475,19.491 C75.575,17.673 77.126,16.269 79.129,15.278 C81.143,14.277 83.614,13.776 86.543,13.776 C88.078,13.776 89.874,14.026 91.932,14.527 C92.955,14.767 93.788,14.946 94.431,15.066 C93.941,16.231 93.658,17.875 93.582,19.998 L92.489,19.998 L92.489,19.998 L92.489,19.998 Z" id="Shape"></path>
                <path d="M95.373,29.501 C95.373,27.999 95.721,26.644 96.418,25.435 C97.114,24.216 98.088,23.264 99.341,22.577 C100.604,21.891 102.035,21.548 103.636,21.548 C105.955,21.548 107.811,22.234 109.205,23.606 C110.598,24.978 111.294,26.807 111.295,29.093 C111.295,31.793 110.386,33.938 108.568,35.527 C106.945,36.953 105.003,37.666 102.738,37.666 C100.561,37.666 98.786,36.937 97.415,35.478 C96.053,34.009 95.373,32.017 95.373,29.501 L95.373,29.501 L95.373,29.501 Z M98.443,28.342 C98.443,30.585 98.9,32.506 99.815,34.107 C100.74,35.697 102.068,36.491 103.799,36.491 C105.116,36.491 106.177,35.991 106.984,34.989 C107.8,33.988 108.209,32.469 108.209,30.433 C108.209,28.789 107.969,27.369 107.49,26.171 C107.011,24.963 106.38,24.087 105.595,23.542 C104.811,22.986 103.934,22.709 102.966,22.709 C102.106,22.709 101.328,22.927 100.631,23.362 C99.945,23.798 99.439,24.381 99.112,25.11 C98.666,26.1 98.443,27.178 98.443,28.342 L98.443,28.342 L98.443,28.342 Z" id="Shape"></path>
                <path d="M117.771,24.848 L120.057,22.823 C120.634,22.312 121.124,21.99 121.527,21.86 C122.169,21.653 122.92,21.55 123.78,21.549 C125.718,21.549 127.285,22.148 128.483,23.345 C129.68,24.543 130.279,26.089 130.279,27.983 C130.279,28.93 130.143,29.867 129.871,30.792 C129.599,31.707 129.267,32.458 128.875,33.045 C128.483,33.622 128.042,34.107 127.552,34.498 C127.388,34.629 126.724,35.059 125.559,35.788 L124.906,36.262 C124.078,36.839 123.408,37.215 122.898,37.389 C122.397,37.574 121.82,37.666 121.167,37.666 C120.655,37.666 120.116,37.59 119.551,37.437 C118.984,37.295 118.391,37.083 117.771,36.8 L117.771,39.103 C117.771,41.464 117.804,43.13 117.869,44.099 C117.902,44.523 118.037,44.828 118.277,45.013 C118.517,45.21 119.023,45.308 119.796,45.308 L120.678,45.308 L120.678,46.222 C118.62,46.158 117.112,46.124 116.155,46.124 C115.099,46.124 113.754,46.157 112.121,46.222 L112.121,45.31 L113.313,45.31 C114.151,45.31 114.646,45.13 114.799,44.771 C114.951,44.412 115.027,42.496 115.028,39.022 L115.028,28.996 C115.028,27.254 114.984,25.91 114.897,24.962 C114.854,24.505 114.745,24.206 114.571,24.064 C114.408,23.912 114.016,23.835 113.395,23.835 L112.121,23.835 L112.121,22.823 C113.634,22.66 115.12,22.349 116.579,21.892 L117.575,21.5 C117.749,21.5 117.836,21.652 117.837,21.957 L117.788,23.688 L117.771,24.848 L117.771,24.848 Z M117.771,33.829 C118.468,34.613 119.164,35.168 119.861,35.495 C120.558,35.822 121.309,35.985 122.115,35.985 C123.835,35.985 125.152,35.337 126.067,34.042 C126.982,32.747 127.439,31.206 127.439,29.42 C127.439,28.223 127.227,27.2 126.802,26.35 C126.388,25.49 125.778,24.82 124.973,24.341 C124.167,23.851 123.302,23.606 122.376,23.606 C121.723,23.606 121.081,23.737 120.449,23.998 C119.828,24.259 119.284,24.624 118.816,25.092 C118.347,25.549 118.048,25.973 117.918,26.365 C117.82,26.659 117.771,27.438 117.771,28.7 L117.771,33.829 L117.771,33.829 Z" id="Shape"></path>
                <path d="M135.586,29.437 C135.64,31.582 136.19,33.209 137.235,34.32 C138.28,35.43 139.652,35.986 141.35,35.986 C142.112,35.986 142.868,35.861 143.62,35.611 C144.371,35.361 145.117,34.985 145.857,34.484 L146.135,34.729 L145.613,36.101 C144.709,36.623 143.779,37.016 142.821,37.277 C141.863,37.538 140.878,37.669 139.865,37.669 C137.655,37.669 135.869,36.973 134.509,35.579 C133.159,34.174 132.484,32.275 132.484,29.88 C132.484,28.051 132.865,26.467 133.627,25.128 C134.127,24.246 135.053,23.429 136.403,22.678 C137.753,21.927 139.064,21.551 140.338,21.551 C142.265,21.551 143.789,22.117 144.911,23.249 C146.043,24.382 146.609,25.966 146.609,28.001 L146.576,28.964 C145.857,29.138 145.172,29.253 144.518,29.307 C143.353,29.394 141.736,29.438 139.668,29.438 L135.586,29.438 L135.586,29.437 L135.586,29.437 Z M135.636,28.211 C137.323,28.288 139.184,28.326 141.221,28.326 C142.037,28.326 142.826,28.288 143.589,28.211 L143.589,27.297 C143.589,26.339 143.398,25.43 143.017,24.569 C142.777,24.036 142.358,23.595 141.76,23.246 C141.16,22.887 140.469,22.707 139.686,22.707 C138.466,22.707 137.492,23.153 136.763,24.046 C136.033,24.94 135.657,26.329 135.636,28.211 L135.636,28.211 L135.636,28.211 Z" id="Shape"></path>
                <path d="M153.778,25.24 C154.213,24.826 154.687,24.282 155.199,23.607 C155.808,22.813 156.374,22.269 156.897,21.974 C157.419,21.68 157.969,21.533 158.546,21.533 C159.144,21.533 159.602,21.604 159.918,21.745 C160.07,21.81 160.147,21.913 160.147,22.055 L160.13,22.218 C159.967,23.1 159.874,24.336 159.853,25.925 L159.118,25.925 C158.868,25.37 158.568,24.978 158.22,24.749 C157.882,24.52 157.474,24.406 156.995,24.406 C156.353,24.406 155.754,24.624 155.199,25.059 C154.655,25.495 154.289,26.104 154.105,26.888 C153.919,27.672 153.827,29.213 153.827,31.51 C153.827,33.024 153.887,34.298 154.007,35.331 C154.05,35.712 154.159,35.952 154.334,36.049 C154.747,36.278 155.357,36.392 156.163,36.392 L157.142,36.392 L157.142,37.339 C155.477,37.262 153.897,37.225 152.407,37.225 C150.959,37.225 149.527,37.263 148.112,37.339 L148.112,36.392 L149.68,36.261 C150.235,36.218 150.583,36.115 150.725,35.951 C150.877,35.787 150.975,35.26 151.019,34.367 C151.095,32.799 151.133,30.938 151.133,28.782 C151.133,26.158 151.029,24.618 150.823,24.161 C150.681,23.867 150.235,23.72 149.484,23.72 L148.112,23.72 L148.112,22.773 C149.168,22.653 150.11,22.501 150.937,22.315 C151.764,22.119 152.499,21.874 153.141,21.58 C153.293,21.504 153.418,21.466 153.517,21.466 C153.637,21.466 153.718,21.499 153.762,21.564 C153.806,21.629 153.827,21.776 153.827,22.005 L153.778,25.24 L153.778,25.24 Z" id="Shape"></path>
                <path d="M167.03,24.668 L169.496,22.48 C169.79,22.218 170.1,22.028 170.427,21.908 C171.146,21.669 171.865,21.549 172.583,21.549 C173.748,21.549 174.754,21.789 175.604,22.268 C176.453,22.736 177.062,23.351 177.433,24.113 C177.803,24.864 177.988,26.046 177.988,27.656 L177.906,32.8 C177.906,34.575 177.982,35.598 178.135,35.87 C178.342,36.218 178.744,36.392 179.343,36.392 L180.519,36.392 L180.519,37.339 C179.354,37.262 178.347,37.225 177.498,37.225 C176.671,37.225 175.784,37.263 174.836,37.339 C175.043,35.216 175.146,32.347 175.147,28.733 C175.147,27.275 175.016,26.24 174.755,25.63 C174.505,25.021 174.074,24.531 173.465,24.161 C172.866,23.79 172.142,23.606 171.293,23.605 C170.237,23.605 169.338,23.872 168.598,24.405 C167.869,24.939 167.417,25.527 167.243,26.169 C167.134,26.593 167.079,27.704 167.079,29.5 C167.079,31.493 167.096,33.343 167.128,35.052 C167.139,35.564 167.215,35.885 167.357,36.016 C167.629,36.266 168.075,36.391 168.696,36.391 L169.856,36.391 L169.856,37.338 C168.016,37.261 166.552,37.224 165.463,37.224 C164.309,37.224 162.997,37.262 161.527,37.338 L161.527,36.391 L162.703,36.391 C163.509,36.391 163.976,36.206 164.108,35.836 C164.249,35.455 164.319,33.191 164.32,29.043 C164.32,27.182 164.298,25.723 164.255,24.667 C164.233,24.319 164.146,24.08 163.993,23.948 C163.841,23.818 163.41,23.752 162.703,23.752 L161.527,23.752 L161.527,22.821 C162.463,22.712 163.301,22.565 164.042,22.38 C164.782,22.195 165.614,21.912 166.54,21.531 C166.639,21.488 166.731,21.466 166.818,21.466 C166.992,21.466 167.079,21.591 167.079,21.841 L167.062,22.462 L167.03,24.668 L167.03,24.668 Z" id="Shape"></path>
                <path d="M185.467,14.25 C185.968,14.25 186.398,14.435 186.757,14.805 C187.116,15.164 187.296,15.6 187.296,16.111 C187.296,16.623 187.116,17.058 186.757,17.418 C186.398,17.778 185.968,17.957 185.467,17.957 C184.955,17.957 184.52,17.778 184.16,17.418 C183.801,17.059 183.621,16.624 183.621,16.111 C183.621,15.6 183.801,15.165 184.16,14.805 C184.52,14.435 184.955,14.25 185.467,14.25 L185.467,14.25 L185.467,14.25 Z M186.773,21.483 L187.165,21.728 C187.089,22.545 187.04,23.443 187.019,24.423 C186.942,27.602 186.905,29.948 186.905,31.461 C186.905,32.877 186.954,34.085 187.051,35.086 C187.095,35.478 187.197,35.751 187.362,35.902 C187.525,36.055 187.917,36.169 188.538,36.245 L189.648,36.392 L189.648,37.339 C188.058,37.262 186.611,37.225 185.304,37.225 C184.018,37.225 182.723,37.263 181.417,37.339 L181.417,36.392 L182.822,36.245 C183.366,36.202 183.697,36.103 183.818,35.951 C183.948,35.787 184.03,35.26 184.063,34.367 C184.117,32.985 184.144,31.079 184.145,28.651 C184.145,26.964 184.118,25.663 184.063,24.748 C184.041,24.411 183.943,24.171 183.769,24.03 C183.605,23.888 183.23,23.818 182.642,23.818 L181.417,23.818 L181.417,22.855 C182.745,22.659 183.719,22.48 184.34,22.316 C184.971,22.153 185.782,21.875 186.773,21.483 L186.773,21.483 L186.773,21.483 Z" id="Shape"></path>
                <path d="M203.544,35.021 L203.985,35.413 L203.315,36.458 C202.575,36.861 201.813,37.16 201.029,37.356 C200.245,37.563 199.445,37.666 198.629,37.666 C197.028,37.666 195.668,37.361 194.547,36.752 C193.436,36.143 192.575,35.261 191.966,34.106 C191.357,32.952 191.052,31.58 191.052,29.991 C191.052,28.586 191.285,27.367 191.754,26.333 C192.222,25.288 192.875,24.472 193.714,23.884 C194.563,23.296 195.619,22.719 196.882,22.153 C197.775,21.75 198.771,21.549 199.87,21.549 C200.708,21.549 201.427,21.62 202.025,21.761 C202.634,21.892 203.288,22.132 203.985,22.48 C203.713,23.917 203.565,25.354 203.544,26.791 L202.516,26.791 L202.516,25.974 C202.516,25.278 202.412,24.788 202.205,24.505 C202.009,24.211 201.552,23.922 200.834,23.639 C200.115,23.356 199.331,23.215 198.481,23.214 C197.012,23.214 195.879,23.667 195.085,24.569 C194.289,25.463 193.893,26.801 193.893,28.586 C193.893,30.884 194.481,32.723 195.657,34.106 C196.713,35.358 198.073,35.984 199.739,35.984 C200.392,35.984 201.034,35.902 201.667,35.739 C202.298,35.577 202.923,35.337 203.544,35.021 L203.544,35.021 L203.544,35.021 Z" id="Shape"></path>
                <path d="M218.878,37.34 L219.074,34.401 L218.11,35.446 C217.359,36.262 216.591,36.84 215.808,37.177 C215.035,37.504 214.077,37.667 212.934,37.667 C211.954,37.667 211.11,37.46 210.403,37.047 C209.695,36.633 209.178,36.1 208.851,35.446 C208.536,34.782 208.377,33.737 208.377,32.311 C208.377,31.571 208.394,30.711 208.426,29.731 L208.475,27.102 C208.475,25.262 208.421,24.239 208.312,24.032 C208.214,23.825 207.872,23.722 207.284,23.721 L205.831,23.721 L205.831,22.823 C207.31,22.692 208.677,22.42 209.93,22.007 L211.285,21.501 C211.47,21.501 211.562,21.637 211.562,21.909 L211.448,23.575 C211.296,25.883 211.219,28.028 211.219,30.009 C211.219,31.99 211.3,33.259 211.464,33.814 C211.627,34.358 211.97,34.815 212.492,35.186 C213.014,35.545 213.652,35.725 214.403,35.725 C215.416,35.725 216.341,35.398 217.178,34.745 C218.028,34.092 218.582,33.433 218.844,32.769 C218.986,32.388 219.056,31.24 219.056,29.324 C219.056,26.102 218.996,24.349 218.876,24.066 C218.768,23.837 218.277,23.723 217.407,23.723 L216.116,23.723 L216.116,22.825 C217.238,22.694 218.19,22.542 218.974,22.367 C219.758,22.193 220.584,21.932 221.456,21.583 C221.564,21.529 221.662,21.502 221.75,21.501 C221.935,21.501 222.026,21.605 222.027,21.811 L221.962,23.33 C221.799,27.054 221.717,30.331 221.717,33.161 C221.717,34.75 221.799,35.66 221.962,35.888 C222.201,36.226 222.718,36.394 223.514,36.394 L224.461,36.394 L224.461,37.341 C223.1,37.264 221.945,37.227 220.998,37.227 C220.294,37.226 219.586,37.264 218.878,37.34 L218.878,37.34 L218.878,37.34 Z" id="Shape"></path>
                <path d="M227.812,32.343 L227.812,33.405 C227.812,34.254 227.887,34.782 228.041,34.989 C228.323,35.337 228.873,35.675 229.689,36.001 C230.517,36.328 231.366,36.491 232.237,36.491 C233.358,36.491 234.273,36.192 234.98,35.593 C235.688,34.984 236.042,34.26 236.042,33.421 C236.042,32.757 235.835,32.224 235.422,31.821 C235.008,31.418 234.219,31.097 233.054,30.857 C230.888,30.422 229.456,30.041 228.759,29.714 C228.063,29.387 227.539,28.952 227.192,28.408 C226.843,27.864 226.67,27.205 226.67,26.432 C226.67,24.984 227.192,23.808 228.237,22.905 C229.294,22.002 230.784,21.55 232.712,21.55 C234.235,21.55 235.754,21.855 237.269,22.465 C237.181,23.206 237.111,24.446 237.056,26.188 L236.093,26.188 C236.071,25.23 235.967,24.599 235.782,24.294 C235.531,23.891 235.074,23.527 234.41,23.2 C233.746,22.873 233.039,22.71 232.287,22.71 C231.296,22.71 230.502,22.966 229.903,23.478 C229.315,23.979 229.021,24.61 229.021,25.372 C229.021,26.102 229.254,26.652 229.723,27.021 C230.191,27.402 231.486,27.805 233.61,28.229 C235.177,28.545 236.212,28.839 236.713,29.111 C237.213,29.383 237.616,29.797 237.921,30.352 C238.226,30.907 238.378,31.544 238.378,32.262 C238.378,33.732 237.747,35.001 236.484,36.067 C235.231,37.134 233.555,37.667 231.454,37.667 C230.115,37.667 228.613,37.455 226.947,37.03 C226.653,36.954 226.507,36.84 226.507,36.687 L226.556,36.458 C226.599,36.294 226.637,36.006 226.67,35.592 C226.768,34.536 226.817,33.715 226.817,33.126 L226.8,32.342 L227.812,32.342 L227.812,32.343 L227.812,32.343 Z" id="Shape"></path>
                <path d="M243.684,33.845 C244.206,33.845 244.653,34.031 245.023,34.401 C245.393,34.771 245.578,35.223 245.579,35.756 C245.579,36.278 245.393,36.731 245.023,37.111 C244.653,37.481 244.207,37.665 243.684,37.666 C243.151,37.666 242.699,37.481 242.329,37.111 C241.959,36.73 241.774,36.278 241.774,35.756 C241.774,35.222 241.959,34.771 242.329,34.401 C242.699,34.031 243.15,33.846 243.684,33.845 L243.684,33.845 L243.684,33.845 Z" id="Shape"></path>
                <path d="M249.04,29.501 C249.04,27.999 249.388,26.644 250.085,25.435 C250.781,24.216 251.756,23.264 253.008,22.577 C254.271,21.891 255.702,21.548 257.303,21.548 C259.622,21.548 261.479,22.234 262.872,23.606 C264.265,24.978 264.961,26.807 264.962,29.093 C264.962,31.793 264.053,33.938 262.235,35.527 C260.612,36.953 258.669,37.666 256.405,37.666 C254.227,37.666 252.453,36.937 251.081,35.478 C249.72,34.009 249.04,32.017 249.04,29.501 L249.04,29.501 L249.04,29.501 Z M252.11,28.342 C252.11,30.585 252.567,32.506 253.481,34.107 C254.407,35.697 255.735,36.491 257.465,36.491 C258.783,36.491 259.844,35.991 260.651,34.989 C261.467,33.988 261.876,32.469 261.876,30.433 C261.876,28.789 261.636,27.369 261.157,26.171 C260.678,24.963 260.047,24.087 259.262,23.542 C258.479,22.986 257.602,22.709 256.633,22.709 C255.773,22.709 254.994,22.927 254.297,23.362 C253.611,23.798 253.106,24.381 252.778,25.11 C252.333,26.1 252.11,27.178 252.11,28.342 L252.11,28.342 L252.11,28.342 Z" id="Shape"></path>
                <path d="M272.327,25.24 C272.763,24.826 273.235,24.282 273.748,23.607 C274.357,22.813 274.923,22.269 275.446,21.974 C275.968,21.68 276.518,21.533 277.094,21.533 C277.693,21.533 278.151,21.604 278.466,21.745 C278.618,21.81 278.695,21.913 278.695,22.055 L278.678,22.218 C278.516,23.1 278.422,24.336 278.401,25.925 L277.667,25.925 C277.416,25.37 277.117,24.978 276.769,24.749 C276.431,24.52 276.023,24.406 275.544,24.406 C274.901,24.406 274.303,24.624 273.748,25.059 C273.203,25.495 272.838,26.104 272.653,26.888 C272.467,27.672 272.376,29.213 272.376,31.51 C272.376,33.024 272.436,34.298 272.556,35.331 C272.599,35.712 272.707,35.952 272.882,36.049 C273.296,36.278 273.905,36.392 274.711,36.392 L275.69,36.392 L275.69,37.339 C274.025,37.262 272.446,37.225 270.955,37.225 C269.507,37.225 268.075,37.263 266.66,37.339 L266.66,36.392 L268.228,36.261 C268.783,36.218 269.131,36.115 269.273,35.951 C269.424,35.787 269.523,35.26 269.567,34.367 C269.642,32.799 269.68,30.938 269.681,28.782 C269.681,26.158 269.577,24.618 269.37,24.161 C269.228,23.867 268.782,23.72 268.031,23.72 L266.659,23.72 L266.659,22.773 C267.715,22.653 268.656,22.501 269.484,22.315 C270.311,22.119 271.047,21.874 271.689,21.58 C271.84,21.504 271.965,21.466 272.064,21.466 C272.183,21.466 272.265,21.499 272.309,21.564 C272.353,21.629 272.373,21.776 272.374,22.005 L272.327,25.24 L272.327,25.24 Z" id="Shape"></path>
                <path d="M293.347,24.586 C293.597,25.283 293.722,25.855 293.722,26.301 C293.722,27.27 293.428,28.206 292.84,29.11 C292.252,30.003 291.414,30.727 290.325,31.282 C289.236,31.826 288.06,32.098 286.798,32.098 L286.03,32.082 C285.311,32.616 284.854,33.013 284.659,33.274 C284.473,33.535 284.381,33.792 284.381,34.042 C284.381,34.456 284.594,34.783 285.018,35.022 C285.443,35.262 286.308,35.381 287.615,35.381 C288.116,35.381 288.834,35.365 289.77,35.332 C291.11,35.278 292.078,35.251 292.677,35.25 C293.536,35.25 294.195,35.392 294.654,35.674 C295.111,35.946 295.503,36.431 295.829,37.128 C296.156,37.814 296.319,38.592 296.319,39.463 C296.319,40.683 295.949,41.847 295.209,42.958 C294.469,44.079 293.391,44.978 291.976,45.651 C290.56,46.327 288.933,46.665 287.093,46.665 C284.85,46.665 283.125,46.175 281.916,45.194 C280.708,44.225 280.103,43.028 280.103,41.602 C280.103,40.719 280.418,39.827 281.05,38.924 C282.182,38.39 283.135,37.851 283.907,37.307 C283.014,37.013 282.437,36.746 282.177,36.507 C281.926,36.257 281.801,35.941 281.801,35.56 C281.801,35.103 281.926,34.651 282.177,34.205 C282.318,33.933 282.677,33.601 283.254,33.209 L284.839,32.082 C283.532,31.755 282.59,31.293 282.013,30.694 C281.251,29.889 280.87,28.86 280.87,27.608 C280.87,26.509 281.153,25.507 281.719,24.603 C282.285,23.7 283.118,22.987 284.218,22.464 C285.622,21.8 286.978,21.468 288.284,21.468 C289.111,21.468 289.835,21.577 290.456,21.795 C291.087,22.013 291.729,22.383 292.383,22.905 L293.755,22.905 C295.17,22.905 296.269,22.862 297.053,22.775 L297.234,23.118 C296.907,23.586 296.618,24.076 296.368,24.588 L293.347,24.588 L293.347,24.586 L293.347,24.586 Z M290.864,27.167 C290.864,25.807 290.515,24.712 289.819,23.885 C289.122,23.057 288.245,22.644 287.19,22.644 C286.144,22.644 285.3,22.982 284.659,23.657 C284.026,24.332 283.711,25.268 283.711,26.466 C283.711,27.914 284.055,29.051 284.74,29.879 C285.437,30.695 286.307,31.104 287.353,31.104 C288.398,31.104 289.241,30.761 289.884,30.075 C290.537,29.377 290.864,28.408 290.864,27.167 L290.864,27.167 L290.864,27.167 Z M286.423,37.569 C285.65,37.569 285.121,37.655 284.839,37.83 C283.924,38.418 283.369,38.892 283.173,39.251 C282.846,39.816 282.683,40.53 282.683,41.39 C282.683,42.578 283.124,43.556 284.005,44.329 C284.888,45.102 286.112,45.489 287.68,45.489 C288.889,45.489 289.951,45.264 290.865,44.819 C291.779,44.372 292.487,43.758 292.988,42.973 C293.499,42.2 293.755,41.401 293.756,40.573 C293.756,39.866 293.576,39.245 293.217,38.712 C292.868,38.178 292.449,37.836 291.959,37.683 C291.709,37.606 291.137,37.569 290.244,37.569 L286.423,37.569 L286.423,37.569 L286.423,37.569 Z" id="Shape"></path>
                <path d="M84.723,63.935 L83.176,63.935 L83.176,53.911 L79.942,60.731 L79.02,60.731 L75.809,53.911 L75.809,63.935 L74.364,63.935 L74.364,52.302 L76.473,52.302 L79.575,58.778 L82.575,52.302 L84.723,52.302 L84.723,63.935 L84.723,63.935 Z" id="Shape"></path>
                <path d="M95.036,59.724 L88.606,59.724 C88.606,60.259 88.687,60.728 88.848,61.13 C89.009,61.525 89.23,61.851 89.512,62.107 C89.783,62.357 90.103,62.545 90.473,62.67 C90.848,62.795 91.259,62.858 91.707,62.858 C92.301,62.858 92.897,62.741 93.496,62.506 C94.1,62.266 94.53,62.031 94.785,61.803 L94.863,61.803 L94.863,63.405 C94.368,63.612 93.863,63.788 93.347,63.928 C92.831,64.068 92.289,64.139 91.722,64.139 C90.274,64.139 89.144,63.748 88.331,62.967 C87.518,62.18 87.112,61.065 87.112,59.623 C87.112,58.195 87.5,57.062 88.276,56.225 C89.057,55.385 90.083,54.967 91.354,54.967 C92.531,54.967 93.437,55.311 94.073,55.998 C94.714,56.686 95.034,57.662 95.034,58.928 L95.034,59.724 L95.036,59.724 L95.036,59.724 Z M93.606,58.599 C93.601,57.828 93.405,57.232 93.02,56.81 C92.64,56.388 92.059,56.177 91.278,56.177 C90.491,56.177 89.864,56.407 89.395,56.872 C88.931,57.335 88.668,57.911 88.606,58.599 L93.606,58.599 L93.606,58.599 L93.606,58.599 Z" id="Shape"></path>
                <path d="M104.567,59.724 L98.137,59.724 C98.137,60.259 98.218,60.728 98.379,61.13 C98.54,61.525 98.761,61.851 99.043,62.107 C99.314,62.357 99.634,62.545 100.004,62.67 C100.379,62.795 100.79,62.858 101.238,62.858 C101.832,62.858 102.428,62.741 103.027,62.506 C103.631,62.266 104.061,62.031 104.316,61.803 L104.394,61.803 L104.394,63.405 C103.899,63.612 103.394,63.788 102.878,63.928 C102.362,64.068 101.82,64.139 101.253,64.139 C99.805,64.139 98.675,63.748 97.862,62.967 C97.049,62.18 96.643,61.065 96.643,59.623 C96.643,58.195 97.031,57.062 97.807,56.225 C98.588,55.385 99.614,54.967 100.885,54.967 C102.062,54.967 102.968,55.311 103.603,55.998 C104.244,56.686 104.564,57.662 104.564,58.928 L104.564,59.724 L104.567,59.724 L104.567,59.724 Z M103.137,58.599 C103.132,57.828 102.936,57.232 102.551,56.81 C102.171,56.388 101.59,56.177 100.809,56.177 C100.022,56.177 99.395,56.407 98.926,56.872 C98.462,57.335 98.199,57.911 98.137,58.599 L103.137,58.599 L103.137,58.599 L103.137,58.599 Z" id="Shape"></path>
                <path d="M111.325,63.856 C111.049,63.928 110.747,63.989 110.419,64.036 C110.096,64.083 109.807,64.106 109.552,64.106 C108.661,64.106 107.984,63.866 107.521,63.387 C107.057,62.907 106.826,62.139 106.826,61.082 L106.826,56.441 L105.834,56.441 L105.834,55.207 L106.826,55.207 L106.826,52.7 L108.294,52.7 L108.294,55.208 L111.326,55.208 L111.326,56.442 L108.294,56.442 L108.294,60.419 C108.294,60.876 108.305,61.235 108.326,61.497 C108.347,61.751 108.42,61.991 108.545,62.216 C108.659,62.423 108.816,62.577 109.014,62.677 C109.217,62.771 109.524,62.818 109.935,62.818 C110.175,62.818 110.425,62.783 110.685,62.716 C110.946,62.642 111.133,62.583 111.248,62.536 L111.327,62.536 L111.327,63.856 L111.325,63.856 L111.325,63.856 Z" id="Shape"></path>
                <path d="M114.676,53.747 L113.02,53.747 L113.02,52.224 L114.676,52.224 L114.676,53.747 L114.676,53.747 Z M114.583,63.935 L113.114,63.935 L113.114,55.208 L114.583,55.208 L114.583,63.935 L114.583,63.935 Z" id="Shape"></path>
                <path d="M124.786,63.935 L123.317,63.935 L123.317,58.966 C123.317,58.564 123.293,58.189 123.246,57.841 C123.2,57.486 123.114,57.21 122.988,57.013 C122.858,56.794 122.671,56.632 122.425,56.529 C122.181,56.42 121.862,56.365 121.472,56.365 C121.071,56.365 120.652,56.463 120.214,56.662 C119.776,56.859 119.357,57.111 118.956,57.42 L118.956,63.936 L117.487,63.936 L117.487,55.209 L118.956,55.209 L118.956,56.178 C119.414,55.797 119.888,55.5 120.378,55.287 C120.868,55.072 121.37,54.967 121.886,54.967 C122.828,54.967 123.547,55.25 124.042,55.819 C124.537,56.385 124.785,57.204 124.785,58.272 L124.785,63.935 L124.786,63.935 L124.786,63.935 Z" id="Shape"></path>
                <path d="M134.692,62.942 C134.692,64.421 134.356,65.506 133.684,66.2 C133.012,66.891 131.978,67.237 130.582,67.239 C130.118,67.239 129.665,67.204 129.223,67.137 C128.785,67.074 128.353,66.983 127.926,66.864 L127.926,65.364 L128.004,65.364 C128.243,65.458 128.624,65.571 129.145,65.708 C129.666,65.849 130.187,65.919 130.708,65.919 C131.208,65.919 131.622,65.858 131.95,65.739 C132.278,65.618 132.533,65.452 132.716,65.239 C132.898,65.036 133.028,64.79 133.107,64.505 C133.185,64.218 133.224,63.898 133.224,63.544 L133.224,62.747 C132.781,63.101 132.357,63.366 131.951,63.544 C131.55,63.716 131.037,63.802 130.412,63.802 C129.37,63.802 128.542,63.427 127.928,62.677 C127.319,61.921 127.014,60.859 127.014,59.489 C127.014,58.739 127.118,58.093 127.327,57.551 C127.54,57.004 127.829,56.531 128.194,56.137 C128.532,55.766 128.944,55.481 129.428,55.278 C129.912,55.069 130.394,54.965 130.873,54.965 C131.378,54.965 131.8,55.016 132.139,55.121 C132.482,55.219 132.844,55.373 133.225,55.582 L133.319,55.207 L134.694,55.207 L134.694,62.942 L134.692,62.942 L134.692,62.942 Z M133.223,61.536 L133.223,56.778 C132.832,56.6 132.467,56.475 132.129,56.403 C131.796,56.325 131.462,56.286 131.129,56.286 C130.322,56.286 129.686,56.556 129.223,57.099 C128.759,57.64 128.528,58.427 128.528,59.458 C128.528,60.437 128.7,61.179 129.044,61.685 C129.388,62.189 129.958,62.443 130.755,62.443 C131.182,62.443 131.609,62.361 132.036,62.201 C132.467,62.032 132.864,61.812 133.223,61.536 L133.223,61.536 L133.223,61.536 Z" id="Shape"></path>
                <path d="M143.817,61.419 C143.817,62.216 143.486,62.868 142.825,63.38 C142.169,63.89 141.27,64.144 140.13,64.146 C139.484,64.146 138.89,64.07 138.349,63.919 C137.812,63.763 137.362,63.593 136.997,63.411 L136.997,61.763 L137.075,61.763 C137.538,62.111 138.054,62.39 138.621,62.599 C139.189,62.802 139.733,62.904 140.254,62.904 C140.9,62.904 141.404,62.799 141.77,62.591 C142.135,62.382 142.317,62.054 142.317,61.607 C142.317,61.263 142.217,61.002 142.02,60.826 C141.822,60.648 141.442,60.498 140.879,60.373 C140.671,60.326 140.397,60.271 140.059,60.209 C139.726,60.146 139.421,60.078 139.145,60.006 C138.379,59.803 137.834,59.506 137.512,59.115 C137.194,58.719 137.035,58.234 137.035,57.662 C137.035,57.303 137.108,56.963 137.254,56.646 C137.405,56.328 137.631,56.044 137.934,55.794 C138.226,55.548 138.595,55.356 139.043,55.216 C139.497,55.07 140.002,54.997 140.559,54.997 C141.08,54.997 141.606,55.061 142.137,55.192 C142.673,55.317 143.119,55.469 143.473,55.653 L143.473,57.223 L143.395,57.223 C143.02,56.946 142.564,56.715 142.028,56.528 C141.491,56.335 140.965,56.239 140.45,56.239 C139.913,56.239 139.46,56.343 139.091,56.552 C138.721,56.755 138.536,57.06 138.536,57.466 C138.536,57.825 138.648,58.095 138.872,58.279 C139.091,58.461 139.445,58.609 139.934,58.724 C140.205,58.787 140.507,58.849 140.841,58.912 C141.179,58.975 141.461,59.031 141.685,59.084 C142.367,59.24 142.893,59.508 143.263,59.889 C143.632,60.272 143.817,60.782 143.817,61.419 L143.817,61.419 L143.817,61.419 Z" id="Shape"></path>
                <path d="M155.486,54.63 C155.486,54.134 155.338,53.747 155.041,53.466 C154.749,53.179 154.374,53.036 153.916,53.036 C153.437,53.036 153.046,53.196 152.744,53.52 C152.442,53.836 152.291,54.227 152.291,54.692 C152.291,55.083 152.393,55.428 152.596,55.731 C152.804,56.032 153.249,56.389 153.932,56.801 C154.442,56.617 154.828,56.352 155.088,56.004 C155.353,55.649 155.486,55.192 155.486,54.63 L155.486,54.63 L155.486,54.63 Z M157.001,61.474 L153.267,57.833 C153.105,57.911 152.944,58.015 152.783,58.146 C152.621,58.271 152.46,58.443 152.299,58.662 C152.153,58.865 152.033,59.109 151.939,59.396 C151.846,59.681 151.799,60.005 151.799,60.365 C151.799,61.125 152.02,61.74 152.463,62.209 C152.911,62.672 153.544,62.904 154.361,62.904 C154.845,62.904 155.324,62.787 155.799,62.552 C156.277,62.312 156.678,61.952 157.001,61.474 L157.001,61.474 L157.001,61.474 Z M159.353,56.833 L159.353,57.583 C159.353,58.083 159.288,58.646 159.158,59.271 C159.028,59.896 158.806,60.492 158.494,61.06 L161.447,63.935 L159.525,63.935 L157.736,62.185 C157.137,62.923 156.525,63.443 155.9,63.74 C155.275,64.031 154.632,64.178 153.97,64.178 C152.887,64.178 151.986,63.862 151.267,63.233 C150.553,62.596 150.197,61.766 150.197,60.741 C150.197,60.261 150.264,59.846 150.4,59.499 C150.535,59.149 150.694,58.847 150.877,58.593 C151.059,58.347 151.286,58.118 151.557,57.905 C151.828,57.686 152.101,57.495 152.377,57.335 C151.804,56.96 151.39,56.581 151.135,56.202 C150.885,55.821 150.76,55.343 150.76,54.764 C150.76,54.414 150.827,54.084 150.963,53.772 C151.104,53.454 151.312,53.165 151.588,52.905 C151.848,52.655 152.187,52.452 152.604,52.296 C153.026,52.14 153.489,52.062 153.995,52.062 C154.896,52.062 155.625,52.291 156.183,52.75 C156.74,53.203 157.019,53.777 157.019,54.477 C157.019,54.706 156.988,54.965 156.925,55.258 C156.862,55.543 156.756,55.801 156.605,56.031 C156.438,56.285 156.201,56.531 155.894,56.765 C155.586,56.999 155.188,57.199 154.699,57.367 L157.597,60.195 C157.67,59.986 157.724,59.757 157.761,59.507 C157.798,59.257 157.819,58.995 157.824,58.726 C157.835,58.433 157.837,58.109 157.832,57.749 L157.832,56.835 L159.353,56.835 L159.353,56.833 L159.353,56.833 Z" id="Shape"></path>
                <path d="M175.983,53.638 C176.457,54.158 176.818,54.796 177.069,55.552 C177.324,56.306 177.451,57.163 177.451,58.122 C177.451,59.079 177.321,59.938 177.061,60.7 C176.805,61.454 176.446,62.085 175.983,62.591 C175.504,63.116 174.936,63.513 174.28,63.779 C173.629,64.045 172.884,64.177 172.046,64.177 C171.228,64.177 170.483,64.04 169.812,63.771 C169.145,63.5 168.578,63.107 168.109,62.591 C167.64,62.075 167.278,61.443 167.023,60.693 C166.773,59.943 166.648,59.086 166.648,58.123 C166.648,57.174 166.773,56.326 167.023,55.576 C167.273,54.82 167.638,54.174 168.117,53.638 C168.575,53.126 169.143,52.736 169.82,52.466 C170.502,52.195 171.244,52.06 172.047,52.06 C172.88,52.06 173.627,52.197 174.289,52.474 C174.954,52.743 175.519,53.132 175.983,53.638 L175.983,53.638 L175.983,53.638 Z M175.842,58.122 C175.842,56.61 175.503,55.446 174.826,54.63 C174.149,53.806 173.225,53.396 172.053,53.396 C170.87,53.396 169.941,53.806 169.264,54.63 C168.592,55.446 168.256,56.61 168.256,58.122 C168.256,59.647 168.6,60.817 169.287,61.63 C169.975,62.437 170.896,62.841 172.053,62.841 C173.209,62.841 174.128,62.437 174.811,61.63 C175.499,60.817 175.842,59.647 175.842,58.122 L175.842,58.122 L175.842,58.122 Z" id="Shape"></path>
                <path d="M187.468,59.466 C187.468,60.173 187.366,60.821 187.163,61.411 C186.96,61.993 186.673,62.489 186.304,62.895 C185.96,63.28 185.554,63.579 185.085,63.793 C184.621,64 184.128,64.106 183.608,64.106 C183.155,64.106 182.743,64.055 182.374,63.958 C182.009,63.858 181.637,63.704 181.257,63.497 L181.257,67.153 L179.788,67.153 L179.788,55.208 L181.257,55.208 L181.257,56.122 C181.647,55.794 182.085,55.52 182.57,55.302 C183.059,55.077 183.58,54.966 184.133,54.966 C185.185,54.966 186.003,55.364 186.587,56.161 C187.173,56.952 187.468,58.054 187.468,59.466 L187.468,59.466 L187.468,59.466 Z M185.952,59.505 C185.952,58.452 185.772,57.665 185.413,57.146 C185.054,56.625 184.5,56.365 183.756,56.365 C183.334,56.365 182.91,56.455 182.483,56.638 C182.055,56.82 181.647,57.06 181.256,57.357 L181.256,62.302 C181.673,62.49 182.029,62.616 182.326,62.685 C182.628,62.751 182.97,62.787 183.35,62.787 C184.168,62.787 184.805,62.51 185.265,61.959 C185.723,61.405 185.952,60.587 185.952,59.505 L185.952,59.505 L185.952,59.505 Z" id="Shape"></path>
                <path d="M197.062,59.724 L190.632,59.724 C190.632,60.259 190.712,60.728 190.874,61.13 C191.035,61.525 191.257,61.851 191.538,62.107 C191.809,62.357 192.129,62.545 192.499,62.67 C192.874,62.795 193.285,62.858 193.733,62.858 C194.327,62.858 194.922,62.741 195.522,62.506 C196.126,62.266 196.555,62.031 196.811,61.803 L196.889,61.803 L196.889,63.405 C196.394,63.612 195.889,63.788 195.373,63.928 C194.857,64.068 194.315,64.139 193.748,64.139 C192.3,64.139 191.17,63.748 190.357,62.967 C189.544,62.18 189.138,61.065 189.138,59.623 C189.138,58.195 189.526,57.062 190.302,56.225 C191.083,55.385 192.109,54.967 193.38,54.967 C194.557,54.967 195.463,55.311 196.099,55.998 C196.74,56.686 197.06,57.662 197.06,58.928 L197.06,59.724 L197.062,59.724 L197.062,59.724 Z M195.632,58.599 C195.626,57.828 195.431,57.232 195.046,56.81 C194.665,56.388 194.085,56.177 193.304,56.177 C192.517,56.177 191.89,56.407 191.421,56.872 C190.957,57.335 190.694,57.911 190.632,58.599 L195.632,58.599 L195.632,58.599 L195.632,58.599 Z" id="Shape"></path>
                <path d="M206.585,63.935 L205.116,63.935 L205.116,58.966 C205.116,58.564 205.093,58.189 205.046,57.841 C204.999,57.486 204.913,57.21 204.788,57.013 C204.657,56.794 204.47,56.632 204.225,56.529 C203.98,56.42 203.662,56.365 203.272,56.365 C202.871,56.365 202.452,56.463 202.014,56.662 C201.576,56.859 201.157,57.111 200.756,57.42 L200.756,63.936 L199.287,63.936 L199.287,55.209 L200.756,55.209 L200.756,56.178 C201.214,55.797 201.688,55.5 202.178,55.287 C202.667,55.072 203.17,54.967 203.686,54.967 C204.628,54.967 205.347,55.25 205.842,55.819 C206.336,56.385 206.584,57.204 206.584,58.272 L206.584,63.935 L206.585,63.935 L206.585,63.935 Z" id="Shape"></path>
                <path d="M224.327,63.935 L222.679,63.935 L221.538,60.693 L216.507,60.693 L215.366,63.935 L213.796,63.935 L218.03,52.302 L220.093,52.302 L224.327,63.935 L224.327,63.935 Z M221.062,59.364 L219.023,53.653 L216.976,59.364 L221.062,59.364 L221.062,59.364 Z" id="Shape"></path>
                <path d="M232.429,63.388 C231.939,63.622 231.473,63.804 231.031,63.935 C230.593,64.064 230.127,64.13 229.633,64.13 C229.002,64.13 228.424,64.038 227.899,63.857 C227.373,63.669 226.922,63.388 226.547,63.013 C226.166,62.638 225.872,62.163 225.664,61.591 C225.456,61.017 225.351,60.349 225.351,59.583 C225.351,58.155 225.742,57.036 226.523,56.224 C227.309,55.411 228.345,55.005 229.632,55.005 C230.132,55.005 230.621,55.075 231.101,55.216 C231.585,55.357 232.028,55.529 232.429,55.732 L232.429,57.365 L232.351,57.365 C231.903,57.015 231.439,56.748 230.96,56.56 C230.485,56.372 230.022,56.279 229.569,56.279 C228.736,56.279 228.077,56.56 227.592,57.123 C227.113,57.68 226.873,58.5 226.873,59.584 C226.873,60.635 227.107,61.445 227.576,62.014 C228.05,62.577 228.714,62.858 229.568,62.858 C229.865,62.858 230.167,62.819 230.474,62.741 C230.781,62.663 231.057,62.561 231.302,62.436 C231.515,62.327 231.716,62.211 231.904,62.092 C232.092,61.967 232.24,61.86 232.349,61.772 L232.427,61.772 L232.427,63.388 L232.429,63.388 L232.429,63.388 Z" id="Shape"></path>
                <path d="M240.765,63.388 C240.275,63.622 239.809,63.804 239.367,63.935 C238.929,64.064 238.464,64.13 237.969,64.13 C237.339,64.13 236.76,64.038 236.235,63.857 C235.709,63.669 235.258,63.388 234.883,63.013 C234.502,62.638 234.208,62.163 234,61.591 C233.791,61.017 233.687,60.349 233.687,59.583 C233.687,58.155 234.078,57.036 234.859,56.224 C235.645,55.411 236.681,55.005 237.968,55.005 C238.468,55.005 238.957,55.075 239.437,55.216 C239.921,55.357 240.364,55.529 240.765,55.732 L240.765,57.365 L240.687,57.365 C240.239,57.015 239.776,56.748 239.296,56.56 C238.821,56.372 238.358,56.279 237.905,56.279 C237.071,56.279 236.413,56.56 235.928,57.123 C235.449,57.68 235.209,58.5 235.209,59.584 C235.209,60.635 235.443,61.445 235.912,62.014 C236.386,62.577 237.05,62.858 237.904,62.858 C238.201,62.858 238.503,62.819 238.81,62.741 C239.117,62.663 239.393,62.561 239.638,62.436 C239.851,62.327 240.051,62.211 240.24,62.092 C240.428,61.967 240.576,61.86 240.685,61.772 L240.763,61.772 L240.763,63.388 L240.765,63.388 L240.765,63.388 Z" id="Shape"></path>
                <path d="M249.952,59.724 L243.522,59.724 C243.522,60.259 243.602,60.728 243.764,61.13 C243.925,61.525 244.147,61.851 244.428,62.107 C244.699,62.357 245.019,62.545 245.389,62.67 C245.764,62.795 246.175,62.858 246.623,62.858 C247.217,62.858 247.812,62.741 248.412,62.506 C249.016,62.266 249.445,62.031 249.701,61.803 L249.779,61.803 L249.779,63.405 C249.284,63.612 248.779,63.788 248.263,63.928 C247.747,64.068 247.205,64.139 246.638,64.139 C245.19,64.139 244.06,63.748 243.247,62.967 C242.434,62.18 242.028,61.065 242.028,59.623 C242.028,58.195 242.416,57.062 243.192,56.225 C243.973,55.385 244.999,54.967 246.27,54.967 C247.447,54.967 248.353,55.311 248.989,55.998 C249.63,56.686 249.95,57.662 249.95,58.928 L249.95,59.724 L249.952,59.724 L249.952,59.724 Z M248.522,58.599 C248.517,57.828 248.321,57.232 247.936,56.81 C247.555,56.388 246.975,56.177 246.194,56.177 C245.407,56.177 244.78,56.407 244.311,56.872 C243.847,57.335 243.584,57.911 243.522,58.599 L248.522,58.599 L248.522,58.599 L248.522,58.599 Z" id="Shape"></path>
                <path d="M258.413,61.419 C258.413,62.216 258.082,62.868 257.421,63.38 C256.765,63.89 255.866,64.144 254.726,64.146 C254.08,64.146 253.487,64.07 252.945,63.919 C252.409,63.763 251.958,63.593 251.593,63.411 L251.593,61.763 L251.671,61.763 C252.134,62.111 252.65,62.39 253.218,62.599 C253.785,62.802 254.33,62.904 254.851,62.904 C255.497,62.904 256.001,62.799 256.367,62.591 C256.731,62.382 256.914,62.054 256.914,61.607 C256.914,61.263 256.814,61.002 256.617,60.826 C256.419,60.648 256.039,60.498 255.476,60.373 C255.268,60.326 254.994,60.271 254.656,60.209 C254.322,60.146 254.017,60.078 253.742,60.006 C252.976,59.803 252.431,59.506 252.109,59.115 C251.791,58.719 251.632,58.234 251.632,57.662 C251.632,57.303 251.705,56.963 251.851,56.646 C252.001,56.328 252.228,56.044 252.531,55.794 C252.822,55.548 253.192,55.356 253.64,55.216 C254.093,55.07 254.598,54.997 255.156,54.997 C255.677,54.997 256.203,55.061 256.734,55.192 C257.27,55.317 257.715,55.469 258.07,55.653 L258.07,57.223 L257.992,57.223 C257.617,56.946 257.161,56.715 256.625,56.528 C256.089,56.335 255.562,56.239 255.047,56.239 C254.51,56.239 254.057,56.343 253.688,56.552 C253.318,56.755 253.133,57.06 253.133,57.466 C253.133,57.825 253.244,58.095 253.469,58.279 C253.688,58.461 254.041,58.609 254.532,58.724 C254.803,58.787 255.105,58.849 255.438,58.912 C255.776,58.975 256.057,59.031 256.282,59.084 C256.964,59.24 257.49,59.508 257.86,59.889 C258.228,60.272 258.413,60.782 258.413,61.419 L258.413,61.419 L258.413,61.419 Z" id="Shape"></path>
                <path d="M266.749,61.419 C266.749,62.216 266.418,62.868 265.757,63.38 C265.101,63.89 264.202,64.144 263.062,64.146 C262.416,64.146 261.822,64.07 261.281,63.919 C260.744,63.763 260.294,63.593 259.929,63.411 L259.929,61.763 L260.007,61.763 C260.471,62.111 260.986,62.39 261.554,62.599 C262.121,62.802 262.665,62.904 263.187,62.904 C263.833,62.904 264.338,62.799 264.703,62.591 C265.067,62.382 265.25,62.054 265.25,61.607 C265.25,61.263 265.15,61.002 264.953,60.826 C264.755,60.648 264.375,60.498 263.812,60.373 C263.603,60.326 263.331,60.271 262.992,60.209 C262.658,60.146 262.353,60.078 262.078,60.006 C261.312,59.803 260.767,59.506 260.445,59.115 C260.127,58.719 259.968,58.234 259.968,57.662 C259.968,57.303 260.04,56.963 260.187,56.646 C260.337,56.328 260.564,56.044 260.867,55.794 C261.158,55.548 261.528,55.356 261.976,55.216 C262.429,55.07 262.934,54.997 263.492,54.997 C264.013,54.997 264.539,55.061 265.07,55.192 C265.606,55.317 266.051,55.469 266.406,55.653 L266.406,57.223 L266.328,57.223 C265.953,56.946 265.497,56.715 264.961,56.528 C264.424,56.335 263.898,56.239 263.383,56.239 C262.846,56.239 262.394,56.343 262.024,56.552 C261.654,56.755 261.469,57.06 261.469,57.466 C261.469,57.825 261.58,58.095 261.805,58.279 C262.024,58.461 262.377,58.609 262.868,58.724 C263.139,58.787 263.44,58.849 263.774,58.912 C264.112,58.975 264.393,59.031 264.618,59.084 C265.301,59.24 265.826,59.508 266.196,59.889 C266.563,60.272 266.749,60.782 266.749,61.419 L266.749,61.419 L266.749,61.419 Z" id="Shape"></path>
                <path d="M282.202,55.817 C282.202,56.333 282.11,56.811 281.929,57.255 C281.751,57.693 281.501,58.071 281.179,58.396 C280.778,58.796 280.304,59.099 279.757,59.302 C279.21,59.499 278.52,59.599 277.687,59.599 L276.14,59.599 L276.14,63.935 L274.593,63.935 L274.593,52.302 L277.749,52.302 C278.447,52.302 279.038,52.361 279.522,52.482 C280.006,52.595 280.436,52.779 280.811,53.029 C281.253,53.326 281.594,53.695 281.834,54.138 C282.08,54.579 282.202,55.14 282.202,55.817 L282.202,55.817 L282.202,55.817 Z M280.593,55.856 C280.593,55.454 280.523,55.106 280.382,54.809 C280.241,54.512 280.028,54.27 279.741,54.082 C279.491,53.92 279.204,53.805 278.882,53.738 C278.564,53.664 278.16,53.629 277.671,53.629 L276.14,53.629 L276.14,58.277 L277.445,58.277 C278.07,58.277 278.578,58.222 278.968,58.113 C279.359,57.998 279.676,57.818 279.921,57.574 C280.165,57.324 280.337,57.06 280.437,56.785 C280.54,56.509 280.593,56.2 280.593,55.856 L280.593,55.856 L280.593,55.856 Z" id="Shape"></path>
                <path d="M291.358,63.935 L289.889,63.935 L289.889,62.966 C289.394,63.357 288.92,63.655 288.467,63.864 C288.014,64.071 287.514,64.177 286.967,64.177 C286.05,64.177 285.337,63.898 284.826,63.341 C284.315,62.778 284.06,61.954 284.06,60.872 L284.06,55.208 L285.529,55.208 L285.529,60.177 C285.529,60.618 285.55,60.999 285.592,61.318 C285.633,61.631 285.722,61.898 285.858,62.123 C285.999,62.352 286.18,62.518 286.405,62.623 C286.629,62.727 286.955,62.779 287.382,62.779 C287.762,62.779 288.176,62.679 288.624,62.482 C289.077,62.283 289.499,62.031 289.89,61.724 L289.89,55.208 L291.359,55.208 L291.359,63.935 L291.358,63.935 L291.358,63.935 Z" id="Shape"></path>
                <path d="M301.929,59.505 C301.929,60.234 301.825,60.89 301.616,61.474 C301.413,62.056 301.137,62.546 300.788,62.943 C300.418,63.353 300.012,63.664 299.569,63.873 C299.126,64.076 298.639,64.178 298.108,64.178 C297.613,64.178 297.18,64.117 296.811,63.998 C296.441,63.883 296.077,63.727 295.717,63.529 L295.623,63.935 L294.248,63.935 L294.248,51.778 L295.717,51.778 L295.717,56.122 C296.128,55.782 296.566,55.507 297.03,55.294 C297.493,55.075 298.014,54.966 298.593,54.966 C299.624,54.966 300.437,55.361 301.031,56.154 C301.629,56.944 301.928,58.062 301.929,59.505 L301.929,59.505 L301.929,59.505 Z M300.413,59.544 C300.413,58.501 300.241,57.712 299.897,57.177 C299.553,56.634 298.999,56.364 298.233,56.364 C297.805,56.364 297.374,56.458 296.936,56.645 C296.498,56.827 296.092,57.063 295.717,57.356 L295.717,62.356 C296.133,62.544 296.489,62.672 296.787,62.747 C297.089,62.819 297.43,62.856 297.81,62.856 C298.623,62.856 299.258,62.59 299.716,62.059 C300.181,61.522 300.413,60.685 300.413,59.544 L300.413,59.544 L300.413,59.544 Z" id="Shape"></path>
                <path d="M305.702,63.935 L304.233,63.935 L304.233,51.778 L305.702,51.778 L305.702,63.935 L305.702,63.935 Z" id="Shape"></path>
                <path d="M310.187,53.747 L308.531,53.747 L308.531,52.224 L310.187,52.224 L310.187,53.747 L310.187,53.747 Z M310.093,63.935 L308.624,63.935 L308.624,55.208 L310.093,55.208 L310.093,63.935 L310.093,63.935 Z" id="Shape"></path>
                <path d="M319.452,63.388 C318.962,63.622 318.496,63.804 318.054,63.935 C317.616,64.064 317.15,64.13 316.656,64.13 C316.025,64.13 315.447,64.038 314.922,63.857 C314.396,63.669 313.945,63.388 313.57,63.013 C313.189,62.638 312.895,62.163 312.687,61.591 C312.479,61.017 312.374,60.349 312.374,59.583 C312.374,58.155 312.765,57.036 313.546,56.224 C314.332,55.411 315.368,55.005 316.655,55.005 C317.155,55.005 317.644,55.075 318.124,55.216 C318.608,55.357 319.051,55.529 319.452,55.732 L319.452,57.365 L319.374,57.365 C318.926,57.015 318.462,56.748 317.983,56.56 C317.508,56.372 317.045,56.279 316.592,56.279 C315.759,56.279 315.1,56.56 314.615,57.123 C314.136,57.68 313.896,58.5 313.896,59.584 C313.896,60.635 314.13,61.445 314.599,62.014 C315.073,62.577 315.737,62.858 316.591,62.858 C316.888,62.858 317.19,62.819 317.497,62.741 C317.804,62.663 318.08,62.561 318.325,62.436 C318.538,62.327 318.739,62.211 318.927,62.092 C319.115,61.967 319.263,61.86 319.372,61.772 L319.45,61.772 L319.45,63.388 L319.452,63.388 L319.452,63.388 Z" id="Shape"></path>
                <path d="M328.116,63.935 L326.655,63.935 L326.655,63.005 C326.524,63.093 326.347,63.218 326.124,63.38 C325.905,63.536 325.691,63.661 325.483,63.755 C325.238,63.874 324.957,63.972 324.639,64.052 C324.321,64.134 323.949,64.177 323.522,64.177 C322.735,64.177 322.069,63.915 321.522,63.396 C320.975,62.875 320.702,62.21 320.702,61.404 C320.702,60.742 320.843,60.209 321.124,59.802 C321.41,59.39 321.816,59.068 322.343,58.833 C322.874,58.599 323.512,58.438 324.257,58.356 C325.001,58.272 325.801,58.21 326.655,58.168 L326.655,57.941 C326.655,57.607 326.594,57.332 326.475,57.113 C326.36,56.894 326.194,56.722 325.975,56.597 C325.767,56.476 325.516,56.396 325.225,56.355 C324.933,56.312 324.628,56.292 324.311,56.292 C323.925,56.292 323.496,56.343 323.022,56.448 C322.547,56.546 322.058,56.692 321.553,56.886 L321.475,56.886 L321.475,55.394 C321.761,55.316 322.175,55.23 322.717,55.136 C323.259,55.042 323.792,54.995 324.319,54.995 C324.933,54.995 325.467,55.046 325.921,55.151 C326.379,55.249 326.775,55.421 327.109,55.667 C327.437,55.905 327.687,56.216 327.859,56.597 C328.031,56.976 328.117,57.449 328.117,58.011 L328.117,63.935 L328.116,63.935 L328.116,63.935 Z M326.655,61.786 L326.655,59.356 C326.207,59.381 325.678,59.42 325.069,59.473 C324.465,59.524 323.986,59.6 323.631,59.7 C323.209,59.819 322.867,60.007 322.608,60.263 C322.347,60.513 322.217,60.859 322.217,61.302 C322.217,61.802 322.367,62.179 322.67,62.435 C322.972,62.685 323.433,62.81 324.053,62.81 C324.569,62.81 325.04,62.71 325.467,62.513 C325.895,62.31 326.29,62.067 326.655,61.786 L326.655,61.786 L326.655,61.786 Z" id="Shape"></path>
                <path d="M335.476,63.856 C335.2,63.928 334.898,63.989 334.57,64.036 C334.247,64.083 333.958,64.106 333.703,64.106 C332.812,64.106 332.135,63.866 331.672,63.387 C331.208,62.907 330.977,62.139 330.977,61.082 L330.977,56.441 L329.985,56.441 L329.985,55.207 L330.977,55.207 L330.977,52.7 L332.446,52.7 L332.446,55.208 L335.477,55.208 L335.477,56.442 L332.446,56.442 L332.446,60.419 C332.446,60.876 332.456,61.235 332.477,61.497 C332.498,61.751 332.571,61.991 332.696,62.216 C332.81,62.423 332.967,62.577 333.165,62.677 C333.368,62.771 333.675,62.818 334.087,62.818 C334.326,62.818 334.576,62.783 334.837,62.716 C335.098,62.642 335.285,62.583 335.4,62.536 L335.478,62.536 L335.478,63.856 L335.476,63.856 L335.476,63.856 Z" id="Shape"></path>
                <path d="M338.827,53.747 L337.171,53.747 L337.171,52.224 L338.827,52.224 L338.827,53.747 L338.827,53.747 Z M338.733,63.935 L337.264,63.935 L337.264,55.208 L338.733,55.208 L338.733,63.935 L338.733,63.935 Z" id="Shape"></path>
                <path d="M349.077,59.575 C349.077,60.997 348.713,62.118 347.983,62.942 C347.254,63.764 346.277,64.176 345.053,64.176 C343.819,64.176 342.836,63.764 342.108,62.942 C341.383,62.118 341.022,60.997 341.022,59.575 C341.022,58.153 341.383,57.03 342.108,56.208 C342.837,55.38 343.819,54.966 345.053,54.966 C346.277,54.966 347.253,55.38 347.983,56.208 C348.713,57.03 349.077,58.153 349.077,59.575 L349.077,59.575 L349.077,59.575 Z M347.562,59.575 C347.562,58.444 347.34,57.606 346.898,57.059 C346.455,56.506 345.84,56.231 345.054,56.231 C344.257,56.231 343.637,56.506 343.195,57.059 C342.757,57.606 342.539,58.444 342.539,59.575 C342.539,60.669 342.761,61.499 343.203,62.067 C343.645,62.63 344.263,62.911 345.055,62.911 C345.836,62.911 346.448,62.632 346.891,62.075 C347.337,61.513 347.562,60.679 347.562,59.575 L347.562,59.575 L347.562,59.575 Z" id="Shape"></path>
                <path d="M358.647,63.935 L357.178,63.935 L357.178,58.966 C357.178,58.564 357.155,58.189 357.108,57.841 C357.061,57.486 356.975,57.21 356.85,57.013 C356.719,56.794 356.532,56.632 356.287,56.529 C356.042,56.42 355.724,56.365 355.334,56.365 C354.933,56.365 354.514,56.463 354.076,56.662 C353.638,56.859 353.219,57.111 352.818,57.42 L352.818,63.936 L351.349,63.936 L351.349,55.209 L352.818,55.209 L352.818,56.178 C353.276,55.797 353.75,55.5 354.24,55.287 C354.729,55.072 355.232,54.967 355.748,54.967 C356.69,54.967 357.409,55.25 357.904,55.819 C358.398,56.385 358.646,57.204 358.646,58.272 L358.646,63.935 L358.647,63.935 L358.647,63.935 Z" id="Shape"></path>
                <path d="M367.71,61.419 C367.71,62.216 367.379,62.868 366.718,63.38 C366.062,63.89 365.163,64.144 364.023,64.146 C363.377,64.146 362.783,64.07 362.242,63.919 C361.705,63.763 361.255,63.593 360.89,63.411 L360.89,61.763 L360.968,61.763 C361.431,62.111 361.947,62.39 362.515,62.599 C363.082,62.802 363.626,62.904 364.148,62.904 C364.794,62.904 365.298,62.799 365.664,62.591 C366.028,62.382 366.211,62.054 366.211,61.607 C366.211,61.263 366.111,61.002 365.914,60.826 C365.716,60.648 365.336,60.498 364.773,60.373 C364.564,60.326 364.291,60.271 363.953,60.209 C363.619,60.146 363.314,60.078 363.039,60.006 C362.273,59.803 361.728,59.506 361.406,59.115 C361.089,58.719 360.929,58.234 360.929,57.662 C360.929,57.303 361.001,56.963 361.148,56.646 C361.299,56.328 361.525,56.044 361.828,55.794 C362.119,55.548 362.489,55.356 362.937,55.216 C363.39,55.07 363.895,54.997 364.453,54.997 C364.974,54.997 365.5,55.061 366.031,55.192 C366.567,55.317 367.012,55.469 367.367,55.653 L367.367,57.223 L367.289,57.223 C366.914,56.946 366.458,56.715 365.922,56.528 C365.385,56.335 364.859,56.239 364.344,56.239 C363.807,56.239 363.354,56.343 362.985,56.552 C362.615,56.755 362.43,57.06 362.43,57.466 C362.43,57.825 362.542,58.095 362.766,58.279 C362.985,58.461 363.339,58.609 363.829,58.724 C364.1,58.787 364.401,58.849 364.735,58.912 C365.074,58.975 365.355,59.031 365.579,59.084 C366.261,59.24 366.787,59.508 367.157,59.889 C367.524,60.272 367.71,60.782 367.71,61.419 L367.71,61.419 L367.71,61.419 Z" id="Shape"></path>
                <path d="M49.665,0.857 C49.71,0.98 49.699,1.126 49.632,1.226 C49.397,1.461 49.072,1.483 48.781,1.55 C46.868,1.863 44.484,1.942 43.723,4.079 C43.32,5.947 44.126,7.603 44.898,9.136 C46.543,12.135 48.826,14.876 51.131,17.606 C52.988,20.649 51.646,24.645 50.303,27.486 C48.703,30.63 45.514,33.841 41.743,33.718 C40.669,33.662 39.539,33.08 39.169,32.006 C39.169,31.928 39.248,31.849 39.326,31.804 C41.71,31.469 44.395,30.64 45.38,28.112 C46.174,25.851 45.346,23.479 44.44,21.521 C42.694,17.974 40.11,14.763 37.223,11.686 C35.634,12.838 33.945,14.394 33.296,16.195 C33.083,17.101 33.094,18.109 33.083,19.093 L33.217,23.737 L33.407,29.354 L33.418,33.718 C33.183,39.917 32.836,46.081 29.255,50.894 C26.85,54.306 23.414,57.843 18.972,57.249 C16.767,56.958 14.575,54.999 13.948,52.862 C13.523,51.575 13.567,49.885 14.485,48.835 C14.944,48.151 15.66,48.007 16.376,47.905 C16.577,47.928 16.79,47.995 16.879,48.208 C16.958,48.442 16.901,48.733 16.823,48.958 C16.342,50.233 15.548,51.856 16.42,53.21 C17.125,54.228 18.199,54.642 19.251,54.989 C20.37,55.29 21.601,55.067 22.384,54.137 C23.872,52.27 24.208,49.92 24.566,47.569 C24.924,44.639 25.047,41.606 25.036,38.518 L24.991,34.054 L24.767,28.448 L24.364,21.79 C24.207,20.481 23.29,19.183 22.048,18.601 C19.374,17.326 16.196,18.31 14.07,20.078 C10.187,23.424 8.9,28 8.319,32.789 C7.871,38.484 8.274,44.292 10.053,49.294 C12.1,55.526 16.241,61.501 22.081,65.552 C26.064,68.304 30.417,70.152 35.072,71.269 C38.91,72.175 43.744,72.457 47.313,70.777 C50.167,69.613 52.863,66.929 54.463,64.232 C56.588,59.878 57.518,54.978 57.237,49.64 C57.237,48.634 56.991,47.413 57.976,46.81 C58.155,46.687 58.379,46.621 58.625,46.642 C59.486,46.966 59.509,47.974 59.666,48.757 C59.979,53.255 59.163,57.495 57.92,61.456 C55.951,67.8 51.195,74.47 44.829,77.513 C42.703,78.531 40.454,79.314 37.891,79.181 C34.411,79.136 31.055,78.777 27.955,77.827 L25.203,76.964 L21.175,75.511 C15.021,72.747 8.934,67.007 5.756,60.931 C3.272,56.376 1.818,51.398 1.124,46.093 C0.498,39.323 2.276,33.17 5.062,27.62 C7.49,22.775 11.91,17.639 16.945,15.267 C17.929,14.786 18.959,14.383 20.022,14.059 C21.588,13.612 23.132,14.193 24.14,15.469 C25.214,16.811 25.695,18.4 26.299,19.945 C26.389,20.113 26.534,20.325 26.736,20.37 C26.971,20.336 27.116,20.09 27.284,19.911 C29.186,15.928 32.252,12.268 35.878,9.147 C38.429,7.256 40.745,4.817 43.162,2.579 C44.549,1.404 45.903,0.184 47.716,0.039 C48.467,0.073 49.217,0.208 49.665,0.857 L49.665,0.857 L49.665,0.857 Z" id="Shape"></path>
            </g>
        </g>
    </g>
</svg>