<?xml version="1.0" encoding="UTF-8" standalone="no"?>
<svg width="123px" height="21px" viewBox="0 0 123 21" version="1.1" xmlns="http://www.w3.org/2000/svg" xmlns:xlink="http://www.w3.org/1999/xlink" xmlns:sketch="http://www.bohemiancoding.com/sketch/ns">
    <!-- Generator: Sketch 3.2.2 (9983) - http://www.bohemiancoding.com/sketch -->
    <title>Fraunhofer</title>
    <desc>Created with Sketch.</desc>
    <defs></defs>
    <g id="Page-1" stroke="none" stroke-width="1" fill="none" fill-rule="evenodd" sketch:type="MSPage">
        <g id="Fraunhofer" sketch:type="MSLayerGroup">
            <g id="Group" sketch:type="MSShapeGroup">
                <g id="Shape">
                    <path d="M0.366,20.365 C5.063,17.947 11.945,14.038 20.112,8.322 L20.112,6.403 C12.924,11.106 5.614,14.882 0.366,17.38 L0.366,20.365 L0.366,20.365 Z" fill="#00A389"></path>
                    <path d="M0.366,14.636 C5.596,12.506 12.906,9.213 20.112,4.928 L20.112,3.981 C13.34,7.341 6.304,9.443 0.366,10.754 L0.366,14.636 L0.366,14.636 Z" fill="#00A389"></path>
                    <path d="M20.111,20.375 L20.111,10.725 C15.615,14.515 11.164,17.796 7.424,20.375 L20.111,20.375 L20.111,20.375 Z" fill="#00A389"></path>
                    <path d="M4.899,20.375 C8.45,18.267 12.761,15.516 17.053,12.3 C18.054,11.549 19.077,10.776 20.111,9.977 L20.111,8.781 C13.757,13.544 7.273,17.515 2.206,20.375 L4.899,20.375 L4.899,20.375 Z" fill="#00A389"></path>
                    <path d="M0.366,9.351 C6.141,8.335 13.207,6.508 20.112,3.226 L20.112,2.15 C13.154,5.273 6.19,6.598 0.366,7.069 L0.366,9.351 L0.366,9.351 Z" fill="#00A389"></path>
                    <path d="M0.366,0.529 L0.366,6.057 C0.797,6.03 1.237,5.999 1.686,5.965 C6.488,5.596 13.04,4.747 20.111,1.69 L20.111,0.529 L0.366,0.529 L0.366,0.529 Z" fill="#00A389"></path>
                    <path d="M0.366,6.058 L0.366,7.07 C6.19,6.599 13.154,5.274 20.112,2.151 L20.112,1.691 C13.041,4.749 6.488,5.597 1.687,5.966 C1.237,6 0.797,6.031 0.366,6.058 L0.366,6.058 Z" fill="#FFFFFF"></path>
                    <path d="M0.366,10.754 C6.304,9.443 13.339,7.34 20.112,3.981 L20.112,3.226 C13.208,6.508 6.142,8.334 0.366,9.351 L0.366,10.754 L0.366,10.754 Z" fill="#FFFFFF"></path>
                    <path d="M0.366,17.38 C5.614,14.882 12.924,11.106 20.112,6.403 L20.112,4.928 C12.906,9.213 5.596,12.506 0.366,14.636 L0.366,17.38 L0.366,17.38 Z" fill="#FFFFFF"></path>
                    <path d="M4.899,20.375 L7.424,20.375 C11.164,17.796 15.615,14.515 20.111,10.725 L20.111,9.978 C19.077,10.777 18.055,11.55 17.053,12.301 C12.761,15.516 8.45,18.267 4.899,20.375 L4.899,20.375 Z" fill="#FFFFFF"></path>
                    <path d="M0.366,20.375 L2.206,20.375 C7.273,17.515 13.758,13.544 20.111,8.781 L20.111,8.322 C11.944,14.038 5.063,17.947 0.365,20.365 L0.365,20.375 L0.366,20.375 Z" fill="#FFFFFF"></path>
                </g>
                <path d="M116.4,20.365 L118.939,20.365 L118.939,16.781 C118.939,15.38 118.939,12.801 121.004,12.801 C121.46,12.801 121.915,12.876 122.143,13.009 L122.143,10.45 C121.875,10.374 121.611,10.374 121.365,10.374 C119.849,10.374 118.806,11.911 118.693,12.818 L118.654,12.818 L118.654,10.602 L116.4,10.602 L116.4,20.365 L116.4,20.365 Z M113.86,17.75 C112.911,18.28 111.851,18.736 110.617,18.736 C109.047,18.736 107.947,17.845 107.831,16.27 L114.579,16.27 C114.579,12.858 113.557,10.375 109.935,10.375 C106.904,10.375 105.406,12.706 105.406,15.531 C105.406,18.736 107.282,20.594 110.506,20.594 C111.871,20.594 112.93,20.328 113.86,19.816 L113.86,17.75 L113.86,17.75 Z M107.831,14.526 C107.947,13.218 108.665,12.233 110.088,12.233 C111.511,12.233 112.079,13.295 112.153,14.526 L107.831,14.526 L107.831,14.526 Z M99.72,20.365 L102.259,20.365 L102.259,12.459 L104.476,12.459 L104.476,10.602 L102.259,10.602 L102.259,9.389 C102.259,8.631 102.526,7.891 103.38,7.891 C103.928,7.891 104.251,8.1 104.476,8.233 L104.686,6.129 C104.194,6.016 103.474,5.921 102.83,5.921 C100.819,5.921 99.721,7.285 99.721,9.238 L99.721,10.603 L97.845,10.603 L97.845,12.46 L99.721,12.46 L99.721,20.365 L99.72,20.365 Z M89.616,15.246 C89.616,13.787 90.412,12.346 92.062,12.346 C93.73,12.346 94.525,13.749 94.525,15.246 C94.525,16.877 94.015,18.621 92.062,18.621 C90.127,18.621 89.616,16.857 89.616,15.246 L89.616,15.246 Z M86.962,15.551 C86.962,18.354 88.84,20.593 92.063,20.593 C95.304,20.593 97.18,18.354 97.18,15.551 C97.18,12.327 94.964,10.375 92.063,10.375 C89.182,10.375 86.962,12.327 86.962,15.551 L86.962,15.551 Z M76.386,20.365 L78.926,20.365 L78.926,15.587 C78.926,14.337 79.324,12.346 81.164,12.346 C82.794,12.346 82.811,13.958 82.811,15.152 L82.811,20.366 L85.349,20.366 L85.349,14.204 C85.349,12.005 84.345,10.375 82.035,10.375 C80.708,10.375 79.608,10.982 78.966,11.93 L78.926,11.93 L78.926,6.149 L76.386,6.149 L76.386,20.365 L76.386,20.365 Z M64.806,20.365 L67.345,20.365 L67.345,15.587 C67.345,14.337 67.743,12.346 69.581,12.346 C71.21,12.346 71.229,13.958 71.229,15.152 L71.229,20.366 L73.771,20.366 L73.771,14.204 C73.771,12.005 72.765,10.375 70.454,10.375 C69.127,10.375 68.045,10.812 67.251,11.93 L67.21,11.93 L67.21,10.603 L64.806,10.603 L64.806,20.365 L64.806,20.365 Z M62.188,10.603 L59.647,10.603 L59.647,15.38 C59.647,16.63 59.249,18.621 57.41,18.621 C55.78,18.621 55.761,17.009 55.761,15.814 L55.761,10.603 L53.221,10.603 L53.221,16.764 C53.221,18.963 54.225,20.594 56.538,20.594 C57.864,20.594 58.964,19.988 59.741,19.038 L59.78,19.038 L59.78,20.366 L62.187,20.366 L62.187,10.603 L62.188,10.603 Z M44.862,17.541 C44.862,16.042 46.549,15.853 47.687,15.853 L48.787,15.853 C48.787,16.612 48.673,17.312 48.255,17.863 C47.858,18.392 47.252,18.736 46.474,18.736 C45.564,18.735 44.862,18.373 44.862,17.541 L44.862,17.541 Z M43.574,13.294 C44.427,12.648 45.507,12.232 46.588,12.232 C48.085,12.232 48.787,12.763 48.787,14.336 L47.384,14.336 C46.323,14.336 45.071,14.429 44.105,14.904 C43.138,15.379 42.438,16.232 42.438,17.692 C42.438,19.548 44.125,20.592 45.85,20.592 C47.006,20.592 48.276,19.986 48.863,18.905 L48.9,18.905 C48.92,19.207 48.92,19.851 49.014,20.364 L51.25,20.364 C51.193,19.604 51.155,18.922 51.136,18.183 C51.117,17.463 51.099,16.724 51.099,15.737 L51.099,14.486 C51.099,11.605 49.867,10.373 46.891,10.373 C45.81,10.373 44.484,10.658 43.498,11.113 L43.574,13.294 L43.574,13.294 Z M35.935,20.365 L38.475,20.365 L38.475,16.781 C38.475,15.38 38.475,12.801 40.54,12.801 C40.995,12.801 41.45,12.876 41.678,13.009 L41.678,10.45 C41.412,10.374 41.147,10.374 40.9,10.374 C39.384,10.374 38.341,11.911 38.228,12.818 L38.19,12.818 L38.19,10.602 L35.934,10.602 L35.934,20.365 L35.935,20.365 Z M26.761,20.365 L29.415,20.365 L29.415,14.563 L33.889,14.563 L33.889,12.478 L29.415,12.478 L29.415,9.218 L34.116,9.218 L34.116,7.134 L26.761,7.134 L26.761,20.365 L26.761,20.365 Z" id="Shape" fill="#000000"></path>
            </g>
        </g>
    </g>
</svg>