<?xml version="1.0" encoding="UTF-8" standalone="no"?>
<svg width="199px" height="149px" viewBox="0 0 199 149" version="1.1" xmlns="http://www.w3.org/2000/svg" xmlns:xlink="http://www.w3.org/1999/xlink" xmlns:sketch="http://www.bohemiancoding.com/sketch/ns">
    <!-- Generator: Sketch 3.2.2 (9983) - http://www.bohemiancoding.com/sketch -->
    <title>logo_coneda</title>
    <desc>Created with Sketch.</desc>
    <defs></defs>
    <g id="Page-1" stroke="none" stroke-width="1" fill="none" fill-rule="evenodd" sketch:type="MSPage">
        <g id="logo_coneda" sketch:type="MSLayerGroup">
            <path d="M0.464,0.732 L198.89,0.732 L198.89,148.133 L0.464,148.133 L0.464,0.732 L0.464,0.732 Z" id="Shape" fill="#000000" sketch:type="MSShapeGroup"></path>
            <path d="M38.48,115.587 L37.975,115.587 C32.876,115.587 28.685,111.45 28.685,106.352 L28.685,89.338 C28.685,84.188 32.875,80.1 37.975,80.1 L38.48,80.1 C43.178,80.1 47.012,83.533 47.617,88.028 L47.617,88.177 C47.617,88.883 47.063,89.438 46.408,89.438 C45.802,89.438 45.245,88.985 45.142,88.379 C44.687,85.095 41.912,82.571 38.479,82.571 L37.974,82.571 C34.24,82.571 31.16,85.601 31.16,89.337 L31.16,106.351 C31.16,110.084 34.24,113.117 37.974,113.117 L38.479,113.117 C41.912,113.117 44.687,110.59 45.142,107.308 C45.245,106.703 45.802,106.251 46.408,106.251 C47.063,106.251 47.617,106.805 47.617,107.511 L47.617,107.663 C47.012,112.156 43.178,115.587 38.48,115.587 L38.48,115.587 Z" id="Shape" fill="#FFFFFF" sketch:type="MSShapeGroup"></path>
            <path d="M61.938,115.587 L61.43,115.587 C56.333,115.587 52.193,111.45 52.193,106.352 L52.193,89.338 C52.193,84.188 56.334,80.1 61.43,80.1 L61.938,80.1 C67.035,80.1 71.174,84.188 71.174,89.338 L71.174,106.352 C71.174,111.45 67.036,115.587 61.938,115.587 L61.938,115.587 Z M68.702,89.337 C68.702,85.601 65.672,82.571 61.939,82.571 L61.431,82.571 C57.698,82.571 54.668,85.601 54.668,89.337 L54.668,106.351 C54.668,110.084 57.698,113.117 61.431,113.117 L61.939,113.117 C65.672,113.117 68.702,110.085 68.702,106.351 L68.702,89.337 L68.702,89.337 Z" id="Shape" fill="#FFFFFF" sketch:type="MSShapeGroup"></path>
            <path d="M94.943,115.587 L94.036,115.587 C93.682,115.587 93.027,115.338 92.773,114.732 L79.697,85.045 L79.697,114.326 C79.697,115.186 79.042,115.587 78.436,115.587 C77.83,115.587 77.173,115.187 77.173,114.326 L77.173,81.36 C77.173,80.702 77.778,80.099 78.436,80.099 L79.345,80.099 C79.648,80.099 80.202,80.351 80.454,80.908 L93.632,110.642 L93.632,81.36 C93.632,80.502 94.287,80.099 94.893,80.099 C95.498,80.099 96.154,80.502 96.154,81.36 L96.154,114.277 C96.154,115.086 95.602,115.587 94.943,115.587 L94.943,115.587 Z" id="Shape" fill="#FFFFFF" sketch:type="MSShapeGroup"></path>
            <path d="M120.031,115.289 L103.576,115.289 C102.868,115.289 102.31,114.681 102.31,114.023 L102.31,81.665 C102.31,81.01 102.867,80.402 103.576,80.402 L120.031,80.402 C120.889,80.402 121.294,81.009 121.294,81.665 C121.294,82.269 120.889,82.872 120.031,82.872 L105.038,82.872 L105.038,95.951 L115.588,95.951 C116.447,95.951 116.853,96.608 116.853,97.263 C116.853,97.869 116.448,98.475 115.588,98.475 L104.789,98.475 L104.789,112.811 L120.032,112.811 C120.89,112.811 121.295,113.419 121.295,114.023 C121.294,114.681 120.889,115.289 120.031,115.289 L120.031,115.289 Z" id="Shape" fill="#FFFFFF" sketch:type="MSShapeGroup"></path>
            <path d="M136.4,115.289 L127.92,115.289 C127.212,115.289 126.654,114.681 126.654,114.023 L126.654,81.665 C126.654,81.01 127.211,80.402 127.92,80.402 L136.4,80.402 C141.496,80.402 145.638,84.489 145.638,89.639 L145.638,106.048 C145.638,111.149 141.496,115.289 136.4,115.289 L136.4,115.289 Z M143.165,89.64 C143.165,85.904 140.136,82.872 136.4,82.872 L129.127,82.872 L129.127,112.811 L136.4,112.811 C140.136,112.811 143.165,109.784 143.165,106.048 L143.165,89.64 L143.165,89.64 Z" id="Shape" fill="#FFFFFF" sketch:type="MSShapeGroup"></path>
            <path d="M171.669,115.587 C171.164,115.587 170.709,115.338 170.506,114.681 L167.833,106.601 L153.948,106.601 L151.425,114.681 C151.22,115.338 150.77,115.587 150.262,115.587 C149.608,115.587 148.999,115.137 148.999,114.377 C148.999,114.277 148.999,114.126 149.05,113.977 L159.754,81.011 C159.957,80.352 160.46,80.1 160.964,80.1 C161.471,80.1 161.926,80.404 162.126,81.011 L172.881,113.977 C172.93,114.126 172.93,114.229 172.93,114.377 C172.93,115.137 172.323,115.587 171.669,115.587 L171.669,115.587 Z M160.964,85.147 L154.758,104.128 L167.076,104.128 L160.964,85.147 L160.964,85.147 Z" id="Shape" fill="#FFFFFF" sketch:type="MSShapeGroup"></path>
        </g>
    </g>
</svg>