<?xml version="1.0" encoding="UTF-8" standalone="no"?>
<svg width="150px" height="68px" viewBox="0 0 150 68" version="1.1" xmlns="http://www.w3.org/2000/svg" xmlns:xlink="http://www.w3.org/1999/xlink" xmlns:sketch="http://www.bohemiancoding.com/sketch/ns">
    <!-- Generator: Sketch 3.2.2 (9983) - http://www.bohemiancoding.com/sketch -->
    <title>dgfs</title>
    <desc>Created with Sketch.</desc>
    <defs></defs>
    <g id="Page-1" stroke="none" stroke-width="1" fill="none" fill-rule="evenodd" sketch:type="MSPage">
        <g id="dgfs" sketch:type="MSLayerGroup" fill="#000000">
            <g id="Group" sketch:type="MSShapeGroup">
                <path d="M6.886,52.348 C1.845,52.348 0.19,50.116 0.19,45.22 L0.19,23.041 C0.19,18.217 2.494,15.913 6.886,15.913 L28.128,15.913 L28.128,20.089 L8.398,20.089 C5.734,20.089 4.87,21.025 4.87,23.977 L4.87,44.427 C4.87,47.163 5.59,48.243 8.398,48.243 L31.728,48.243 L31.728,0.647 L36.336,0.647 L36.336,52.348 L6.886,52.348 L6.886,52.348 Z" id="Shape"></path>
                <path d="M46.197,67.613 L46.197,63.509 L72.695,63.509 C75.575,63.509 76.367,62.357 76.367,59.476 L76.367,20.089 L53.037,20.089 C50.229,20.089 49.509,21.169 49.509,24.049 L49.509,44.426 C49.509,47.162 50.229,48.242 53.037,48.242 L72.767,48.242 L72.767,52.346 L51.453,52.346 C46.485,52.346 44.828,50.114 44.828,45.218 L44.828,23.041 C44.828,18.145 46.484,15.913 51.453,15.913 L80.975,15.913 L80.975,60.485 C80.975,65.381 79.391,67.613 74.422,67.613 L46.197,67.613 L46.197,67.613 Z" id="Shape"></path>
                <path d="M89.541,52.348 L89.541,9 C89.541,2.879 91.629,0.647 96.166,0.647 L106.823,0.647 L106.823,4.824 L97.534,4.824 C95.158,4.824 94.221,5.904 94.221,9 L94.221,15.913 L106.534,15.913 L106.534,19.873 L94.221,19.873 L94.221,52.348 L89.541,52.348 L89.541,52.348 Z" id="Shape"></path>
                <path d="M113.875,52.348 L113.875,48.244 L141.31,48.244 C143.974,48.244 144.694,47.308 144.694,44.86 L144.694,38.739 C144.694,36.867 143.974,36.003 141.741,36.003 L119.347,36.003 C115.531,36.003 113.874,33.986 113.874,30.818 L113.874,22.249 C113.874,17.929 115.53,15.913 120.427,15.913 L149.013,15.913 L149.013,20.089 L122.011,20.089 C119.275,20.089 118.555,21.025 118.555,23.617 L118.555,29.017 C118.555,31.033 119.275,32.041 121.579,32.041 L143.973,32.041 C147.717,32.041 149.446,34.057 149.446,37.153 L149.446,46.01 C149.446,50.33 147.717,52.346 142.893,52.346 L113.875,52.346 L113.875,52.348 Z" id="Shape"></path>
            </g>
        </g>
    </g>
</svg>