<?xml version="1.0" encoding="UTF-8" standalone="no"?>
<svg width="73px" height="30px" viewBox="0 0 73 30" version="1.1" xmlns="http://www.w3.org/2000/svg" xmlns:xlink="http://www.w3.org/1999/xlink" xmlns:sketch="http://www.bohemiancoding.com/sketch/ns">
    <!-- Generator: Sketch 3.2.2 (9983) - http://www.bohemiancoding.com/sketch -->
    <title>SAGW</title>
    <desc>Created with Sketch.</desc>
    <defs></defs>
    <g id="Page-1" stroke="none" stroke-width="1" fill="none" fill-rule="evenodd" sketch:type="MSPage">
        <g id="SAGW" sketch:type="MSLayerGroup">
            <g id="Group" sketch:type="MSShapeGroup">
                <path d="M4.526,13.253 C4.526,6.877 9.693,1.709 16.069,1.709 C22.444,1.709 27.613,6.876 27.613,13.253 C27.613,17.463 24.198,20.877 19.987,20.877 C19.331,20.877 18.798,20.345 18.798,19.689 C18.798,19.031 19.331,18.5 19.987,18.5 C22.884,18.5 25.234,16.15 25.234,13.253 C25.234,8.19 21.13,4.086 16.069,4.086 C11.006,4.086 6.905,8.19 6.905,13.253 C6.905,16.956 9.999,20.103 13.513,20.103 C13.746,20.103 13.933,19.919 13.933,19.689 C13.933,19.456 13.745,19.269 13.514,19.269 C10.449,19.269 7.743,16.493 7.743,13.253 C7.743,8.652 11.471,4.926 16.069,4.926 C20.667,4.926 24.394,8.652 24.394,13.253 C24.394,15.687 22.421,17.66 19.987,17.66 C18.867,17.66 17.958,18.567 17.958,19.689 C17.958,20.808 18.867,21.717 19.987,21.717 C24.664,21.717 28.452,17.928 28.452,13.253 C28.452,6.414 22.908,0.869 16.069,0.869 C9.23,0.869 3.685,6.414 3.685,13.253 C3.685,18.732 8.159,23.326 13.513,23.326 C15.557,23.326 17.188,21.698 17.188,19.689 L17.188,16.889 L19.987,16.889 C21.997,16.889 23.624,15.262 23.624,13.253 C23.624,9.08 20.242,5.697 16.069,5.697 C11.895,5.697 8.512,9.079 8.512,13.253 C8.512,16.08 10.919,18.5 13.55,18.5 C14.207,18.5 14.738,19.031 14.738,19.689 C14.738,20.345 14.221,20.877 13.513,20.877 C9.541,20.877 6.134,17.38 6.134,13.253 C6.134,7.766 10.582,3.318 16.069,3.318 C21.556,3.318 26.004,7.766 26.004,13.253 C26.004,16.575 23.31,19.269 19.987,19.269 C19.754,19.269 19.566,19.457 19.566,19.689 C19.566,19.919 19.754,20.108 19.987,20.108 C23.773,20.108 26.843,17.038 26.843,13.253 C26.843,7.301 22.019,2.479 16.069,2.479 C10.119,2.479 5.295,7.302 5.295,13.253 C5.295,17.845 9.086,21.717 13.514,21.717 C14.695,21.717 15.579,20.808 15.579,19.689 C15.579,18.567 14.671,17.654 13.55,17.654 C11.3,17.654 9.352,15.613 9.352,13.253 C9.352,9.543 12.36,6.537 16.069,6.537 C19.779,6.537 22.785,9.543 22.785,13.253 C22.785,14.798 21.533,16.05 19.987,16.05 L17.188,16.05 L17.188,13.253 C17.188,12.633 16.687,12.133 16.069,12.133 C15.451,12.133 14.951,12.633 14.951,13.253 C14.951,13.91 14.417,14.441 13.761,14.441 C13.103,14.441 12.572,13.91 12.572,13.253 C12.572,11.32 14.138,9.754 16.07,9.754 C18.002,9.754 19.567,11.32 19.567,13.253 C19.567,13.484 19.755,13.672 19.988,13.672 C20.22,13.672 20.408,13.484 20.408,13.253 C20.408,10.856 18.466,8.915 16.07,8.915 C13.674,8.915 11.732,10.856 11.732,13.253 C11.732,14.373 12.639,15.28 13.761,15.28 C14.881,15.28 15.789,14.373 15.789,13.253 C15.789,13.097 15.915,12.973 16.07,12.973 C16.224,12.973 16.349,13.097 16.349,13.253 L16.349,16.05 L13.761,16.05 C12.21,16.05 10.963,14.799 10.963,13.253 C10.963,10.432 13.248,8.145 16.069,8.145 C18.889,8.145 21.176,10.432 21.176,13.253 C21.176,13.91 20.644,14.441 19.987,14.441 C19.331,14.441 18.798,13.91 18.798,13.253 C18.798,11.745 17.576,10.524 16.069,10.524 C14.563,10.524 13.341,11.746 13.341,13.253 C13.341,13.484 13.527,13.672 13.76,13.672 C13.99,13.672 14.179,13.484 14.179,13.253 C14.179,12.209 15.025,11.364 16.068,11.364 C17.112,11.364 17.957,12.209 17.957,13.253 C17.957,14.373 18.866,15.28 19.986,15.28 C21.107,15.28 22.014,14.373 22.014,13.253 C22.014,9.969 19.352,7.305 16.068,7.305 C12.784,7.305 10.122,9.969 10.122,13.253 C10.122,15.262 11.746,16.889 13.76,16.889 L16.347,16.889 L16.347,19.689 C16.347,21.234 15.107,22.486 13.512,22.486 C8.679,22.486 4.526,18.27 4.526,13.253 L4.526,13.253 L4.526,13.253 Z" id="Shape" fill="#000000"></path>
                <path d="M0.59,25.619 L31.544,25.619 L31.544,28.715 L0.59,28.715 L0.59,25.619 L0.59,25.619 Z" id="Shape" fill="#00539F"></path>
            </g>
            <text fill="#000000" sketch:type="MSTextLayer" font-family="Helvetica" font-size="12" font-weight="normal">
                <tspan x="36.167" y="16.7061">SAGW</tspan>
            </text>
            <text id="ASSH" fill="#000000" sketch:type="MSTextLayer" font-family="Helvetica" font-size="12" font-weight="normal">
                <tspan x="36.167" y="28.7061">ASSH</tspan>
            </text>
        </g>
    </g>
</svg>