<svg xmlns="http://www.w3.org/2000/svg" width="158" height="126" viewBox="0 0 158 126" version="1.1"><path d="M13.6 13C21.9 4.6 32 0.4 43.8 0.4 55.5 0.4 65.6 4.6 73.9 13 82.3 21.3 86.5 31.4 86.5 43.2 86.5 55.1 82.3 65.2 73.9 73.5 65.6 81.9 55.5 86.1 43.8 86.1 32 86.1 21.9 81.9 13.6 73.5 5.2 65.2 1 55.1 1 43.2 1 31.4 5.2 21.3 13.6 13L13.6 13ZM24.4 62.5C29.8 67.9 36.2 70.5 43.8 70.5 51.3 70.5 57.7 67.9 63.1 62.5 68.4 57.2 71.1 50.8 71.1 43.2 71.1 35.6 68.4 29.2 63.1 23.9 57.7 18.6 51.3 15.9 43.8 15.9 36.2 15.9 29.8 18.6 24.4 23.9 19.1 29.2 16.4 35.6 16.4 43.2 16.4 50.8 19.1 57.2 24.4 62.5L24.4 62.5Z" fill="#336600"/><path d="M156.9 43.3C156.9 31.5 152.7 21.4 144.4 13 136 4.6 125.9 0.4 113.9 0.4 102.1 0.4 92 4.6 83.7 13 75.3 21.4 71.1 31.5 71.1 43.3 71.1 55.2 75.3 65.3 83.7 73.6 92 82 102.1 86.2 113.9 86.2 121.8 86.2 128.8 84.3 135.2 80.7L128.2 66.6C123.7 69.3 118.9 70.6 113.9 70.6 106.5 70.6 100.1 67.9 94.7 62.6 89.4 57.2 86.7 50.8 86.7 43.3 86.7 35.8 89.4 29.3 94.7 24 100.1 18.6 106.5 15.9 113.9 15.9 121.5 15.9 128 18.6 133.4 24 138.8 29.3 141.5 35.8 141.5 43.3L141.5 55 141.5 54.9 141.5 83.7 156.9 83.7 156.9 57.1 156.9 43.3 156.9 43.3Z" fill="#FFCC00"/><g transform="translate(1.000000, 0.000000)" fill="#336600"><path d="M12.6 13C20.9 4.6 31 0.4 42.8 0.4 54.6 0.4 64.6 4.6 73 13 81.3 21.3 85.5 31.4 85.5 43.2 85.5 55.1 81.3 65.2 73 73.5 64.6 81.9 54.6 86.1 42.8 86.1 31 86.1 20.9 81.9 12.6 73.5 4.2 65.2 0 55.1 0 43.2 0 31.4 4.2 21.3 12.6 13L12.6 13ZM23.5 62.5C28.8 67.9 35.3 70.5 42.8 70.5 50.3 70.5 56.7 67.9 62.1 62.5 67.5 57.2 70.1 50.8 70.1 43.2 70.1 35.7 67.5 29.2 62.1 23.9 56.7 18.6 50.3 15.9 42.8 15.9 35.3 15.9 28.8 18.6 23.5 23.9 18.1 29.2 15.4 35.7 15.4 43.2 15.4 50.8 18.1 57.2 23.5 62.5L23.5 62.5Z"/></g><g transform="translate(0.000000, 101.000000)"><path d="M16.8 9.1C16.8 13.7 13.6 17.1 8.9 17.1 4.2 17.1 1 13.7 1 9.1 1 4.4 4.2 1.1 8.9 1.1 13.6 1.1 16.8 4.4 16.8 9.1L16.8 9.1ZM5.3 9.1C5.3 11.1 6.7 13.3 8.9 13.3 11.1 13.3 12.4 11.1 12.4 9.1 12.4 7 11.1 4.8 8.9 4.8 6.7 4.9 5.3 7 5.3 9.1L5.3 9.1Z" fill="#336600"/><path d="M23.1 2.9C24.1 1.8 25.7 1.1 27.2 1.1 31.5 1.1 34.1 5 34.1 9 34.1 13.1 31.6 17.1 27.2 17.1 25.6 17.1 24 16.4 23.1 15.2L23.1 15.2 23.1 24.6 18.8 24.6 18.8 1.5 23.1 1.5 23.1 2.9 23.1 2.9ZM29.8 9C29.8 7 28.4 4.9 26.2 4.9 24 4.9 22.7 7 22.7 9 22.7 11.1 24 13.3 26.2 13.3 28.4 13.3 29.8 11.1 29.8 9L29.8 9Z" fill="#336600"/><path d="M39.6 9.7C39.6 11.6 40.3 13.8 42.5 13.8 43.9 13.8 44.8 12.9 45.4 11.7L49.3 12.4C48.3 15.4 45.7 17.1 42.5 17.1 37.9 17.1 35 13.8 35 9.2 35 4.6 37.4 1.1 42.3 1.1 47.2 1.1 49.4 4.7 49.4 9.2L49.4 9.7 39.6 9.7 39.6 9.7ZM45.4 7.1C45.2 5.6 44.2 4.1 42.5 4.1 40.8 4.1 39.9 5.5 39.7 7.1L45.4 7.1 45.4 7.1Z" fill="#336600"/><path d="M55.7 2.9L55.8 2.9C56.7 1.6 58.2 1.1 59.7 1.1 63.7 1.1 64.9 3.9 64.9 7.4L64.9 16.6 60.6 16.6 60.6 8.6C60.6 6.8 60.7 4.5 58.3 4.5 55.7 4.5 55.7 7.3 55.7 9.1L55.7 16.6 51.4 16.6 51.4 1.5 55.7 1.5 55.7 2.9 55.7 2.9Z" fill="#336600"/><path d="M89.9 16.5L85.7 16.5 85.7 15.1 85.6 15.1C84.7 16.3 83.1 17 81.6 17 77.2 17 74.7 13 74.7 8.9 74.7 4.9 77.2 1 81.5 1 83.1 1 84.7 1.7 85.7 2.9L85.7 1.5 89.9 1.5 89.9 16.5 89.9 16.5ZM86.1 9C86.1 7 84.8 4.8 82.6 4.8 80.3 4.8 79 7 79 9 79 11 80.3 13.2 82.5 13.2 84.8 13.2 86.1 11 86.1 9L86.1 9Z" fill="#FFCC00"/><path d="M103.2 6.1C102.3 5.2 101.4 4.6 100.1 4.6 97.7 4.6 96.3 6.9 96.3 9.1 96.3 11.4 97.8 13.4 100.2 13.4 101.4 13.4 102.5 12.8 103.2 11.9L103.2 16.1C102.1 16.7 100.8 17 99.5 17 95.1 17 91.9 13.4 91.9 9 91.9 4.6 95.2 1 99.7 1 100.9 1 102.2 1.3 103.2 1.9L103.2 6.1 103.2 6.1Z" fill="#FFCC00"/><path d="M116.1 6.1C115.2 5.2 114.3 4.6 113 4.6 110.6 4.6 109.2 6.9 109.2 9.1 109.2 11.4 110.7 13.4 113.1 13.4 114.3 13.4 115.4 12.8 116.1 11.9L116.1 16.1C115 16.7 113.7 17 112.4 17 108 17 104.8 13.4 104.8 9 104.8 4.6 108.1 1 112.6 1 113.8 1 115.1 1.3 116.1 1.9L116.1 6.1 116.1 6.1Z" fill="#FFCC00"/><path d="M123.3 9.7C123.3 11.6 124 13.7 126.2 13.7 127.6 13.7 128.5 12.9 129.1 11.7L133 12.3C132 15.3 129.4 17 126.2 17 121.6 17 118.7 13.7 118.7 9.1 118.7 4.6 121.1 1 126 1 130.9 1 133.1 4.6 133.1 9.2L133.1 9.7 123.3 9.7 123.3 9.7ZM129.1 7C128.9 5.5 127.9 4 126.3 4 124.5 4 123.6 5.5 123.4 7L129.1 7 129.1 7Z" fill="#FFCC00"/><path d="M141.8 5C141.2 4.5 140.4 4 139.6 4 138.9 4 138.2 4.5 138.2 5.3 138.2 6.4 139.7 6.7 141.2 7.4 142.8 8 144.3 9.1 144.3 11.7 144.3 15 141.6 17 138.5 17 136.5 17 134.5 16.1 133.2 14.5L135.2 11.9C136 12.9 137.1 13.7 138.3 13.7 139.3 13.7 140 13 140 12.1 140 10.8 138.5 10.4 137 9.8 135.6 9.2 134 8.3 134 5.9 134 3 136 1 138.8 1 140.4 1 142.4 1.5 143.7 2.6L141.8 5 141.8 5Z" fill="#FFCC00"/><path d="M154.4 5C153.8 4.5 153 4 152.1 4 151.4 4 150.7 4.5 150.7 5.3 150.7 6.4 152.3 6.7 153.8 7.4 155.3 8 156.9 9.1 156.9 11.7 156.9 15 154.2 17 151 17 149 17 147.1 16.1 145.7 14.5L147.7 11.9C148.5 12.9 149.6 13.7 150.9 13.7 151.8 13.7 152.6 13 152.6 12.1 152.6 10.8 151.1 10.4 149.6 9.8 148.1 9.2 146.6 8.3 146.6 5.9 146.6 3 148.6 1 151.4 1 153 1 155 1.5 156.2 2.6L154.4 5 154.4 5Z" fill="#FFCC00"/></g></svg>